<svg width="765" height="776" viewBox="0 0 765 776" fill="none" xmlns="http://www.w3.org/2000/svg">
<g clip-path="url(#clip0_111_821)">
<path d="M52.1009 284.953C38.5955 285.499 27.7385 289.088 20.9555 291.879C18.1048 303.486 14.0309 321.525 10.5736 343.799C1.03085 405.235 -13.809 500.714 27.88 586.093C52.6064 636.74 88.22 665.405 114.392 686.476C261.537 804.918 445.872 772.967 463.917 769.549C501.603 762.411 563.206 745.485 630.026 700.318C600.033 665.708 570.04 631.087 540.047 596.477C552.794 603.423 571.415 614.596 591.956 631.087C615.449 649.955 622.808 660.824 636.94 662.24C646.21 663.17 664.881 660.683 692.307 624.161C764.049 528.631 764.98 406.094 764.98 406.094C765.252 369.886 761.846 206.692 636.94 98.0279C607.251 72.204 578.248 56.0161 557.343 46.1072C544.212 55.7633 527.168 69.4437 508.891 87.6438C503.21 93.2959 490.291 106.238 477.746 122.254C463.957 139.858 444.336 169.22 429.294 212.253C432.589 156.238 447.096 124.155 460.439 104.954C479.707 77.2293 482.507 63.3972 488.128 35.723C489.25 30.1821 489.775 26.2287 488.128 21.8809C485.044 13.7515 474.187 3.6606 401.616 1.11259C344.773 -0.889419 315.983 -1.61742 297.797 11.4967C274.042 28.625 262.022 59.2213 256.27 56.4913C252.924 54.9039 258.059 45.0657 252.813 39.181C244.069 29.3935 211.791 36.451 193.979 56.4913C185.72 65.7734 188.177 69.3021 180.14 77.2596C164.532 92.6993 150.127 84.5194 131.688 94.5699C112.845 104.833 117.718 118.907 86.7037 167.259C75.0582 185.408 75.4727 181.718 62.4828 201.869C38.5045 239.078 25.5651 259.705 31.3373 278.016C34.9866 289.583 44.5496 295.317 62.4828 305.711C131.243 345.539 165.634 365.427 166.301 364.558C172.245 356.742 118.587 282.283 52.1009 284.953Z" fill="#299034"/>
</g>
<defs>
<clipPath id="clip0_111_821">
<rect width="765" height="776" fill="white"/>
</clipPath>
</defs>
</svg>
