<svg width="106" height="112" viewBox="0 0 106 112" fill="none" xmlns="http://www.w3.org/2000/svg">
<path d="M88.2026 13.0275C106.76 29.1126 106.054 52.6397 105.846 56.7582C105.209 69.3085 100.203 78.5356 97.3924 83.5854C93.6841 90.2474 88.0095 100.446 76.4426 106.737C55.9408 117.887 33.4063 107.8 29.3967 106.002C23.872 103.528 8.62303 96.7009 2.56544 81.0126C-0.762987 72.4002 -0.00926428 64.4981 0.725924 56.7598C1.29585 50.7726 2.33531 40.9356 8.44386 30.3002C14.7331 19.3528 23.1971 13.1093 28.2909 9.35365C31.1173 7.27043 34.0766 5.08683 37.4792 3.47306C51.8509 -3.34028 73.5065 0.294944 88.2026 13.0275ZM95.0015 57.6786C98.5663 54.0557 98.435 49.0245 98.3099 45.919C97.7106 31.253 85.4719 20.8261 82.1373 17.9892C78.1354 14.5826 69.3981 7.3461 56.7763 6.59713C52.0455 6.31761 44.8048 5.8883 39.501 11.0076C35.3586 15.0088 32.6356 22.1649 35.0898 27.1777C36.6297 30.3233 39.3789 30.9256 52.7328 35.6295C70.3464 41.8359 71.8045 42.9864 72.9474 44.0813C80.1881 51.0274 78.2219 59.0855 84.3413 60.9865C88.1253 62.1586 92.5133 60.2066 95.0015 57.6786ZM89.4876 82.6681C90.7711 81.7199 94.8054 78.7286 94.2663 74.5838C93.8987 71.7547 91.5387 69.483 89.12 68.7032C84.3413 67.1636 79.6707 71.5477 77.7261 74.2162C76.0534 76.5126 73.5436 81.4589 75.5206 84.1382C77.8219 87.2546 85.1475 85.8832 89.4876 82.6681Z" fill="#C5E2E9"/>
<path d="M98.3099 45.919C98.435 49.0245 98.5678 54.0557 95.0015 57.6786C92.5133 60.2066 88.1253 62.1585 84.3428 60.9864C78.2235 59.087 80.1896 51.0274 72.9489 44.0813C71.806 42.9864 70.3464 41.8359 52.7343 35.6295C39.382 30.9256 36.6328 30.3233 35.0914 27.1776C32.6356 22.1649 35.3601 15.0103 39.5025 11.0076C44.8064 5.88829 52.047 6.3176 56.7779 6.59711C69.3997 7.34608 78.1354 14.5826 82.1388 17.9892C85.4703 20.826 97.7106 31.2514 98.3099 45.919Z" fill="#A3F2F2"/>
<path d="M94.2663 74.5822C94.8069 78.7271 90.7711 81.7183 89.4876 82.6665C85.1475 85.8817 77.8219 87.253 75.5206 84.1367C73.5436 81.4573 76.0534 76.511 77.7261 74.2147C79.6707 71.5462 84.3413 67.162 89.12 68.7016C91.5387 69.4815 93.8987 71.7531 94.2663 74.5822Z" fill="#A3F2F2"/>
<path d="M33.076 52.076V53.03C33.076 55.244 31.384 57.17 28.972 57.944L29.71 59.114C32.428 58.214 34.3 55.892 34.3 53.03V52.076H33.076ZM33.346 52.076V53.03C33.346 55.748 35.164 57.98 37.864 58.844L38.566 57.674C36.19 56.936 34.57 55.1 34.57 53.03V52.076H33.346ZM29.458 51.626V52.868H38.17V51.626H29.458ZM33.076 58.43V62.21H34.57V58.43H33.076ZM40.96 56.882V58.142H43.966V56.882H40.96ZM39.898 50.132V66.404H41.392V50.132H39.898ZM28.9 63.002C31.708 63.02 35.524 63.002 38.998 62.39L38.872 61.274C35.524 61.76 31.564 61.76 28.702 61.76L28.9 63.002ZM45.4406 59.456V60.68H60.2006V59.456H45.4406ZM52.0286 60.212V66.404H53.5046V60.212H52.0286ZM52.7846 50.78C49.4006 50.78 47.0966 52.166 47.0966 54.344C47.0966 56.522 49.4006 57.908 52.7846 57.908C56.1866 57.908 58.4726 56.522 58.4726 54.344C58.4726 52.166 56.1866 50.78 52.7846 50.78ZM52.7846 51.986C55.2686 51.986 56.9426 52.904 56.9426 54.344C56.9426 55.784 55.2686 56.702 52.7846 56.702C50.3006 56.702 48.6086 55.784 48.6086 54.344C48.6086 52.904 50.3006 51.986 52.7846 51.986ZM69.7752 52.76V53.984H74.4732V52.76H69.7752ZM69.7752 56V57.206H74.5092V56H69.7752ZM73.8972 50.132V59.762H75.3912V50.132H73.8972ZM62.7552 51.356V58.592H70.1892V51.356H62.7552ZM68.7132 52.562V57.404H64.2132V52.562H68.7132ZM70.0452 60.23C66.6792 60.23 64.6092 61.364 64.6092 63.308C64.6092 65.252 66.6792 66.368 70.0452 66.368C73.3932 66.368 75.4632 65.252 75.4632 63.308C75.4632 61.364 73.3932 60.23 70.0452 60.23ZM70.0452 61.418C72.4932 61.418 73.9872 62.12 73.9872 63.308C73.9872 64.496 72.4932 65.198 70.0452 65.198C67.5972 65.198 66.1032 64.496 66.1032 63.308C66.1032 62.12 67.5972 61.418 70.0452 61.418Z" fill="black"/>
</svg>
