<svg width="496" height="423" viewBox="0 0 496 423" fill="none" xmlns="http://www.w3.org/2000/svg">
<path d="M260.227 11.0909H265.273L277.136 40.0682H277.545L289.409 11.0909H294.455V46H290.5V19.4773H290.159L279.25 46H275.432L264.523 19.4773H264.182V46H260.227V11.0909ZM304.976 55.8182C304.294 55.8182 303.686 55.7614 303.152 55.6477C302.618 55.5455 302.249 55.4432 302.044 55.3409L303.067 51.7955C304.044 52.0455 304.908 52.1364 305.658 52.0682C306.408 52 307.072 51.6648 307.652 51.0625C308.243 50.4716 308.783 49.5114 309.271 48.1818L310.021 46.1364L300.339 19.8182H304.703L311.93 40.6818H312.203L319.43 19.8182H323.794L312.68 49.8182C312.18 51.1705 311.561 52.2898 310.822 53.1761C310.084 54.0739 309.226 54.7386 308.249 55.1705C307.283 55.6023 306.192 55.8182 304.976 55.8182ZM347.649 25.6818L344.036 26.7045C343.808 26.1023 343.473 25.517 343.03 24.9489C342.598 24.3693 342.007 23.892 341.257 23.517C340.507 23.142 339.547 22.9545 338.376 22.9545C336.774 22.9545 335.439 23.3239 334.371 24.0625C333.314 24.7898 332.786 25.7159 332.786 26.8409C332.786 27.8409 333.149 28.6307 333.876 29.2102C334.604 29.7898 335.74 30.2727 337.286 30.6591L341.172 31.6136C343.513 32.1818 345.257 33.0511 346.405 34.2216C347.553 35.3807 348.126 36.875 348.126 38.7045C348.126 40.2045 347.695 41.5455 346.831 42.7273C345.979 43.9091 344.786 44.8409 343.251 45.5227C341.717 46.2045 339.933 46.5455 337.899 46.5455C335.229 46.5455 333.018 45.9659 331.268 44.8068C329.518 43.6477 328.411 41.9545 327.945 39.7273L331.763 38.7727C332.126 40.1818 332.814 41.2386 333.825 41.9432C334.848 42.6477 336.183 43 337.831 43C339.706 43 341.195 42.6023 342.297 41.8068C343.411 41 343.967 40.0341 343.967 38.9091C343.967 38 343.649 37.2386 343.013 36.625C342.376 36 341.399 35.5341 340.081 35.2273L335.717 34.2045C333.32 33.6364 331.558 32.7557 330.433 31.5625C329.32 30.358 328.763 28.8523 328.763 27.0455C328.763 25.5682 329.178 24.2614 330.007 23.125C330.848 21.9886 331.99 21.0966 333.433 20.4489C334.888 19.8011 336.536 19.4773 338.376 19.4773C340.967 19.4773 343.001 20.0455 344.479 21.1818C345.967 22.3182 347.024 23.8182 347.649 25.6818ZM365.159 46.5455C362.636 46.5455 360.46 45.9886 358.631 44.875C356.812 43.75 355.409 42.1818 354.42 40.1705C353.443 38.1477 352.955 35.7955 352.955 33.1136C352.955 30.4318 353.443 28.0682 354.42 26.0227C355.409 23.9659 356.784 22.3636 358.545 21.2159C360.318 20.0568 362.386 19.4773 364.75 19.4773C366.114 19.4773 367.46 19.7045 368.79 20.1591C370.119 20.6136 371.33 21.3523 372.42 22.375C373.511 23.3864 374.381 24.7273 375.028 26.3977C375.676 28.0682 376 30.125 376 32.5682V34.2727H355.818V30.7955H371.909C371.909 29.3182 371.614 28 371.023 26.8409C370.443 25.6818 369.614 24.767 368.534 24.0966C367.466 23.4261 366.205 23.0909 364.75 23.0909C363.148 23.0909 361.761 23.4886 360.591 24.2841C359.432 25.0682 358.54 26.0909 357.915 27.3523C357.29 28.6136 356.977 29.9659 356.977 31.4091V33.7273C356.977 35.7045 357.318 37.3807 358 38.7557C358.693 40.1193 359.653 41.1591 360.881 41.875C362.108 42.5795 363.534 42.9318 365.159 42.9318C366.216 42.9318 367.17 42.7841 368.023 42.4886C368.886 42.1818 369.631 41.7273 370.256 41.125C370.881 40.5114 371.364 39.75 371.705 38.8409L375.591 39.9318C375.182 41.25 374.494 42.4091 373.528 43.4091C372.563 44.3977 371.369 45.1705 369.949 45.7273C368.528 46.2727 366.932 46.5455 365.159 46.5455ZM386.142 11.0909V46H382.119V11.0909H386.142ZM405.169 19.8182V23.2273H391.055V19.8182H405.169ZM395.283 46V16.2045C395.283 14.7045 395.635 13.4545 396.339 12.4545C397.044 11.4545 397.959 10.7045 399.084 10.2045C400.209 9.70454 401.396 9.45454 402.646 9.45454C403.635 9.45454 404.442 9.53409 405.067 9.69318C405.692 9.85227 406.158 10 406.464 10.1364L405.305 13.6136C405.101 13.5455 404.817 13.4602 404.453 13.358C404.101 13.2557 403.635 13.2045 403.055 13.2045C401.726 13.2045 400.766 13.5398 400.175 14.2102C399.595 14.8807 399.305 15.8636 399.305 17.1591V46H395.283Z" fill="black"/>
<path d="M434.996 37.612V38.872H438.002V37.612H434.996ZM433.898 31.114V47.404H435.41V31.114H433.898ZM423.53 32.716V42.796H425.024V32.716H423.53ZM423.53 42.022V43.282H424.826C427.292 43.282 429.794 43.12 432.566 42.544L432.386 41.302C429.704 41.86 427.238 42.022 424.826 42.022H423.53ZM449.946 32.248V33.49C449.946 36.262 446.886 38.746 444.024 39.286L444.69 40.528C447.948 39.79 451.242 37.036 451.242 33.49V32.248H449.946ZM450.216 32.248V33.49C450.216 37.054 453.528 39.79 456.768 40.528L457.434 39.286C454.59 38.746 451.512 36.28 451.512 33.49V32.248H450.216ZM443.43 43.984V45.208H458.172V43.984H443.43ZM466.109 32.248V33.49C466.109 36.262 463.049 38.746 460.187 39.286L460.853 40.528C464.111 39.79 467.405 37.036 467.405 33.49V32.248H466.109ZM466.379 32.248V33.49C466.379 37.054 469.691 39.79 472.931 40.528L473.597 39.286C470.753 38.746 467.675 36.28 467.675 33.49V32.248H466.379ZM459.593 43.984V45.208H474.335V43.984H459.593ZM475.755 44.164V45.406H490.497V44.164H475.755ZM482.343 40.672V44.686H483.837V40.672H482.343ZM477.537 32.338V33.544H487.203V36.064H477.591V40.528H479.067V37.27H488.679V32.338H477.537ZM477.591 39.898V41.122H489.057V39.898H477.591Z" fill="black"/>
<path d="M100.276 135.132V151.404H101.716V135.132H100.276ZM97.5398 141.756V142.98H100.672V141.756H97.5398ZM96.5858 135.492V150.576H97.9898V135.492H96.5858ZM88.7018 137.094V146.49H90.1958V137.094H88.7018ZM88.7018 145.896V147.192H89.7458C91.4918 147.192 93.3638 147.102 95.5778 146.67L95.4158 145.374C93.2918 145.788 91.4198 145.896 89.7458 145.896H88.7018ZM115.088 135.114V151.404H116.6V135.114H115.088ZM116.186 141.72V142.962H119.192V141.72H116.186ZM110.93 136.878V137.112C110.93 141.414 108.68 144.888 104.18 147.174L105.008 148.326C110.264 145.68 112.388 141.504 112.388 136.878H110.93ZM104.936 136.878V138.102H111.704V136.878H104.936ZM133.297 139.344V140.586H136.969V139.344H133.297ZM136.501 135.132V144.834H137.995V135.132H136.501ZM132.649 145.32C129.283 145.32 127.213 146.454 127.213 148.362C127.213 150.288 129.283 151.386 132.649 151.386C135.997 151.386 138.067 150.288 138.067 148.362C138.067 146.454 135.997 145.32 132.649 145.32ZM132.649 146.49C135.097 146.49 136.591 147.174 136.591 148.362C136.591 149.532 135.097 150.216 132.649 150.216C130.201 150.216 128.707 149.532 128.707 148.362C128.707 147.174 130.201 146.49 132.649 146.49ZM128.761 136.77V138.084C128.761 140.424 127.087 142.602 124.675 143.484L125.449 144.672C128.149 143.664 129.985 141.09 129.985 138.084V136.77H128.761ZM129.049 136.77V138.084C129.049 140.82 130.795 143.268 133.441 144.222L134.197 143.034C131.839 142.206 130.255 140.19 130.255 138.084V136.77H129.049ZM125.125 136.32V137.544H133.819V136.32H125.125ZM151.907 135.15V147.354H153.401V135.15H151.907ZM152.933 140.478V141.738H155.813V140.478H152.933ZM140.819 137.112V138.318H150.431V137.112H140.819ZM145.625 139.218C143.303 139.218 141.719 140.424 141.719 142.26C141.719 144.078 143.303 145.284 145.625 145.284C147.929 145.284 149.513 144.078 149.513 142.26C149.513 140.424 147.929 139.218 145.625 139.218ZM145.625 140.388C147.083 140.388 148.091 141.126 148.091 142.26C148.091 143.376 147.083 144.114 145.625 144.114C144.149 144.114 143.141 143.376 143.141 142.26C143.141 141.126 144.149 140.388 145.625 140.388ZM144.869 135.132V137.742H146.363V135.132H144.869ZM143.267 149.82V151.044H154.139V149.82H143.267ZM143.267 146.382V150.342H144.761V146.382H143.267ZM173.41 141.612V142.872H176.416V141.612H173.41ZM172.312 135.114V151.404H173.824V135.114H172.312ZM161.944 136.716V146.796H163.438V136.716H161.944ZM161.944 146.022V147.282H163.24C165.706 147.282 168.208 147.12 170.98 146.544L170.8 145.302C168.118 145.86 165.652 146.022 163.24 146.022H161.944ZM42.5512 171.347V176.105H43.6302V171.347H42.5512ZM46.7242 171.347V176.105H47.8032V171.347H46.7242ZM39.8472 171.061V171.945H50.5072V171.061H39.8472ZM41.1992 164.899V169.475H49.1292V164.899H41.1992ZM48.0762 165.757V168.617H42.2652V165.757H48.0762ZM54.6402 165.939V167.85C54.6402 169.878 53.2232 172.088 51.5202 172.894L52.1442 173.752C54.0162 172.829 55.5112 170.333 55.5112 167.85V165.939H54.6402ZM54.8482 165.939V167.85C54.8482 170.294 56.3562 172.582 58.2542 173.466L58.8652 172.608C57.1362 171.867 55.7192 169.839 55.7192 167.85V165.939H54.8482ZM51.9102 165.458V166.368H58.4752V165.458H51.9102ZM60.0612 164.262V176.014H61.1402V164.262H60.0612ZM69.2641 167.083V167.954H71.9811V167.083H69.2641ZM68.1071 164.834V165.302C68.1071 167.421 66.7811 169.046 63.5181 169.878L63.9341 170.723C67.5481 169.774 69.2381 167.785 69.2381 164.834H68.1071ZM64.0641 164.834V165.692H68.8091V164.834H64.0641ZM68.1721 166.823L63.4921 167.031L63.6611 167.902L68.1721 167.564V166.823ZM71.7861 164.262V170.333H72.8651V164.262H71.7861ZM65.2991 170.879V171.737H71.7991V172.894H65.3381V175.494H66.3911V173.713H72.8651V170.879H65.2991ZM65.3381 175V175.858H73.2551V175H65.3381ZM78.8654 176.967V165.19H81.8985V166.284H80.1857V175.873H81.8985V176.967H78.8654ZM87.9516 166.875V167.772H91.5006V166.875H87.9516ZM87.9516 170.593V171.49H91.5006V170.593H87.9516ZM85.7936 165.159C84.0776 165.159 82.8686 166.758 82.8686 169.254C82.8686 171.763 84.0776 173.362 85.7936 173.362C87.4966 173.362 88.7186 171.763 88.7186 169.254C88.7186 166.758 87.4966 165.159 85.7936 165.159ZM85.7936 166.134C86.9246 166.134 87.7046 167.356 87.7046 169.254C87.7046 171.165 86.9246 172.413 85.7936 172.413C84.6626 172.413 83.8826 171.165 83.8826 169.254C83.8826 167.356 84.6626 166.134 85.7936 166.134ZM91.2666 164.249V176.027H92.3326V164.249H91.2666ZM102.875 164.275V172.881H103.967V164.275H102.875ZM96.4136 174.87V175.754H104.318V174.87H96.4136ZM96.4136 172.088V175.286H97.4796V172.088H96.4136ZM97.3886 164.912V166.108C97.3886 167.928 96.2186 169.644 94.4506 170.333L95.0096 171.204C96.9856 170.398 98.2856 168.396 98.2856 166.108V164.912H97.3886ZM97.5836 164.912V166.108C97.5836 168.344 98.8836 170.229 100.834 170.983L101.406 170.112C99.6506 169.475 98.4676 167.876 98.4676 166.108V164.912H97.5836ZM114.548 164.262V170.918H115.627V164.262H114.548ZM106.735 164.938V169.722H107.801V164.938H106.735ZM106.735 169.124V170.034H107.684C109.712 170.034 111.48 169.904 113.43 169.488L113.274 168.604C111.402 168.994 109.647 169.124 107.684 169.124H106.735ZM108.035 171.49V175.858H115.627V171.49H108.035ZM114.574 172.348V174.974H109.088V172.348H114.574ZM126.208 164.249V176.027H127.287V164.249H126.208ZM121.086 165.159C119.357 165.159 118.109 166.758 118.109 169.254C118.109 171.763 119.357 173.362 121.086 173.362C122.828 173.362 124.076 171.763 124.076 169.254C124.076 166.758 122.828 165.159 121.086 165.159ZM121.086 166.134C122.243 166.134 123.036 167.356 123.036 169.254C123.036 171.165 122.243 172.413 121.086 172.413C119.942 172.413 119.136 171.165 119.136 169.254C119.136 167.356 119.942 166.134 121.086 166.134ZM132.507 173.622V174.519H143.154V173.622H132.507ZM137.265 170.814V173.882H138.344V170.814H137.265ZM133.755 165.094V171.1H141.88V165.094H140.814V167.187H134.821V165.094H133.755ZM134.821 168.058H140.814V170.216H134.821V168.058ZM145.298 165.432V166.329H152.864V165.432H145.298ZM144.18 173.479V174.376H154.801V173.479H144.18ZM148.301 169.28V173.921H149.38V169.28H148.301ZM152.461 165.432V166.602C152.461 168.006 152.461 169.657 152.019 171.906L153.098 172.049C153.527 169.67 153.527 168.058 153.527 166.602V165.432H152.461ZM163.557 167.525V168.396H166.17V167.525H163.557ZM163.466 170.476V171.347H166.144V170.476H163.466ZM167.951 164.262V176.014H168.991V164.262H167.951ZM165.598 164.561V175.416H166.612V164.561H165.598ZM162.972 165.744V165.939C162.972 168.708 161.737 171.048 158.994 172.712L159.618 173.479C162.777 171.594 164.012 168.825 164.012 165.744H162.972ZM159.514 165.744V166.628H163.401V165.744H159.514ZM179.26 164.249V176.027H180.352V164.249H179.26ZM176.725 166.81V167.707H179.845V166.81H176.725ZM176.725 169.735V170.645H179.845V169.735H176.725ZM173.709 165.276V167.369C173.709 169.553 172.383 171.815 170.654 172.673L171.343 173.531C173.202 172.53 174.58 170.008 174.58 167.369V165.276H173.709ZM173.917 165.276V167.369C173.917 169.956 175.282 172.387 177.167 173.362L177.817 172.491C176.114 171.685 174.788 169.527 174.788 167.369V165.276H173.917ZM185.133 165.19V176.967H182.1V175.873H183.813V166.284H182.1V165.19H185.133ZM199.066 164.262V176.014H200.106V164.262H199.066ZM197.077 168.968V169.865H199.339V168.968H197.077ZM196.401 164.522V175.416H197.415V164.522H196.401ZM190.551 172.218V173.115H191.318C193.086 173.115 194.269 173.063 195.673 172.764L195.569 171.867C194.204 172.153 193.034 172.218 191.318 172.218H190.551ZM190.551 165.692V172.621H191.617V166.576H194.919V165.692H190.551ZM204.681 165.276V167.382C204.681 169.527 203.342 171.789 201.639 172.647L202.302 173.505C204.161 172.517 205.565 169.982 205.565 167.382V165.276H204.681ZM204.876 165.276V167.382C204.876 169.904 206.241 172.309 208.061 173.284L208.724 172.426C207.06 171.594 205.747 169.449 205.747 167.382V165.276H204.876ZM209.751 164.262V176.014H210.843V164.262H209.751ZM210.583 169.02V169.93H212.767V169.02H210.583ZM218.239 170.138V172.192H219.318V170.138H218.239ZM213.468 169.761V170.632H224.089V169.761H213.468ZM218.772 171.867C216.25 171.867 214.742 172.608 214.742 173.934C214.742 175.247 216.25 175.988 218.772 175.988C221.294 175.988 222.802 175.247 222.802 173.934C222.802 172.608 221.294 171.867 218.772 171.867ZM218.772 172.699C220.618 172.699 221.71 173.141 221.71 173.934C221.71 174.714 220.618 175.156 218.772 175.156C216.939 175.156 215.834 174.714 215.834 173.934C215.834 173.141 216.939 172.699 218.772 172.699ZM218.083 165.224V165.575C218.083 166.914 216.172 167.967 214.066 168.188L214.456 169.046C216.887 168.747 219.045 167.473 219.045 165.575V165.224H218.083ZM218.538 165.224V165.575C218.538 167.473 220.683 168.747 223.114 169.046L223.504 168.188C221.398 167.967 219.487 166.914 219.487 165.575V165.224H218.538ZM214.443 164.795V165.666H223.14V164.795H214.443ZM1.32861 237V235.636C1.32861 235.234 1.40436 234.81 1.55588 234.365C1.70739 233.92 1.9181 233.494 2.18798 233.087C2.45787 232.679 2.7751 232.331 3.13969 232.043L4.19082 232.795C3.902 233.217 3.65578 233.657 3.45219 234.116C3.24859 234.576 3.14679 235.075 3.14679 235.615V237H1.32861ZM4.95077 237V235.636C4.95077 235.234 5.02652 234.81 5.17804 234.365C5.32955 233.92 5.54025 233.494 5.81014 233.087C6.08003 232.679 6.39726 232.331 6.76185 232.043L7.81298 232.795C7.52416 233.217 7.27794 233.657 7.07435 234.116C6.87075 234.576 6.76895 235.075 6.76895 235.615V237H4.95077ZM22.2107 237.68V239.08H25.5507V237.68H22.2107ZM20.9907 230.46V248.56H22.6707V230.46H20.9907ZM9.47071 232.24V243.44H11.1307V232.24H9.47071ZM9.47071 242.58V243.98H10.9107C13.6507 243.98 16.4307 243.8 19.5107 243.16L19.3107 241.78C16.3307 242.4 13.5907 242.58 10.9107 242.58H9.47071ZM28.9291 235.9V237.26H41.2091V235.9H28.9291ZM26.7091 239.68V241.04H43.1091V239.68H26.7091ZM28.9291 231.14V236.58H30.5691V231.14H28.9291ZM28.8091 246.76V248.12H41.3091V246.76H28.8091ZM28.8091 242.84V247.12H30.4491V242.84H28.8091ZM56.8606 239.02V241.8H58.5006V239.02H56.8606ZM49.5206 238.1V239.44H65.8606V238.1H49.5206ZM51.6406 231.08V236.58H63.7406V231.08H51.6406ZM62.1206 232.4V235.26H53.2806V232.4H62.1206ZM51.5006 241.2V242.48H62.1406V244.06H51.5406V247.46H53.1806V245.26H63.7806V241.2H51.5006ZM51.5406 247.06V248.36H64.3206V247.06H51.5406ZM80.639 230.48V240.18H82.319V230.48H80.639ZM70.659 241.08V248.32H82.319V241.08H80.679V243.28H72.299V241.08H70.659ZM72.299 244.6H80.679V246.98H72.299V244.6ZM72.619 231.34C69.879 231.34 67.899 233.04 67.899 235.5C67.899 237.98 69.879 239.68 72.619 239.68C75.359 239.68 77.319 237.98 77.319 235.5C77.319 233.04 75.359 231.34 72.619 231.34ZM72.619 232.72C74.419 232.72 75.719 233.86 75.719 235.5C75.719 237.14 74.419 238.28 72.619 238.28C70.819 238.28 69.519 237.14 69.519 235.5C69.519 233.86 70.819 232.72 72.619 232.72ZM98.5974 230.48V248.56H100.257V230.48H98.5974ZM86.5974 232.24V243.44H88.2374V232.24H86.5974ZM86.5974 242.46V243.9H88.0774C90.9374 243.9 93.7974 243.68 96.9374 243.04L96.7374 241.62C93.6774 242.26 90.8174 242.46 88.0774 242.46H86.5974ZM115.636 230.46V248.58H117.316V230.46H115.636ZM116.916 237.6V239H120.276V237.6H116.916ZM104.176 242.68V244.08H105.596C108.996 244.08 111.376 243.98 114.156 243.46L113.976 242.06C111.276 242.56 108.936 242.68 105.596 242.68H104.176ZM104.176 232.22V243.3H105.816V233.58H112.576V232.22H104.176ZM127.027 233.24V234.62H141.707V233.24H127.027ZM126.227 245V246.38H142.607V245H126.227ZM134.367 235.78C130.747 235.78 128.467 237.12 128.467 239.36C128.467 241.6 130.747 242.92 134.367 242.92C138.007 242.92 140.287 241.6 140.287 239.36C140.287 237.12 138.007 235.78 134.367 235.78ZM134.367 237.14C136.987 237.14 138.627 237.98 138.627 239.36C138.627 240.74 136.987 241.58 134.367 241.58C131.767 241.58 130.127 240.74 130.127 239.36C130.127 237.98 131.767 237.14 134.367 237.14ZM133.567 230.8V234.02H135.207V230.8H133.567ZM144.186 244.9V246.3H160.566V244.9H144.186ZM146.166 231.86V233.22H156.906V236.02H146.226V240.96H147.866V237.34H158.546V231.86H146.166ZM146.226 240.26V241.62H158.966V240.26H146.226ZM164.344 235.9V237.26H176.624V235.9H164.344ZM162.124 239.68V241.04H178.524V239.68H162.124ZM164.344 231.14V236.58H165.984V231.14H164.344ZM164.224 246.76V248.12H176.724V246.76H164.224ZM164.224 242.84V247.12H165.864V242.84H164.224ZM192.276 239.02V241.8H193.916V239.02H192.276ZM184.936 238.1V239.44H201.276V238.1H184.936ZM187.056 231.08V236.58H199.156V231.08H187.056ZM197.536 232.4V235.26H188.696V232.4H197.536ZM186.916 241.2V242.48H197.556V244.06H186.956V247.46H188.596V245.26H199.196V241.2H186.916ZM186.956 247.06V248.36H199.736V247.06H186.956ZM216.054 230.48V240.18H217.734V230.48H216.054ZM206.074 241.08V248.32H217.734V241.08H216.094V243.28H207.714V241.08H206.074ZM207.714 244.6H216.094V246.98H207.714V244.6ZM208.034 231.34C205.294 231.34 203.314 233.04 203.314 235.5C203.314 237.98 205.294 239.68 208.034 239.68C210.774 239.68 212.734 237.98 212.734 235.5C212.734 233.04 210.774 231.34 208.034 231.34ZM208.034 232.72C209.834 232.72 211.134 233.86 211.134 235.5C211.134 237.14 209.834 238.28 208.034 238.28C206.234 238.28 204.934 237.14 204.934 235.5C204.934 233.86 206.234 232.72 208.034 232.72ZM234.012 230.48V248.56H235.672V230.48H234.012ZM222.012 232.24V243.44H223.652V232.24H222.012ZM222.012 242.46V243.9H223.492C226.352 243.9 229.212 243.68 232.352 243.04L232.152 241.62C229.092 242.26 226.232 242.46 223.492 242.46H222.012ZM251.051 230.46V248.58H252.731V230.46H251.051ZM252.331 237.6V239H255.691V237.6H252.331ZM239.591 242.68V244.08H241.011C244.411 244.08 246.791 243.98 249.571 243.46L249.391 242.06C246.691 242.56 244.351 242.68 241.011 242.68H239.591ZM239.591 232.22V243.3H241.231V233.58H247.991V232.22H239.591ZM259.042 232.455V233.818C259.042 234.221 258.966 234.644 258.815 235.089C258.668 235.53 258.46 235.954 258.19 236.361C257.92 236.768 257.603 237.118 257.238 237.412L256.187 236.659C256.466 236.252 256.708 235.819 256.911 235.359C257.12 234.9 257.224 234.393 257.224 233.839V232.455H259.042ZM262.657 232.455V233.818C262.657 234.221 262.581 234.644 262.43 235.089C262.283 235.53 262.075 235.954 261.805 236.361C261.535 236.768 261.218 237.118 260.853 237.412L259.802 236.659C260.081 236.252 260.323 235.819 260.527 235.359C260.735 234.9 260.839 234.393 260.839 233.839V232.455H262.657Z" fill="black"/>
<path d="M126.814 305.414V307.36H127.962V305.414H126.814ZM121.676 304.77V305.708H133.114V304.77H121.676ZM123.16 299.856V303.706H131.63V299.856H123.16ZM130.496 300.78V302.782H124.308V300.78H130.496ZM123.062 306.94V307.836H130.51V308.942H123.09V311.322H124.238V309.782H131.658V306.94H123.062ZM123.09 311.042V311.952H132.036V311.042H123.09ZM143.515 299.422V312.106H144.663V299.422H143.515ZM140.785 304.504V305.47H143.851V304.504H140.785ZM137.481 302.446V303.524C137.481 305.708 136.137 307.864 134.275 308.76L134.933 309.656C136.935 308.662 138.405 306.198 138.405 303.524V302.446H137.481ZM137.705 302.446V303.524C137.705 306.114 139.189 308.48 141.219 309.418L141.863 308.522C140.001 307.668 138.615 305.61 138.615 303.524V302.446H137.705ZM134.625 301.634V302.572H141.429V301.634H134.625ZM137.467 299.66V302.152H138.629V299.66H137.467ZM148.973 307.57V311.924H157.233V307.57H148.973ZM156.099 308.494V310.986H150.107V308.494H156.099ZM156.071 299.45V306.87H157.233V299.45H156.071ZM153.719 302.264V303.216H156.449V302.264H153.719ZM147.349 305.414V306.366H148.315C150.499 306.366 152.095 306.31 154.069 306.002L153.971 305.05C152.053 305.358 150.457 305.414 148.315 305.414H147.349ZM147.321 300.08V301.018H151.787V302.712H147.349V306.114H148.497V303.608H152.935V300.08H147.321ZM97.9433 326.528V328.796C97.9433 331.106 96.5013 333.542 94.6673 334.466L95.3813 335.39C97.3833 334.326 98.8953 331.596 98.8953 328.796V326.528H97.9433ZM98.1533 326.528V328.796C98.1533 331.512 99.6233 334.102 101.583 335.152L102.297 334.228C100.505 333.332 99.0913 331.022 99.0913 328.796V326.528H98.1533ZM103.403 325.436V338.092H104.579V325.436H103.403ZM104.299 330.56V331.54H106.651V330.56H104.299ZM108.624 326.696V327.662H116.772V326.696H108.624ZM107.42 335.362V336.328H118.858V335.362H107.42ZM111.858 330.84V335.838H113.02V330.84H111.858ZM116.338 326.696V327.956C116.338 329.468 116.338 331.246 115.862 333.668L117.024 333.822C117.486 331.26 117.486 329.524 117.486 327.956V326.696H116.338ZM128.545 325.422V338.092H129.721V325.422H128.545ZM129.399 330.56V331.526H131.737V330.56H129.399ZM125.311 326.794V326.976C125.311 330.322 123.561 333.024 120.061 334.802L120.705 335.698C124.793 333.64 126.445 330.392 126.445 326.794H125.311ZM120.649 326.794V327.746H125.913V326.794H120.649ZM138.885 333.262V338.092H140.075V333.262H138.885ZM143.239 333.262V338.092H144.429V333.262H143.239ZM135.945 332.632V333.598H147.425V332.632H135.945ZM141.657 325.94C139.025 325.94 137.233 327.004 137.233 328.698C137.233 330.378 139.025 331.456 141.657 331.456C144.303 331.456 146.081 330.378 146.081 328.698C146.081 327.004 144.303 325.94 141.657 325.94ZM141.657 326.878C143.589 326.878 144.891 327.592 144.891 328.698C144.891 329.804 143.589 330.518 141.657 330.518C139.725 330.518 138.409 329.804 138.409 328.698C138.409 327.592 139.725 326.878 141.657 326.878ZM154.382 327.41V328.362H158.19V327.41H154.382ZM154.382 330.448V331.4H158.19V330.448H154.382ZM157.77 325.45V334.802H158.932V325.45H157.77ZM150.854 336.86V337.812H159.282V336.86H150.854ZM150.854 333.836V337.28H152.016V333.836H150.854ZM151.974 326.248C150.112 326.248 148.712 327.55 148.712 329.412C148.712 331.274 150.112 332.576 151.974 332.576C153.836 332.576 155.236 331.274 155.236 329.412C155.236 327.55 153.836 326.248 151.974 326.248ZM151.974 327.27C153.206 327.27 154.13 328.166 154.13 329.412C154.13 330.672 153.206 331.568 151.974 331.568C150.742 331.568 149.832 330.672 149.832 329.412C149.832 328.166 150.742 327.27 151.974 327.27ZM169.669 325.436V338.092H170.831V325.436H169.669ZM170.551 330.63V331.61H172.903V330.63H170.551ZM161.031 327.452V328.404H168.493V327.452H161.031ZM164.811 329.454C163.033 329.454 161.731 330.658 161.731 332.366C161.731 334.074 163.033 335.278 164.811 335.278C166.603 335.278 167.891 334.074 167.891 332.366C167.891 330.658 166.603 329.454 164.811 329.454ZM164.811 330.42C165.959 330.42 166.785 331.218 166.785 332.366C166.785 333.5 165.959 334.312 164.811 334.312C163.663 334.312 162.837 333.5 162.837 332.366C162.837 331.218 163.663 330.42 164.811 330.42ZM164.209 325.59V327.886H165.371V325.59H164.209ZM174.876 326.696V327.662H183.024V326.696H174.876ZM173.672 335.362V336.328H185.11V335.362H173.672ZM178.11 330.84V335.838H179.272V330.84H178.11ZM182.59 326.696V327.956C182.59 329.468 182.59 331.246 182.114 333.668L183.276 333.822C183.738 331.26 183.738 329.524 183.738 327.956V326.696H182.59ZM70.6549 352.22V353.914C70.6549 355.342 69.6609 356.98 67.9949 357.708L68.6249 358.618C70.4869 357.792 71.5789 355.804 71.5789 353.914V352.22H70.6549ZM70.8369 352.22V353.914C70.8369 355.776 71.8869 357.526 73.7069 358.254L74.3369 357.372C72.7129 356.742 71.7609 355.314 71.7609 353.914V352.22H70.8369ZM77.5569 351.45V359.248H78.6629V351.45H77.5569ZM75.5409 354.824V355.776H77.9349V354.824H75.5409ZM74.8409 351.688V358.842H75.9469V351.688H74.8409ZM74.5049 359.528C71.8869 359.528 70.2909 360.368 70.2909 361.81C70.2909 363.238 71.8869 364.064 74.5049 364.064C77.1089 364.064 78.7329 363.238 78.7329 361.81C78.7329 360.368 77.1089 359.528 74.5049 359.528ZM74.5049 360.438C76.4089 360.438 77.5709 360.942 77.5709 361.81C77.5709 362.664 76.4089 363.168 74.5049 363.168C72.6009 363.168 71.4249 362.664 71.4249 361.81C71.4249 360.942 72.6009 360.438 74.5049 360.438ZM86.6138 353.48V354.432H90.2678V353.48H86.6138ZM86.6138 356V356.938H90.2958V356H86.6138ZM89.8198 351.436V358.926H90.9818V351.436H89.8198ZM81.1538 352.388V358.016H86.9358V352.388H81.1538ZM85.7878 353.326V357.092H82.2878V353.326H85.7878ZM86.8238 359.29C84.2058 359.29 82.5958 360.172 82.5958 361.684C82.5958 363.196 84.2058 364.064 86.8238 364.064C89.4278 364.064 91.0378 363.196 91.0378 361.684C91.0378 360.172 89.4278 359.29 86.8238 359.29ZM86.8238 360.214C88.7278 360.214 89.8898 360.76 89.8898 361.684C89.8898 362.608 88.7278 363.154 86.8238 363.154C84.9198 363.154 83.7578 362.608 83.7578 361.684C83.7578 360.76 84.9198 360.214 86.8238 360.214ZM102.335 351.422V364.106H103.497V351.422H102.335ZM96.8188 352.402C94.9568 352.402 93.6128 354.124 93.6128 356.812C93.6128 359.514 94.9568 361.236 96.8188 361.236C98.6948 361.236 100.039 359.514 100.039 356.812C100.039 354.124 98.6948 352.402 96.8188 352.402ZM96.8188 353.452C98.0648 353.452 98.9188 354.768 98.9188 356.812C98.9188 358.87 98.0648 360.214 96.8188 360.214C95.5868 360.214 94.7188 358.87 94.7188 356.812C94.7188 354.768 95.5868 353.452 96.8188 353.452ZM112.213 352.528V354.796C112.213 357.106 110.771 359.542 108.937 360.466L109.651 361.39C111.653 360.326 113.165 357.596 113.165 354.796V352.528H112.213ZM112.423 352.528V354.796C112.423 357.512 113.893 360.102 115.853 361.152L116.567 360.228C114.775 359.332 113.361 357.022 113.361 354.796V352.528H112.423ZM117.673 351.436V364.092H118.849V351.436H117.673ZM118.569 356.56V357.54H120.921V356.56H118.569ZM123.23 355.23V356.182H131.826V355.23H123.23ZM121.676 357.876V358.828H133.156V357.876H121.676ZM123.23 351.898V355.706H124.378V351.898H123.23ZM123.146 362.832V363.784H131.896V362.832H123.146ZM123.146 360.088V363.084H124.294V360.088H123.146ZM143.879 351.436V364.092H144.999V351.436H143.879ZM138.629 356.266V357.218H141.807V356.266H138.629ZM141.331 351.73V363.448H142.437V351.73H141.331ZM134.723 360.074V361.054H135.535C137.551 361.054 138.769 360.998 140.211 360.69L140.099 359.724C138.699 360.018 137.509 360.074 135.535 360.074H134.723ZM134.723 352.976V360.452H135.871V353.928H139.483V352.976H134.723ZM159.441 351.436V357.988H160.617V351.436H159.441ZM152.357 358.604V359.528H159.455V360.788H152.399V363.56H153.533V361.656H160.617V358.604H152.357ZM152.399 363.028V363.952H161.079V363.028H152.399ZM150.789 352.29V353.214H157.579V352.29H150.789ZM150.565 357.568C152.791 357.554 155.731 357.47 158.251 357.092L158.181 356.238C155.717 356.546 152.693 356.602 150.439 356.602L150.565 357.568ZM152.035 352.71V357.022H153.155V352.71H152.035ZM155.199 352.71V357.022H156.333V352.71H155.199ZM167.909 351.884V352.584C167.909 354.39 165.683 355.902 163.373 356.252L163.835 357.19C166.467 356.742 168.931 355.006 168.931 352.584V351.884H167.909ZM168.119 351.884V352.584C168.119 354.978 170.597 356.742 173.201 357.19L173.663 356.252C171.381 355.902 169.127 354.348 169.127 352.584V351.884H168.119ZM167.909 359.276V364.092H169.057V359.276H167.909ZM162.799 358.562V359.528H174.237V358.562H162.799ZM178.59 352.724V353.746C178.59 355.538 177.288 357.218 175.398 357.89L176 358.814C178.114 358.03 179.542 356.056 179.542 353.746V352.724H178.59ZM178.814 352.724V353.746C178.814 355.86 180.172 357.764 182.23 358.52L182.818 357.596C180.984 356.952 179.752 355.37 179.752 353.746V352.724H178.814ZM182.132 354.726V355.692H184.946V354.726H182.132ZM175.762 352.304V353.242H182.524V352.304H175.762ZM177.33 359.696V360.648H184.61V364.092H185.772V359.696H177.33ZM184.61 351.436V359.01H185.772V351.436H184.61ZM197.125 351.422V364.106H198.287V351.422H197.125ZM191.609 352.402C189.747 352.402 188.403 354.124 188.403 356.812C188.403 359.514 189.747 361.236 191.609 361.236C193.485 361.236 194.829 359.514 194.829 356.812C194.829 354.124 193.485 352.402 191.609 352.402ZM191.609 353.452C192.855 353.452 193.709 354.768 193.709 356.812C193.709 358.87 192.855 360.214 191.609 360.214C190.377 360.214 189.509 358.87 189.509 356.812C189.509 354.768 190.377 353.452 191.609 353.452ZM201.716 352.696V353.662H209.864V352.696H201.716ZM200.512 361.362V362.328H211.95V361.362H200.512ZM204.95 356.84V361.838H206.112V356.84H204.95ZM209.43 352.696V353.956C209.43 355.468 209.43 357.246 208.954 359.668L210.116 359.822C210.578 357.26 210.578 355.524 210.578 353.956V352.696H209.43ZM103.226 378.304V378.864C103.226 381.104 101.28 382.868 97.9617 383.666L98.4237 384.59C102.12 383.68 104.458 381.496 104.458 378.304H103.226ZM98.5917 378.304V379.242H103.87V378.304H98.5917ZM106.936 377.436V384.366H108.098V377.436H106.936ZM99.8517 385.066V386.004H108.294V385.066H99.8517ZM99.7257 388.958V389.896H108.434V388.958H99.7257ZM101.574 385.514V389.42H102.722V385.514H101.574ZM105.424 385.514V389.42H106.572V385.514H105.424ZM110.295 384.086V385.038H121.733V384.086H110.295ZM111.779 388.86V389.812H120.473V388.86H111.779ZM111.779 386.144V389.154H112.941V386.144H111.779ZM116.021 377.856C113.305 377.856 111.569 378.808 111.569 380.39C111.569 381.958 113.305 382.91 116.021 382.91C118.723 382.91 120.473 381.958 120.473 380.39C120.473 378.808 118.723 377.856 116.021 377.856ZM116.021 378.808C118.009 378.808 119.283 379.396 119.283 380.39C119.283 381.384 118.009 381.972 116.021 381.972C114.033 381.972 112.759 381.384 112.759 380.39C112.759 379.396 114.033 378.808 116.021 378.808ZM126.263 383.778V384.73H137.743V383.778H126.263ZM131.401 381.86V384.212H132.549V381.86H131.401ZM131.387 377.632V378.192C131.387 379.886 129.217 381.286 126.949 381.594L127.397 382.518C129.973 382.098 132.395 380.474 132.395 378.192V377.632H131.387ZM131.569 377.632V378.192C131.569 380.474 134.005 382.084 136.567 382.518L137.001 381.594C134.747 381.286 132.563 379.886 132.563 378.192V377.632H131.569ZM127.537 385.962V386.9H135.125V390.092H136.287V385.962H127.537ZM144.559 377.646C141.759 377.646 140.107 378.43 140.107 379.844C140.107 381.258 141.759 382.042 144.559 382.042C147.345 382.042 149.011 381.258 149.011 379.844C149.011 378.43 147.345 377.646 144.559 377.646ZM144.559 378.528C146.617 378.528 147.807 379.004 147.807 379.844C147.807 380.684 146.617 381.16 144.559 381.16C142.487 381.16 141.297 380.684 141.297 379.844C141.297 379.004 142.487 378.528 144.559 378.528ZM138.833 382.882V383.82H150.271V382.882H138.833ZM140.219 384.898V385.794H147.667V386.914H140.247V389.294H141.395V387.754H148.815V384.898H140.219ZM140.247 389.042V389.952H149.193V389.042H140.247ZM163.369 377.422V390.092H164.545V377.422H163.369ZM164.223 382.56V383.526H166.561V382.56H164.223ZM160.135 378.794V378.976C160.135 382.322 158.385 385.024 154.885 386.802L155.529 387.698C159.617 385.64 161.269 382.392 161.269 378.794H160.135ZM155.473 378.794V379.746H160.737V378.794H155.473ZM170.746 378.822V380.11C170.746 381.916 169.458 383.554 167.554 384.226L168.156 385.15C170.284 384.38 171.712 382.434 171.712 380.11V378.822H170.746ZM170.97 378.822V380.11C170.97 382.336 172.426 384.184 174.526 384.898L175.128 383.988C173.252 383.358 171.936 381.818 171.936 380.11V378.822H170.97ZM167.862 378.486V379.424H174.792V378.486H167.862ZM176.584 377.45V386.704H177.76V377.45H176.584ZM169.626 388.86V389.812H178.138V388.86H169.626ZM169.626 385.836V389.28H170.774V385.836H169.626ZM112.213 404.528V406.796C112.213 409.106 110.771 411.542 108.937 412.466L109.651 413.39C111.653 412.326 113.165 409.596 113.165 406.796V404.528H112.213ZM112.423 404.528V406.796C112.423 409.512 113.893 412.102 115.853 413.152L116.567 412.228C114.775 411.332 113.361 409.022 113.361 406.796V404.528H112.423ZM117.673 403.436V416.092H118.849V403.436H117.673ZM118.569 408.56V409.54H120.921V408.56H118.569ZM130.342 403.45V410.982H131.504V403.45H130.342ZM131.154 406.67V407.65H133.38V406.67H131.154ZM123.524 411.612V415.924H131.504V411.612H123.524ZM130.37 412.536V414.986H124.672V412.536H130.37ZM122.236 409.372V410.338H123.23C125.568 410.338 127.234 410.254 129.236 409.918L129.138 408.966C127.164 409.316 125.526 409.372 123.23 409.372H122.236ZM122.208 404.122V405.074H126.758V406.698H122.236V409.918H123.37V407.594H127.906V404.122H122.208ZM143.459 403.436V410.226H144.635V403.436H143.459ZM136.473 410.856V415.924H144.635V410.856H143.487V412.396H137.621V410.856H136.473ZM137.621 413.32H143.487V414.986H137.621V413.32ZM137.845 404.038C135.927 404.038 134.541 405.228 134.541 406.95C134.541 408.686 135.927 409.876 137.845 409.876C139.763 409.876 141.135 408.686 141.135 406.95C141.135 405.228 139.763 404.038 137.845 404.038ZM137.845 405.004C139.105 405.004 140.015 405.802 140.015 406.95C140.015 408.098 139.105 408.896 137.845 408.896C136.585 408.896 135.675 408.098 135.675 406.95C135.675 405.802 136.585 405.004 137.845 405.004ZM156.029 403.436V416.092H157.191V403.436H156.029ZM147.629 404.668V412.508H148.777V404.668H147.629ZM147.629 411.822V412.83H148.665C150.667 412.83 152.669 412.676 154.867 412.228L154.727 411.234C152.585 411.682 150.583 411.822 148.665 411.822H147.629ZM167.956 403.422V416.106H169.132V403.422H167.956ZM168.852 408.42V409.4H171.204V408.42H168.852ZM159.934 411.976V412.956H160.928C163.308 412.956 164.974 412.886 166.92 412.522L166.794 411.542C164.904 411.892 163.266 411.976 160.928 411.976H159.934ZM159.934 404.654V412.41H161.082V405.606H165.814V404.654H159.934Z" fill="black"/>
</svg>
