<svg width="518" height="525" viewBox="0 0 518 525" fill="none" xmlns="http://www.w3.org/2000/svg">
<path d="M35.279 192.783C26.1341 193.153 18.7826 195.581 14.1897 197.469C12.2594 205.322 9.50085 217.526 7.15987 232.596C0.698219 274.16 -9.3502 338.756 18.8785 396.519C35.6213 430.784 59.7361 450.177 77.4577 464.433C177.093 544.564 301.911 522.948 314.129 520.636C339.648 515.806 381.361 504.355 426.606 473.798C406.297 450.382 385.988 426.96 365.679 403.544C374.31 408.244 386.919 415.803 400.828 426.96C416.736 439.724 421.719 447.078 431.288 448.036C437.565 448.665 450.207 446.982 468.778 422.274C517.357 357.643 517.986 274.741 517.986 274.741C518.171 250.245 515.864 139.837 431.288 66.3201C411.184 48.8491 391.546 37.8972 377.391 31.1934C368.499 37.7262 356.958 46.9816 344.583 59.2948C340.736 63.1187 331.988 71.8748 323.493 82.7104C314.157 94.6199 300.871 114.485 290.685 143.599C292.917 105.702 302.739 83.9964 311.775 71.006C324.821 52.2489 326.717 42.8909 330.523 24.168C331.283 20.4193 331.639 17.7446 330.523 14.8031C328.435 9.30326 321.084 2.47628 271.944 0.752436C233.455 -0.602015 213.96 -1.09454 201.646 7.77779C185.56 19.3659 177.422 40.0657 173.527 38.2187C171.261 37.1447 174.738 30.4888 171.186 26.5075C165.265 19.8858 143.409 24.6605 131.348 38.2187C125.756 44.4984 127.419 46.8858 121.977 52.2694C111.409 62.7151 101.655 57.181 89.1695 63.9806C76.4104 70.9239 79.7097 80.4461 58.7093 113.158C50.8239 125.437 51.1046 122.94 42.3088 136.574C26.0725 161.747 17.311 175.702 21.2194 188.091C23.6905 195.916 30.1658 199.795 42.3088 206.827C88.8683 233.773 112.155 247.228 112.607 246.64C116.631 241.352 80.2984 190.977 35.279 192.783Z" fill="#299034"/>
</svg>
