<svg width="349" height="368" viewBox="0 0 349 368" fill="none" xmlns="http://www.w3.org/2000/svg">
<g opacity="0.94">
<path d="M289.837 42.5498C350.882 95.4622 348.56 172.855 347.874 186.403C345.781 227.687 329.315 258.04 320.068 274.651C307.869 296.566 289.202 330.114 251.153 350.81C183.711 387.487 109.584 354.304 96.3944 348.391C78.2207 340.253 28.0588 317.795 8.13228 266.188C-2.81665 237.857 -0.337261 211.864 2.08116 186.408C3.95594 166.713 7.37526 134.354 27.4695 99.3687C48.1581 63.3571 76.0004 42.819 92.7566 30.4647C102.054 23.6118 111.789 16.4288 122.982 11.1203C170.258 -11.2923 241.494 0.665848 289.837 42.5498ZM312.203 189.431C323.929 177.513 323.497 160.963 323.086 150.747C321.114 102.503 280.855 68.2034 269.885 58.8716C256.721 47.6653 227.98 23.8608 186.46 21.397C170.898 20.4775 147.08 19.0653 129.632 35.9053C116.006 49.0673 107.049 72.6077 115.122 89.0971C120.187 99.4449 129.231 101.426 173.159 116.9C231.099 137.316 235.895 141.1 239.655 144.702C263.474 167.551 257.006 194.058 277.136 200.312C289.583 204.167 304.018 197.746 312.203 189.431ZM294.065 271.634C298.287 268.515 311.557 258.675 309.784 245.041C308.575 235.734 300.812 228.262 292.855 225.696C277.136 220.631 261.772 235.053 255.375 243.831C249.873 251.385 241.616 267.656 248.12 276.47C255.69 286.721 279.788 282.21 294.065 271.634Z" fill="#C5E2E9"/>
<path d="M323.085 150.747C323.497 160.963 323.934 177.513 312.202 189.431C304.017 197.747 289.583 204.168 277.14 200.312C257.011 194.064 263.478 167.552 239.66 144.702C235.9 141.1 231.099 137.316 173.164 116.9C129.241 101.426 120.197 99.4451 115.127 89.0973C107.048 72.6079 116.011 49.0726 129.637 35.9054C147.084 19.0655 170.903 20.4777 186.465 21.3972C227.984 23.8609 256.721 47.6655 269.89 58.8718C280.849 68.2036 321.114 102.498 323.085 150.747Z" fill="#A3F2F2"/>
<path d="M309.784 245.035C311.563 258.67 298.287 268.51 294.065 271.629C279.788 282.205 255.69 286.716 248.12 276.465C241.617 267.651 249.873 251.38 255.375 243.826C261.772 235.048 277.136 220.626 292.856 225.691C300.812 228.256 308.575 235.729 309.784 245.035Z" fill="#A3F2F2"/>
<path d="M125.056 183.008V186.512C125.056 192.704 120.736 198.32 114.208 200.624L116.224 203.792C123.52 201.152 128.32 194.48 128.32 186.512V183.008H125.056ZM125.776 183.008V186.464C125.776 193.856 130.384 200.048 137.632 202.448L139.552 199.328C133.168 197.216 129.04 192.128 129.04 186.464V183.008H125.776ZM115.408 181.568V184.832H138.592V181.568H115.408ZM144.064 178.352V204.512H148.048V178.352H144.064ZM146.944 189.344V192.704H154.48V189.344H146.944ZM134.224 205.664C125.392 205.664 119.968 208.592 119.968 213.632C119.968 218.72 125.392 221.648 134.224 221.648C143.056 221.648 148.48 218.72 148.48 213.632C148.48 208.592 143.056 205.664 134.224 205.664ZM134.224 208.88C140.656 208.88 144.592 210.608 144.592 213.632C144.592 216.704 140.656 218.528 134.224 218.528C127.792 218.528 123.856 216.704 123.856 213.632C123.856 210.608 127.792 208.88 134.224 208.88ZM188.22 178.304V209.744H192.204V178.304H188.22ZM191.004 191.216V194.528H198.636V191.216H191.004ZM160.524 198.8V202.112H163.884C173.004 202.112 178.14 201.824 184.092 200.576L183.66 197.36C177.852 198.56 172.812 198.8 163.884 198.8H160.524ZM160.524 182.048V200.576H164.46V185.36H179.676V182.048H160.524ZM165.18 217.52V220.784H194.172V217.52H165.18ZM165.18 206.624V219.008H169.164V206.624H165.18ZM225.849 189.2V192.512H235.497V189.2H225.849ZM234.393 178.352V203.744H238.377V178.352H234.393ZM210.249 205.856V221.168H238.377V205.856H210.249ZM234.489 209.024V217.952H214.137V209.024H234.489ZM213.753 182.48V185.984C213.753 192.128 209.289 197.888 202.809 200.192L204.873 203.36C212.121 200.672 217.017 193.904 217.017 185.984V182.48H213.753ZM214.521 182.48V185.936C214.521 193.232 219.177 199.808 226.233 202.352L228.249 199.184C221.961 196.976 217.737 191.552 217.737 185.936V182.48H214.521ZM204.057 181.136V184.352H227.241V181.136H204.057Z" fill="black"/>
</g>
</svg>
