<svg width="507" height="425" viewBox="0 0 507 425" fill="none" xmlns="http://www.w3.org/2000/svg">
<g opacity="0.94">
<path d="M444.915 307.168C388.544 379.637 292.541 390.925 275.693 392.612C224.354 397.75 184.402 386.094 162.501 379.473C133.609 370.737 89.3816 357.373 58.1723 321.697C2.86116 258.461 32.9093 175.957 38.2668 161.275C45.6372 141.047 65.9758 85.2165 126.816 55.4881C160.214 39.1579 192.71 37.1236 224.532 35.1216C249.153 33.5763 289.656 31.388 335.872 45.9741C383.444 60.9932 412.948 86.1448 430.698 101.283C440.544 109.683 450.862 118.476 459.079 129.109C493.776 174.02 489.534 249.782 444.915 307.168ZM266.674 356.269C283.139 366.284 303.532 362.91 316.098 360.678C375.438 350.107 411.878 302.419 421.789 289.428C433.693 273.836 458.865 239.912 455.768 196.552C454.602 180.301 452.824 155.427 429.428 140.368C411.144 128.609 380.722 123.512 361.535 134.775C349.494 141.842 348.383 151.542 335.755 199.693C319.092 263.204 315.123 268.832 311.228 273.356C286.509 302.021 252.788 300.023 248.037 321.94C245.112 335.491 255.184 349.278 266.674 356.269ZM162.384 352.056C166.864 355.87 180.99 367.849 197.58 363.604C208.904 360.708 216.992 351.361 218.986 342.681C222.921 325.534 202.822 312.201 191.026 307.14C180.875 302.788 159.542 297.13 149.61 305.413C138.059 315.052 147.2 339.167 162.384 352.056Z" fill="#C5E2E9"/>
<path d="M316.098 360.678C303.532 362.91 283.14 366.289 266.674 356.269C255.184 349.277 245.112 335.491 248.037 321.945C252.783 300.029 286.509 302.027 311.229 273.361C315.124 268.837 319.092 263.204 335.756 199.698C348.384 151.552 349.495 141.852 361.535 134.78C380.722 123.512 411.138 128.615 429.429 140.373C452.825 155.432 454.603 180.306 455.769 196.557C458.865 239.917 433.693 273.836 421.79 289.433C411.877 302.413 375.444 350.106 316.098 360.678Z" fill="#A3F2F2"/>
<path d="M197.587 363.603C180.997 367.853 166.871 355.869 162.391 352.056C147.206 339.166 138.065 315.051 149.616 305.412C159.548 297.13 180.881 302.787 191.032 307.14C202.828 312.2 222.927 325.533 218.992 342.68C216.999 351.36 208.911 360.707 197.587 363.603Z" fill="#A3F2F2"/>
<path d="M168.2 222.719L168.2 226.031L207.512 226.031L207.512 222.719L168.2 222.719ZM171.608 192.527L171.608 195.791L203.816 195.791L203.816 192.527L171.608 192.527ZM171.704 210.863L171.704 214.127L203.768 214.127L203.768 210.863L171.704 210.863ZM178.376 195.551L178.376 211.199L182.36 211.199L182.36 195.551L178.376 195.551ZM193.16 195.551L193.16 211.199L197.096 211.199L197.096 195.551L193.16 195.551ZM212.356 222.959L212.356 226.271L251.668 226.271L251.668 222.959L212.356 222.959ZM229.924 213.647L229.924 224.351L233.908 224.351L233.908 213.647L229.924 213.647ZM217.108 191.423L217.108 194.639L242.884 194.639L242.884 201.359L217.252 201.359L217.252 213.263L221.188 213.263L221.188 204.575L246.82 204.575L246.82 191.423L217.108 191.423ZM217.252 211.583L217.252 214.847L247.828 214.847L247.828 211.583L217.252 211.583ZM274.416 199.391L274.416 202.655L282.336 202.655L282.336 199.391L274.416 199.391ZM280.896 189.119L280.896 214.367L284.64 214.367L284.64 189.119L280.896 189.119ZM265.488 193.919L265.488 197.471C265.488 202.655 262.224 208.223 256.656 210.623L258.72 213.695C265.104 210.863 268.608 204.191 268.608 197.471L268.608 193.919L265.488 193.919ZM266.16 193.919L266.16 197.423C266.16 203.711 269.472 210.047 275.76 212.687L277.776 209.615C272.4 207.359 269.28 202.223 269.28 197.423L269.28 193.919L266.16 193.919ZM257.472 191.711L257.472 194.975L276.768 194.975L276.768 191.711L257.472 191.711ZM289.248 188.207L289.248 214.703L293.04 214.703L293.04 188.207L289.248 188.207ZM263.952 216.623L263.952 219.887L289.104 219.887L289.104 231.599L293.04 231.599L293.04 216.623L263.952 216.623ZM305.709 211.583L305.709 214.799L335.517 214.799L335.517 211.583L305.709 211.583ZM300.669 222.719L300.669 226.031L339.981 226.031L339.981 222.719L300.669 222.719ZM305.709 191.903L305.709 212.591L309.741 212.591L309.741 195.167L335.037 195.167L335.037 191.903L305.709 191.903ZM308.445 201.599L308.445 204.767L334.125 204.767L334.125 201.599L308.445 201.599Z" fill="black"/>
</g>
</svg>
