<svg width="349" height="368" viewBox="0 0 349 368" fill="none" xmlns="http://www.w3.org/2000/svg">
<g opacity="0.94">
<path d="M289.837 42.5498C350.882 95.4622 348.56 172.855 347.874 186.403C345.781 227.687 329.315 258.04 320.068 274.651C307.869 296.566 289.202 330.114 251.153 350.81C183.711 387.487 109.584 354.304 96.3944 348.391C78.2207 340.253 28.0588 317.795 8.13228 266.188C-2.81665 237.857 -0.337261 211.864 2.08116 186.408C3.95594 166.713 7.37526 134.354 27.4695 99.3687C48.1581 63.3571 76.0004 42.819 92.7566 30.4647C102.054 23.6118 111.789 16.4288 122.982 11.1203C170.258 -11.2923 241.494 0.665848 289.837 42.5498ZM312.203 189.431C323.929 177.513 323.497 160.963 323.086 150.747C321.114 102.503 280.855 68.2034 269.885 58.8716C256.721 47.6653 227.98 23.8608 186.46 21.397C170.898 20.4775 147.08 19.0653 129.632 35.9053C116.006 49.0673 107.049 72.6077 115.122 89.0971C120.187 99.4449 129.231 101.426 173.159 116.9C231.099 137.316 235.895 141.1 239.655 144.702C263.474 167.551 257.006 194.058 277.136 200.312C289.583 204.167 304.018 197.746 312.203 189.431ZM294.065 271.634C298.287 268.515 311.557 258.675 309.784 245.041C308.575 235.734 300.812 228.262 292.855 225.696C277.136 220.631 261.772 235.053 255.375 243.831C249.873 251.385 241.616 267.656 248.12 276.47C255.69 286.721 279.788 282.21 294.065 271.634Z" fill="#C5E2E9"/>
<path d="M323.085 150.747C323.497 160.963 323.934 177.513 312.202 189.431C304.017 197.747 289.583 204.168 277.14 200.312C257.011 194.064 263.478 167.552 239.66 144.702C235.9 141.1 231.099 137.316 173.164 116.9C129.241 101.426 120.197 99.4451 115.127 89.0973C107.048 72.6079 116.011 49.0726 129.637 35.9054C147.084 19.0655 170.903 20.4777 186.465 21.3972C227.984 23.8609 256.721 47.6655 269.89 58.8718C280.849 68.2036 321.114 102.498 323.085 150.747Z" fill="#A3F2F2"/>
<path d="M309.784 245.035C311.563 258.67 298.287 268.51 294.065 271.629C279.788 282.205 255.69 286.716 248.12 276.465C241.617 267.651 249.873 251.38 255.375 243.826C261.772 235.048 277.136 220.626 292.856 225.691C300.812 228.256 308.575 235.729 309.784 245.035Z" fill="#A3F2F2"/>
<path d="M85.4 195.864L85.4 199.176L124.712 199.176L124.712 195.864L85.4 195.864ZM88.808 165.672L88.808 168.936L121.016 168.936L121.016 165.672L88.808 165.672ZM88.904 184.008L88.904 187.272L120.968 187.272L120.968 184.008L88.904 184.008ZM95.576 168.696L95.576 184.344L99.56 184.344L99.56 168.696L95.576 168.696ZM110.36 168.696L110.36 184.344L114.296 184.344L114.296 168.696L110.36 168.696ZM129.556 196.104L129.556 199.416L168.868 199.416L168.868 196.104L129.556 196.104ZM147.124 186.792L147.124 197.496L151.108 197.496L151.108 186.792L147.124 186.792ZM134.308 164.568L134.308 167.784L160.084 167.784L160.084 174.504L134.452 174.504L134.452 186.408L138.388 186.408L138.388 177.72L164.02 177.72L164.02 164.568L134.308 164.568ZM134.452 184.728L134.452 187.992L165.028 187.992L165.028 184.728L134.452 184.728ZM191.616 172.536L191.616 175.8L199.536 175.8L199.536 172.536L191.616 172.536ZM198.096 162.264L198.096 187.512L201.84 187.512L201.84 162.264L198.096 162.264ZM182.688 167.064L182.688 170.616C182.688 175.8 179.424 181.368 173.856 183.768L175.92 186.84C182.304 184.008 185.808 177.336 185.808 170.616L185.808 167.064L182.688 167.064ZM183.36 167.064L183.36 170.568C183.36 176.856 186.672 183.192 192.96 185.832L194.976 182.76C189.6 180.504 186.48 175.368 186.48 170.568L186.48 167.064L183.36 167.064ZM174.672 164.856L174.672 168.12L193.968 168.12L193.968 164.856L174.672 164.856ZM206.448 161.352L206.448 187.848L210.24 187.848L210.24 161.352L206.448 161.352ZM181.152 189.768L181.152 193.032L206.304 193.032L206.304 204.744L210.24 204.744L210.24 189.768L181.152 189.768ZM222.909 184.728L222.909 187.944L252.717 187.944L252.717 184.728L222.909 184.728ZM217.869 195.864L217.869 199.176L257.181 199.176L257.181 195.864L217.869 195.864ZM222.909 165.048L222.909 185.736L226.941 185.736L226.941 168.312L252.237 168.312L252.237 165.048L222.909 165.048ZM225.645 174.744L225.645 177.912L251.325 177.912L251.325 174.744L225.645 174.744Z" fill="black"/>
</g>
</svg>
