<svg width="481" height="476" viewBox="0 0 481 476" fill="none" xmlns="http://www.w3.org/2000/svg">
<g opacity="0.94">
<path d="M381.917 336.209C349.414 414.996 276.79 430.594 264 433.02C225.025 440.411 192.282 429.609 174.299 423.441C150.574 415.305 114.257 402.858 84.588 366.32C32.0049 301.555 42.5724 213.159 44.461 197.429C47.0545 175.756 54.2093 115.938 96.7566 82.1799C120.111 63.6368 144.969 60.2464 169.309 56.9158C188.143 54.3429 219.179 50.4843 257.223 64.1472C296.386 78.2165 323.113 103.69 339.193 119.022C348.114 127.53 357.461 136.436 365.463 147.367C399.256 193.538 407.639 273.82 381.917 336.209ZM251.416 394.931C265.712 404.894 280.989 400.549 290.378 397.709C334.714 384.267 355.595 332.446 361.272 318.33C368.091 301.388 382.363 264.552 373.286 218.816C369.88 201.674 364.672 175.437 344.23 160.404C328.256 148.666 303.906 144.436 290.779 157.078C282.541 165.011 283.174 175.311 280.81 226.713C277.684 294.514 275.477 300.616 273.156 305.549C258.424 336.806 231.997 335.979 231.692 359.338C231.514 373.779 241.439 387.975 251.416 394.931ZM169.986 394.452C174.043 398.314 186.83 410.444 199.027 405.323C207.352 401.828 212.177 391.634 212.385 382.38C212.791 364.096 195.169 350.762 185.253 345.861C176.72 341.645 159.324 336.475 152.906 345.612C145.444 356.247 156.238 381.401 169.986 394.452Z" fill="#C5E2E9"/>
<path d="M290.378 397.709C280.989 400.549 265.714 404.9 251.416 394.931C241.439 387.975 231.514 373.779 231.694 359.343C231.994 335.986 258.426 336.812 273.158 305.555C275.479 300.622 277.684 294.514 280.811 226.719C283.177 175.322 282.543 165.022 290.78 157.084C303.906 144.436 328.253 148.672 344.232 160.41C364.673 175.443 369.881 201.68 373.287 218.822C382.365 264.558 368.091 301.388 361.273 318.336C355.594 332.441 334.719 384.266 290.378 397.709Z" fill="#A3F2F2"/>
<path d="M199.031 405.321C186.836 410.448 174.048 398.313 169.99 394.451C156.243 381.399 145.449 356.246 152.911 345.611C159.329 336.474 176.724 341.643 185.257 345.859C195.174 350.761 212.796 364.095 212.389 382.378C212.182 391.633 207.357 401.827 199.031 405.321Z" fill="#A3F2F2"/>
<path d="M151.704 230.712V233.976H170.904V230.712H151.704ZM158.232 240.408V251.256H162.168V240.408H158.232ZM169.32 230.712V233.016C169.32 235.8 169.32 239.736 168.216 245.448L172.104 245.88C173.256 240.168 173.256 235.848 173.256 233.016V230.712H169.32ZM179.16 227.352V260.04H183.144V227.352H179.16ZM181.32 241.464V244.776H189.336V241.464H181.32ZM155.736 266.52V269.784H184.536V266.52H155.736ZM155.736 257.016V267.528H159.672V257.016H155.736ZM149.496 253.128C157.128 253.128 167.496 252.936 176.52 251.352L176.232 248.472C167.448 249.672 156.792 249.864 149.064 249.864L149.496 253.128ZM225.092 227.4V252.024H229.124V227.4H225.092ZM201.092 254.52V270.168H229.124V254.52H201.092ZM225.188 257.688V266.952H204.98V257.688H225.188ZM204.836 229.032V233.256C204.836 239.592 200.372 245.448 193.844 247.8L195.812 250.968C203.156 248.232 208.148 241.32 208.148 233.256V229.032H204.836ZM205.556 229.032V233.256C205.556 241.128 210.548 247.608 217.796 250.104L219.764 246.984C213.332 244.824 208.82 239.4 208.82 233.256V229.032H205.556ZM248.32 231.096V238.872C248.32 246.792 243.376 255.144 237.088 258.312L239.536 261.48C246.4 257.832 251.584 248.472 251.584 238.872V231.096H248.32ZM249.04 231.096V238.872C249.04 248.184 254.08 257.064 260.8 260.664L263.248 257.496C257.104 254.424 252.256 246.504 252.256 238.872V231.096H249.04ZM267.04 227.352V270.744H271.072V227.352H267.04ZM270.112 244.92V248.28H278.176V244.92H270.112Z" fill="black"/>
</g>
</svg>
