<svg width="110" height="46" viewBox="0 0 110 46" fill="none" xmlns="http://www.w3.org/2000/svg">
<path d="M45.5528 0.567V1.545H46.4438V0.567H46.2068V0.858H45.7898V0.567H45.5528ZM45.7898 1.05H46.2068V1.344H45.7898V1.05ZM46.6568 0.567V1.545H47.5448V0.567H47.3078V0.858H46.8938V0.567H46.6568ZM46.8938 1.05H47.3078V1.344H46.8938V1.05ZM46.4258 1.515V1.938H46.6718V1.515H46.4258ZM45.6338 2.226V3.198H47.4608V2.226H47.2148V2.496H45.8798V2.226H45.6338ZM45.8798 2.688H47.2148V2.997H45.8798V2.688ZM45.3218 1.842V2.043H47.7728V1.842H45.3218ZM48.7386 0.729C48.3396 0.729 48.0576 1.098 48.0576 1.674C48.0576 2.253 48.3396 2.622 48.7386 2.622C49.1376 2.622 49.4196 2.253 49.4196 1.674C49.4196 1.098 49.1376 0.729 48.7386 0.729ZM48.7386 0.954C48.9996 0.954 49.1826 1.236 49.1826 1.674C49.1826 2.115 48.9996 2.403 48.7386 2.403C48.4746 2.403 48.2946 2.115 48.2946 1.674C48.2946 1.236 48.4746 0.954 48.7386 0.954ZM49.8516 0.522V3.234H50.1036V0.522H49.8516ZM50.0436 1.605V1.815H50.5476V1.605H50.0436ZM51.4324 0.729C51.0334 0.729 50.7514 1.098 50.7514 1.674C50.7514 2.253 51.0334 2.622 51.4324 2.622C51.8314 2.622 52.1134 2.253 52.1134 1.674C52.1134 1.098 51.8314 0.729 51.4324 0.729ZM51.4324 0.954C51.6934 0.954 51.8764 1.236 51.8764 1.674C51.8764 2.115 51.6934 2.403 51.4324 2.403C51.1684 2.403 50.9884 2.115 50.9884 1.674C50.9884 1.236 51.1684 0.954 51.4324 0.954ZM52.7284 1.203V1.413H53.2264V1.203H52.7284ZM52.7284 2.01V2.22H53.2264V2.01H52.7284ZM52.5454 0.522V3.234H52.7974V0.522H52.5454ZM55.2421 0.522V3.234H55.4911V0.522H55.2421ZM55.4311 1.635V1.845H55.9351V1.635H55.4311ZM53.3911 0.954V1.158H54.9901V0.954H53.3911ZM54.2011 1.383C53.8201 1.383 53.5411 1.641 53.5411 2.007C53.5411 2.373 53.8201 2.631 54.2011 2.631C54.5851 2.631 54.8611 2.373 54.8611 2.007C54.8611 1.641 54.5851 1.383 54.2011 1.383ZM54.2011 1.59C54.4471 1.59 54.6241 1.761 54.6241 2.007C54.6241 2.25 54.4471 2.424 54.2011 2.424C53.9551 2.424 53.7781 2.25 53.7781 2.007C53.7781 1.761 53.9551 1.59 54.2011 1.59ZM54.0721 0.555V1.047H54.3211V0.555H54.0721ZM56.4299 1.335V1.539H58.2719V1.335H56.4299ZM56.0969 1.902V2.106H58.5569V1.902H56.0969ZM56.4299 0.621V1.437H56.6759V0.621H56.4299ZM56.4119 2.964V3.168H58.2869V2.964H56.4119ZM56.4119 2.376V3.018H56.6579V2.376H56.4119ZM61.4896 0.519V3.237H61.7386V0.519H61.4896ZM60.3076 0.729C59.9086 0.729 59.6206 1.098 59.6206 1.674C59.6206 2.253 59.9086 2.622 60.3076 2.622C60.7096 2.622 60.9976 2.253 60.9976 1.674C60.9976 1.098 60.7096 0.729 60.3076 0.729ZM60.3076 0.954C60.5746 0.954 60.7576 1.236 60.7576 1.674C60.7576 2.115 60.5746 2.403 60.3076 2.403C60.0436 2.403 59.8576 2.115 59.8576 1.674C59.8576 1.236 60.0436 0.954 60.3076 0.954ZM62.8424 2.199V3.234H63.0974V2.199H62.8424ZM63.7754 2.199V3.234H64.0304V2.199H63.7754ZM62.2124 2.064V2.271H64.6724V2.064H62.2124ZM63.4364 0.63C62.8724 0.63 62.4884 0.858 62.4884 1.221C62.4884 1.581 62.8724 1.812 63.4364 1.812C64.0034 1.812 64.3844 1.581 64.3844 1.221C64.3844 0.858 64.0034 0.63 63.4364 0.63ZM63.4364 0.831C63.8504 0.831 64.1294 0.984 64.1294 1.221C64.1294 1.458 63.8504 1.611 63.4364 1.611C63.0224 1.611 62.7404 1.458 62.7404 1.221C62.7404 0.984 63.0224 0.831 63.4364 0.831ZM12.1489 7.522V10.234H12.3889V7.522H12.1489ZM11.1619 8.494V8.701H11.6809V8.494H11.1619ZM11.6059 7.585V10.096H11.8399V7.585H11.6059ZM10.6399 7.942V8.287C10.6399 8.785 10.4299 9.28 10.0519 9.508L10.2049 9.694C10.6039 9.442 10.8319 8.881 10.8319 8.287V7.942H10.6399ZM10.6909 7.942V8.287C10.6909 8.854 10.9099 9.388 11.3059 9.628L11.4589 9.445C11.0869 9.229 10.8829 8.758 10.8829 8.287V7.942H10.6909ZM10.1269 7.837V8.044H11.3659V7.837H10.1269ZM14.6146 7.519V10.234H14.8666V7.519H14.6146ZM14.7976 8.62V8.827H15.2986V8.62H14.7976ZM13.9216 7.813V7.852C13.9216 8.569 13.5466 9.148 12.7966 9.529L12.9346 9.721C13.8106 9.28 14.1646 8.584 14.1646 7.813H13.9216ZM12.9226 7.813V8.017H14.0506V7.813H12.9226ZM16.8664 7.756V8.242C16.8664 8.737 16.5574 9.259 16.1644 9.457L16.3174 9.655C16.7464 9.427 17.0704 8.842 17.0704 8.242V7.756H16.8664ZM16.9114 7.756V8.242C16.9114 8.824 17.2264 9.379 17.6464 9.604L17.7994 9.406C17.4154 9.214 17.1124 8.719 17.1124 8.242V7.756H16.9114ZM18.0364 7.522V10.234H18.2884V7.522H18.0364ZM18.2284 8.62V8.83H18.7324V8.62H18.2284ZM19.6681 9.148V9.595H19.9201V9.148H19.6681ZM20.8561 7.522V10.234H21.1051V7.522H20.8561ZM18.9451 9.718C19.4461 9.718 20.1001 9.712 20.7031 9.61L20.6851 9.427C20.1001 9.502 19.4251 9.508 18.9121 9.511L18.9451 9.718ZM18.9691 7.852V8.053H20.6161V7.852H18.9691ZM19.7911 8.209C19.4041 8.209 19.1401 8.407 19.1401 8.71C19.1401 9.016 19.4041 9.211 19.7911 9.211C20.1811 9.211 20.4451 9.016 20.4451 8.71C20.4451 8.407 20.1811 8.209 19.7911 8.209ZM19.7911 8.401C20.0371 8.401 20.2081 8.524 20.2081 8.71C20.2081 8.896 20.0371 9.019 19.7911 9.019C19.5481 9.019 19.3771 8.896 19.3771 8.71C19.3771 8.524 19.5481 8.401 19.7911 8.401ZM19.6681 7.522V7.963H19.9171V7.522H19.6681ZM23.5589 7.519V10.237H23.8079V7.519H23.5589ZM22.3769 7.729C21.9779 7.729 21.6899 8.098 21.6899 8.674C21.6899 9.253 21.9779 9.622 22.3769 9.622C22.7789 9.622 23.0669 9.253 23.0669 8.674C23.0669 8.098 22.7789 7.729 22.3769 7.729ZM22.3769 7.954C22.6439 7.954 22.8269 8.236 22.8269 8.674C22.8269 9.115 22.6439 9.403 22.3769 9.403C22.1129 9.403 21.9269 9.115 21.9269 8.674C21.9269 8.236 22.1129 7.954 22.3769 7.954ZM26.1207 7.519V10.237H26.3697V7.519H26.1207ZM26.3097 8.599V8.809H26.8137V8.599H26.3097ZM24.3927 9.376V9.583H24.6087C25.1277 9.583 25.4877 9.562 25.9107 9.487L25.8837 9.28C25.4727 9.358 25.1187 9.376 24.6087 9.376H24.3927ZM24.3867 7.774V7.978H25.3677V8.542H24.3927V9.46H24.6387V8.746H25.6137V7.774H24.3867ZM27.3084 8.335V8.539H29.1504V8.335H27.3084ZM26.9754 8.902V9.106H29.4354V8.902H26.9754ZM27.3084 7.621V8.437H27.5544V7.621H27.3084ZM27.2904 9.964V10.168H29.1654V9.964H27.2904ZM27.2904 9.376V10.018H27.5364V9.376H27.2904ZM32.3801 7.522V10.234H32.6291V7.522H32.3801ZM31.7471 8.608V8.815H32.4911V8.608H31.7471ZM31.5101 7.813V7.855C31.5101 8.563 31.1861 9.139 30.3971 9.526L30.5351 9.721C31.4351 9.271 31.7561 8.587 31.7561 7.813H31.5101ZM30.5141 7.813V8.017H31.6421V7.813H30.5141ZM35.1549 7.522V10.234H35.3949V7.522H35.1549ZM34.6959 8.608V8.815H35.2179V8.608H34.6959ZM34.5399 7.582V10.096H34.7739V7.582H34.5399ZM33.1899 9.358V9.565H33.3669C33.7749 9.565 34.0479 9.553 34.3719 9.484L34.3479 9.277C34.0329 9.343 33.7629 9.358 33.3669 9.358H33.1899ZM33.1899 7.852V9.451H33.4359V8.056H34.1979V7.852H33.1899ZM37.6417 7.525V9.559H37.8907V7.525H37.6417ZM37.8127 8.413V8.623H38.2927V8.413H37.8127ZM35.7937 7.852V8.053H37.3957V7.852H35.7937ZM36.5947 8.203C36.2077 8.203 35.9437 8.404 35.9437 8.71C35.9437 9.013 36.2077 9.214 36.5947 9.214C36.9787 9.214 37.2427 9.013 37.2427 8.71C37.2427 8.404 36.9787 8.203 36.5947 8.203ZM36.5947 8.398C36.8377 8.398 37.0057 8.521 37.0057 8.71C37.0057 8.896 36.8377 9.019 36.5947 9.019C36.3487 9.019 36.1807 8.896 36.1807 8.71C36.1807 8.521 36.3487 8.398 36.5947 8.398ZM36.4687 7.522V7.957H36.7177V7.522H36.4687ZM36.2017 9.97V10.174H38.0137V9.97H36.2017ZM36.2017 9.397V10.057H36.4507V9.397H36.2017ZM39.9234 7.756V8.242C39.9234 8.755 39.5964 9.274 39.1944 9.466L39.3474 9.67C39.7914 9.445 40.1274 8.866 40.1274 8.242V7.756H39.9234ZM39.9654 7.756V8.242C39.9654 8.845 40.3044 9.403 40.7454 9.619L40.8954 9.421C40.4934 9.235 40.1694 8.737 40.1694 8.242V7.756H39.9654ZM41.1774 7.519V10.237H41.4264V7.519H41.1774ZM42.5691 7.813V8.032C42.5691 8.419 42.2991 8.77 41.8911 8.914L42.0171 9.112C42.4731 8.947 42.7731 8.53 42.7731 8.032V7.813H42.5691ZM42.6141 7.813V8.029C42.6141 8.491 42.9021 8.878 43.3551 9.028L43.4751 8.833C43.0761 8.701 42.8181 8.383 42.8181 8.029V7.813H42.6141ZM41.9661 7.723V7.927H43.4151V7.723H41.9661ZM43.7571 7.522V9.157H44.0061V7.522H43.7571ZM43.9371 8.209V8.419H44.4081V8.209H43.9371ZM43.1421 9.229C42.5901 9.229 42.2511 9.412 42.2511 9.727C42.2511 10.045 42.5901 10.228 43.1421 10.228C43.6941 10.228 44.0331 10.045 44.0331 9.727C44.0331 9.412 43.6941 9.229 43.1421 9.229ZM43.1421 9.43C43.5441 9.43 43.7901 9.538 43.7901 9.727C43.7901 9.919 43.5441 10.033 43.1421 10.033C42.7401 10.033 42.4941 9.919 42.4941 9.727C42.4941 9.538 42.7401 9.43 43.1421 9.43ZM45.6949 8.575V8.782H46.2079V8.575H45.6949ZM46.6609 7.522V10.234H46.9009V7.522H46.6609ZM46.1239 7.579V10.099H46.3609V7.579H46.1239ZM45.2059 7.747C44.8549 7.747 44.6299 8.11 44.6299 8.692C44.6299 9.274 44.8549 9.637 45.2059 9.637C45.5569 9.637 45.7849 9.274 45.7849 8.692C45.7849 8.11 45.5569 7.747 45.2059 7.747ZM45.2059 7.978C45.4219 7.978 45.5569 8.254 45.5569 8.692C45.5569 9.13 45.4219 9.406 45.2059 9.406C44.9929 9.406 44.8579 9.13 44.8579 8.692C44.8579 8.254 44.9929 7.978 45.2059 7.978ZM48.6437 8.44V8.644H49.3997V8.44H48.6437ZM47.9897 7.756V8.239C47.9897 8.743 47.6837 9.265 47.2847 9.463L47.4437 9.661C47.8727 9.43 48.1937 8.848 48.1937 8.239V7.756H47.9897ZM48.0377 7.756V8.239C48.0377 8.833 48.3527 9.391 48.7907 9.613L48.9377 9.412C48.5447 9.226 48.2387 8.734 48.2387 8.239V7.756H48.0377ZM49.2767 7.519V10.237H49.5227V7.519H49.2767ZM51.3394 9.199V10.234H51.5944V9.199H51.3394ZM52.2724 9.199V10.234H52.5274V9.199H52.2724ZM50.7094 9.064V9.271H53.1694V9.064H50.7094ZM51.9334 7.63C51.3694 7.63 50.9854 7.858 50.9854 8.221C50.9854 8.581 51.3694 8.812 51.9334 8.812C52.5004 8.812 52.8814 8.581 52.8814 8.221C52.8814 7.858 52.5004 7.63 51.9334 7.63ZM51.9334 7.831C52.3474 7.831 52.6264 7.984 52.6264 8.221C52.6264 8.458 52.3474 8.611 51.9334 8.611C51.5194 8.611 51.2374 8.458 51.2374 8.221C51.2374 7.984 51.5194 7.831 51.9334 7.831ZM54.1651 7.621C53.7631 7.621 53.4661 7.867 53.4661 8.224C53.4661 8.578 53.7631 8.824 54.1651 8.824C54.5701 8.824 54.8671 8.578 54.8671 8.224C54.8671 7.867 54.5701 7.621 54.1651 7.621ZM54.1651 7.825C54.4291 7.825 54.6241 7.99 54.6241 8.224C54.6241 8.458 54.4291 8.62 54.1651 8.62C53.9041 8.62 53.7061 8.458 53.7061 8.224C53.7061 7.99 53.9041 7.825 54.1651 7.825ZM55.3771 7.522V8.911H55.6291V7.522H55.3771ZM53.8741 9.043V9.244H55.3831V9.517H53.8801V10.111H54.1231V9.703H55.6291V9.043H53.8741ZM53.8801 10V10.198H55.7191V10H53.8801ZM56.8249 9.097V9.301H59.2849V9.097H56.8249ZM57.9229 9.22V10.234H58.1689V9.22H57.9229ZM57.1369 7.672V8.731H58.9669V7.672H57.1369ZM58.7239 7.873V8.53H57.3829V7.873H58.7239ZM61.4896 7.519V10.237H61.7386V7.519H61.4896ZM60.3076 7.729C59.9086 7.729 59.6206 8.098 59.6206 8.674C59.6206 9.253 59.9086 9.622 60.3076 9.622C60.7096 9.622 60.9976 9.253 60.9976 8.674C60.9976 8.098 60.7096 7.729 60.3076 7.729ZM60.3076 7.954C60.5746 7.954 60.7576 8.236 60.7576 8.674C60.7576 9.115 60.5746 9.403 60.3076 9.403C60.0436 9.403 59.8576 9.115 59.8576 8.674C59.8576 8.236 60.0436 7.954 60.3076 7.954ZM64.0694 7.525V9.559H64.3184V7.525H64.0694ZM64.2404 8.413V8.623H64.7204V8.413H64.2404ZM62.2214 7.852V8.053H63.8234V7.852H62.2214ZM63.0224 8.203C62.6354 8.203 62.3714 8.404 62.3714 8.71C62.3714 9.013 62.6354 9.214 63.0224 9.214C63.4064 9.214 63.6704 9.013 63.6704 8.71C63.6704 8.404 63.4064 8.203 63.0224 8.203ZM63.0224 8.398C63.2654 8.398 63.4334 8.521 63.4334 8.71C63.4334 8.896 63.2654 9.019 63.0224 9.019C62.7764 9.019 62.6084 8.896 62.6084 8.71C62.6084 8.521 62.7764 8.398 63.0224 8.398ZM62.8964 7.522V7.957H63.1454V7.522H62.8964ZM62.6294 9.97V10.174H64.4414V9.97H62.6294ZM62.6294 9.397V10.057H62.8784V9.397H62.6294ZM67.4701 7.519V10.234H67.7221V7.519H67.4701ZM67.6531 8.62V8.827H68.1541V8.62H67.6531ZM66.7771 7.813V7.852C66.7771 8.569 66.4021 9.148 65.6521 9.529L65.7901 9.721C66.6661 9.28 67.0201 8.584 67.0201 7.813H66.7771ZM65.7781 7.813V8.017H66.9061V7.813H65.7781ZM70.3019 7.522V10.234H70.5509V7.522H70.3019ZM69.0809 8.167V8.398C69.0809 8.872 68.7809 9.334 68.3789 9.52L68.5199 9.712C68.9549 9.502 69.2819 8.977 69.2819 8.398V8.167H69.0809ZM69.1289 8.167V8.398C69.1289 8.959 69.4619 9.466 69.8999 9.664L70.0409 9.469C69.6359 9.292 69.3269 8.851 69.3269 8.398V8.167H69.1289ZM68.4539 7.993V8.194H69.9479V7.993H68.4539ZM69.0809 7.57V8.104H69.3299V7.57H69.0809ZM71.3546 8.335V8.539H73.1966V8.335H71.3546ZM71.0216 8.902V9.106H73.4816V8.902H71.0216ZM71.3546 7.621V8.437H71.6006V7.621H71.3546ZM71.3366 9.964V10.168H73.2116V9.964H71.3366ZM71.3366 9.376V10.018H71.5826V9.376H71.3366ZM76.4293 7.519V10.237H76.6753V7.519H76.4293ZM75.8443 8.509V8.713H76.5013V8.509H75.8443ZM75.1333 7.909V8.314C75.1333 8.797 74.8123 9.31 74.4223 9.502L74.5693 9.7C74.9983 9.478 75.3343 8.899 75.3343 8.314V7.909H75.1333ZM75.1843 7.909V8.314C75.1843 8.872 75.5143 9.43 75.9433 9.643L76.0903 9.448C75.6973 9.262 75.3823 8.767 75.3823 8.314V7.909H75.1843ZM74.5213 7.798V8.005H75.9973V7.798H74.5213ZM78.0191 7.717C77.5961 7.717 77.2901 7.978 77.2901 8.356C77.2901 8.737 77.5961 8.998 78.0191 8.998C78.4421 8.998 78.7451 8.737 78.7451 8.356C78.7451 7.978 78.4421 7.717 78.0191 7.717ZM78.0191 7.933C78.2981 7.933 78.5021 8.104 78.5021 8.356C78.5021 8.608 78.2981 8.782 78.0191 8.782C77.7371 8.782 77.5331 8.608 77.5331 8.356C77.5331 8.104 77.7371 7.933 78.0191 7.933ZM79.0991 7.519V10.237H79.3481V7.519H79.0991ZM77.1881 9.643C77.6711 9.643 78.3341 9.64 78.9431 9.523L78.9221 9.34C78.3311 9.433 77.6471 9.436 77.1521 9.436L77.1881 9.643ZM81.1288 7.69V8.053C81.1288 8.359 80.9158 8.71 80.5588 8.866L80.6938 9.061C81.0928 8.884 81.3268 8.458 81.3268 8.053V7.69H81.1288ZM81.1678 7.69V8.053C81.1678 8.452 81.3928 8.827 81.7828 8.983L81.9178 8.794C81.5698 8.659 81.3658 8.353 81.3658 8.053V7.69H81.1678ZM82.6078 7.525V9.196H82.8448V7.525H82.6078ZM82.1758 8.248V8.452H82.6888V8.248H82.1758ZM82.0258 7.576V9.109H82.2628V7.576H82.0258ZM81.9538 9.256C81.3928 9.256 81.0508 9.436 81.0508 9.745C81.0508 10.051 81.3928 10.228 81.9538 10.228C82.5118 10.228 82.8598 10.051 82.8598 9.745C82.8598 9.436 82.5118 9.256 81.9538 9.256ZM81.9538 9.451C82.3618 9.451 82.6108 9.559 82.6108 9.745C82.6108 9.928 82.3618 10.036 81.9538 10.036C81.5458 10.036 81.2938 9.928 81.2938 9.745C81.2938 9.559 81.5458 9.451 81.9538 9.451ZM85.1096 7.522V9.112H85.3586V7.522H85.1096ZM85.2896 8.206V8.416H85.7606V8.206H85.2896ZM84.3596 7.696V7.804C84.3596 8.305 83.9516 8.698 83.2496 8.89L83.3516 9.085C84.1436 8.869 84.6206 8.38 84.6206 7.696H84.3596ZM83.3696 7.696V7.897H84.4976V7.696H83.3696ZM83.5976 9.238V9.439H85.1096V10.234H85.3586V9.238H83.5976ZM87.0473 8.575V8.782H87.5603V8.575H87.0473ZM88.0133 7.522V10.234H88.2533V7.522H88.0133ZM87.4763 7.579V10.099H87.7133V7.579H87.4763ZM86.5583 7.747C86.2073 7.747 85.9823 8.11 85.9823 8.692C85.9823 9.274 86.2073 9.637 86.5583 9.637C86.9093 9.637 87.1373 9.274 87.1373 8.692C87.1373 8.11 86.9093 7.747 86.5583 7.747ZM86.5583 7.978C86.7743 7.978 86.9093 8.254 86.9093 8.692C86.9093 9.13 86.7743 9.406 86.5583 9.406C86.3453 9.406 86.2103 9.13 86.2103 8.692C86.2103 8.254 86.3453 7.978 86.5583 7.978ZM90.0461 9.19V9.337C90.0461 9.598 89.8421 9.889 89.5001 10.012L89.6261 10.198C90.0161 10.048 90.2381 9.691 90.2381 9.337V9.19H90.0461ZM90.1001 9.19V9.337C90.1001 9.697 90.2771 10.069 90.6671 10.222L90.7721 10.033C90.4481 9.901 90.2861 9.61 90.2861 9.337V9.19H90.1001ZM91.0481 9.19V9.337C91.0481 9.571 90.8831 9.886 90.5621 10.033L90.6671 10.222C91.0541 10.057 91.2341 9.655 91.2341 9.337V9.19H91.0481ZM91.0991 9.19V9.337C91.0991 9.712 91.3151 10.054 91.7111 10.198L91.8371 10.012C91.4921 9.895 91.2911 9.616 91.2911 9.337V9.19H91.0991ZM91.3421 7.525V9.073H91.5941V7.525H91.3421ZM90.1391 7.681C89.7281 7.681 89.4311 7.939 89.4311 8.314C89.4311 8.689 89.7281 8.944 90.1391 8.944C90.5501 8.944 90.8441 8.689 90.8441 8.314C90.8441 7.939 90.5501 7.681 90.1391 7.681ZM90.1391 7.888C90.4091 7.888 90.6041 8.062 90.6041 8.314C90.6041 8.566 90.4091 8.737 90.1391 8.737C89.8691 8.737 89.6741 8.566 89.6741 8.314C89.6741 8.062 89.8691 7.888 90.1391 7.888ZM92.3738 9.148V10.198H94.1948V9.148H93.9458V9.463H92.6198V9.148H92.3738ZM92.6198 9.655H93.9458V9.997H92.6198V9.655ZM92.0618 8.758V8.959H94.5128V8.758H92.0618ZM93.1628 7.552V7.672C93.1628 8.014 92.6918 8.305 92.2028 8.371L92.2928 8.566C92.8508 8.482 93.3758 8.143 93.3758 7.672V7.552H93.1628ZM93.2018 7.552V7.672C93.2018 8.137 93.7298 8.482 94.2818 8.566L94.3748 8.371C93.8918 8.305 93.4148 8.008 93.4148 7.672V7.552H93.2018ZM96.7296 7.522V10.234H96.9786V7.522H96.7296ZM94.9296 7.786V9.466H95.1756V7.786H94.9296ZM94.9296 9.319V9.535H95.1516C95.5806 9.535 96.0096 9.502 96.4806 9.406L96.4506 9.193C95.9916 9.289 95.5626 9.319 95.1516 9.319H94.9296ZM99.2854 7.519V10.237H99.5374V7.519H99.2854ZM99.4774 8.59V8.8H99.9814V8.59H99.4774ZM97.5664 9.352V9.562H97.7794C98.2894 9.562 98.6464 9.547 99.0634 9.469L99.0364 9.259C98.6314 9.334 98.2804 9.352 97.7794 9.352H97.5664ZM97.5664 7.783V9.445H97.8124V7.987H98.8264V7.783H97.5664ZM19.159 14.519V17.237H19.405V14.519H19.159ZM18.574 15.509V15.713H19.231V15.509H18.574ZM17.863 14.909V15.314C17.863 15.797 17.542 16.31 17.152 16.502L17.299 16.7C17.728 16.478 18.064 15.899 18.064 15.314V14.909H17.863ZM17.914 14.909V15.314C17.914 15.872 18.244 16.43 18.673 16.643L18.82 16.448C18.427 16.262 18.112 15.767 18.112 15.314V14.909H17.914ZM17.251 14.798V15.005H18.727V14.798H17.251ZM20.7488 14.717C20.3258 14.717 20.0198 14.978 20.0198 15.356C20.0198 15.737 20.3258 15.998 20.7488 15.998C21.1718 15.998 21.4748 15.737 21.4748 15.356C21.4748 14.978 21.1718 14.717 20.7488 14.717ZM20.7488 14.933C21.0278 14.933 21.2318 15.104 21.2318 15.356C21.2318 15.608 21.0278 15.782 20.7488 15.782C20.4668 15.782 20.2628 15.608 20.2628 15.356C20.2628 15.104 20.4668 14.933 20.7488 14.933ZM21.8288 14.519V17.237H22.0778V14.519H21.8288ZM19.9178 16.643C20.4008 16.643 21.0638 16.64 21.6728 16.523L21.6518 16.34C21.0608 16.433 20.3768 16.436 19.8818 16.436L19.9178 16.643ZM23.3995 14.786V16.55H24.6325V14.786H23.3995ZM24.3865 14.987V16.349H23.6425V14.987H24.3865ZM25.2775 14.519V17.237H25.5235V14.519H25.2775ZM24.5845 15.509V15.716H25.3705V15.509H24.5845ZM27.9593 14.519V17.237H28.2083V14.519H27.9593ZM26.1413 16.376V16.583H26.3663C26.8313 16.583 27.2393 16.565 27.7313 16.484L27.7043 16.28C27.2243 16.358 26.8193 16.376 26.3663 16.376H26.1413ZM26.1353 14.774V14.978H27.1373V15.539H26.1413V16.454H26.3903V15.743H27.3893V14.774H26.1353ZM29.009 15.335V15.539H30.851V15.335H29.009ZM28.676 15.902V16.106H31.136V15.902H28.676ZM29.009 14.621V15.437H29.255V14.621H29.009ZM28.991 16.964V17.168H30.866V16.964H28.991ZM28.991 16.376V17.018H29.237V16.376H28.991ZM33.6517 14.579V17.099H33.8827V14.579H33.6517ZM33.7867 15.626V15.83H34.2877V15.626H33.7867ZM32.1787 16.322V16.529H32.2867C32.4007 16.529 32.5747 16.529 32.7997 16.475L32.7787 16.268C32.5687 16.319 32.3917 16.322 32.2867 16.322H32.1787ZM32.1787 14.861V16.439H32.4097V15.065H32.7577V14.861H32.1787ZM32.8747 16.322V16.529H32.9887C33.1447 16.529 33.3307 16.526 33.5527 16.466L33.5287 16.259C33.3217 16.316 33.1327 16.322 32.9887 16.322H32.8747ZM32.8747 14.861V16.43H33.1027V15.065H33.4717V14.861H32.8747ZM34.2007 14.522V17.234H34.4377V14.522H34.2007ZM34.7945 16.694V16.901H37.2515V16.694H34.7945ZM35.8925 16.112V16.781H36.1415V16.112H35.8925ZM35.0915 14.723V14.924H36.7025V15.344H35.1005V16.088H35.3465V15.545H36.9485V14.723H35.0915ZM35.1005 15.983V16.187H37.0115V15.983H35.1005ZM37.8183 15.335V15.539H39.6603V15.335H37.8183ZM37.4853 15.902V16.106H39.9453V15.902H37.4853ZM37.8183 14.621V15.437H38.0643V14.621H37.8183ZM37.8003 16.964V17.168H39.6753V16.964H37.8003ZM37.8003 16.376V17.018H38.0463V16.376H37.8003ZM40.91 15.875V16.073H43.361V15.875H40.91ZM42.011 15.407V15.953H42.257V15.407H42.011ZM41.18 16.337V16.541H42.812V17.255H43.061V16.337H41.18ZM41.219 15.347V15.551H43.079V15.347H41.219ZM41.219 14.63V15.452H41.468V14.834H43.055V14.63H41.219ZM43.6007 15.953V16.157H46.0517V15.953H43.6007ZM43.8737 16.415V16.619H45.4877V17.234H45.7367V16.415H43.8737ZM43.9247 15.506V15.701H45.7637V15.506H43.9247ZM43.9247 14.594V15.596H44.1707V14.789H45.7517V14.594H43.9247ZM44.0987 15.044V15.233H45.6797V15.044H44.0987ZM48.1335 14.522V17.234H48.3825V14.522H48.1335ZM48.3225 15.635V15.845H48.8265V15.635H48.3225ZM46.2825 14.954V15.158H47.8815V14.954H46.2825ZM47.0925 15.383C46.7115 15.383 46.4325 15.641 46.4325 16.007C46.4325 16.373 46.7115 16.631 47.0925 16.631C47.4765 16.631 47.7525 16.373 47.7525 16.007C47.7525 15.641 47.4765 15.383 47.0925 15.383ZM47.0925 15.59C47.3385 15.59 47.5155 15.761 47.5155 16.007C47.5155 16.25 47.3385 16.424 47.0925 16.424C46.8465 16.424 46.6695 16.25 46.6695 16.007C46.6695 15.761 46.8465 15.59 47.0925 15.59ZM46.9635 14.555V15.047H47.2125V14.555H46.9635ZM49.2493 14.792V14.999H50.9953V14.792H49.2493ZM48.9913 16.649V16.856H51.4423V16.649H48.9913ZM49.9423 15.68V16.751H50.1913V15.68H49.9423ZM50.9023 14.792V15.062C50.9023 15.386 50.9023 15.767 50.8003 16.286L51.0493 16.319C51.1483 15.77 51.1483 15.398 51.1483 15.062V14.792H50.9023ZM51.994 15.788V15.992H53.857V15.788H51.994ZM51.685 16.685V16.895H54.142V16.685H51.685ZM52.783 15.875V16.769H53.032V15.875H52.783ZM51.994 14.738V15.878H52.243V14.942H53.83V14.738H51.994ZM57.0747 14.519V17.237H57.3237V14.519H57.0747ZM55.8927 14.729C55.4937 14.729 55.2057 15.098 55.2057 15.674C55.2057 16.253 55.4937 16.622 55.8927 16.622C56.2947 16.622 56.5827 16.253 56.5827 15.674C56.5827 15.098 56.2947 14.729 55.8927 14.729ZM55.8927 14.954C56.1597 14.954 56.3427 15.236 56.3427 15.674C56.3427 16.115 56.1597 16.403 55.8927 16.403C55.6287 16.403 55.4427 16.115 55.4427 15.674C55.4427 15.236 55.6287 14.954 55.8927 14.954ZM58.4575 14.663V14.939C58.4575 15.353 58.1935 15.719 57.7855 15.869L57.9175 16.07C58.3705 15.893 58.6645 15.461 58.6645 14.939V14.663H58.4575ZM58.5025 14.663V14.957C58.5025 15.428 58.7995 15.83 59.2345 15.992L59.3665 15.797C58.9765 15.662 58.7065 15.323 58.7065 14.957V14.663H58.5025ZM59.6545 14.522V16.166H59.9035V14.522H59.6545ZM59.8345 15.221V15.431H60.3055V15.221H59.8345ZM59.0395 16.241C58.4845 16.241 58.1485 16.424 58.1485 16.736C58.1485 17.048 58.4845 17.228 59.0395 17.228C59.5945 17.228 59.9305 17.048 59.9305 16.736C59.9305 16.424 59.5945 16.241 59.0395 16.241ZM59.0395 16.439C59.4415 16.439 59.6875 16.547 59.6875 16.736C59.6875 16.925 59.4415 17.033 59.0395 17.033C58.6375 17.033 58.3915 16.925 58.3915 16.736C58.3915 16.547 58.6375 16.439 59.0395 16.439ZM62.3483 14.525V16.559H62.5973V14.525H62.3483ZM62.5193 15.413V15.623H62.9993V15.413H62.5193ZM60.5003 14.852V15.053H62.1023V14.852H60.5003ZM61.3013 15.203C60.9143 15.203 60.6503 15.404 60.6503 15.71C60.6503 16.013 60.9143 16.214 61.3013 16.214C61.6853 16.214 61.9493 16.013 61.9493 15.71C61.9493 15.404 61.6853 15.203 61.3013 15.203ZM61.3013 15.398C61.5443 15.398 61.7123 15.521 61.7123 15.71C61.7123 15.896 61.5443 16.019 61.3013 16.019C61.0553 16.019 60.8873 15.896 60.8873 15.71C60.8873 15.521 61.0553 15.398 61.3013 15.398ZM61.1753 14.522V14.957H61.4243V14.522H61.1753ZM60.9083 16.97V17.174H62.7203V16.97H60.9083ZM60.9083 16.397V17.057H61.1573V16.397H60.9083ZM65.884 14.519V17.237H66.133V14.519H65.884ZM64.702 14.729C64.303 14.729 64.015 15.098 64.015 15.674C64.015 16.253 64.303 16.622 64.702 16.622C65.104 16.622 65.392 16.253 65.392 15.674C65.392 15.098 65.104 14.729 64.702 14.729ZM64.702 14.954C64.969 14.954 65.152 15.236 65.152 15.674C65.152 16.115 64.969 16.403 64.702 16.403C64.438 16.403 64.252 16.115 64.252 15.674C64.252 15.236 64.438 14.954 64.702 14.954ZM67.3297 14.729C66.9307 14.729 66.6487 15.098 66.6487 15.674C66.6487 16.253 66.9307 16.622 67.3297 16.622C67.7287 16.622 68.0107 16.253 68.0107 15.674C68.0107 15.098 67.7287 14.729 67.3297 14.729ZM67.3297 14.954C67.5907 14.954 67.7737 15.236 67.7737 15.674C67.7737 16.115 67.5907 16.403 67.3297 16.403C67.0657 16.403 66.8857 16.115 66.8857 15.674C66.8857 15.236 67.0657 14.954 67.3297 14.954ZM68.6257 15.203V15.413H69.1237V15.203H68.6257ZM68.6257 16.01V16.22H69.1237V16.01H68.6257ZM68.4427 14.522V17.234H68.6947V14.522H68.4427ZM71.2775 14.522V17.234H71.5265V14.522H71.2775ZM70.4825 14.813V14.855C70.4825 15.575 70.1195 16.151 69.3365 16.529L69.4685 16.73C70.3745 16.286 70.7285 15.599 70.7285 14.813H70.4825ZM69.4595 14.813V15.017H70.5905V14.813H69.4595ZM71.9943 15.782V15.971H74.4543V15.782H71.9943ZM72.2853 16.19V16.367H73.9023V16.598H72.2943V17.087H72.5403V16.769H74.1453V16.19H72.2853ZM72.2943 17.021V17.201H74.2323V17.021H72.2943ZM72.3063 14.6V14.777H73.8933V14.996H72.3123V15.458H72.5583V15.164H74.1363V14.6H72.3063ZM72.3123 15.398V15.578H74.1873V15.398H72.3123ZM75.53 14.765V16.022H76.775V14.765H75.53ZM76.532 14.966V15.821H75.773V14.966H76.532ZM77.273 14.519V16.508H77.522V14.519H77.273ZM77.444 15.347V15.554H77.924V15.347H77.444ZM75.833 16.97V17.174H77.645V16.97H75.833ZM75.833 16.319V17.057H76.082V16.319H75.833ZM78.1128 15.653V15.857H80.5638V15.653H78.1128ZM78.4368 15.233V15.434H80.2728V15.233H78.4368ZM78.4368 14.609V15.395H78.6828V14.813H80.2428V14.609H78.4368ZM78.4068 16.091V16.286H80.0028V16.544H78.4128V17.072H78.6588V16.73H80.2488V16.091H78.4068ZM78.4128 17.006V17.204H80.3298V17.006H78.4128ZM81.5295 14.729C81.1335 14.729 80.8545 15.098 80.8545 15.674C80.8545 16.253 81.1335 16.622 81.5295 16.622C81.9225 16.622 82.2045 16.253 82.2045 15.674C82.2045 15.098 81.9225 14.729 81.5295 14.729ZM81.5295 14.954C81.7905 14.954 81.9675 15.236 81.9675 15.674C81.9675 16.115 81.7905 16.403 81.5295 16.403C81.2685 16.403 81.0915 16.115 81.0915 15.674C81.0915 15.236 81.2685 14.954 81.5295 14.954ZM82.7925 14.519V17.237H83.0385V14.519H82.7925ZM82.1235 15.554V15.758H82.9005V15.554H82.1235ZM86.2742 14.522V15.998H86.5112V14.522H86.2742ZM85.8332 15.182V15.383H86.3462V15.182H85.8332ZM85.6712 14.573V15.977H85.9022V14.573H85.6712ZM84.7352 16.124V17.198H86.5112V16.124H86.2712V16.448H84.9812V16.124H84.7352ZM84.9812 16.649H86.2712V16.994H84.9812V16.649ZM84.3602 14.699V15.734H84.6092V14.699H84.3602ZM84.3602 15.62V15.824H84.5312C84.8492 15.824 85.1432 15.812 85.5062 15.746L85.4762 15.539C85.1312 15.608 84.8372 15.62 84.5312 15.62H84.3602ZM88.893 14.522V17.234H89.142V14.522H88.893ZM87.093 14.786V16.466H87.339V14.786H87.093ZM87.093 16.319V16.535H87.315C87.744 16.535 88.173 16.502 88.644 16.406L88.614 16.193C88.155 16.289 87.726 16.319 87.315 16.319H87.093ZM91.4488 14.519V17.237H91.7008V14.519H91.4488ZM91.6408 15.59V15.8H92.1448V15.59H91.6408ZM89.7298 16.352V16.562H89.9428C90.4528 16.562 90.8098 16.547 91.2268 16.469L91.1998 16.259C90.7948 16.334 90.4438 16.352 89.9428 16.352H89.7298ZM89.7298 14.783V16.445H89.9758V14.987H90.9898V14.783H89.7298ZM92.5835 17.0202C92.5253 17.0202 92.4752 16.9996 92.4333 16.9585C92.3914 16.9165 92.3705 16.8661 92.3705 16.8072C92.3705 16.7489 92.3914 16.6992 92.4333 16.658C92.4752 16.6161 92.5253 16.5952 92.5835 16.5952C92.6418 16.5952 92.6918 16.6161 92.7337 16.658C92.7757 16.6992 92.7966 16.7489 92.7966 16.8072C92.7966 16.8462 92.7867 16.8821 92.7668 16.9148C92.7476 16.9467 92.722 16.9723 92.6901 16.9915C92.6581 17.0107 92.6226 17.0202 92.5835 17.0202ZM12.2899 21.81V22.011H14.0359V21.81H12.2899ZM12.0259 23.631V23.838H14.4769V23.631H12.0259ZM13.9039 21.81V22.08C13.9039 22.416 13.9039 22.821 13.7959 23.376L14.0449 23.4C14.1469 22.815 14.1469 22.428 14.1469 22.08V21.81H13.9039ZM14.8306 22.941V23.145H15.0346C15.5716 23.145 15.8866 23.133 16.2676 23.067L16.2466 22.863C15.8776 22.929 15.5656 22.941 15.0346 22.941H14.8306ZM14.8246 21.711V21.912H15.7816V22.311H14.8306V23.067H15.0766V22.506H16.0246V21.711H14.8246ZM16.6996 21.525V23.514H16.9486V21.525H16.6996ZM15.1996 23.97V24.174H17.0326V23.97H15.1996ZM15.1996 23.367V24.033H15.4486V23.367H15.1996ZM16.1926 22.227V22.443H16.7626V22.227H16.1926ZM19.4744 21.522V24.234H19.7144V21.522H19.4744ZM18.3494 22.557V22.761H19.0304V22.557H18.3494ZM18.9284 21.585V24.096H19.1654V21.585H18.9284ZM17.5124 23.373V23.583H17.6864C18.1184 23.583 18.3794 23.571 18.6884 23.505L18.6644 23.298C18.3644 23.361 18.1094 23.373 17.6864 23.373H17.5124ZM17.5124 21.852V23.454H17.7584V22.056H18.5324V21.852H17.5124ZM21.0991 21.81V22.011H22.8451V21.81H21.0991ZM20.8351 23.631V23.838H23.2861V23.631H20.8351ZM22.7131 21.81V22.08C22.7131 22.416 22.7131 22.821 22.6051 23.376L22.8541 23.4C22.9561 22.815 22.9561 22.428 22.9561 22.08V21.81H22.7131ZM23.6399 22.941V23.145H23.8439C24.3809 23.145 24.6959 23.133 25.0769 23.067L25.0559 22.863C24.6869 22.929 24.3749 22.941 23.8439 22.941H23.6399ZM23.6339 21.711V21.912H24.5909V22.311H23.6399V23.067H23.8859V22.506H24.8339V21.711H23.6339ZM25.5089 21.525V23.514H25.7579V21.525H25.5089ZM24.0089 23.97V24.174H25.8419V23.97H24.0089ZM24.0089 23.367V24.033H24.2579V23.367H24.0089ZM25.0019 22.227V22.443H25.5719V22.227H25.0019ZM27.5176 21.69V22.053C27.5176 22.359 27.3046 22.71 26.9476 22.866L27.0826 23.061C27.4816 22.884 27.7156 22.458 27.7156 22.053V21.69H27.5176ZM27.5566 21.69V22.053C27.5566 22.452 27.7816 22.827 28.1716 22.983L28.3066 22.794C27.9586 22.659 27.7546 22.353 27.7546 22.053V21.69H27.5566ZM28.9966 21.525V23.196H29.2336V21.525H28.9966ZM28.5646 22.248V22.452H29.0776V22.248H28.5646ZM28.4146 21.576V23.109H28.6516V21.576H28.4146ZM28.3426 23.256C27.7816 23.256 27.4396 23.436 27.4396 23.745C27.4396 24.051 27.7816 24.228 28.3426 24.228C28.9006 24.228 29.2486 24.051 29.2486 23.745C29.2486 23.436 28.9006 23.256 28.3426 23.256ZM28.3426 23.451C28.7506 23.451 28.9996 23.559 28.9996 23.745C28.9996 23.928 28.7506 24.036 28.3426 24.036C27.9346 24.036 27.6826 23.928 27.6826 23.745C27.6826 23.559 27.9346 23.451 28.3426 23.451ZM31.4984 21.522V23.112H31.7474V21.522H31.4984ZM31.6784 22.206V22.416H32.1494V22.206H31.6784ZM30.7484 21.696V21.804C30.7484 22.305 30.3404 22.698 29.6384 22.89L29.7404 23.085C30.5324 22.869 31.0094 22.38 31.0094 21.696H30.7484ZM29.7584 21.696V21.897H30.8864V21.696H29.7584ZM29.9864 23.238V23.439H31.4984V24.234H31.7474V23.238H29.9864ZM32.3381 22.653V22.857H34.7891V22.653H32.3381ZM32.6621 22.233V22.434H34.4981V22.233H32.6621ZM32.6621 21.609V22.395H32.9081V21.813H34.4681V21.609H32.6621ZM32.6321 23.091V23.286H34.2281V23.544H32.6381V24.072H32.8841V23.73H34.4741V23.091H32.6321ZM32.6381 24.006V24.204H34.5551V24.006H32.6381ZM36.2559 21.567C35.6559 21.567 35.3019 21.735 35.3019 22.038C35.3019 22.341 35.6559 22.509 36.2559 22.509C36.8529 22.509 37.2099 22.341 37.2099 22.038C37.2099 21.735 36.8529 21.567 36.2559 21.567ZM36.2559 21.756C36.6969 21.756 36.9519 21.858 36.9519 22.038C36.9519 22.218 36.6969 22.32 36.2559 22.32C35.8119 22.32 35.5569 22.218 35.5569 22.038C35.5569 21.858 35.8119 21.756 36.2559 21.756ZM35.0289 22.689V22.89H37.4799V22.689H35.0289ZM35.3259 23.121V23.313H36.9219V23.553H35.3319V24.063H35.5779V23.733H37.1679V23.121H35.3259ZM35.3319 24.009V24.204H37.2489V24.009H35.3319ZM40.4336 21.522V24.234H40.6826V21.522H40.4336ZM39.8006 22.608V22.815H40.5446V22.608H39.8006ZM39.5636 21.813V21.855C39.5636 22.563 39.2396 23.139 38.4506 23.526L38.5886 23.721C39.4886 23.271 39.8096 22.587 39.8096 21.813H39.5636ZM38.5676 21.813V22.017H39.6956V21.813H38.5676ZM41.1444 22.839V23.046H43.5954V22.839H41.1444ZM42.2454 22.998V24.234H42.4914V22.998H42.2454ZM41.3424 21.711V21.912H42.0594V21.711H41.3424ZM41.9754 21.711V21.801C41.9754 21.99 41.9754 22.359 41.8254 22.89L42.0714 22.929C42.2184 22.371 42.2184 21.984 42.2184 21.801V21.711H41.9754ZM42.4164 21.711V21.912H43.1814V21.711H42.4164ZM43.0764 21.711V21.834C43.0764 22.038 43.0764 22.386 42.9564 22.89L43.2024 22.926C43.3194 22.401 43.3194 22.038 43.3194 21.834V21.711H43.0764ZM43.8411 23.694V23.901H46.2981V23.694H43.8411ZM44.9391 23.112V23.781H45.1881V23.112H44.9391ZM44.1381 21.723V21.924H45.7491V22.344H44.1471V23.088H44.3931V22.545H45.9951V21.723H44.1381ZM44.1471 22.983V23.187H46.0581V22.983H44.1471ZM49.1168 21.522V22.902H49.3658V21.522H49.1168ZM49.2578 22.104V22.311H49.7648V22.104H49.2578ZM47.3738 21.675V22.761H48.6188V21.675H47.3738ZM48.3758 21.873V22.563H47.6168V21.873H48.3758ZM47.6438 23.031V23.229H49.1228V23.508H47.6498V24.102H47.8958V23.697H49.3658V23.031H47.6438ZM47.6498 23.997V24.198H49.4648V23.997H47.6498ZM51.7926 21.522V24.234H52.0416V21.522H51.7926ZM51.9816 22.635V22.845H52.4856V22.635H51.9816ZM49.9416 21.954V22.158H51.5406V21.954H49.9416ZM50.7516 22.383C50.3706 22.383 50.0916 22.641 50.0916 23.007C50.0916 23.373 50.3706 23.631 50.7516 23.631C51.1356 23.631 51.4116 23.373 51.4116 23.007C51.4116 22.641 51.1356 22.383 50.7516 22.383ZM50.7516 22.59C50.9976 22.59 51.1746 22.761 51.1746 23.007C51.1746 23.25 50.9976 23.424 50.7516 23.424C50.5056 23.424 50.3286 23.25 50.3286 23.007C50.3286 22.761 50.5056 22.59 50.7516 22.59ZM50.6226 21.555V22.047H50.8716V21.555H50.6226ZM53.9494 21.999V22.203H54.7084V21.999H53.9494ZM53.9494 22.578V22.785H54.7144V22.578H53.9494ZM52.7734 21.756V23.028H54.0124V21.756H52.7734ZM53.7664 21.957V22.827H53.0164V21.957H53.7664ZM54.6304 21.525V23.505H54.8794V21.525H54.6304ZM53.1364 23.97V24.174H54.9454V23.97H53.1364ZM53.1364 23.325V24.063H53.3854V23.325H53.1364ZM56.3871 22.431V22.635H58.2441V22.431H56.3871ZM56.0721 23.043V23.247H58.5291V23.043H56.0721ZM57.1671 23.154V24.234H57.4131V23.154H57.1671ZM56.3871 21.657V22.533H56.6361V21.657H56.3871ZM59.0718 21.699V21.9H60.7668V21.699H59.0718ZM58.7658 22.863V23.067H61.2168V22.863H58.7658ZM59.8608 22.998V24.237H60.1098V22.998H59.8608ZM60.6498 21.699V21.933C60.6498 22.206 60.6498 22.521 60.5448 22.959L60.7908 22.992C60.8928 22.533 60.8928 22.215 60.8928 21.933V21.699H60.6498ZM61.7686 22.788V22.992H63.6316V22.788H61.7686ZM61.4596 23.685V23.895H63.9166V23.685H61.4596ZM62.5576 22.875V23.769H62.8066V22.875H62.5576ZM61.7686 21.738V22.878H62.0176V21.942H63.6046V21.738H61.7686ZM65.2053 21.63V22.713H67.0113V21.63H66.7623V21.969H65.4513V21.63H65.2053ZM65.4513 22.167H66.7623V22.512H65.4513V22.167ZM64.8783 23.001V23.205H67.3293V23.001H64.8783ZM65.9823 22.596V23.091H66.2283V22.596H65.9823ZM65.1963 23.97V24.174H67.0593V23.97H65.1963ZM65.1963 23.424V24.039H65.4453V23.424H65.1963ZM68.993 21.798V22.017C68.993 22.401 68.714 22.761 68.309 22.905L68.438 23.103C68.891 22.935 69.197 22.512 69.197 22.017V21.798H68.993ZM69.041 21.798V22.017C69.041 22.47 69.332 22.878 69.773 23.04L69.899 22.842C69.506 22.704 69.242 22.365 69.242 22.017V21.798H69.041ZM69.752 22.227V22.434H70.355V22.227H69.752ZM68.387 21.708V21.909H69.836V21.708H68.387ZM68.723 23.292V23.496H70.283V24.234H70.532V23.292H68.723ZM70.283 21.522V23.145H70.532V21.522H70.283ZM72.0337 23.112V24.198H72.9727V23.112H72.7417V23.451H72.2677V23.112H72.0337ZM72.2677 23.637H72.7417V24.003H72.2677V23.637ZM73.4977 23.097V23.322C73.4977 23.598 73.3297 23.895 73.0027 24.033L73.1287 24.222C73.5037 24.063 73.6897 23.691 73.6897 23.322V23.097H73.4977ZM73.5487 23.097V23.322C73.5487 23.706 73.7317 24.066 74.1097 24.222L74.2357 24.033C73.9087 23.907 73.7407 23.613 73.7407 23.322V23.097H73.5487ZM73.0867 22.158V22.365H73.8157V22.158H73.0867ZM72.4627 21.642C72.0577 21.642 71.7637 21.894 71.7637 22.266C71.7637 22.635 72.0577 22.89 72.4627 22.89C72.8677 22.89 73.1617 22.635 73.1617 22.266C73.1617 21.894 72.8677 21.642 72.4627 21.642ZM72.4627 21.849C72.7297 21.849 72.9217 22.02 72.9217 22.266C72.9217 22.509 72.7297 22.683 72.4627 22.683C72.1957 22.683 72.0037 22.509 72.0037 22.266C72.0037 22.02 72.1957 21.849 72.4627 21.849ZM73.7047 21.522V22.959H73.9537V21.522H73.7047ZM74.7485 22.335V22.539H76.5905V22.335H74.7485ZM74.4155 22.902V23.106H76.8755V22.902H74.4155ZM74.7485 21.621V22.437H74.9945V21.621H74.7485ZM74.7305 23.964V24.168H76.6055V23.964H74.7305ZM74.7305 23.376V24.018H74.9765V23.376H74.7305ZM78.5602 21.729C78.1612 21.729 77.8792 22.098 77.8792 22.674C77.8792 23.253 78.1612 23.622 78.5602 23.622C78.9592 23.622 79.2412 23.253 79.2412 22.674C79.2412 22.098 78.9592 21.729 78.5602 21.729ZM78.5602 21.954C78.8212 21.954 79.0042 22.236 79.0042 22.674C79.0042 23.115 78.8212 23.403 78.5602 23.403C78.2962 23.403 78.1162 23.115 78.1162 22.674C78.1162 22.236 78.2962 21.954 78.5602 21.954ZM79.6732 21.522V24.234H79.9252V21.522H79.6732ZM79.8652 22.605V22.815H80.3692V22.605H79.8652ZM82.502 21.519V24.237H82.751V21.519H82.502ZM81.32 21.729C80.921 21.729 80.633 22.098 80.633 22.674C80.633 23.253 80.921 23.622 81.32 23.622C81.722 23.622 82.01 23.253 82.01 22.674C82.01 22.098 81.722 21.729 81.32 21.729ZM81.32 21.954C81.587 21.954 81.77 22.236 81.77 22.674C81.77 23.115 81.587 23.403 81.32 23.403C81.056 23.403 80.87 23.115 80.87 22.674C80.87 22.236 81.056 21.954 81.32 21.954ZM85.1957 21.522V24.24H85.4447V21.522H85.1957ZM83.4017 23.355V23.565H83.6207C84.1667 23.565 84.5207 23.55 84.9347 23.472L84.9077 23.262C84.5057 23.337 84.1577 23.355 83.6207 23.355H83.4017ZM83.4017 21.78V23.433H83.6477V21.987H84.6827V21.78H83.4017ZM86.6445 21.729C86.2485 21.729 85.9695 22.098 85.9695 22.674C85.9695 23.253 86.2485 23.622 86.6445 23.622C87.0375 23.622 87.3195 23.253 87.3195 22.674C87.3195 22.098 87.0375 21.729 86.6445 21.729ZM86.6445 21.954C86.9055 21.954 87.0825 22.236 87.0825 22.674C87.0825 23.115 86.9055 23.403 86.6445 23.403C86.3835 23.403 86.2065 23.115 86.2065 22.674C86.2065 22.236 86.3835 21.954 86.6445 21.954ZM87.9075 21.519V24.237H88.1535V21.519H87.9075ZM87.2385 22.554V22.758H88.0155V22.554H87.2385ZM90.4483 21.519V24.234H90.7003V21.519H90.4483ZM90.6313 22.62V22.827H91.1323V22.62H90.6313ZM89.7553 21.813V21.852C89.7553 22.569 89.3803 23.148 88.6303 23.529L88.7683 23.721C89.6443 23.28 89.9983 22.584 89.9983 21.813H89.7553ZM88.7563 21.813V22.017H89.8843V21.813H88.7563ZM92.25 22.689V22.893H93.639V22.689H92.25ZM92.805 22.851V23.475H93.057V22.851H92.805ZM92.25 21.777V22.761H92.499V21.981H93.624V21.777H92.25ZM93.996 21.519V24.237H94.245V21.519H93.996ZM92.085 23.649C92.598 23.652 93.246 23.64 93.84 23.55L93.819 23.364C93.246 23.433 92.58 23.439 92.049 23.442L92.085 23.649ZM95.3997 23.073V23.796H95.6457V23.073H95.3997ZM96.2697 23.073V23.796H96.5157V23.073H96.2697ZM94.7307 23.688V23.895H97.1877V23.688H94.7307ZM95.8287 21.84V22.008C95.8287 22.44 95.3157 22.815 94.8477 22.896L94.9497 23.097C95.4837 22.983 96.0387 22.566 96.0387 22.008V21.84H95.8287ZM95.8737 21.84V22.008C95.8737 22.566 96.4317 22.977 96.9747 23.085L97.0737 22.887C96.5997 22.809 96.0837 22.44 96.0837 22.008V21.84H95.8737ZM94.9317 21.759V21.963H96.9807V21.759H94.9317ZM97.6985 24.0202C97.6403 24.0202 97.5902 23.9996 97.5483 23.9585C97.5064 23.9165 97.4855 23.8661 97.4855 23.8072C97.4855 23.7489 97.5064 23.6992 97.5483 23.658C97.5902 23.6161 97.6403 23.5952 97.6985 23.5952C97.7568 23.5952 97.8068 23.6161 97.8487 23.658C97.8906 23.6992 97.9116 23.7489 97.9116 23.8072C97.9116 23.8462 97.9017 23.8821 97.8818 23.9148C97.8626 23.9467 97.837 23.9723 97.8051 23.9915C97.7731 24.0107 97.7376 24.0202 97.6985 24.0202ZM2.50586 28.519V31.237H2.75186V28.519H2.50586ZM1.92086 29.509V29.713H2.57786V29.509H1.92086ZM1.20986 28.909V29.314C1.20986 29.797 0.88886 30.31 0.49886 30.502L0.64586 30.7C1.07486 30.478 1.41086 29.899 1.41086 29.314V28.909H1.20986ZM1.26086 28.909V29.314C1.26086 29.872 1.59086 30.43 2.01986 30.643L2.16686 30.448C1.77386 30.262 1.45886 29.767 1.45886 29.314V28.909H1.26086ZM0.59786 28.798V29.005H2.07386V28.798H0.59786ZM3.54663 29.335V29.539H5.38863V29.335H3.54663ZM3.21363 29.902V30.106H5.67363V29.902H3.21363ZM3.54663 28.621V29.437H3.79263V28.621H3.54663ZM3.52863 30.964V31.168H5.40363V30.964H3.52863ZM3.52863 30.376V31.018H3.77463V30.376H3.52863ZM8.60634 28.519V31.237H8.85534V28.519H8.60634ZM7.42434 28.729C7.02534 28.729 6.73734 29.098 6.73734 29.674C6.73734 30.253 7.02534 30.622 7.42434 30.622C7.82634 30.622 8.11434 30.253 8.11434 29.674C8.11434 29.098 7.82634 28.729 7.42434 28.729ZM7.42434 28.954C7.69134 28.954 7.87434 29.236 7.87434 29.674C7.87434 30.115 7.69134 30.403 7.42434 30.403C7.16034 30.403 6.97434 30.115 6.97434 29.674C6.97434 29.236 7.16034 28.954 7.42434 28.954ZM9.4431 29.941V30.145H9.6471C10.1841 30.145 10.4991 30.133 10.8801 30.067L10.8591 29.863C10.4901 29.929 10.1781 29.941 9.6471 29.941H9.4431ZM9.4371 28.711V28.912H10.3941V29.311H9.4431V30.067H9.6891V29.506H10.6371V28.711H9.4371ZM11.3121 28.525V30.514H11.5611V28.525H11.3121ZM9.8121 30.97V31.174H11.6451V30.97H9.8121ZM9.8121 30.367V31.033H10.0611V30.367H9.8121ZM10.8051 29.227V29.443H11.3751V29.227H10.8051ZM14.7368 28.519V31.237H14.9828V28.519H14.7368ZM14.1518 29.509V29.713H14.8088V29.509H14.1518ZM13.4408 28.909V29.314C13.4408 29.797 13.1198 30.31 12.7298 30.502L12.8768 30.7C13.3058 30.478 13.6418 29.899 13.6418 29.314V28.909H13.4408ZM13.4918 28.909V29.314C13.4918 29.872 13.8218 30.43 14.2508 30.643L14.3978 30.448C14.0048 30.262 13.6898 29.767 13.6898 29.314V28.909H13.4918ZM12.8288 28.798V29.005H14.3048V28.798H12.8288ZM16.3266 28.717C15.9036 28.717 15.5976 28.978 15.5976 29.356C15.5976 29.737 15.9036 29.998 16.3266 29.998C16.7496 29.998 17.0526 29.737 17.0526 29.356C17.0526 28.978 16.7496 28.717 16.3266 28.717ZM16.3266 28.933C16.6056 28.933 16.8096 29.104 16.8096 29.356C16.8096 29.608 16.6056 29.782 16.3266 29.782C16.0446 29.782 15.8406 29.608 15.8406 29.356C15.8406 29.104 16.0446 28.933 16.3266 28.933ZM17.4066 28.519V31.237H17.6556V28.519H17.4066ZM15.4956 30.643C15.9786 30.643 16.6416 30.64 17.2506 30.523L17.2296 30.34C16.6386 30.433 15.9546 30.436 15.4596 30.436L15.4956 30.643ZM19.5893 28.729C19.1903 28.729 18.9083 29.098 18.9083 29.674C18.9083 30.253 19.1903 30.622 19.5893 30.622C19.9883 30.622 20.2703 30.253 20.2703 29.674C20.2703 29.098 19.9883 28.729 19.5893 28.729ZM19.5893 28.954C19.8503 28.954 20.0333 29.236 20.0333 29.674C20.0333 30.115 19.8503 30.403 19.5893 30.403C19.3253 30.403 19.1453 30.115 19.1453 29.674C19.1453 29.236 19.3253 28.954 19.5893 28.954ZM20.7023 28.522V31.234H20.9543V28.522H20.7023ZM20.8943 29.605V29.815H21.3983V29.605H20.8943ZM23.5311 28.519V31.237H23.7801V28.519H23.5311ZM22.3491 28.729C21.9501 28.729 21.6621 29.098 21.6621 29.674C21.6621 30.253 21.9501 30.622 22.3491 30.622C22.7511 30.622 23.0391 30.253 23.0391 29.674C23.0391 29.098 22.7511 28.729 22.3491 28.729ZM22.3491 28.954C22.6161 28.954 22.7991 29.236 22.7991 29.674C22.7991 30.115 22.6161 30.403 22.3491 30.403C22.0851 30.403 21.8991 30.115 21.8991 29.674C21.8991 29.236 22.0851 28.954 22.3491 28.954ZM26.2248 28.522V31.24H26.4738V28.522H26.2248ZM24.4308 30.355V30.565H24.6498C25.1958 30.565 25.5498 30.55 25.9638 30.472L25.9368 30.262C25.5348 30.337 25.1868 30.355 24.6498 30.355H24.4308ZM24.4308 28.78V30.433H24.6768V28.987H25.7118V28.78H24.4308ZM27.6736 28.729C27.2776 28.729 26.9986 29.098 26.9986 29.674C26.9986 30.253 27.2776 30.622 27.6736 30.622C28.0666 30.622 28.3486 30.253 28.3486 29.674C28.3486 29.098 28.0666 28.729 27.6736 28.729ZM27.6736 28.954C27.9346 28.954 28.1116 29.236 28.1116 29.674C28.1116 30.115 27.9346 30.403 27.6736 30.403C27.4126 30.403 27.2356 30.115 27.2356 29.674C27.2356 29.236 27.4126 28.954 27.6736 28.954ZM28.9366 28.519V31.237H29.1826V28.519H28.9366ZM28.2676 29.554V29.758H29.0446V29.554H28.2676ZM29.6414 29.782V29.971H32.1014V29.782H29.6414ZM29.9324 30.19V30.367H31.5494V30.598H29.9414V31.087H30.1874V30.769H31.7924V30.19H29.9324ZM29.9414 31.021V31.201H31.8794V31.021H29.9414ZM29.9534 28.6V28.777H31.5404V28.996H29.9594V29.458H30.2054V29.164H31.7834V28.6H29.9534ZM29.9594 29.398V29.578H31.8344V29.398H29.9594ZM33.7441 29.992V30.766H33.9931V29.992H33.7441ZM34.5811 29.992V30.766H34.8271V29.992H34.5811ZM33.0661 30.7V30.907H35.5231V30.7H33.0661ZM33.2791 28.771V28.975H35.2921V28.771H33.2791ZM33.2851 29.857V30.058H35.2891V29.857H33.2851ZM33.7021 28.936V29.899H33.9511V28.936H33.7021ZM34.6261 28.936V29.899H34.8721V28.936H34.6261ZM37.7398 28.525V30.592H37.9888V28.525H37.7398ZM37.2808 29.242V29.446H37.8448V29.242H37.2808ZM37.2808 29.815V30.016H37.8448V29.815H37.2808ZM35.7628 28.852V29.053H37.2808V28.852H35.7628ZM36.5308 29.203C36.1678 29.203 35.9158 29.41 35.9158 29.722C35.9158 30.031 36.1678 30.241 36.5308 30.241C36.8908 30.241 37.1428 30.031 37.1428 29.722C37.1428 29.41 36.8908 29.203 36.5308 29.203ZM36.5308 29.398C36.7558 29.398 36.9088 29.53 36.9088 29.722C36.9088 29.914 36.7558 30.043 36.5308 30.043C36.3058 30.043 36.1528 29.914 36.1528 29.722C36.1528 29.53 36.3058 29.398 36.5308 29.398ZM36.4078 28.519V28.981H36.6568V28.519H36.4078ZM36.2458 30.97V31.174H38.0548V30.97H36.2458ZM36.2458 30.415V31.069H36.4948V30.415H36.2458ZM40.2896 28.522V31.234H40.5386V28.522H40.2896ZM40.4786 29.635V29.845H40.9826V29.635H40.4786ZM38.4386 28.954V29.158H40.0376V28.954H38.4386ZM39.2486 29.383C38.8676 29.383 38.5886 29.641 38.5886 30.007C38.5886 30.373 38.8676 30.631 39.2486 30.631C39.6326 30.631 39.9086 30.373 39.9086 30.007C39.9086 29.641 39.6326 29.383 39.2486 29.383ZM39.2486 29.59C39.4946 29.59 39.6716 29.761 39.6716 30.007C39.6716 30.25 39.4946 30.424 39.2486 30.424C39.0026 30.424 38.8256 30.25 38.8256 30.007C38.8256 29.761 39.0026 29.59 39.2486 29.59ZM39.1196 28.555V29.047H39.3686V28.555H39.1196ZM41.4774 29.335V29.539H43.3194V29.335H41.4774ZM41.1444 29.902V30.106H43.6044V29.902H41.1444ZM41.4774 28.621V29.437H41.7234V28.621H41.4774ZM41.4594 30.964V31.168H43.3344V30.964H41.4594ZM41.4594 30.376V31.018H41.7054V30.376H41.4594ZM45.6641 28.618V28.768C45.6641 29.155 45.1871 29.479 44.6921 29.554L44.7911 29.755C45.3551 29.659 45.8831 29.287 45.8831 28.768V28.618H45.6641ZM45.7091 28.618V28.768C45.7091 29.281 46.2401 29.659 46.7981 29.755L46.8971 29.554C46.4081 29.479 45.9251 29.146 45.9251 28.768V28.618H45.7091ZM45.6641 30.202V31.234H45.9101V30.202H45.6641ZM44.5691 30.049V30.256H47.0201V30.049H44.5691ZM49.1168 28.519V30.484H49.3658V28.519H49.1168ZM49.2908 29.326V29.533H49.7678V29.326H49.2908ZM47.3858 29.8V30.007H47.5958C48.1658 30.007 48.4868 29.989 48.8588 29.911L48.8318 29.71C48.4688 29.785 48.1538 29.8 47.5958 29.8H47.3858ZM47.3858 28.753V29.911H47.6318V28.96H48.5828V28.753H47.3858ZM47.6768 30.97V31.174H49.4888V30.97H47.6768ZM47.6768 30.289V31.063H47.9258V30.289H47.6768ZM51.1806 28.693C50.6166 28.693 50.1936 28.993 50.1936 29.443C50.1936 29.896 50.6166 30.193 51.1806 30.193C51.7446 30.193 52.1646 29.896 52.1646 29.443C52.1646 28.993 51.7446 28.693 51.1806 28.693ZM51.1806 28.897C51.6096 28.897 51.9276 29.116 51.9276 29.443C51.9276 29.767 51.6096 29.989 51.1806 29.989C50.7516 29.989 50.4336 29.767 50.4336 29.443C50.4336 29.116 50.7516 28.897 51.1806 28.897ZM49.9566 30.667V30.877H52.4136V30.667H49.9566ZM52.6504 30.694V30.901H55.1074V30.694H52.6504ZM53.7484 30.112V30.781H53.9974V30.112H53.7484ZM52.9474 28.723V28.924H54.5584V29.344H52.9564V30.088H53.2024V29.545H54.8044V28.723H52.9474ZM52.9564 29.983V30.187H54.8674V29.983H52.9564ZM57.9051 28.519V31.237H58.1571V28.519H57.9051ZM58.0971 29.59V29.8H58.6011V29.59H58.0971ZM56.1861 30.352V30.562H56.3991C56.9091 30.562 57.2661 30.547 57.6831 30.469L57.6561 30.259C57.2511 30.334 56.9001 30.352 56.3991 30.352H56.1861ZM56.1861 28.783V30.445H56.4321V28.987H57.4461V28.783H56.1861ZM60.7938 28.927V29.134H61.2648V28.927H60.7938ZM60.7938 29.503V29.71H61.2648V29.503H60.7938ZM59.5218 28.681C59.1138 28.681 58.8138 28.945 58.8138 29.323C58.8138 29.698 59.1138 29.959 59.5218 29.959C59.9298 29.959 60.2298 29.698 60.2298 29.323C60.2298 28.945 59.9298 28.681 59.5218 28.681ZM59.5218 28.891C59.7918 28.891 59.9868 29.068 59.9868 29.323C59.9868 29.578 59.7918 29.752 59.5218 29.752C59.2518 29.752 59.0568 29.578 59.0568 29.323C59.0568 29.068 59.2518 28.891 59.5218 28.891ZM60.6198 28.522V30.127H60.8688V28.522H60.6198ZM60.0048 30.214C59.4528 30.214 59.1138 30.403 59.1138 30.721C59.1138 31.042 59.4528 31.228 60.0048 31.228C60.5568 31.228 60.8958 31.042 60.8958 30.721C60.8958 30.403 60.5568 30.214 60.0048 30.214ZM60.0048 30.415C60.4068 30.415 60.6528 30.526 60.6528 30.721C60.6528 30.916 60.4068 31.03 60.0048 31.03C59.6028 31.03 59.3568 30.916 59.3568 30.721C59.3568 30.526 59.6028 30.415 60.0048 30.415ZM63.3136 28.525V30.559H63.5626V28.525H63.3136ZM63.4846 29.413V29.623H63.9646V29.413H63.4846ZM61.4656 28.852V29.053H63.0676V28.852H61.4656ZM62.2666 29.203C61.8796 29.203 61.6156 29.404 61.6156 29.71C61.6156 30.013 61.8796 30.214 62.2666 30.214C62.6506 30.214 62.9146 30.013 62.9146 29.71C62.9146 29.404 62.6506 29.203 62.2666 29.203ZM62.2666 29.398C62.5096 29.398 62.6776 29.521 62.6776 29.71C62.6776 29.896 62.5096 30.019 62.2666 30.019C62.0206 30.019 61.8526 29.896 61.8526 29.71C61.8526 29.521 62.0206 29.398 62.2666 29.398ZM62.1406 28.522V28.957H62.3896V28.522H62.1406ZM61.8736 30.97V31.174H63.6856V30.97H61.8736ZM61.8736 30.397V31.057H62.1226V30.397H61.8736ZM65.5953 28.756V29.242C65.5953 29.755 65.2683 30.274 64.8663 30.466L65.0193 30.67C65.4633 30.445 65.7993 29.866 65.7993 29.242V28.756H65.5953ZM65.6373 28.756V29.242C65.6373 29.845 65.9763 30.403 66.4173 30.619L66.5673 30.421C66.1653 30.235 65.8413 29.737 65.8413 29.242V28.756H65.6373ZM66.8493 28.519V31.237H67.0983V28.519H66.8493ZM67.8841 29.788V29.992H69.7471V29.788H67.8841ZM67.5751 30.685V30.895H70.0321V30.685H67.5751ZM68.6731 29.875V30.769H68.9221V29.875H68.6731ZM67.8841 28.738V29.878H68.1331V28.942H69.7201V28.738H67.8841ZM70.2659 29.782V29.971H72.7259V29.782H70.2659ZM70.5569 30.19V30.367H72.1739V30.598H70.5659V31.087H70.8119V30.769H72.4169V30.19H70.5569ZM70.5659 31.021V31.201H72.5039V31.021H70.5659ZM70.5779 28.6V28.777H72.1649V28.996H70.5839V29.458H70.8299V29.164H72.4079V28.6H70.5779ZM70.5839 29.398V29.578H72.4589V29.398H70.5839ZM75.5446 28.513V30.01H75.7936V28.513H75.5446ZM75.6886 29.164V29.374H76.1956V29.164H75.6886ZM74.0716 30.148V30.337H75.5506V30.574H74.0776V31.084H74.3236V30.754H75.7936V30.148H74.0716ZM74.0776 31.012V31.204H75.8926V31.012H74.0776ZM73.6966 28.765V28.96H75.2986V28.765H73.6966ZM74.4976 29.08C74.1016 29.08 73.8466 29.251 73.8466 29.527C73.8466 29.8 74.1016 29.968 74.4976 29.968C74.8876 29.968 75.1456 29.8 75.1456 29.527C75.1456 29.251 74.8876 29.08 74.4976 29.08ZM74.4976 29.263C74.7466 29.263 74.9086 29.365 74.9086 29.527C74.9086 29.686 74.7466 29.788 74.4976 29.788C74.2456 29.788 74.0836 29.686 74.0836 29.527C74.0836 29.365 74.2456 29.263 74.4976 29.263ZM74.3716 28.492V28.9H74.6206V28.492H74.3716ZM78.2073 28.618V28.768C78.2073 29.155 77.7303 29.479 77.2353 29.554L77.3343 29.755C77.8983 29.659 78.4263 29.287 78.4263 28.768V28.618H78.2073ZM78.2523 28.618V28.768C78.2523 29.281 78.7833 29.659 79.3413 29.755L79.4403 29.554C78.9513 29.479 78.4683 29.146 78.4683 28.768V28.618H78.2523ZM78.2073 30.202V31.234H78.4533V30.202H78.2073ZM77.1123 30.049V30.256H79.5633V30.049H77.1123ZM81.209 30.19V30.337C81.209 30.598 81.005 30.889 80.663 31.012L80.789 31.198C81.179 31.048 81.401 30.691 81.401 30.337V30.19H81.209ZM81.263 30.19V30.337C81.263 30.697 81.44 31.069 81.83 31.222L81.935 31.033C81.611 30.901 81.449 30.61 81.449 30.337V30.19H81.263ZM82.211 30.19V30.337C82.211 30.571 82.046 30.886 81.725 31.033L81.83 31.222C82.217 31.057 82.397 30.655 82.397 30.337V30.19H82.211ZM82.262 30.19V30.337C82.262 30.712 82.478 31.054 82.874 31.198L83 31.012C82.655 30.895 82.454 30.616 82.454 30.337V30.19H82.262ZM82.505 28.525V30.073H82.757V28.525H82.505ZM81.302 28.681C80.891 28.681 80.594 28.939 80.594 29.314C80.594 29.689 80.891 29.944 81.302 29.944C81.713 29.944 82.007 29.689 82.007 29.314C82.007 28.939 81.713 28.681 81.302 28.681ZM81.302 28.888C81.572 28.888 81.767 29.062 81.767 29.314C81.767 29.566 81.572 29.737 81.302 29.737C81.032 29.737 80.837 29.566 80.837 29.314C80.837 29.062 81.032 28.888 81.302 28.888ZM83.5577 29.335V29.539H85.3997V29.335H83.5577ZM83.2247 29.902V30.106H85.6847V29.902H83.2247ZM83.5577 28.621V29.437H83.8037V28.621H83.5577ZM83.5397 30.964V31.168H85.4147V30.964H83.5397ZM83.5397 30.376V31.018H83.7857V30.376H83.5397ZM88.6925 28.522V30.202H88.9325V28.522H88.6925ZM88.2035 28.57V30.193H88.4405V28.57H88.2035ZM87.7295 29.866V30.043H88.3205V29.866H87.7295ZM87.2495 29.671V30.193H87.4865V29.671H87.2495ZM86.6585 29.77C87.0335 29.77 87.6125 29.764 88.0775 29.668L88.0595 29.497C87.6095 29.569 87.0035 29.575 86.6315 29.575L86.6585 29.77ZM87.1085 30.301V31.198H88.9325V30.301H88.6865V30.553H87.3545V30.301H87.1085ZM87.3545 30.745H88.6865V31H87.3545V30.745ZM87.3635 28.615C87.0095 28.615 86.7725 28.771 86.7725 29.017C86.7725 29.266 87.0095 29.422 87.3635 29.422C87.7145 29.422 87.9515 29.266 87.9515 29.017C87.9515 28.771 87.7145 28.615 87.3635 28.615ZM87.3635 28.792C87.5825 28.792 87.7265 28.879 87.7265 29.017C87.7265 29.158 87.5825 29.242 87.3635 29.242C87.1415 29.242 86.9975 29.158 86.9975 29.017C86.9975 28.879 87.1415 28.792 87.3635 28.792ZM90.5672 28.567C89.9672 28.567 89.6132 28.735 89.6132 29.038C89.6132 29.341 89.9672 29.509 90.5672 29.509C91.1642 29.509 91.5212 29.341 91.5212 29.038C91.5212 28.735 91.1642 28.567 90.5672 28.567ZM90.5672 28.756C91.0082 28.756 91.2632 28.858 91.2632 29.038C91.2632 29.218 91.0082 29.32 90.5672 29.32C90.1232 29.32 89.8682 29.218 89.8682 29.038C89.8682 28.858 90.1232 28.756 90.5672 28.756ZM89.3402 29.689V29.89H91.7912V29.689H89.3402ZM89.6372 30.121V30.313H91.2332V30.553H89.6432V31.063H89.8892V30.733H91.4792V30.121H89.6372ZM89.6432 31.009V31.204H91.5602V31.009H89.6432ZM94.1539 29.161V29.368H94.8379V29.161H94.1539ZM93.4429 28.687V29.02C93.4429 29.434 93.1699 29.818 92.7679 29.968L92.8969 30.166C93.3499 29.983 93.6439 29.545 93.6439 29.02V28.687H93.4429ZM93.4909 28.687V29.029C93.4909 29.512 93.7819 29.932 94.2139 30.1L94.3489 29.908C93.9559 29.764 93.6919 29.407 93.6919 29.029V28.687H93.4909ZM94.7449 28.525V30.553H94.9939V28.525H94.7449ZM93.2509 30.97V31.174H95.0599V30.97H93.2509ZM93.2509 30.328V31.066H93.4999V30.328H93.2509ZM95.5727 29.818V30.025H95.7467C96.1817 30.025 96.4397 30.013 96.7517 29.953L96.7277 29.749C96.4247 29.809 96.1727 29.818 95.7467 29.818H95.5727ZM95.5727 28.72V29.929H95.8127V28.924H96.6227V28.72H95.5727ZM95.7377 29.26V29.455H96.5897V29.26H95.7377ZM97.5047 28.522V30.166H97.7417V28.522H97.5047ZM97.0667 29.23V29.434H97.5797V29.23H97.0667ZM96.9077 28.573V30.151H97.1417V28.573H96.9077ZM95.9237 30.31V30.514H97.4957V31.234H97.7417V30.31H95.9237ZM100.198 28.525V30.202H100.435V28.525H100.198ZM99.7575 29.266V29.47H100.27V29.266H99.7575ZM99.6225 28.564V30.163H99.8595V28.564H99.6225ZM98.1375 28.831V29.029H99.5115V28.831H98.1375ZM98.8275 29.164C98.4855 29.164 98.2485 29.347 98.2485 29.629C98.2485 29.911 98.4855 30.094 98.8275 30.094C99.1665 30.094 99.4035 29.911 99.4035 29.629C99.4035 29.347 99.1665 29.164 98.8275 29.164ZM98.8275 29.353C99.0375 29.353 99.1815 29.461 99.1815 29.629C99.1815 29.797 99.0375 29.908 98.8275 29.908C98.6145 29.908 98.4705 29.797 98.4705 29.629C98.4705 29.461 98.6145 29.353 98.8275 29.353ZM98.7045 28.534V28.948H98.9475V28.534H98.7045ZM98.8665 30.283V30.376C98.8665 30.622 98.6625 30.901 98.3235 31.015L98.4405 31.201C98.8335 31.06 99.0585 30.718 99.0585 30.376V30.283H98.8665ZM98.9235 30.283V30.376C98.9235 30.721 99.0975 31.081 99.4845 31.225L99.5895 31.036C99.2655 30.913 99.1065 30.637 99.1065 30.376V30.283H98.9235ZM99.8625 30.283V30.376C99.8625 30.601 99.6975 30.898 99.3825 31.036L99.4845 31.225C99.8685 31.069 100.045 30.682 100.045 30.376V30.283H99.8625ZM99.9135 30.283V30.376C99.9135 30.736 100.135 31.066 100.531 31.201L100.651 31.015C100.309 30.907 100.105 30.64 100.105 30.376V30.283H99.9135ZM101.155 30.148V31.198H102.976V30.148H102.727V30.463H101.401V30.148H101.155ZM101.401 30.655H102.727V30.997H101.401V30.655ZM100.843 29.758V29.959H103.294V29.758H100.843ZM101.944 28.552V28.672C101.944 29.014 101.473 29.305 100.984 29.371L101.074 29.566C101.632 29.482 102.157 29.143 102.157 28.672V28.552H101.944ZM101.983 28.552V28.672C101.983 29.137 102.511 29.482 103.063 29.566L103.156 29.371C102.673 29.305 102.196 29.008 102.196 28.672V28.552H101.983ZM105.511 28.522V31.234H105.76V28.522H105.511ZM103.711 28.786V30.466H103.957V28.786H103.711ZM103.711 30.319V30.535H103.933C104.362 30.535 104.791 30.502 105.262 30.406L105.232 30.193C104.773 30.289 104.344 30.319 103.933 30.319H103.711ZM108.067 28.519V31.237H108.319V28.519H108.067ZM108.259 29.59V29.8H108.763V29.59H108.259ZM106.348 30.352V30.562H106.561C107.071 30.562 107.428 30.547 107.845 30.469L107.818 30.259C107.413 30.334 107.062 30.352 106.561 30.352H106.348ZM106.348 28.783V30.445H106.594V28.987H107.608V28.783H106.348ZM109.202 31.0202C109.143 31.0202 109.093 30.9996 109.051 30.9585C109.009 30.9165 108.988 30.8661 108.988 30.8072C108.988 30.7489 109.009 30.6992 109.051 30.658C109.093 30.6161 109.143 30.5952 109.202 30.5952C109.26 30.5952 109.31 30.6161 109.352 30.658C109.394 30.6992 109.415 30.7489 109.415 30.8072C109.415 30.8462 109.405 30.8821 109.385 30.9148C109.366 30.9467 109.34 30.9723 109.308 30.9915C109.276 31.0107 109.241 31.0202 109.202 31.0202ZM35.4031 36.953V37.157H37.8541V36.953H35.4031ZM35.6761 37.415V37.619H37.2901V38.234H37.5391V37.415H35.6761ZM35.7271 36.506V36.701H37.5661V36.506H35.7271ZM35.7271 35.594V36.596H35.9731V35.789H37.5541V35.594H35.7271ZM35.9011 36.044V36.233H37.4821V36.044H35.9011ZM40.0679 35.519V38.237H40.3169V35.519H40.0679ZM38.8859 35.729C38.4869 35.729 38.1989 36.098 38.1989 36.674C38.1989 37.253 38.4869 37.622 38.8859 37.622C39.2879 37.622 39.5759 37.253 39.5759 36.674C39.5759 36.098 39.2879 35.729 38.8859 35.729ZM38.8859 35.954C39.1529 35.954 39.3359 36.236 39.3359 36.674C39.3359 37.115 39.1529 37.403 38.8859 37.403C38.6219 37.403 38.4359 37.115 38.4359 36.674C38.4359 36.236 38.6219 35.954 38.8859 35.954ZM42.6476 35.522V37.154H42.8966V35.522H42.6476ZM42.8276 36.242V36.449H43.2986V36.242H42.8276ZM41.1926 37.307V38.198H42.8966V37.307H41.1926ZM42.6536 37.508V37.997H41.4356V37.508H42.6536ZM40.7996 35.807V36.011H42.4016V35.807H40.7996ZM41.6006 36.143C41.2106 36.143 40.9496 36.335 40.9496 36.629C40.9496 36.923 41.2106 37.109 41.6006 37.109C41.9876 37.109 42.2486 36.923 42.2486 36.629C42.2486 36.335 41.9876 36.143 41.6006 36.143ZM41.6006 36.335C41.8436 36.335 42.0116 36.449 42.0116 36.629C42.0116 36.806 41.8436 36.92 41.6006 36.92C41.3516 36.92 41.1866 36.806 41.1866 36.629C41.1866 36.449 41.3516 36.335 41.6006 36.335ZM41.4746 35.498V35.912H41.7236V35.498H41.4746ZM45.4554 35.519V38.237H45.7044V35.519H45.4554ZM44.2734 35.729C43.8744 35.729 43.5864 36.098 43.5864 36.674C43.5864 37.253 43.8744 37.622 44.2734 37.622C44.6754 37.622 44.9634 37.253 44.9634 36.674C44.9634 36.098 44.6754 35.729 44.2734 35.729ZM44.2734 35.954C44.5404 35.954 44.7234 36.236 44.7234 36.674C44.7234 37.115 44.5404 37.403 44.2734 37.403C44.0094 37.403 43.8234 37.115 43.8234 36.674C43.8234 36.236 44.0094 35.954 44.2734 35.954ZM47.2001 35.645V35.846H48.9461V35.645H47.2001ZM46.9091 36.749V36.95H49.3571V36.749H46.9091ZM47.9141 36.242V36.821H48.1601V36.242H47.9141ZM48.8021 35.645V35.873C48.8021 36.086 48.8021 36.287 48.7271 36.566L48.9731 36.593C49.0481 36.314 49.0481 36.092 49.0481 35.873V35.645H48.8021ZM47.2151 37.247V38.105H47.4641V37.451H49.0451V37.247H47.2151ZM47.2151 37.991V38.195H49.0811V37.991H47.2151ZM50.3278 36.953V37.157H52.7788V36.953H50.3278ZM50.6008 37.415V37.619H52.2148V38.234H52.4638V37.415H50.6008ZM50.6518 36.506V36.701H52.4908V36.506H50.6518ZM50.6518 35.594V36.596H50.8978V35.789H52.4788V35.594H50.6518ZM50.8258 36.044V36.233H52.4068V36.044H50.8258ZM54.3026 35.906V36.101H55.0676V35.906H54.3026ZM54.3026 36.401V36.596H55.0676V36.401H54.3026ZM55.0046 35.522V36.935H55.2536V35.522H55.0046ZM53.5076 37.07V37.268H55.0076V37.526H53.5136V38.129H53.7566V37.712H55.2536V37.07H53.5076ZM53.5136 38V38.198H55.3526V38H53.5136ZM53.1566 35.645V36.83H54.3806V35.645H54.1376V36.035H53.4026V35.645H53.1566ZM53.4026 36.23H54.1376V36.629H53.4026V36.23ZM57.5724 35.522V37.154H57.8214V35.522H57.5724ZM57.7524 36.242V36.449H58.2234V36.242H57.7524ZM56.1174 37.307V38.198H57.8214V37.307H56.1174ZM57.5784 37.508V37.997H56.3604V37.508H57.5784ZM55.7244 35.807V36.011H57.3264V35.807H55.7244ZM56.5254 36.143C56.1354 36.143 55.8744 36.335 55.8744 36.629C55.8744 36.923 56.1354 37.109 56.5254 37.109C56.9124 37.109 57.1734 36.923 57.1734 36.629C57.1734 36.335 56.9124 36.143 56.5254 36.143ZM56.5254 36.335C56.7684 36.335 56.9364 36.449 56.9364 36.629C56.9364 36.806 56.7684 36.92 56.5254 36.92C56.2764 36.92 56.1114 36.806 56.1114 36.629C56.1114 36.449 56.2764 36.335 56.5254 36.335ZM56.3994 35.498V35.912H56.6484V35.498H56.3994ZM60.3801 35.519V38.237H60.6291V35.519H60.3801ZM59.1981 35.729C58.7991 35.729 58.5111 36.098 58.5111 36.674C58.5111 37.253 58.7991 37.622 59.1981 37.622C59.6001 37.622 59.8881 37.253 59.8881 36.674C59.8881 36.098 59.6001 35.729 59.1981 35.729ZM59.1981 35.954C59.4651 35.954 59.6481 36.236 59.6481 36.674C59.6481 37.115 59.4651 37.403 59.1981 37.403C58.9341 37.403 58.7481 37.115 58.7481 36.674C58.7481 36.236 58.9341 35.954 59.1981 35.954ZM62.0468 36.689V36.893H63.4358V36.689H62.0468ZM62.6018 36.851V37.475H62.8538V36.851H62.6018ZM62.0468 35.777V36.761H62.2958V35.981H63.4208V35.777H62.0468ZM63.7928 35.519V38.237H64.0418V35.519H63.7928ZM61.8818 37.649C62.3948 37.652 63.0428 37.64 63.6368 37.55L63.6158 37.364C63.0428 37.433 62.3768 37.439 61.8458 37.442L61.8818 37.649ZM64.8576 36.335V36.539H66.6996V36.335H64.8576ZM64.5246 36.902V37.106H66.9846V36.902H64.5246ZM64.8576 35.621V36.437H65.1036V35.621H64.8576ZM64.8396 37.964V38.168H66.7146V37.964H64.8396ZM64.8396 37.376V38.018H65.0856V37.376H64.8396ZM68.5493 36.917V37.73H68.7953V36.917H68.5493ZM69.5513 36.917V37.73H69.8003V36.917H69.5513ZM67.9493 37.682V37.889H70.4063V37.682H67.9493ZM69.1733 35.693C68.5973 35.693 68.1863 35.966 68.1863 36.392C68.1863 36.815 68.5973 37.088 69.1733 37.088C69.7463 37.088 70.1573 36.815 70.1573 36.392C70.1573 35.966 69.7463 35.693 69.1733 35.693ZM69.1733 35.891C69.6083 35.891 69.9173 36.089 69.9173 36.392C69.9173 36.692 69.6083 36.89 69.1733 36.89C68.7383 36.89 68.4263 36.692 68.4263 36.392C68.4263 36.089 68.7383 35.891 69.1733 35.891ZM71.7051 35.75V35.831C71.7051 36.137 71.2641 36.38 70.7781 36.434L70.8681 36.632C71.4291 36.563 71.9271 36.266 71.9271 35.831V35.75H71.7051ZM71.8101 35.75V35.831C71.8101 36.266 72.3051 36.563 72.8661 36.632L72.9561 36.434C72.4701 36.38 72.0291 36.137 72.0291 35.831V35.75H71.8101ZM70.8651 35.639V35.84H72.8721V35.639H70.8651ZM70.9401 37.283V38.198H72.7911V37.283H70.9401ZM72.5481 37.484V37.997H71.1861V37.484H72.5481ZM70.6401 36.791V36.995H73.0911V36.791H70.6401ZM73.8154 37.7017L73.7994 37.8178C73.7888 37.9031 73.7707 37.9918 73.7451 38.0842C73.7202 38.1772 73.6943 38.2635 73.6673 38.343C73.641 38.4226 73.6194 38.4858 73.6023 38.5327H73.3765C73.3857 38.4886 73.3985 38.429 73.4148 38.3537C73.4312 38.2791 73.4471 38.1957 73.4628 38.1033C73.4784 38.011 73.4901 37.9169 73.4979 37.821L73.5086 37.7017H73.8154ZM19.8978 42.729C19.5018 42.729 19.2228 43.098 19.2228 43.674C19.2228 44.253 19.5018 44.622 19.8978 44.622C20.2908 44.622 20.5728 44.253 20.5728 43.674C20.5728 43.098 20.2908 42.729 19.8978 42.729ZM19.8978 42.954C20.1588 42.954 20.3358 43.236 20.3358 43.674C20.3358 44.115 20.1588 44.403 19.8978 44.403C19.6368 44.403 19.4598 44.115 19.4598 43.674C19.4598 43.236 19.6368 42.954 19.8978 42.954ZM21.1608 42.519V45.237H21.4068V42.519H21.1608ZM20.4918 43.554V43.758H21.2688V43.554H20.4918ZM23.8366 42.522V45.24H24.0856V42.522H23.8366ZM22.0426 44.355V44.565H22.2616C22.8076 44.565 23.1616 44.55 23.5756 44.472L23.5486 44.262C23.1466 44.337 22.7986 44.355 22.2616 44.355H22.0426ZM22.0426 42.78V44.433H22.2886V42.987H23.3236V42.78H22.0426ZM25.9154 43.44V43.644H26.6714V43.44H25.9154ZM25.2614 42.756V43.239C25.2614 43.743 24.9554 44.265 24.5564 44.463L24.7154 44.661C25.1444 44.43 25.4654 43.848 25.4654 43.239V42.756H25.2614ZM25.3094 42.756V43.239C25.3094 43.833 25.6244 44.391 26.0624 44.613L26.2094 44.412C25.8164 44.226 25.5104 43.734 25.5104 43.239V42.756H25.3094ZM26.5484 42.519V45.237H26.7944V42.519H26.5484ZM27.5651 43.788V43.992H29.4281V43.788H27.5651ZM27.2561 44.685V44.895H29.7131V44.685H27.2561ZM28.3541 43.875V44.769H28.6031V43.875H28.3541ZM27.5651 42.738V43.878H27.8141V42.942H29.4011V42.738H27.5651ZM31.0018 42.564V43.458H32.8078V42.564H32.5588V42.816H31.2478V42.564H31.0018ZM31.2478 43.008H32.5588V43.266H31.2478V43.008ZM30.6748 43.719V43.92H33.1258V43.719H30.6748ZM31.7758 43.368V43.782H32.0218V43.368H31.7758ZM30.9718 44.145V44.334H32.5678V44.568H30.9778V45.084H31.2238V44.748H32.8138V44.145H30.9718ZM30.9778 45.012V45.204H32.8948V45.012H30.9778ZM35.1946 42.618V42.768C35.1946 43.155 34.7176 43.479 34.2226 43.554L34.3216 43.755C34.8856 43.659 35.4136 43.287 35.4136 42.768V42.618H35.1946ZM35.2396 42.618V42.768C35.2396 43.281 35.7706 43.659 36.3286 43.755L36.4276 43.554C35.9386 43.479 35.4556 43.146 35.4556 42.768V42.618H35.2396ZM35.1946 44.202V45.234H35.4406V44.202H35.1946ZM34.0996 44.049V44.256H36.5506V44.049H34.0996ZM37.8303 44.112V45.198H38.7693V44.112H38.5383V44.451H38.0643V44.112H37.8303ZM38.0643 44.637H38.5383V45.003H38.0643V44.637ZM39.2943 44.097V44.322C39.2943 44.598 39.1263 44.895 38.7993 45.033L38.9253 45.222C39.3003 45.063 39.4863 44.691 39.4863 44.322V44.097H39.2943ZM39.3453 44.097V44.322C39.3453 44.706 39.5283 45.066 39.9063 45.222L40.0323 45.033C39.7053 44.907 39.5373 44.613 39.5373 44.322V44.097H39.3453ZM38.8833 43.158V43.365H39.6123V43.158H38.8833ZM38.2593 42.642C37.8543 42.642 37.5603 42.894 37.5603 43.266C37.5603 43.635 37.8543 43.89 38.2593 43.89C38.6643 43.89 38.9583 43.635 38.9583 43.266C38.9583 42.894 38.6643 42.642 38.2593 42.642ZM38.2593 42.849C38.5263 42.849 38.7183 43.02 38.7183 43.266C38.7183 43.509 38.5263 43.683 38.2593 43.683C37.9923 43.683 37.8003 43.509 37.8003 43.266C37.8003 43.02 37.9923 42.849 38.2593 42.849ZM39.5013 42.522V43.959H39.7503V42.522H39.5013ZM40.545 43.335V43.539H42.387V43.335H40.545ZM40.212 43.902V44.106H42.672V43.902H40.212ZM40.545 42.621V43.437H40.791V42.621H40.545ZM40.527 44.964V45.168H42.402V44.964H40.527ZM40.527 44.376V45.018H40.773V44.376H40.527ZM45.6197 42.519V45.237H45.8657V42.519H45.6197ZM45.0347 43.509V43.713H45.6917V43.509H45.0347ZM44.3237 42.909V43.314C44.3237 43.797 44.0027 44.31 43.6127 44.502L43.7597 44.7C44.1887 44.478 44.5247 43.899 44.5247 43.314V42.909H44.3237ZM44.3747 42.909V43.314C44.3747 43.872 44.7047 44.43 45.1337 44.643L45.2807 44.448C44.8877 44.262 44.5727 43.767 44.5727 43.314V42.909H44.3747ZM43.7117 42.798V43.005H45.1877V42.798H43.7117ZM47.2095 42.717C46.7865 42.717 46.4805 42.978 46.4805 43.356C46.4805 43.737 46.7865 43.998 47.2095 43.998C47.6325 43.998 47.9355 43.737 47.9355 43.356C47.9355 42.978 47.6325 42.717 47.2095 42.717ZM47.2095 42.933C47.4885 42.933 47.6925 43.104 47.6925 43.356C47.6925 43.608 47.4885 43.782 47.2095 43.782C46.9275 43.782 46.7235 43.608 46.7235 43.356C46.7235 43.104 46.9275 42.933 47.2095 42.933ZM48.2895 42.519V45.237H48.5385V42.519H48.2895ZM46.3785 44.643C46.8615 44.643 47.5245 44.64 48.1335 44.523L48.1125 44.34C47.5215 44.433 46.8375 44.436 46.3425 44.436L46.3785 44.643ZM50.3192 42.69V43.053C50.3192 43.359 50.1062 43.71 49.7492 43.866L49.8842 44.061C50.2832 43.884 50.5172 43.458 50.5172 43.053V42.69H50.3192ZM50.3582 42.69V43.053C50.3582 43.452 50.5832 43.827 50.9732 43.983L51.1082 43.794C50.7602 43.659 50.5562 43.353 50.5562 43.053V42.69H50.3582ZM51.7982 42.525V44.196H52.0352V42.525H51.7982ZM51.3662 43.248V43.452H51.8792V43.248H51.3662ZM51.2162 42.576V44.109H51.4532V42.576H51.2162ZM51.1442 44.256C50.5832 44.256 50.2412 44.436 50.2412 44.745C50.2412 45.051 50.5832 45.228 51.1442 45.228C51.7022 45.228 52.0502 45.051 52.0502 44.745C52.0502 44.436 51.7022 44.256 51.1442 44.256ZM51.1442 44.451C51.5522 44.451 51.8012 44.559 51.8012 44.745C51.8012 44.928 51.5522 45.036 51.1442 45.036C50.7362 45.036 50.4842 44.928 50.4842 44.745C50.4842 44.559 50.7362 44.451 51.1442 44.451ZM54.3 42.522V44.112H54.549V42.522H54.3ZM54.48 43.206V43.416H54.951V43.206H54.48ZM53.55 42.696V42.804C53.55 43.305 53.142 43.698 52.44 43.89L52.542 44.085C53.334 43.869 53.811 43.38 53.811 42.696H53.55ZM52.56 42.696V42.897H53.688V42.696H52.56ZM52.788 44.238V44.439H54.3V45.234H54.549V44.238H52.788ZM55.1367 43.947V44.151H57.5877V43.947H55.1367ZM55.4547 44.97V45.174H57.3177V44.97H55.4547ZM55.4547 44.388V45.033H55.7037V44.388H55.4547ZM56.3637 42.612C55.7817 42.612 55.4097 42.816 55.4097 43.155C55.4097 43.491 55.7817 43.695 56.3637 43.695C56.9427 43.695 57.3177 43.491 57.3177 43.155C57.3177 42.816 56.9427 42.612 56.3637 42.612ZM56.3637 42.816C56.7897 42.816 57.0627 42.942 57.0627 43.155C57.0627 43.368 56.7897 43.494 56.3637 43.494C55.9377 43.494 55.6647 43.368 55.6647 43.155C55.6647 42.942 55.9377 42.816 56.3637 42.816ZM60.4155 42.522V44.145H60.6645V42.522H60.4155ZM60.5955 43.221V43.431H61.0665V43.221H60.5955ZM59.6655 42.72V42.834C59.6655 43.341 59.2515 43.749 58.5615 43.953L58.6665 44.154C59.4495 43.923 59.9325 43.416 59.9325 42.72H59.6655ZM58.6815 42.72V42.927H59.8065V42.72H58.6815ZM59.8155 44.178C59.2755 44.178 58.9305 44.376 58.9305 44.703C58.9305 45.03 59.2755 45.228 59.8155 45.228C60.3525 45.228 60.6945 45.03 60.6945 44.703C60.6945 44.376 60.3525 44.178 59.8155 44.178ZM59.8155 44.376C60.2055 44.376 60.4545 44.499 60.4545 44.703C60.4545 44.907 60.2055 45.03 59.8155 45.03C59.4255 45.03 59.1765 44.907 59.1765 44.703C59.1765 44.499 59.4255 44.376 59.8155 44.376ZM61.3662 43.866V44.07H61.5612C62.1042 44.07 62.3742 44.061 62.7102 44.001L62.6832 43.8C62.3592 43.857 62.0952 43.866 61.5612 43.866H61.3662ZM61.3602 42.684V42.888H62.2842V43.26H61.3662V43.989H61.6122V43.455H62.5302V42.684H61.3602ZM63.2352 42.525V44.19H63.4842V42.525H63.2352ZM62.7102 42.924V43.128H63.2922V42.924H62.7102ZM62.7102 43.485V43.689H63.2922V43.485H62.7102ZM61.6692 44.337V44.541H63.2352V45.24H63.4842V44.337H61.6692ZM65.803 42.525V44.559H66.052V42.525H65.803ZM65.974 43.413V43.623H66.454V43.413H65.974ZM63.955 42.852V43.053H65.557V42.852H63.955ZM64.756 43.203C64.369 43.203 64.105 43.404 64.105 43.71C64.105 44.013 64.369 44.214 64.756 44.214C65.14 44.214 65.404 44.013 65.404 43.71C65.404 43.404 65.14 43.203 64.756 43.203ZM64.756 43.398C64.999 43.398 65.167 43.521 65.167 43.71C65.167 43.896 64.999 44.019 64.756 44.019C64.51 44.019 64.342 43.896 64.342 43.71C64.342 43.521 64.51 43.398 64.756 43.398ZM64.63 42.522V42.957H64.879V42.522H64.63ZM64.363 44.97V45.174H66.175V44.97H64.363ZM64.363 44.397V45.057H64.612V44.397H64.363ZM67.3677 44.097V44.301H69.8277V44.097H67.3677ZM68.4657 44.22V45.234H68.7117V44.22H68.4657ZM67.6797 42.672V43.731H69.5097V42.672H67.6797ZM69.2667 42.873V43.53H67.9257V42.873H69.2667ZM72.0385 42.522V45.234H72.2875V42.522H72.0385ZM71.2435 42.813V42.855C71.2435 43.575 70.8805 44.151 70.0975 44.529L70.2295 44.73C71.1355 44.286 71.4895 43.599 71.4895 42.813H71.2435ZM70.2205 42.813V43.017H71.3515V42.813H70.2205ZM74.5912 42.519V45.234H74.8432V42.519H74.5912ZM74.7742 43.62V43.827H75.2752V43.62H74.7742ZM73.8982 42.813V42.852C73.8982 43.569 73.5232 44.148 72.7732 44.529L72.9112 44.721C73.7872 44.28 74.1412 43.584 74.1412 42.813H73.8982ZM72.8992 42.813V43.017H74.0272V42.813H72.8992ZM76.4379 43.233V43.425H77.7399V43.233H76.4379ZM76.4379 42.636V43.32H76.6929V42.831H77.7099V42.636H76.4379ZM76.9569 43.341V43.794H77.2059V43.341H76.9569ZM78.1539 42.522V43.98H78.4029V42.522H78.1539ZM76.2279 43.917C76.7379 43.917 77.3829 43.899 77.9589 43.815L77.9439 43.641C77.3829 43.704 76.7199 43.716 76.1949 43.719L76.2279 43.917ZM76.6149 44.103V44.301H78.1599V44.547H76.6179V45.084H76.8639V44.736H78.4029V44.103H76.6149ZM76.6179 45.006V45.204H78.4959V45.006H76.6179ZM81.5817 42.522V44.358H81.8307V42.522H81.5817ZM80.9997 43.287V43.491H81.6327V43.287H80.9997ZM80.7297 42.735V42.834C80.7297 43.365 80.3337 43.773 79.6467 43.989L79.7517 44.187C80.5287 43.935 80.9907 43.437 80.9907 42.735H80.7297ZM79.7757 42.735V42.939H80.9067V42.735H79.7757ZM80.8317 44.124V44.247C80.8317 44.643 80.4087 44.943 79.9287 45.03L80.0277 45.228C80.5707 45.117 81.0447 44.766 81.0447 44.247V44.124H80.8317ZM80.8677 44.124V44.247C80.8677 44.763 81.3357 45.114 81.8757 45.222L81.9807 45.024C81.4977 44.937 81.0807 44.637 81.0807 44.247V44.124H80.8677ZM84.2664 42.522V43.977H84.5184V42.522H84.2664ZM82.7694 44.112V45.198H84.5184V44.112H84.2724V44.442H83.0154V44.112H82.7694ZM83.0154 44.64H84.2724V44.997H83.0154V44.64ZM83.0634 42.651C82.6524 42.651 82.3554 42.906 82.3554 43.275C82.3554 43.647 82.6524 43.902 83.0634 43.902C83.4744 43.902 83.7684 43.647 83.7684 43.275C83.7684 42.906 83.4744 42.651 83.0634 42.651ZM83.0634 42.858C83.3334 42.858 83.5284 43.029 83.5284 43.275C83.5284 43.521 83.3334 43.692 83.0634 43.692C82.7934 43.692 82.5984 43.521 82.5984 43.275C82.5984 43.029 82.7934 42.858 83.0634 42.858ZM86.9602 42.522V45.234H87.2092V42.522H86.9602ZM85.1602 42.786V44.466H85.4062V42.786H85.1602ZM85.1602 44.319V44.535H85.3822C85.8112 44.535 86.2402 44.502 86.7112 44.406L86.6812 44.193C86.2222 44.289 85.7932 44.319 85.3822 44.319H85.1602ZM89.516 42.519V45.237H89.768V42.519H89.516ZM89.708 43.59V43.8H90.212V43.59H89.708ZM87.797 44.352V44.562H88.01C88.52 44.562 88.877 44.547 89.294 44.469L89.267 44.259C88.862 44.334 88.511 44.352 88.01 44.352H87.797ZM87.797 42.783V44.445H88.043V42.987H89.057V42.783H87.797ZM90.6507 45.0202C90.5925 45.0202 90.5424 44.9996 90.5005 44.9585C90.4586 44.9165 90.4377 44.8661 90.4377 44.8072C90.4377 44.7489 90.4586 44.6992 90.5005 44.658C90.5424 44.6161 90.5925 44.5952 90.6507 44.5952C90.709 44.5952 90.759 44.6161 90.8009 44.658C90.8428 44.6992 90.8638 44.7489 90.8638 44.8072C90.8638 44.8462 90.8538 44.8821 90.834 44.9148C90.8148 44.9467 90.7892 44.9723 90.7573 44.9915C90.7253 45.0107 90.6898 45.0202 90.6507 45.0202Z" fill="black"/>
</svg>
