<svg width="42" height="14" viewBox="0 0 42 14" fill="none" xmlns="http://www.w3.org/2000/svg">
<path d="M2.12604 0.173V1.079H2.20804V0.173H2.12604ZM1.93104 0.503V0.571H2.15004V0.503H1.93104ZM1.69404 0.303V0.438C1.69404 0.599 1.58704 0.77 1.45704 0.834L1.50604 0.9C1.64904 0.826 1.76104 0.633 1.76104 0.438V0.303H1.69404ZM1.71104 0.303V0.438C1.71104 0.624 1.82104 0.81 1.96404 0.881L2.01304 0.816C1.88204 0.754 1.77704 0.589 1.77704 0.438V0.303H1.71104ZM1.49004 0.266V0.335H1.98204V0.266H1.49004ZM2.67796 0.239C2.53696 0.239 2.43496 0.326 2.43496 0.452C2.43496 0.579 2.53696 0.666 2.67796 0.666C2.81896 0.666 2.91996 0.579 2.91996 0.452C2.91996 0.326 2.81896 0.239 2.67796 0.239ZM2.67796 0.311C2.77096 0.311 2.83896 0.368 2.83896 0.452C2.83896 0.536 2.77096 0.594 2.67796 0.594C2.58396 0.594 2.51596 0.536 2.51596 0.452C2.51596 0.368 2.58396 0.311 2.67796 0.311ZM3.03796 0.173V1.079H3.12096V0.173H3.03796ZM2.40096 0.881C2.56196 0.881 2.78296 0.88 2.98596 0.841L2.97896 0.78C2.78196 0.811 2.55396 0.812 2.38896 0.812L2.40096 0.881ZM3.80813 0.271V0.344C3.80813 0.473 3.71813 0.59 3.58213 0.638L3.62413 0.704C3.77613 0.649 3.87613 0.51 3.87613 0.344V0.271H3.80813ZM3.82313 0.271V0.343C3.82313 0.497 3.91913 0.626 4.07013 0.676L4.11013 0.611C3.97713 0.567 3.89113 0.461 3.89113 0.343V0.271H3.82313ZM3.60713 0.241V0.309H4.09013V0.241H3.60713ZM4.20413 0.174V0.719H4.28713V0.174H4.20413ZM4.26413 0.403V0.473H4.42113V0.403H4.26413ZM3.99913 0.743C3.81513 0.743 3.70213 0.804 3.70213 0.909C3.70213 1.015 3.81513 1.076 3.99913 1.076C4.18313 1.076 4.29613 1.015 4.29613 0.909C4.29613 0.804 4.18313 0.743 3.99913 0.743ZM3.99913 0.81C4.13313 0.81 4.21513 0.846 4.21513 0.909C4.21513 0.973 4.13313 1.011 3.99913 1.011C3.86513 1.011 3.78313 0.973 3.78313 0.909C3.78313 0.846 3.86513 0.81 3.99913 0.81ZM4.98805 0.4V0.469H5.18905V0.4H4.98805ZM5.16605 0.174V0.703H5.24905V0.174H5.16605ZM4.66305 0.747V1.066H5.24905V0.747H4.66305ZM5.16805 0.813V0.999H4.74405V0.813H5.16805ZM4.73605 0.26V0.333C4.73605 0.461 4.64305 0.581 4.50805 0.629L4.55105 0.695C4.70205 0.639 4.80405 0.498 4.80405 0.333V0.26H4.73605ZM4.75205 0.26V0.332C4.75205 0.484 4.84905 0.621 4.99605 0.674L5.03805 0.608C4.90705 0.562 4.81905 0.449 4.81905 0.332V0.26H4.75205ZM4.53405 0.232V0.299H5.01705V0.232H4.53405ZM5.42498 0.649V0.717H6.24198V0.649H5.42498ZM5.53098 0.99V1.058H6.15198V0.99H5.53098ZM5.53098 0.796V1.011H5.61398V0.796H5.53098ZM5.83398 0.204C5.63998 0.204 5.51598 0.272 5.51598 0.385C5.51598 0.497 5.63998 0.565 5.83398 0.565C6.02698 0.565 6.15198 0.497 6.15198 0.385C6.15198 0.272 6.02698 0.204 5.83398 0.204ZM5.83398 0.272C5.97598 0.272 6.06698 0.314 6.06698 0.385C6.06698 0.456 5.97598 0.498 5.83398 0.498C5.69198 0.498 5.60098 0.456 5.60098 0.385C5.60098 0.314 5.69198 0.272 5.83398 0.272ZM7.24515 0.174V0.756H7.32815V0.174H7.24515ZM7.30515 0.425V0.494H7.46215V0.425H7.30515ZM7.04415 0.764C6.86215 0.764 6.75015 0.821 6.75015 0.92C6.75015 1.019 6.86215 1.076 7.04415 1.076C7.22715 1.076 7.33815 1.019 7.33815 0.92C7.33815 0.821 7.22715 0.764 7.04415 0.764ZM7.04415 0.828C7.17715 0.828 7.25715 0.862 7.25715 0.92C7.25715 0.979 7.17715 1.012 7.04415 1.012C6.91215 1.012 6.83215 0.979 6.83215 0.92C6.83215 0.862 6.91215 0.828 7.04415 0.828ZM6.62915 0.276V0.342H7.16315V0.276H6.62915ZM6.89615 0.388C6.76615 0.388 6.67915 0.45 6.67915 0.547C6.67915 0.645 6.76615 0.707 6.89615 0.707C7.02515 0.707 7.11215 0.645 7.11215 0.547C7.11215 0.45 7.02515 0.388 6.89615 0.388ZM6.89615 0.451C6.97715 0.451 7.03315 0.489 7.03315 0.547C7.03315 0.606 6.97715 0.644 6.89615 0.644C6.81315 0.644 6.75815 0.606 6.75815 0.547C6.75815 0.489 6.81315 0.451 6.89615 0.451ZM6.85415 0.166V0.313H6.93715V0.166H6.85415ZM7.76607 0.221V0.313C7.76607 0.451 7.67807 0.573 7.54207 0.623L7.58607 0.69C7.73707 0.631 7.83507 0.487 7.83507 0.313V0.221H7.76607ZM7.78107 0.221V0.319C7.78107 0.476 7.88007 0.61 8.02507 0.664L8.06907 0.599C7.93907 0.554 7.84907 0.441 7.84907 0.319V0.221H7.78107ZM8.16507 0.174V0.722H8.24807V0.174H8.16507ZM8.22507 0.407V0.477H8.38207V0.407H8.22507ZM7.96007 0.747C7.77507 0.747 7.66307 0.808 7.66307 0.912C7.66307 1.016 7.77507 1.076 7.96007 1.076C8.14507 1.076 8.25707 1.016 8.25707 0.912C8.25707 0.808 8.14507 0.747 7.96007 0.747ZM7.96007 0.813C8.09407 0.813 8.17607 0.849 8.17607 0.912C8.17607 0.975 8.09407 1.011 7.96007 1.011C7.82607 1.011 7.74407 0.975 7.74407 0.912C7.74407 0.849 7.82607 0.813 7.96007 0.813ZM8.79324 0.786V0.856H8.86224C9.03424 0.856 9.14324 0.85 9.27324 0.826L9.26424 0.758C9.13824 0.782 9.03024 0.786 8.86224 0.786H8.79324ZM8.79324 0.26V0.812H8.87524V0.328H9.20424V0.26H8.79324ZM9.41024 0.174V1.08H9.49324V0.174H9.41024ZM9.15124 0.501V0.57H9.44424V0.501H9.15124ZM10.6214 0.534V0.604H10.7884V0.534H10.6214ZM10.5604 0.173V1.078H10.6444V0.173H10.5604ZM9.98441 0.262V0.822H10.0674V0.262H9.98441ZM9.98441 0.779V0.849H10.0564C10.1934 0.849 10.3324 0.84 10.4864 0.808L10.4764 0.739C10.3274 0.77 10.1904 0.779 10.0564 0.779H9.98441ZM10.8683 0.649V0.717H11.6853V0.649H10.8683ZM10.9743 0.99V1.058H11.5953V0.99H10.9743ZM10.9743 0.796V1.011H11.0573V0.796H10.9743ZM11.2773 0.204C11.0833 0.204 10.9593 0.272 10.9593 0.385C10.9593 0.497 11.0833 0.565 11.2773 0.565C11.4703 0.565 11.5953 0.497 11.5953 0.385C11.5953 0.272 11.4703 0.204 11.2773 0.204ZM11.2773 0.272C11.4193 0.272 11.5103 0.314 11.5103 0.385C11.5103 0.456 11.4193 0.498 11.2773 0.498C11.1353 0.498 11.0443 0.456 11.0443 0.385C11.0443 0.314 11.1353 0.272 11.2773 0.272ZM12.6885 0.174V0.656H12.7715V0.174H12.6885ZM12.7485 0.385V0.454H12.9055V0.385H12.7485ZM12.1115 0.557V0.626H12.1815C12.3715 0.626 12.4785 0.62 12.6025 0.594L12.5935 0.527C12.4725 0.551 12.3675 0.557 12.1815 0.557H12.1115ZM12.1115 0.233V0.604H12.1935V0.301H12.5095V0.233H12.1115ZM12.2015 0.705V1.063H12.7715V0.705H12.6895V0.816H12.2835V0.705H12.2015ZM12.2835 0.882H12.6895V0.995H12.2835V0.882ZM12.9894 0.649V0.717H13.8064V0.649H12.9894ZM13.0954 0.99V1.058H13.7164V0.99H13.0954ZM13.0954 0.796V1.011H13.1784V0.796H13.0954ZM13.3984 0.204C13.2044 0.204 13.0804 0.272 13.0804 0.385C13.0804 0.497 13.2044 0.565 13.3984 0.565C13.5914 0.565 13.7164 0.497 13.7164 0.385C13.7164 0.272 13.5914 0.204 13.3984 0.204ZM13.3984 0.272C13.5404 0.272 13.6314 0.314 13.6314 0.385C13.6314 0.456 13.5404 0.498 13.3984 0.498C13.2564 0.498 13.1654 0.456 13.1654 0.385C13.1654 0.314 13.2564 0.272 13.3984 0.272ZM14.2946 0.704V1.066H14.6076V0.704H14.5306V0.817H14.3726V0.704H14.2946ZM14.3726 0.879H14.5306V1.001H14.3726V0.879ZM14.7826 0.699V0.774C14.7826 0.866 14.7266 0.965 14.6176 1.011L14.6596 1.074C14.7846 1.021 14.8466 0.897 14.8466 0.774V0.699H14.7826ZM14.7996 0.699V0.774C14.7996 0.902 14.8606 1.022 14.9866 1.074L15.0286 1.011C14.9196 0.969 14.8636 0.871 14.8636 0.774V0.699H14.7996ZM14.6456 0.386V0.455H14.8886V0.386H14.6456ZM14.4376 0.214C14.3026 0.214 14.2046 0.298 14.2046 0.422C14.2046 0.545 14.3026 0.63 14.4376 0.63C14.5726 0.63 14.6706 0.545 14.6706 0.422C14.6706 0.298 14.5726 0.214 14.4376 0.214ZM14.4376 0.283C14.5266 0.283 14.5906 0.34 14.5906 0.422C14.5906 0.503 14.5266 0.561 14.4376 0.561C14.3486 0.561 14.2846 0.503 14.2846 0.422C14.2846 0.34 14.3486 0.283 14.4376 0.283ZM14.8516 0.174V0.653H14.9346V0.174H14.8516ZM15.2215 0.445V0.513H15.8355V0.445H15.2215ZM15.1105 0.634V0.702H15.9305V0.634H15.1105ZM15.2215 0.207V0.479H15.3035V0.207H15.2215ZM15.2155 0.988V1.056H15.8405V0.988H15.2155ZM15.2155 0.792V1.006H15.2975V0.792H15.2155ZM16.2704 0.303V0.45C16.2704 0.606 16.1614 0.776 16.0304 0.838L16.0784 0.904C16.2224 0.833 16.3374 0.641 16.3374 0.45V0.303H16.2704ZM16.2864 0.303V0.45C16.2864 0.638 16.4024 0.814 16.5484 0.882L16.5954 0.816C16.4624 0.759 16.3534 0.603 16.3534 0.45V0.303H16.2864ZM16.0604 0.266V0.336H16.5654V0.266H16.0604ZM16.6874 0.174V1.078H16.7704V0.174H16.6874ZM17.3186 0.264V0.333H17.9006V0.264H17.3186ZM17.2326 0.883V0.952H18.0496V0.883H17.2326ZM17.5496 0.56V0.917H17.6326V0.56H17.5496ZM17.8696 0.264V0.354C17.8696 0.462 17.8696 0.589 17.8356 0.762L17.9186 0.773C17.9516 0.59 17.9516 0.466 17.9516 0.354V0.264H17.8696ZM18.1995 0.252V0.673H18.6205V0.252H18.1995ZM18.5405 0.319V0.606H18.2795V0.319H18.5405ZM18.8095 0.175V0.824H18.8935V0.175H18.8095ZM18.3125 0.98V1.049H18.9205V0.98H18.3125ZM18.3125 0.762V1.008H18.3945V0.762H18.3125ZM19.6845 0.174V1.078H19.7675V0.174H19.6845ZM19.7475 0.545V0.615H19.9155V0.545H19.7475ZM19.0675 0.318V0.386H19.6005V0.318H19.0675ZM19.3375 0.461C19.2105 0.461 19.1175 0.547 19.1175 0.669C19.1175 0.791 19.2105 0.877 19.3375 0.877C19.4655 0.877 19.5575 0.791 19.5575 0.669C19.5575 0.547 19.4655 0.461 19.3375 0.461ZM19.3375 0.53C19.4195 0.53 19.4785 0.587 19.4785 0.669C19.4785 0.75 19.4195 0.808 19.3375 0.808C19.2555 0.808 19.1965 0.75 19.1965 0.669C19.1965 0.587 19.2555 0.53 19.3375 0.53ZM19.2945 0.185V0.349H19.3775V0.185H19.2945ZM20.1024 0.445V0.513H20.7164V0.445H20.1024ZM19.9914 0.634V0.702H20.8114V0.634H19.9914ZM20.1024 0.207V0.479H20.1844V0.207H20.1024ZM20.0964 0.988V1.056H20.7214V0.988H20.0964ZM20.0964 0.792V1.006H20.1784V0.792H20.0964ZM21.2286 0.785V0.855H21.2876C21.4326 0.855 21.5206 0.852 21.6256 0.831L21.6166 0.762C21.5156 0.782 21.4306 0.785 21.2876 0.785H21.2286ZM21.2286 0.277V0.811H21.3076V0.345H21.5846V0.277H21.2286ZM21.2836 0.516V0.583H21.5706V0.516H21.2836ZM21.8816 0.174V1.078H21.9616V0.174H21.8816ZM21.7386 0.536V0.605H21.9116V0.536H21.7386ZM21.6826 0.193V1.033H21.7616V0.193H21.6826ZM22.2165 0.596V0.664H22.8375V0.596H22.2165ZM22.1135 0.895V0.965H22.9325V0.895H22.1135ZM22.4795 0.625V0.923H22.5625V0.625H22.4795ZM22.2165 0.246V0.626H22.2995V0.314H22.8285V0.246H22.2165ZM23.2614 0.63V0.846H23.3444V0.63H23.2614ZM23.3024 0.232C23.1634 0.232 23.0634 0.319 23.0634 0.445C23.0634 0.571 23.1634 0.658 23.3024 0.658C23.4414 0.658 23.5414 0.571 23.5414 0.445C23.5414 0.319 23.4414 0.232 23.3024 0.232ZM23.3024 0.303C23.3944 0.303 23.4604 0.361 23.4604 0.445C23.4604 0.529 23.3944 0.587 23.3024 0.587C23.2104 0.587 23.1444 0.529 23.1444 0.445C23.1444 0.361 23.2104 0.303 23.3024 0.303ZM23.6444 0.174V1.078H23.7274V0.174H23.6444ZM23.7034 0.546V0.616H23.8704V0.546H23.7034ZM23.0344 0.883C23.1924 0.883 23.4034 0.881 23.5944 0.849L23.5874 0.787C23.4034 0.812 23.1854 0.813 23.0224 0.814L23.0344 0.883ZM24.9216 0.174V1.078H25.0016V0.174H24.9216ZM24.5926 0.498V0.567H24.7656V0.498H24.5926ZM24.7406 0.195V1.032H24.8186V0.195H24.7406ZM24.4186 0.314V0.429C24.4186 0.595 24.3486 0.76 24.2226 0.836L24.2736 0.898C24.4066 0.814 24.4826 0.627 24.4826 0.429V0.314H24.4186ZM24.4356 0.314V0.429C24.4356 0.618 24.5086 0.796 24.6406 0.876L24.6916 0.815C24.5676 0.743 24.4996 0.586 24.4996 0.429V0.314H24.4356ZM24.2476 0.279V0.348H24.6606V0.279H24.2476ZM25.7655 0.173V1.078H25.8495V0.173H25.7655ZM25.8265 0.54V0.609H25.9935V0.54H25.8265ZM25.5345 0.271V0.284C25.5345 0.523 25.4095 0.716 25.1595 0.843L25.2055 0.907C25.4975 0.76 25.6155 0.528 25.6155 0.271H25.5345ZM25.2015 0.271V0.339H25.5775V0.271H25.2015ZM27.0417 0.174V1.078H27.1217V0.174H27.0417ZM26.8897 0.542V0.61H27.0637V0.542H26.8897ZM26.8367 0.194V1.032H26.9147V0.194H26.8367ZM26.3987 0.283V0.805H26.4817V0.283H26.3987ZM26.3987 0.772V0.844H26.4567C26.5537 0.844 26.6577 0.839 26.7807 0.815L26.7717 0.743C26.6537 0.766 26.5497 0.772 26.4567 0.772H26.3987ZM27.9326 0.175V0.841H28.0156V0.175H27.9326ZM27.4266 0.99V1.058H28.0406V0.99H27.4266ZM27.4266 0.788V1.024H27.5096V0.788H27.4266ZM27.3216 0.644V0.712H27.3946C27.5696 0.712 27.6896 0.707 27.8336 0.682L27.8246 0.614C27.6846 0.638 27.5656 0.644 27.3946 0.644H27.3216ZM27.3196 0.238V0.306H27.6486V0.436H27.3216V0.665H27.4026V0.5H27.7296V0.238H27.3196ZM29.0948 0.174V0.656H29.1778V0.174H29.0948ZM29.1548 0.385V0.454H29.3118V0.385H29.1548ZM28.5178 0.557V0.626H28.5878C28.7778 0.626 28.8848 0.62 29.0088 0.594L28.9998 0.527C28.8788 0.551 28.7738 0.557 28.5878 0.557H28.5178ZM28.5178 0.233V0.604H28.5998V0.301H28.9158V0.233H28.5178ZM28.6078 0.705V1.063H29.1778V0.705H29.0958V0.816H28.6898V0.705H28.6078ZM28.6898 0.882H29.0958V0.995H28.6898V0.882ZM29.8047 0.189C29.6047 0.189 29.4867 0.245 29.4867 0.346C29.4867 0.447 29.6047 0.503 29.8047 0.503C30.0037 0.503 30.1227 0.447 30.1227 0.346C30.1227 0.245 30.0037 0.189 29.8047 0.189ZM29.8047 0.252C29.9517 0.252 30.0367 0.286 30.0367 0.346C30.0367 0.406 29.9517 0.44 29.8047 0.44C29.6567 0.44 29.5717 0.406 29.5717 0.346C29.5717 0.286 29.6567 0.252 29.8047 0.252ZM29.3957 0.563V0.63H30.2127V0.563H29.3957ZM29.4947 0.707V0.771H30.0267V0.851H29.4967V1.021H29.5787V0.911H30.1087V0.707H29.4947ZM29.4967 1.003V1.068H30.1357V1.003H29.4967ZM31.2549 0.174V0.642H31.3379V0.174H31.2549ZM30.7539 0.688V0.753H31.2569V0.843H30.7559V1.029H30.8369V0.905H31.3389V0.688H30.7539ZM30.7559 1.002V1.068H31.3689V1.002H30.7559ZM30.8329 0.2V0.269C30.8329 0.4 30.7399 0.52 30.6039 0.568L30.6449 0.634C30.7979 0.578 30.9019 0.436 30.9019 0.269V0.2H30.8329ZM30.8479 0.2V0.269C30.8479 0.431 30.9519 0.564 31.1039 0.616L31.1449 0.551C31.0109 0.507 30.9159 0.394 30.9159 0.269V0.2H30.8479ZM32.1778 0.175V0.864H32.2608V0.175H32.1778ZM32.0248 0.414V0.482H32.2128V0.414H32.0248ZM32.0248 0.605V0.672H32.2128V0.605H32.0248ZM31.5188 0.284V0.351H32.0248V0.284H31.5188ZM31.7748 0.401C31.6538 0.401 31.5698 0.47 31.5698 0.574C31.5698 0.677 31.6538 0.747 31.7748 0.747C31.8948 0.747 31.9788 0.677 31.9788 0.574C31.9788 0.47 31.8948 0.401 31.7748 0.401ZM31.7748 0.466C31.8498 0.466 31.9008 0.51 31.9008 0.574C31.9008 0.638 31.8498 0.681 31.7748 0.681C31.6998 0.681 31.6488 0.638 31.6488 0.574C31.6488 0.51 31.6998 0.466 31.7748 0.466ZM31.7338 0.173V0.327H31.8168V0.173H31.7338ZM31.6798 0.99V1.058H32.2828V0.99H31.6798ZM31.6798 0.805V1.023H31.7628V0.805H31.6798ZM33.0497 0.174V1.078H33.1327V0.174H33.0497ZM33.1127 0.545V0.615H33.2807V0.545H33.1127ZM32.4327 0.318V0.386H32.9657V0.318H32.4327ZM32.7027 0.461C32.5757 0.461 32.4827 0.547 32.4827 0.669C32.4827 0.791 32.5757 0.877 32.7027 0.877C32.8307 0.877 32.9227 0.791 32.9227 0.669C32.9227 0.547 32.8307 0.461 32.7027 0.461ZM32.7027 0.53C32.7847 0.53 32.8437 0.587 32.8437 0.669C32.8437 0.75 32.7847 0.808 32.7027 0.808C32.6207 0.808 32.5617 0.75 32.5617 0.669C32.5617 0.587 32.6207 0.53 32.7027 0.53ZM32.6597 0.185V0.349H32.7427V0.185H32.6597ZM33.4676 0.445V0.513H34.0816V0.445H33.4676ZM33.3566 0.634V0.702H34.1766V0.634H33.3566ZM33.4676 0.207V0.479H33.5496V0.207H33.4676ZM33.4616 0.988V1.056H34.0866V0.988H33.4616ZM33.4616 0.792V1.006H33.5436V0.792H33.4616ZM35.2158 0.174V0.642H35.2988V0.174H35.2158ZM34.7148 0.688V0.753H35.2178V0.843H34.7168V1.029H34.7978V0.905H35.2998V0.688H34.7148ZM34.7168 1.002V1.068H35.3298V1.002H34.7168ZM34.7938 0.2V0.269C34.7938 0.4 34.7008 0.52 34.5648 0.568L34.6058 0.634C34.7588 0.578 34.8628 0.436 34.8628 0.269V0.2H34.7938ZM34.8088 0.2V0.269C34.8088 0.431 34.9128 0.564 35.0648 0.616L35.1058 0.551C34.9718 0.507 34.8768 0.394 34.8768 0.269V0.2H34.8088ZM36.1607 0.174V0.746H36.2397V0.174H36.1607ZM36.0137 0.419V0.488H36.1847V0.419H36.0137ZM35.9677 0.192V0.714H36.0457V0.192H35.9677ZM35.4737 0.282V0.348H35.9317V0.282H35.4737ZM35.7037 0.394C35.5897 0.394 35.5107 0.456 35.5107 0.549C35.5107 0.643 35.5897 0.704 35.7037 0.704C35.8167 0.704 35.8957 0.643 35.8957 0.549C35.8957 0.456 35.8167 0.394 35.7037 0.394ZM35.7037 0.456C35.7737 0.456 35.8217 0.493 35.8217 0.549C35.8217 0.606 35.7737 0.642 35.7037 0.642C35.6327 0.642 35.5847 0.606 35.5847 0.549C35.5847 0.493 35.6327 0.456 35.7037 0.456ZM35.6627 0.181V0.319H35.7437V0.181H35.6627ZM35.9437 0.762C35.7537 0.762 35.6417 0.818 35.6417 0.919C35.6417 1.019 35.7537 1.076 35.9437 1.076C36.1317 1.076 36.2447 1.019 36.2447 0.919C36.2447 0.818 36.1317 0.762 35.9437 0.762ZM35.9437 0.826C36.0807 0.826 36.1627 0.859 36.1627 0.919C36.1627 0.979 36.0807 1.013 35.9437 1.013C35.8047 1.013 35.7237 0.979 35.7237 0.919C35.7237 0.859 35.8047 0.826 35.9437 0.826ZM36.4356 0.622V0.69H36.5006C36.6816 0.69 36.7716 0.687 36.8836 0.667L36.8746 0.6C36.7666 0.619 36.6786 0.622 36.5006 0.622H36.4356ZM36.4336 0.228V0.296H36.7416V0.42H36.4356V0.663H36.5176V0.485H36.8236V0.228H36.4336ZM37.0586 0.175V0.73H37.1416V0.175H37.0586ZM36.8836 0.308V0.376H37.0776V0.308H36.8836ZM36.8836 0.495V0.563H37.0776V0.495H36.8836ZM36.5366 0.779V0.847H37.0586V1.08H37.1416V0.779H36.5366ZM37.9756 0.174V0.659H38.0596V0.174H37.9756ZM37.4766 0.704V1.066H38.0596V0.704H37.9776V0.814H37.5586V0.704H37.4766ZM37.5586 0.88H37.9776V0.999H37.5586V0.88ZM37.5746 0.217C37.4376 0.217 37.3386 0.302 37.3386 0.425C37.3386 0.549 37.4376 0.634 37.5746 0.634C37.7116 0.634 37.8096 0.549 37.8096 0.425C37.8096 0.302 37.7116 0.217 37.5746 0.217ZM37.5746 0.286C37.6646 0.286 37.7296 0.343 37.7296 0.425C37.7296 0.507 37.6646 0.564 37.5746 0.564C37.4846 0.564 37.4196 0.507 37.4196 0.425C37.4196 0.343 37.4846 0.286 37.5746 0.286ZM38.8955 0.174V1.078H38.9785V0.174H38.8955ZM38.2955 0.262V0.822H38.3775V0.262H38.2955ZM38.2955 0.773V0.845H38.3695C38.5125 0.845 38.6555 0.834 38.8125 0.802L38.8025 0.731C38.6495 0.763 38.5065 0.773 38.3695 0.773H38.2955ZM39.7694 0.173V1.079H39.8534V0.173H39.7694ZM39.8334 0.53V0.6H40.0014V0.53H39.8334ZM39.1964 0.784V0.854H39.2674C39.4374 0.854 39.5564 0.849 39.6954 0.823L39.6864 0.753C39.5514 0.778 39.4344 0.784 39.2674 0.784H39.1964ZM39.1964 0.261V0.815H39.2784V0.329H39.6164V0.261H39.1964ZM40.1661 1.00568C40.1486 1.00568 40.1336 0.999408 40.121 0.986861C40.1085 0.974313 40.1022 0.95928 40.1022 0.941761C40.1022 0.924242 40.1085 0.909209 40.121 0.896662C40.1336 0.884115 40.1486 0.877841 40.1661 0.877841C40.1836 0.877841 40.1987 0.884115 40.2112 0.896662C40.2238 0.909209 40.23 0.924242 40.23 0.941761C40.23 0.953362 40.2271 0.964015 40.2211 0.973722C40.2155 0.983428 40.2078 0.991241 40.1981 0.997159C40.1886 1.00284 40.1779 1.00568 40.1661 1.00568ZM11.9874 2.173V3.079H12.0694V2.173H11.9874ZM11.7924 2.503V2.571H12.0114V2.503H11.7924ZM11.5554 2.303V2.438C11.5554 2.599 11.4484 2.77 11.3184 2.834L11.3674 2.9C11.5104 2.826 11.6224 2.633 11.6224 2.438V2.303H11.5554ZM11.5724 2.303V2.438C11.5724 2.624 11.6824 2.81 11.8254 2.881L11.8744 2.816C11.7434 2.754 11.6384 2.589 11.6384 2.438V2.303H11.5724ZM11.3514 2.266V2.335H11.8434V2.266H11.3514ZM12.5393 2.239C12.3983 2.239 12.2963 2.326 12.2963 2.452C12.2963 2.579 12.3983 2.666 12.5393 2.666C12.6803 2.666 12.7813 2.579 12.7813 2.452C12.7813 2.326 12.6803 2.239 12.5393 2.239ZM12.5393 2.311C12.6323 2.311 12.7003 2.368 12.7003 2.452C12.7003 2.536 12.6323 2.594 12.5393 2.594C12.4453 2.594 12.3773 2.536 12.3773 2.452C12.3773 2.368 12.4453 2.311 12.5393 2.311ZM12.8993 2.173V3.079H12.9823V2.173H12.8993ZM12.2623 2.881C12.4233 2.881 12.6443 2.88 12.8473 2.841L12.8403 2.78C12.6433 2.811 12.4153 2.812 12.2503 2.812L12.2623 2.881ZM13.6875 2.267V2.339C13.6875 2.467 13.5955 2.585 13.4595 2.633L13.5025 2.698C13.6545 2.644 13.7565 2.505 13.7565 2.339V2.267H13.6875ZM13.7035 2.267V2.339C13.7035 2.497 13.8075 2.63 13.9575 2.681L14.0005 2.616C13.8665 2.571 13.7725 2.461 13.7725 2.339V2.267H13.7035ZM14.1045 2.174V2.721H14.1885V2.174H14.1045ZM13.5845 2.769V2.837H14.1045V3.078H14.1885V2.769H13.5845ZM13.4815 2.237V2.304H13.9765V2.237H13.4815ZM14.8214 2.389V2.458H15.0644V2.389H14.8214ZM14.6134 2.215C14.4784 2.215 14.3804 2.301 14.3804 2.425C14.3804 2.549 14.4784 2.634 14.6134 2.634C14.7484 2.634 14.8464 2.549 14.8464 2.425C14.8464 2.301 14.7484 2.215 14.6134 2.215ZM14.6134 2.285C14.7024 2.285 14.7664 2.342 14.7664 2.425C14.7664 2.507 14.7024 2.565 14.6134 2.565C14.5244 2.565 14.4604 2.507 14.4604 2.425C14.4604 2.342 14.5244 2.285 14.6134 2.285ZM15.0274 2.174V2.659H15.1104V2.174H15.0274ZM14.5314 2.704V3.066H15.1104V2.704H15.0284V2.818H14.6144V2.704H14.5314ZM14.6144 2.884H15.0284V2.999H14.6144V2.884ZM15.9433 2.173V3.079H16.0263V2.173H15.9433ZM15.5493 2.243C15.4163 2.243 15.3203 2.366 15.3203 2.558C15.3203 2.751 15.4163 2.874 15.5493 2.874C15.6833 2.874 15.7793 2.751 15.7793 2.558C15.7793 2.366 15.6833 2.243 15.5493 2.243ZM15.5493 2.318C15.6383 2.318 15.6993 2.412 15.6993 2.558C15.6993 2.705 15.6383 2.801 15.5493 2.801C15.4613 2.801 15.3993 2.705 15.3993 2.558C15.3993 2.412 15.4613 2.318 15.5493 2.318ZM16.5745 2.411V2.475H17.0085V2.411H16.5745ZM16.5745 2.212V2.44H16.6595V2.277H16.9985V2.212H16.5745ZM16.7475 2.447V2.598H16.8305V2.447H16.7475ZM17.1465 2.174V2.66H17.2295V2.174H17.1465ZM16.5045 2.639C16.6745 2.639 16.8895 2.633 17.0815 2.605L17.0765 2.547C16.8895 2.568 16.6685 2.572 16.4935 2.573L16.5045 2.639ZM16.6335 2.701V2.767H17.1485V2.849H16.6345V3.028H16.7165V2.912H17.2295V2.701H16.6335ZM16.6345 3.002V3.068H17.2605V3.002H16.6345ZM18.3496 2.174V2.786H18.4326V2.174H18.3496ZM18.1556 2.429V2.497H18.3666V2.429H18.1556ZM18.0656 2.245V2.278C18.0656 2.455 17.9336 2.591 17.7046 2.663L17.7396 2.729C17.9986 2.645 18.1526 2.479 18.1526 2.245H18.0656ZM17.7476 2.245V2.313H18.1246V2.245H17.7476ZM18.0996 2.708V2.749C18.0996 2.881 17.9586 2.981 17.7986 3.01L17.8316 3.076C18.0126 3.039 18.1706 2.922 18.1706 2.749V2.708H18.0996ZM18.1116 2.708V2.749C18.1116 2.921 18.2676 3.038 18.4476 3.074L18.4826 3.008C18.3216 2.979 18.1826 2.879 18.1826 2.749V2.708H18.1116ZM19.2656 2.173V3.079H19.3486V2.173H19.2656ZM18.8716 2.243C18.7386 2.243 18.6426 2.366 18.6426 2.558C18.6426 2.751 18.7386 2.874 18.8716 2.874C19.0056 2.874 19.1016 2.751 19.1016 2.558C19.1016 2.366 19.0056 2.243 18.8716 2.243ZM18.8716 2.318C18.9606 2.318 19.0216 2.412 19.0216 2.558C19.0216 2.705 18.9606 2.801 18.8716 2.801C18.7836 2.801 18.7216 2.705 18.7216 2.558C18.7216 2.412 18.7836 2.318 18.8716 2.318ZM20.1415 2.173V3.079H20.2245V2.173H20.1415ZM20.2045 2.533V2.603H20.3725V2.533H20.2045ZM19.5655 2.792V2.861H19.6375C19.8105 2.861 19.9305 2.854 20.0715 2.829L20.0625 2.76C19.9255 2.786 19.8075 2.792 19.6375 2.792H19.5655ZM19.5635 2.258V2.326H19.8905V2.514H19.5655V2.82H19.6475V2.582H19.9725V2.258H19.5635ZM20.5354 2.264V2.333H21.1174V2.264H20.5354ZM20.4494 2.883V2.952H21.2664V2.883H20.4494ZM20.7664 2.56V2.917H20.8494V2.56H20.7664ZM21.0864 2.264V2.354C21.0864 2.462 21.0864 2.589 21.0524 2.762L21.1354 2.773C21.1684 2.59 21.1684 2.466 21.1684 2.354V2.264H21.0864ZM21.8396 2.23V2.351C21.8396 2.453 21.7686 2.57 21.6496 2.622L21.6946 2.687C21.8276 2.628 21.9056 2.486 21.9056 2.351V2.23H21.8396ZM21.8526 2.23V2.351C21.8526 2.484 21.9276 2.609 22.0576 2.661L22.1026 2.598C21.9866 2.553 21.9186 2.451 21.9186 2.351V2.23H21.8526ZM22.3326 2.175V2.732H22.4116V2.175H22.3326ZM22.1886 2.416V2.484H22.3596V2.416H22.1886ZM22.1386 2.192V2.703H22.2176V2.192H22.1386ZM22.1146 2.752C21.9276 2.752 21.8136 2.812 21.8136 2.915C21.8136 3.017 21.9276 3.076 22.1146 3.076C22.3006 3.076 22.4166 3.017 22.4166 2.915C22.4166 2.812 22.3006 2.752 22.1146 2.752ZM22.1146 2.817C22.2506 2.817 22.3336 2.853 22.3336 2.915C22.3336 2.976 22.2506 3.012 22.1146 3.012C21.9786 3.012 21.8946 2.976 21.8946 2.915C21.8946 2.853 21.9786 2.817 22.1146 2.817ZM23.1885 2.174V2.704H23.2715V2.174H23.1885ZM23.2485 2.402V2.472H23.4055V2.402H23.2485ZM22.9385 2.232V2.268C22.9385 2.435 22.8025 2.566 22.5685 2.63L22.6025 2.695C22.8665 2.623 23.0255 2.46 23.0255 2.232H22.9385ZM22.6085 2.232V2.299H22.9845V2.232H22.6085ZM22.6845 2.746V2.813H23.1885V3.078H23.2715V2.746H22.6845ZM24.1724 2.175V2.734H24.2514V2.175H24.1724ZM24.0254 2.422V2.49H24.1964V2.422H24.0254ZM23.9804 2.188V2.721H24.0594V2.188H23.9804ZM23.4854 2.277V2.343H23.9434V2.277H23.4854ZM23.7154 2.388C23.6014 2.388 23.5224 2.449 23.5224 2.543C23.5224 2.637 23.6014 2.698 23.7154 2.698C23.8284 2.698 23.9074 2.637 23.9074 2.543C23.9074 2.449 23.8284 2.388 23.7154 2.388ZM23.7154 2.451C23.7854 2.451 23.8334 2.487 23.8334 2.543C23.8334 2.599 23.7854 2.636 23.7154 2.636C23.6444 2.636 23.5964 2.599 23.5964 2.543C23.5964 2.487 23.6444 2.451 23.7154 2.451ZM23.6744 2.178V2.316H23.7554V2.178H23.6744ZM23.7284 2.761V2.792C23.7284 2.874 23.6604 2.967 23.5474 3.005L23.5864 3.067C23.7174 3.02 23.7924 2.906 23.7924 2.792V2.761H23.7284ZM23.7474 2.761V2.792C23.7474 2.907 23.8054 3.027 23.9344 3.075L23.9694 3.012C23.8614 2.971 23.8084 2.879 23.8084 2.792V2.761H23.7474ZM24.0604 2.761V2.792C24.0604 2.867 24.0054 2.966 23.9004 3.012L23.9344 3.075C24.0624 3.023 24.1214 2.894 24.1214 2.792V2.761H24.0604ZM24.0774 2.761V2.792C24.0774 2.912 24.1514 3.022 24.2834 3.067L24.3234 3.005C24.2094 2.969 24.1414 2.88 24.1414 2.792V2.761H24.0774ZM24.4614 2.634V2.702H24.5294C24.6994 2.702 24.8074 2.696 24.9334 2.672L24.9254 2.604C24.8024 2.628 24.6964 2.634 24.5294 2.634H24.4614ZM24.4614 2.248V2.655H24.5434V2.316H24.8754V2.248H24.4614ZM25.0704 2.174V2.834H25.1534V2.174H25.0704ZM24.8174 2.424V2.491H25.0894V2.424H24.8174ZM24.5754 2.996V3.064H25.1774V2.996H24.5754ZM24.5754 2.785V3.035H24.6584V2.785H24.5754ZM26.2725 2.173V3.079H26.3545V2.173H26.2725ZM26.0775 2.503V2.571H26.2965V2.503H26.0775ZM25.8405 2.303V2.438C25.8405 2.599 25.7335 2.77 25.6035 2.834L25.6525 2.9C25.7955 2.826 25.9075 2.633 25.9075 2.438V2.303H25.8405ZM25.8575 2.303V2.438C25.8575 2.624 25.9675 2.81 26.1105 2.881L26.1595 2.816C26.0285 2.754 25.9235 2.589 25.9235 2.438V2.303H25.8575ZM25.6365 2.266V2.335H26.1285V2.266H25.6365ZM26.8244 2.239C26.6834 2.239 26.5814 2.326 26.5814 2.452C26.5814 2.579 26.6834 2.666 26.8244 2.666C26.9654 2.666 27.0664 2.579 27.0664 2.452C27.0664 2.326 26.9654 2.239 26.8244 2.239ZM26.8244 2.311C26.9174 2.311 26.9854 2.368 26.9854 2.452C26.9854 2.536 26.9174 2.594 26.8244 2.594C26.7304 2.594 26.6624 2.536 26.6624 2.452C26.6624 2.368 26.7304 2.311 26.8244 2.311ZM27.1844 2.173V3.079H27.2674V2.173H27.1844ZM26.5474 2.881C26.7084 2.881 26.9294 2.88 27.1324 2.841L27.1254 2.78C26.9284 2.811 26.7004 2.812 26.5354 2.812L26.5474 2.881ZM28.2116 2.423V2.491H28.4396V2.423H28.2116ZM28.3926 2.175V2.837H28.4756V2.175H28.3926ZM27.8986 2.99V3.058H28.5006V2.99H27.8986ZM27.8986 2.779V3.025H27.9816V2.779H27.8986ZM27.9626 2.287V2.36C27.9626 2.488 27.8696 2.608 27.7346 2.656L27.7776 2.722C27.9286 2.666 28.0306 2.524 28.0306 2.36V2.287H27.9626ZM27.9786 2.287V2.359C27.9786 2.512 28.0756 2.648 28.2226 2.701L28.2646 2.636C28.1336 2.59 28.0456 2.476 28.0456 2.359V2.287H27.9786ZM27.7606 2.248V2.315H28.2436V2.248H27.7606ZM29.0575 2.744C28.8645 2.744 28.7425 2.807 28.7425 2.911C28.7425 3.014 28.8645 3.076 29.0575 3.076C29.2495 3.076 29.3725 3.014 29.3725 2.911C29.3725 2.807 29.2495 2.744 29.0575 2.744ZM29.0575 2.809C29.1995 2.809 29.2895 2.848 29.2895 2.911C29.2895 2.973 29.1995 3.012 29.0575 3.012C28.9155 3.012 28.8245 2.973 28.8245 2.911C28.8245 2.848 28.9155 2.809 29.0575 2.809ZM28.7495 2.219V2.287H29.3315V2.219H28.7495ZM28.6525 2.595V2.662H29.4685V2.595H28.6525ZM28.9875 2.421V2.614H29.0695V2.421H28.9875ZM29.2835 2.219V2.296C29.2835 2.367 29.2835 2.433 29.2585 2.526L29.3405 2.536C29.3645 2.442 29.3645 2.369 29.3645 2.296V2.219H29.2835ZM30.2285 2.173V3.079H30.3115V2.173H30.2285ZM29.8345 2.243C29.7015 2.243 29.6055 2.366 29.6055 2.558C29.6055 2.751 29.7015 2.874 29.8345 2.874C29.9685 2.874 30.0645 2.751 30.0645 2.558C30.0645 2.366 29.9685 2.243 29.8345 2.243ZM29.8345 2.318C29.9235 2.318 29.9845 2.412 29.9845 2.558C29.9845 2.705 29.9235 2.801 29.8345 2.801C29.7465 2.801 29.6845 2.705 29.6845 2.558C29.6845 2.412 29.7465 2.318 29.8345 2.318ZM4.72413 4.252V4.414C4.72413 4.579 4.62113 4.753 4.49013 4.819L4.54113 4.885C4.68413 4.809 4.79213 4.614 4.79213 4.414V4.252H4.72413ZM4.73913 4.252V4.414C4.73913 4.608 4.84413 4.793 4.98413 4.868L5.03513 4.802C4.90713 4.738 4.80613 4.573 4.80613 4.414V4.252H4.73913ZM5.11413 4.174V5.078H5.19813V4.174H5.11413ZM5.17813 4.54V4.61H5.34613V4.54H5.17813ZM6.08005 4.174V4.642H6.16305V4.174H6.08005ZM5.57905 4.688V4.753H6.08205V4.843H5.58105V5.029H5.66205V4.905H6.16405V4.688H5.57905ZM5.58105 5.002V5.068H6.19405V5.002H5.58105ZM5.65805 4.2V4.269C5.65805 4.4 5.56505 4.52 5.42905 4.568L5.47005 4.634C5.62305 4.578 5.72705 4.436 5.72705 4.269V4.2H5.65805ZM5.67305 4.2V4.269C5.67305 4.431 5.77705 4.564 5.92905 4.616L5.97005 4.551C5.83605 4.507 5.74105 4.394 5.74105 4.269V4.2H5.67305ZM7.31122 4.174V5.078H7.39122V4.174H7.31122ZM6.98222 4.498V4.567H7.15522V4.498H6.98222ZM7.13022 4.195V5.032H7.20822V4.195H7.13022ZM6.80822 4.314V4.429C6.80822 4.595 6.73822 4.76 6.61222 4.836L6.66322 4.898C6.79622 4.814 6.87222 4.627 6.87222 4.429V4.314H6.80822ZM6.82522 4.314V4.429C6.82522 4.618 6.89822 4.796 7.03022 4.876L7.08122 4.815C6.95722 4.743 6.88922 4.586 6.88922 4.429V4.314H6.82522ZM6.63722 4.279V4.348H7.05022V4.279H6.63722ZM7.79714 4.207C7.66314 4.207 7.56414 4.289 7.56414 4.408C7.56414 4.526 7.66314 4.608 7.79714 4.608C7.93214 4.608 8.03114 4.526 8.03114 4.408C8.03114 4.289 7.93214 4.207 7.79714 4.207ZM7.79714 4.275C7.88514 4.275 7.95014 4.33 7.95014 4.408C7.95014 4.486 7.88514 4.54 7.79714 4.54C7.71014 4.54 7.64414 4.486 7.64414 4.408C7.64414 4.33 7.71014 4.275 7.79714 4.275ZM8.20114 4.174V4.637H8.28514V4.174H8.20114ZM7.70014 4.681V4.748H8.20314V4.839H7.70214V5.037H7.78314V4.901H8.28514V4.681H7.70014ZM7.70214 5V5.066H8.31514V5H7.70214ZM9.43631 4.174V5.078H9.51531V4.174H9.43631ZM9.29331 4.538V4.608H9.46731V4.538H9.29331ZM9.23931 4.193V5.033H9.31731V4.193H9.23931ZM8.93131 4.314V4.418C8.93131 4.602 8.86531 4.756 8.73531 4.828L8.78631 4.892C8.92531 4.809 8.99631 4.635 8.99631 4.418V4.314H8.93131ZM8.94631 4.314V4.418C8.94631 4.617 9.01831 4.784 9.15631 4.86L9.20531 4.796C9.07831 4.731 9.01131 4.584 9.01131 4.418V4.314H8.94631ZM8.75631 4.28V4.349H9.17631V4.28H8.75631ZM9.89023 4.723V4.781C9.89023 4.868 9.82223 4.965 9.70823 5.006L9.75023 5.068C9.88023 5.018 9.95423 4.899 9.95423 4.781V4.723H9.89023ZM9.90823 4.723V4.781C9.90823 4.901 9.96723 5.025 10.0972 5.076L10.1322 5.013C10.0242 4.969 9.97023 4.872 9.97023 4.781V4.723H9.90823ZM10.2242 4.723V4.781C10.2242 4.859 10.1692 4.964 10.0622 5.013L10.0972 5.076C10.2262 5.021 10.2862 4.887 10.2862 4.781V4.723H10.2242ZM10.2412 4.723V4.781C10.2412 4.906 10.3132 5.02 10.4452 5.068L10.4872 5.006C10.3722 4.967 10.3052 4.874 10.3052 4.781V4.723H10.2412ZM9.71223 4.233V4.627H10.1332V4.233H9.71223ZM10.0532 4.3V4.56H9.79223V4.3H10.0532ZM10.3222 4.175V4.693H10.4062V4.175H10.3222ZM10.6952 4.445V4.513H11.3092V4.445H10.6952ZM10.5842 4.634V4.702H11.4042V4.634H10.5842ZM10.6952 4.207V4.479H10.7772V4.207H10.6952ZM10.6892 4.988V5.056H11.3142V4.988H10.6892ZM10.6892 4.792V5.006H10.7712V4.792H10.6892ZM12.1931 4.174V5.078H12.2731V4.174H12.1931ZM11.8011 4.543V4.61H12.0291V4.543H11.8011ZM12.0051 4.197V5.032H12.0831V4.197H12.0051ZM11.8121 4.288V4.303C11.8121 4.516 11.7171 4.696 11.5041 4.824L11.5531 4.883C11.7971 4.738 11.8921 4.525 11.8921 4.288H11.8121ZM11.5441 4.288V4.356H11.8431V4.288H11.5441ZM12.9463 4.243C12.8133 4.243 12.7193 4.366 12.7193 4.558C12.7193 4.751 12.8133 4.874 12.9463 4.874C13.0793 4.874 13.1733 4.751 13.1733 4.558C13.1733 4.366 13.0793 4.243 12.9463 4.243ZM12.9463 4.318C13.0333 4.318 13.0943 4.412 13.0943 4.558C13.0943 4.705 13.0333 4.801 12.9463 4.801C12.8583 4.801 12.7983 4.705 12.7983 4.558C12.7983 4.412 12.8583 4.318 12.9463 4.318ZM13.3173 4.174V5.078H13.4013V4.174H13.3173ZM13.3813 4.535V4.605H13.5493V4.535H13.3813ZM14.2832 4.174V5.078H14.3662V4.174H14.2832ZM13.6832 4.262V4.822H13.7652V4.262H13.6832ZM13.6832 4.773V4.845H13.7572C13.9002 4.845 14.0432 4.834 14.2002 4.802L14.1902 4.731C14.0372 4.763 13.8942 4.773 13.7572 4.773H13.6832ZM15.1581 4.173V5.079H15.2411V4.173H15.1581ZM15.2211 4.533V4.603H15.3891V4.533H15.2211ZM14.5821 4.792V4.861H14.6541C14.8271 4.861 14.9471 4.854 15.0881 4.829L15.0791 4.76C14.9421 4.786 14.8241 4.792 14.6541 4.792H14.5821ZM14.5801 4.258V4.326H14.9071V4.514H14.5821V4.82H14.6641V4.582H14.9891V4.258H14.5801ZM16.4343 4.174V5.078H16.5143V4.174H16.4343ZM16.1053 4.498V4.567H16.2783V4.498H16.1053ZM16.2533 4.195V5.032H16.3313V4.195H16.2533ZM15.9313 4.314V4.429C15.9313 4.595 15.8613 4.76 15.7353 4.836L15.7863 4.898C15.9193 4.814 15.9953 4.627 15.9953 4.429V4.314H15.9313ZM15.9483 4.314V4.429C15.9483 4.618 16.0213 4.796 16.1533 4.876L16.2043 4.815C16.0803 4.743 16.0123 4.586 16.0123 4.429V4.314H15.9483ZM15.7603 4.279V4.348H16.1733V4.279H15.7603ZM16.9202 4.207C16.7862 4.207 16.6872 4.289 16.6872 4.408C16.6872 4.526 16.7862 4.608 16.9202 4.608C17.0552 4.608 17.1542 4.526 17.1542 4.408C17.1542 4.289 17.0552 4.207 16.9202 4.207ZM16.9202 4.275C17.0082 4.275 17.0732 4.33 17.0732 4.408C17.0732 4.486 17.0082 4.54 16.9202 4.54C16.8332 4.54 16.7672 4.486 16.7672 4.408C16.7672 4.33 16.8332 4.275 16.9202 4.275ZM17.3242 4.174V4.637H17.4082V4.174H17.3242ZM16.8232 4.681V4.748H17.3262V4.839H16.8252V5.037H16.9062V4.901H17.4082V4.681H16.8232ZM16.8252 5V5.066H17.4382V5H16.8252ZM18.2914 4.282V4.349H18.5484V4.282H18.2914ZM18.2914 4.469V4.535H18.5484V4.469H18.2914ZM18.1144 4.204C17.9794 4.204 17.8814 4.289 17.8814 4.411C17.8814 4.531 17.9794 4.616 18.1144 4.616C18.2494 4.616 18.3474 4.531 18.3474 4.411C18.3474 4.289 18.2494 4.204 18.1144 4.204ZM18.1144 4.273C18.2034 4.273 18.2684 4.33 18.2684 4.411C18.2684 4.491 18.2034 4.548 18.1144 4.548C18.0254 4.548 17.9614 4.491 17.9614 4.411C17.9614 4.33 18.0254 4.273 18.1144 4.273ZM18.5284 4.174V4.637H18.6114V4.174H18.5284ZM18.0294 4.683V4.749H18.5294V4.839H18.0314V5.037H18.1124V4.901H18.6114V4.683H18.0294ZM18.0314 5V5.066H18.6444V5H18.0314ZM19.4453 4.175V4.688H19.5293V4.175H19.4453ZM18.9453 4.74V5.066H19.5293V4.74H18.9453ZM19.4473 4.806V4.999H19.0263V4.806H19.4473ZM19.0233 4.209V4.297C19.0233 4.429 18.9303 4.551 18.7943 4.6L18.8353 4.666C18.9883 4.609 19.0923 4.465 19.0923 4.297V4.209H19.0233ZM19.0383 4.209V4.297C19.0383 4.461 19.1423 4.596 19.2933 4.648L19.3343 4.583C19.2003 4.538 19.1063 4.425 19.1063 4.297V4.209H19.0383ZM20.3642 4.174V5.078H20.4472V4.174H20.3642ZM19.7282 4.32V4.387H20.2702V4.32H19.7282ZM20.0002 4.461C19.8702 4.461 19.7772 4.547 19.7772 4.669C19.7772 4.791 19.8702 4.877 20.0002 4.877C20.1302 4.877 20.2242 4.791 20.2242 4.669C20.2242 4.547 20.1302 4.461 20.0002 4.461ZM20.0002 4.53C20.0832 4.53 20.1442 4.587 20.1442 4.669C20.1442 4.75 20.0832 4.808 20.0002 4.808C19.9172 4.808 19.8562 4.75 19.8562 4.669C19.8562 4.587 19.9172 4.53 20.0002 4.53ZM19.9572 4.183V4.361H20.0402V4.183H19.9572ZM21.5274 4.175V4.853H21.6104V4.175H21.5274ZM21.5844 4.471V4.541H21.7444V4.471H21.5844ZM20.9114 4.284V4.351H21.4454V4.284H20.9114ZM21.1784 4.401C21.0494 4.401 20.9614 4.468 20.9614 4.57C20.9614 4.671 21.0494 4.738 21.1784 4.738C21.3064 4.738 21.3944 4.671 21.3944 4.57C21.3944 4.468 21.3064 4.401 21.1784 4.401ZM21.1784 4.466C21.2594 4.466 21.3154 4.507 21.3154 4.57C21.3154 4.632 21.2594 4.673 21.1784 4.673C21.0964 4.673 21.0404 4.632 21.0404 4.57C21.0404 4.507 21.0964 4.466 21.1784 4.466ZM21.1364 4.174V4.319H21.2194V4.174H21.1364ZM21.0474 4.99V5.058H21.6514V4.99H21.0474ZM21.0474 4.799V5.019H21.1304V4.799H21.0474ZM22.5155 4.744C22.3225 4.744 22.2005 4.807 22.2005 4.911C22.2005 5.014 22.3225 5.076 22.5155 5.076C22.7075 5.076 22.8305 5.014 22.8305 4.911C22.8305 4.807 22.7075 4.744 22.5155 4.744ZM22.5155 4.809C22.6575 4.809 22.7475 4.848 22.7475 4.911C22.7475 4.973 22.6575 5.012 22.5155 5.012C22.3735 5.012 22.2825 4.973 22.2825 4.911C22.2825 4.848 22.3735 4.809 22.5155 4.809ZM22.2075 4.219V4.287H22.7895V4.219H22.2075ZM22.1105 4.595V4.662H22.9265V4.595H22.1105ZM22.4455 4.421V4.614H22.5275V4.421H22.4455ZM22.7415 4.219V4.296C22.7415 4.367 22.7415 4.433 22.7165 4.526L22.7985 4.536C22.8225 4.442 22.8225 4.369 22.8225 4.296V4.219H22.7415ZM23.0295 4.709V4.777H23.8495V4.709H23.0295ZM23.3955 4.741V5.078H23.4775V4.741H23.3955ZM23.1325 4.21V4.601H23.7445V4.21H23.6625V4.334H23.2155V4.21H23.1325ZM23.2155 4.401H23.6625V4.534H23.2155V4.401ZM24.2034 4.207C24.0694 4.207 23.9704 4.289 23.9704 4.408C23.9704 4.526 24.0694 4.608 24.2034 4.608C24.3384 4.608 24.4374 4.526 24.4374 4.408C24.4374 4.289 24.3384 4.207 24.2034 4.207ZM24.2034 4.275C24.2914 4.275 24.3564 4.33 24.3564 4.408C24.3564 4.486 24.2914 4.54 24.2034 4.54C24.1164 4.54 24.0504 4.486 24.0504 4.408C24.0504 4.33 24.1164 4.275 24.2034 4.275ZM24.6074 4.174V4.637H24.6914V4.174H24.6074ZM24.1064 4.681V4.748H24.6094V4.839H24.1084V5.037H24.1894V4.901H24.6914V4.681H24.1064ZM24.1084 5V5.066H24.7214V5H24.1084ZM25.2256 4.202V4.566H25.5256V4.202H25.4466V4.315H25.3056V4.202H25.2256ZM25.3056 4.381H25.4466V4.497H25.3056V4.381ZM25.5946 4.202V4.566H25.8936V4.202H25.8146V4.315H25.6736V4.202H25.5946ZM25.6736 4.381H25.8146V4.497H25.6736V4.381ZM25.1506 4.654V4.722H25.9696V4.654H25.1506ZM25.5246 4.69V4.898H25.6076V4.69H25.5246ZM25.2546 4.996V5.064H25.8786V4.996H25.2546ZM25.2546 4.819V5.022H25.3366V4.819H25.2546ZM26.7275 4.173V5.079H26.8105V4.173H26.7275ZM26.3335 4.243C26.2005 4.243 26.1045 4.366 26.1045 4.558C26.1045 4.751 26.2005 4.874 26.3335 4.874C26.4675 4.874 26.5635 4.751 26.5635 4.558C26.5635 4.366 26.4675 4.243 26.3335 4.243ZM26.3335 4.318C26.4225 4.318 26.4835 4.412 26.4835 4.558C26.4835 4.705 26.4225 4.801 26.3335 4.801C26.2455 4.801 26.1835 4.705 26.1835 4.558C26.1835 4.412 26.2455 4.318 26.3335 4.318ZM27.6034 4.173V5.079H27.6864V4.173H27.6034ZM27.6664 4.533V4.603H27.8344V4.533H27.6664ZM27.0274 4.792V4.861H27.0994C27.2724 4.861 27.3924 4.854 27.5334 4.829L27.5244 4.76C27.3874 4.786 27.2694 4.792 27.0994 4.792H27.0274ZM27.0254 4.258V4.326H27.3524V4.514H27.0274V4.82H27.1094V4.582H27.4344V4.258H27.0254ZM28.0213 4.445V4.513H28.6353V4.445H28.0213ZM27.9103 4.634V4.702H28.7303V4.634H27.9103ZM28.0213 4.207V4.479H28.1033V4.207H28.0213ZM28.0153 4.988V5.056H28.6403V4.988H28.0153ZM28.0153 4.792V5.006H28.0973V4.792H28.0153ZM29.3015 4.23V4.351C29.3015 4.453 29.2305 4.57 29.1115 4.622L29.1565 4.687C29.2895 4.628 29.3675 4.486 29.3675 4.351V4.23H29.3015ZM29.3145 4.23V4.351C29.3145 4.484 29.3895 4.609 29.5195 4.661L29.5645 4.598C29.4485 4.553 29.3805 4.451 29.3805 4.351V4.23H29.3145ZM29.7945 4.175V4.732H29.8735V4.175H29.7945ZM29.6505 4.416V4.484H29.8215V4.416H29.6505ZM29.6005 4.192V4.703H29.6795V4.192H29.6005ZM29.5765 4.752C29.3895 4.752 29.2755 4.812 29.2755 4.915C29.2755 5.017 29.3895 5.076 29.5765 5.076C29.7625 5.076 29.8785 5.017 29.8785 4.915C29.8785 4.812 29.7625 4.752 29.5765 4.752ZM29.5765 4.817C29.7125 4.817 29.7955 4.853 29.7955 4.915C29.7955 4.976 29.7125 5.012 29.5765 5.012C29.4405 5.012 29.3565 4.976 29.3565 4.915C29.3565 4.853 29.4405 4.817 29.5765 4.817ZM30.6504 4.174V4.704H30.7334V4.174H30.6504ZM30.7104 4.402V4.472H30.8674V4.402H30.7104ZM30.4004 4.232V4.268C30.4004 4.435 30.2644 4.566 30.0304 4.63L30.0644 4.695C30.3284 4.623 30.4874 4.46 30.4874 4.232H30.4004ZM30.0704 4.232V4.299H30.4464V4.232H30.0704ZM30.1464 4.746V4.813H30.6504V5.078H30.7334V4.746H30.1464ZM31.6083 4.173V5.079H31.6913V4.173H31.6083ZM31.2143 4.243C31.0813 4.243 30.9853 4.366 30.9853 4.558C30.9853 4.751 31.0813 4.874 31.2143 4.874C31.3483 4.874 31.4443 4.751 31.4443 4.558C31.4443 4.366 31.3483 4.243 31.2143 4.243ZM31.2143 4.318C31.3033 4.318 31.3643 4.412 31.3643 4.558C31.3643 4.705 31.3033 4.801 31.2143 4.801C31.1263 4.801 31.0643 4.705 31.0643 4.558C31.0643 4.412 31.1263 4.318 31.2143 4.318ZM32.1535 4.63V4.698H32.9705V4.63H32.1535ZM32.2565 4.463V4.532H32.8765V4.463H32.2565ZM32.2565 4.213V4.486H32.3395V4.28H32.8685V4.213H32.2565ZM32.2575 4.989V5.058H32.8845V4.989H32.2575ZM32.2575 4.793V5.007H32.3405V4.793H32.2575ZM33.7207 4.197V4.241C33.7207 4.362 33.5627 4.468 33.4027 4.492L33.4357 4.558C33.6187 4.526 33.7917 4.405 33.7917 4.241V4.197H33.7207ZM33.7337 4.197V4.241C33.7337 4.401 33.9077 4.525 34.0907 4.556L34.1217 4.491C33.9647 4.467 33.8047 4.359 33.8047 4.241V4.197H33.7337ZM33.3537 4.634V4.702H34.1727V4.634H33.3537ZM33.7277 4.676V4.884H33.8107V4.676H33.7277ZM33.4577 4.99V5.058H34.0817V4.99H33.4577ZM33.4577 4.797V5.012H33.5397V4.797H33.4577ZM34.8926 4.174V4.835H34.9756V4.174H34.8926ZM34.9496 4.448V4.517H35.1096V4.448H34.9496ZM34.6456 4.244V4.28C34.6456 4.454 34.5026 4.594 34.2746 4.664L34.3106 4.732C34.5696 4.649 34.7336 4.478 34.7336 4.244H34.6456ZM34.3116 4.244V4.312H34.6876V4.244H34.3116ZM34.4116 4.99V5.058H35.0156V4.99H34.4116ZM34.4116 4.768V5.017H34.4946V4.768H34.4116ZM35.4748 4.709V4.777H36.2948V4.709H35.4748ZM35.8408 4.741V5.078H35.9228V4.741H35.8408ZM35.5778 4.21V4.601H36.1898V4.21H36.1078V4.334H35.6608V4.21H35.5778ZM35.6608 4.401H36.1078V4.534H35.6608V4.401ZM37.0577 4.173V5.079H37.1397V4.173H37.0577ZM36.8697 4.514V4.583H37.0697V4.514H36.8697ZM36.4367 4.793V4.862H36.5057C36.6777 4.862 36.7877 4.857 36.9177 4.834L36.9097 4.766C36.7827 4.79 36.6757 4.793 36.5057 4.793H36.4367ZM36.4367 4.256V4.817H36.5187V4.325H36.8547V4.256H36.4367ZM36.4977 4.51V4.577H36.8157V4.51H36.4977ZM9.68805 6.173V7.079H9.77005V6.173H9.68805ZM9.49305 6.503V6.571H9.71205V6.503H9.49305ZM9.25605 6.303V6.438C9.25605 6.599 9.14905 6.77 9.01905 6.834L9.06805 6.9C9.21105 6.826 9.32305 6.633 9.32305 6.438V6.303H9.25605ZM9.27305 6.303V6.438C9.27305 6.624 9.38305 6.81 9.52605 6.881L9.57505 6.816C9.44405 6.754 9.33905 6.589 9.33905 6.438V6.303H9.27305ZM9.05205 6.266V6.335H9.54405V6.266H9.05205ZM10.057 6.445V6.513H10.671V6.445H10.057ZM9.94597 6.634V6.702H10.766V6.634H9.94597ZM10.057 6.207V6.479H10.139V6.207H10.057ZM10.051 6.988V7.056H10.676V6.988H10.051ZM10.051 6.792V7.006H10.133V6.792H10.051ZM11.5279 6.173V7.079H11.6099V6.173H11.5279ZM11.3329 6.503V6.571H11.5519V6.503H11.3329ZM11.0959 6.303V6.438C11.0959 6.599 10.9889 6.77 10.8589 6.834L10.9079 6.9C11.0509 6.826 11.1629 6.633 11.1629 6.438V6.303H11.0959ZM11.1129 6.303V6.438C11.1129 6.624 11.2229 6.81 11.3659 6.881L11.4149 6.816C11.2839 6.754 11.1789 6.589 11.1789 6.438V6.303H11.1129ZM10.8919 6.266V6.335H11.3839V6.266H10.8919ZM12.0798 6.239C11.9388 6.239 11.8368 6.326 11.8368 6.452C11.8368 6.579 11.9388 6.666 12.0798 6.666C12.2208 6.666 12.3218 6.579 12.3218 6.452C12.3218 6.326 12.2208 6.239 12.0798 6.239ZM12.0798 6.311C12.1728 6.311 12.2408 6.368 12.2408 6.452C12.2408 6.536 12.1728 6.594 12.0798 6.594C11.9858 6.594 11.9178 6.536 11.9178 6.452C11.9178 6.368 11.9858 6.311 12.0798 6.311ZM12.4398 6.173V7.079H12.5228V6.173H12.4398ZM11.8028 6.881C11.9638 6.881 12.1848 6.88 12.3878 6.841L12.3808 6.78C12.1838 6.811 11.9558 6.812 11.7908 6.812L11.8028 6.881ZM13.645 6.175V6.835H13.729V6.175H13.645ZM13.148 6.99V7.058H13.756V6.99H13.148ZM13.148 6.767V7.013H13.23V6.767H13.148ZM13.244 6.237C13.109 6.237 13.008 6.329 13.008 6.46C13.008 6.59 13.109 6.683 13.244 6.683C13.379 6.683 13.479 6.59 13.479 6.46C13.479 6.329 13.379 6.237 13.244 6.237ZM13.244 6.309C13.332 6.309 13.399 6.371 13.399 6.46C13.399 6.548 13.332 6.61 13.244 6.61C13.156 6.61 13.089 6.548 13.089 6.46C13.089 6.371 13.156 6.309 13.244 6.309ZM14.0969 6.23V6.351C14.0969 6.453 14.0259 6.57 13.9069 6.622L13.9519 6.687C14.0849 6.628 14.1629 6.486 14.1629 6.351V6.23H14.0969ZM14.1099 6.23V6.351C14.1099 6.484 14.1849 6.609 14.3149 6.661L14.3599 6.598C14.2439 6.553 14.1759 6.451 14.1759 6.351V6.23H14.1099ZM14.5899 6.175V6.732H14.6689V6.175H14.5899ZM14.4459 6.416V6.484H14.6169V6.416H14.4459ZM14.3959 6.192V6.703H14.4749V6.192H14.3959ZM14.3719 6.752C14.1849 6.752 14.0709 6.812 14.0709 6.915C14.0709 7.017 14.1849 7.076 14.3719 7.076C14.5579 7.076 14.6739 7.017 14.6739 6.915C14.6739 6.812 14.5579 6.752 14.3719 6.752ZM14.3719 6.817C14.5079 6.817 14.5909 6.853 14.5909 6.915C14.5909 6.976 14.5079 7.012 14.3719 7.012C14.2359 7.012 14.1519 6.976 14.1519 6.915C14.1519 6.853 14.2359 6.817 14.3719 6.817ZM15.2358 6.189C15.0358 6.189 14.9178 6.245 14.9178 6.346C14.9178 6.447 15.0358 6.503 15.2358 6.503C15.4348 6.503 15.5538 6.447 15.5538 6.346C15.5538 6.245 15.4348 6.189 15.2358 6.189ZM15.2358 6.252C15.3828 6.252 15.4678 6.286 15.4678 6.346C15.4678 6.406 15.3828 6.44 15.2358 6.44C15.0878 6.44 15.0028 6.406 15.0028 6.346C15.0028 6.286 15.0878 6.252 15.2358 6.252ZM14.8268 6.563V6.63H15.6438V6.563H14.8268ZM14.9258 6.707V6.771H15.4578V6.851H14.9278V7.021H15.0098V6.911H15.5398V6.707H14.9258ZM14.9278 7.003V7.068H15.5668V7.003H14.9278ZM16.27 6.243C16.138 6.243 16.045 6.366 16.045 6.558C16.045 6.751 16.138 6.874 16.27 6.874C16.401 6.874 16.495 6.751 16.495 6.558C16.495 6.366 16.401 6.243 16.27 6.243ZM16.27 6.318C16.357 6.318 16.416 6.412 16.416 6.558C16.416 6.705 16.357 6.801 16.27 6.801C16.183 6.801 16.124 6.705 16.124 6.558C16.124 6.412 16.183 6.318 16.27 6.318ZM16.691 6.173V7.079H16.773V6.173H16.691ZM16.468 6.518V6.586H16.727V6.518H16.468ZM17.0729 6.712V6.777H17.7169V6.712H17.0729ZM17.3939 6.819C17.2339 6.819 17.1389 6.865 17.1389 6.949C17.1389 7.032 17.2339 7.077 17.3939 7.077C17.5559 7.077 17.6499 7.032 17.6499 6.949C17.6499 6.865 17.5559 6.819 17.3939 6.819ZM17.3939 6.878C17.4999 6.878 17.5629 6.903 17.5629 6.949C17.5629 6.994 17.4999 7.019 17.3939 7.019C17.2889 7.019 17.2259 6.994 17.2259 6.949C17.2259 6.903 17.2889 6.878 17.3939 6.878ZM17.3539 6.626V6.755H17.4369V6.626H17.3539ZM16.9719 6.524V6.591H17.0119C17.0679 6.591 17.1349 6.59 17.2189 6.572L17.2099 6.505C17.1319 6.522 17.0649 6.524 17.0119 6.524H16.9719ZM16.9719 6.218V6.57H17.0539V6.284H17.1979V6.218H16.9719ZM17.2489 6.524V6.591H17.2939C17.3929 6.591 17.4589 6.588 17.5399 6.57L17.5329 6.504C17.4549 6.522 17.3899 6.524 17.2939 6.524H17.2489ZM17.2489 6.218V6.57H17.3309V6.284H17.4989V6.218H17.2489ZM17.6189 6.174V6.654H17.7019V6.174H17.6189ZM17.4579 6.362V6.426H17.6639V6.362H17.4579ZM18.5568 6.174V7.078H18.6368V6.174H18.5568ZM18.1648 6.543V6.61H18.3928V6.543H18.1648ZM18.3688 6.197V7.032H18.4468V6.197H18.3688ZM18.1758 6.288V6.303C18.1758 6.516 18.0808 6.696 17.8678 6.824L17.9168 6.883C18.1608 6.738 18.2558 6.525 18.2558 6.288H18.1758ZM17.9078 6.288V6.356H18.2068V6.288H17.9078ZM19.29 6.204V6.276C19.29 6.41 19.201 6.524 19.064 6.569L19.105 6.636C19.259 6.582 19.358 6.446 19.358 6.276V6.204H19.29ZM19.305 6.204V6.274C19.305 6.432 19.403 6.558 19.551 6.609L19.594 6.544C19.461 6.502 19.372 6.396 19.372 6.274V6.204H19.305ZM19.688 6.174V6.645H19.771V6.174H19.688ZM19.735 6.371V6.44H19.904V6.371H19.735ZM19.197 6.687V6.753H19.69V6.841H19.199V7.039H19.281V6.904H19.771V6.687H19.197ZM19.199 7.002V7.068H19.804V7.002H19.199ZM20.2299 6.243C20.0969 6.243 20.0029 6.366 20.0029 6.558C20.0029 6.751 20.0969 6.874 20.2299 6.874C20.3629 6.874 20.4569 6.751 20.4569 6.558C20.4569 6.366 20.3629 6.243 20.2299 6.243ZM20.2299 6.318C20.3169 6.318 20.3779 6.412 20.3779 6.558C20.3779 6.705 20.3169 6.801 20.2299 6.801C20.1419 6.801 20.0819 6.705 20.0819 6.558C20.0819 6.412 20.1419 6.318 20.2299 6.318ZM20.6009 6.174V7.078H20.6849V6.174H20.6009ZM20.6649 6.535V6.605H20.8329V6.535H20.6649ZM21.1499 6.243C21.0169 6.243 20.9229 6.366 20.9229 6.558C20.9229 6.751 21.0169 6.874 21.1499 6.874C21.2829 6.874 21.3769 6.751 21.3769 6.558C21.3769 6.366 21.2829 6.243 21.1499 6.243ZM21.1499 6.318C21.2369 6.318 21.2979 6.412 21.2979 6.558C21.2979 6.705 21.2369 6.801 21.1499 6.801C21.0619 6.801 21.0019 6.705 21.0019 6.558C21.0019 6.412 21.0619 6.318 21.1499 6.318ZM21.5819 6.401V6.471H21.7479V6.401H21.5819ZM21.5819 6.67V6.74H21.7479V6.67H21.5819ZM21.5209 6.174V7.078H21.6049V6.174H21.5209ZM22.4418 6.174V7.078H22.5248V6.174H22.4418ZM22.5048 6.545V6.615H22.6728V6.545H22.5048ZM21.8248 6.318V6.386H22.3578V6.318H21.8248ZM22.0948 6.461C21.9678 6.461 21.8748 6.547 21.8748 6.669C21.8748 6.791 21.9678 6.877 22.0948 6.877C22.2228 6.877 22.3148 6.791 22.3148 6.669C22.3148 6.547 22.2228 6.461 22.0948 6.461ZM22.0948 6.53C22.1768 6.53 22.2358 6.587 22.2358 6.669C22.2358 6.75 22.1768 6.808 22.0948 6.808C22.0128 6.808 21.9538 6.75 21.9538 6.669C21.9538 6.587 22.0128 6.53 22.0948 6.53ZM22.0518 6.185V6.349H22.1348V6.185H22.0518ZM22.8597 6.445V6.513H23.4737V6.445H22.8597ZM22.7487 6.634V6.702H23.5687V6.634H22.7487ZM22.8597 6.207V6.479H22.9417V6.207H22.8597ZM22.8537 6.988V7.056H23.4787V6.988H22.8537ZM22.8537 6.792V7.006H22.9357V6.792H22.8537ZM23.9086 6.303V6.45C23.9086 6.606 23.7996 6.776 23.6686 6.838L23.7166 6.904C23.8606 6.833 23.9756 6.641 23.9756 6.45V6.303H23.9086ZM23.9246 6.303V6.45C23.9246 6.638 24.0406 6.814 24.1866 6.882L24.2336 6.816C24.1006 6.759 23.9916 6.603 23.9916 6.45V6.303H23.9246ZM23.6986 6.266V6.336H24.2036V6.266H23.6986ZM24.3256 6.174V7.078H24.4086V6.174H24.3256ZM24.9568 6.264V6.333H25.5388V6.264H24.9568ZM24.8708 6.883V6.952H25.6878V6.883H24.8708ZM25.1878 6.56V6.917H25.2708V6.56H25.1878ZM25.5078 6.264V6.354C25.5078 6.462 25.5078 6.589 25.4738 6.762L25.5568 6.773C25.5898 6.59 25.5898 6.466 25.5898 6.354V6.264H25.5078ZM25.8377 6.252V6.673H26.2587V6.252H25.8377ZM26.1787 6.319V6.606H25.9177V6.319H26.1787ZM26.4477 6.175V6.824H26.5317V6.175H26.4477ZM25.9507 6.98V7.049H26.5587V6.98H25.9507ZM25.9507 6.762V7.008H26.0327V6.762H25.9507ZM27.3226 6.174V7.078H27.4056V6.174H27.3226ZM27.3856 6.545V6.615H27.5536V6.545H27.3856ZM26.7056 6.318V6.386H27.2386V6.318H26.7056ZM26.9756 6.461C26.8486 6.461 26.7556 6.547 26.7556 6.669C26.7556 6.791 26.8486 6.877 26.9756 6.877C27.1036 6.877 27.1956 6.791 27.1956 6.669C27.1956 6.547 27.1036 6.461 26.9756 6.461ZM26.9756 6.53C27.0576 6.53 27.1166 6.587 27.1166 6.669C27.1166 6.75 27.0576 6.808 26.9756 6.808C26.8936 6.808 26.8346 6.75 26.8346 6.669C26.8346 6.587 26.8936 6.53 26.9756 6.53ZM26.9326 6.185V6.349H27.0156V6.185H26.9326ZM28.2886 6.174V7.078H28.3716V6.174H28.2886ZM28.0236 6.271V6.285C28.0236 6.525 27.9026 6.717 27.6416 6.843L27.6856 6.91C27.9876 6.762 28.1056 6.533 28.1056 6.271H28.0236ZM27.6826 6.271V6.339H28.0596V6.271H27.6826ZM29.0697 6.252V6.414C29.0697 6.585 28.9607 6.758 28.8267 6.822L28.8777 6.89C29.0257 6.815 29.1377 6.622 29.1377 6.414V6.252H29.0697ZM29.0837 6.252V6.414C29.0837 6.615 29.1967 6.801 29.3437 6.873L29.3937 6.807C29.2597 6.745 29.1517 6.579 29.1517 6.414V6.252H29.0837ZM29.4877 6.173V7.079H29.5707V6.173H29.4877ZM29.9737 6.267V6.34C29.9737 6.469 29.8837 6.585 29.7467 6.633L29.7907 6.698C29.9417 6.644 30.0417 6.506 30.0417 6.34V6.267H29.9737ZM29.9887 6.267V6.339C29.9887 6.495 30.0847 6.628 30.2337 6.68L30.2767 6.615C30.1437 6.57 30.0567 6.459 30.0567 6.339V6.267H29.9887ZM29.7727 6.237V6.305H30.2557V6.237H29.7727ZM30.3697 6.174V6.718H30.4527V6.174H30.3697ZM30.4297 6.412V6.481H30.5867V6.412H30.4297ZM29.8657 6.766V6.835H30.3697V7.078H30.4527V6.766H29.8657ZM31.3536 6.175V6.734H31.4326V6.175H31.3536ZM31.2066 6.422V6.49H31.3776V6.422H31.2066ZM31.1616 6.188V6.721H31.2406V6.188H31.1616ZM30.6666 6.277V6.343H31.1246V6.277H30.6666ZM30.8966 6.388C30.7826 6.388 30.7036 6.449 30.7036 6.543C30.7036 6.637 30.7826 6.698 30.8966 6.698C31.0096 6.698 31.0886 6.637 31.0886 6.543C31.0886 6.449 31.0096 6.388 30.8966 6.388ZM30.8966 6.451C30.9666 6.451 31.0146 6.487 31.0146 6.543C31.0146 6.599 30.9666 6.636 30.8966 6.636C30.8256 6.636 30.7776 6.599 30.7776 6.543C30.7776 6.487 30.8256 6.451 30.8966 6.451ZM30.8556 6.178V6.316H30.9366V6.178H30.8556ZM30.9096 6.761V6.792C30.9096 6.874 30.8416 6.967 30.7286 7.005L30.7676 7.067C30.8986 7.02 30.9736 6.906 30.9736 6.792V6.761H30.9096ZM30.9286 6.761V6.792C30.9286 6.907 30.9866 7.027 31.1156 7.075L31.1506 7.012C31.0426 6.971 30.9896 6.879 30.9896 6.792V6.761H30.9286ZM31.2416 6.761V6.792C31.2416 6.867 31.1866 6.966 31.0816 7.012L31.1156 7.075C31.2436 7.023 31.3026 6.894 31.3026 6.792V6.761H31.2416ZM31.2586 6.761V6.792C31.2586 6.912 31.3326 7.022 31.4646 7.067L31.5046 7.005C31.3906 6.969 31.3226 6.88 31.3226 6.792V6.761H31.2586ZM31.6775 6.264V6.333H32.2595V6.264H31.6775ZM31.5915 6.883V6.952H32.4085V6.883H31.5915ZM31.9085 6.56V6.917H31.9915V6.56H31.9085ZM32.2285 6.264V6.354C32.2285 6.462 32.2285 6.589 32.1945 6.762L32.2775 6.773C32.3105 6.59 32.3105 6.466 32.3105 6.354V6.264H32.2285ZM32.6631 6.90057L32.6574 6.93892C32.6534 6.96591 32.6473 6.99479 32.639 7.02557C32.6309 7.05634 32.6225 7.08535 32.6138 7.11257C32.605 7.1398 32.5978 7.16146 32.5921 7.17756H32.5282C32.5313 7.16241 32.5353 7.1424 32.5403 7.11754C32.5452 7.09268 32.5502 7.06487 32.5552 7.03409C32.5604 7.00355 32.5646 6.9723 32.568 6.94034L32.5722 6.90057H32.6631ZM1.23112 8.174V9.078H1.31112V8.174H1.23112ZM1.07912 8.542V8.61H1.25312V8.542H1.07912ZM1.02612 8.194V9.032H1.10412V8.194H1.02612ZM0.588117 8.283V8.805H0.671117V8.283H0.588117ZM0.588117 8.772V8.844H0.646117C0.743117 8.844 0.847117 8.839 0.970117 8.815L0.961117 8.743C0.843117 8.766 0.739117 8.772 0.646117 8.772H0.588117ZM2.07604 8.173V9.078H2.16004V8.173H2.07604ZM2.13704 8.54V8.609H2.30404V8.54H2.13704ZM1.84504 8.271V8.284C1.84504 8.523 1.72004 8.716 1.47004 8.843L1.51604 8.907C1.80804 8.76 1.92604 8.528 1.92604 8.271H1.84504ZM1.51204 8.271V8.339H1.88804V8.271H1.51204ZM3.27821 8.174V9.078H3.36121V8.174H3.27821ZM3.34121 8.545V8.615H3.50921V8.545H3.34121ZM2.66121 8.318V8.386H3.19421V8.318H2.66121ZM2.93121 8.461C2.80421 8.461 2.71121 8.547 2.71121 8.669C2.71121 8.791 2.80421 8.877 2.93121 8.877C3.05921 8.877 3.15121 8.791 3.15121 8.669C3.15121 8.547 3.05921 8.461 2.93121 8.461ZM2.93121 8.53C3.01321 8.53 3.07221 8.587 3.07221 8.669C3.07221 8.75 3.01321 8.808 2.93121 8.808C2.84921 8.808 2.79021 8.75 2.79021 8.669C2.79021 8.587 2.84921 8.53 2.93121 8.53ZM2.88821 8.185V8.349H2.97121V8.185H2.88821ZM3.67213 8.264V8.333H4.25413V8.264H3.67213ZM3.58613 8.883V8.952H4.40313V8.883H3.58613ZM3.90313 8.56V8.917H3.98613V8.56H3.90313ZM4.22313 8.264V8.354C4.22313 8.462 4.22313 8.589 4.18913 8.762L4.27213 8.773C4.30513 8.59 4.30513 8.466 4.30513 8.354V8.264H4.22313ZM5.4443 8.175V8.676H5.5283V8.175H5.4443ZM5.0223 8.207V8.295C5.0223 8.425 4.9283 8.545 4.7923 8.593L4.8343 8.658C4.9873 8.603 5.0913 8.462 5.0913 8.295V8.207H5.0223ZM5.0373 8.207V8.295C5.0373 8.457 5.1413 8.59 5.2933 8.642L5.3343 8.576C5.2003 8.532 5.1053 8.421 5.1053 8.295V8.207H5.0373ZM4.9303 8.73V8.798H5.5333V8.73H4.9303ZM4.9213 8.999V9.066H5.5433V8.999H4.9213ZM5.0543 8.759V9.038H5.1353V8.759H5.0543ZM5.3283 8.759V9.038H5.4103V8.759H5.3283ZM5.70623 8.649V8.717H6.52323V8.649H5.70623ZM5.81223 8.99V9.058H6.43323V8.99H5.81223ZM5.81223 8.796V9.011H5.89523V8.796H5.81223ZM6.11523 8.204C5.92123 8.204 5.79723 8.272 5.79723 8.385C5.79723 8.497 5.92123 8.565 6.11523 8.565C6.30823 8.565 6.43323 8.497 6.43323 8.385C6.43323 8.272 6.30823 8.204 6.11523 8.204ZM6.11523 8.272C6.25723 8.272 6.34823 8.314 6.34823 8.385C6.34823 8.456 6.25723 8.498 6.11523 8.498C5.97323 8.498 5.88223 8.456 5.88223 8.385C5.88223 8.314 5.97323 8.272 6.11523 8.272ZM7.1614 8.207C7.0274 8.207 6.9284 8.289 6.9284 8.408C6.9284 8.526 7.0274 8.608 7.1614 8.608C7.2964 8.608 7.3954 8.526 7.3954 8.408C7.3954 8.289 7.2964 8.207 7.1614 8.207ZM7.1614 8.275C7.2494 8.275 7.3144 8.33 7.3144 8.408C7.3144 8.486 7.2494 8.54 7.1614 8.54C7.0744 8.54 7.0084 8.486 7.0084 8.408C7.0084 8.33 7.0744 8.275 7.1614 8.275ZM7.5654 8.174V8.637H7.6494V8.174H7.5654ZM7.0644 8.681V8.748H7.5674V8.839H7.0664V9.037H7.1474V8.901H7.6494V8.681H7.0644ZM7.0664 9V9.066H7.6794V9H7.0664ZM8.23632 8.189C8.03632 8.189 7.91832 8.245 7.91832 8.346C7.91832 8.447 8.03632 8.503 8.23632 8.503C8.43532 8.503 8.55432 8.447 8.55432 8.346C8.55432 8.245 8.43532 8.189 8.23632 8.189ZM8.23632 8.252C8.38332 8.252 8.46832 8.286 8.46832 8.346C8.46832 8.406 8.38332 8.44 8.23632 8.44C8.08832 8.44 8.00332 8.406 8.00332 8.346C8.00332 8.286 8.08832 8.252 8.23632 8.252ZM7.82732 8.563V8.63H8.64432V8.563H7.82732ZM7.92632 8.707V8.771H8.45832V8.851H7.92832V9.021H8.01032V8.911H8.54032V8.707H7.92632ZM7.92832 9.003V9.068H8.56732V9.003H7.92832ZM9.25449 8.323V8.362C9.25449 8.48 9.16349 8.583 9.02949 8.624L9.06849 8.689C9.22049 8.641 9.32249 8.516 9.32249 8.362V8.323H9.25449ZM9.26949 8.323V8.362C9.26949 8.506 9.36849 8.626 9.51949 8.671L9.55849 8.607C9.42549 8.568 9.33749 8.47 9.33749 8.362V8.323H9.26949ZM9.05449 8.279V8.346H9.53649V8.279H9.05449ZM9.25449 8.17V8.307H9.33749V8.17H9.25449ZM9.64749 8.174V8.699H9.73049V8.174H9.64749ZM9.70749 8.397V8.466H9.86449V8.397H9.70749ZM9.40649 8.774V8.798C9.40649 8.899 9.27449 8.987 9.11849 9.011L9.15049 9.075C9.32749 9.045 9.47749 8.94 9.47749 8.798V8.774H9.40649ZM9.42249 8.774V8.798C9.42249 8.937 9.57249 9.046 9.74949 9.076L9.78049 9.012C9.62749 8.987 9.49349 8.897 9.49349 8.798V8.774H9.42249ZM9.15349 8.748V8.815H9.74649V8.748H9.15349ZM10.1894 8.243C10.0564 8.243 9.96241 8.366 9.96241 8.558C9.96241 8.751 10.0564 8.874 10.1894 8.874C10.3224 8.874 10.4164 8.751 10.4164 8.558C10.4164 8.366 10.3224 8.243 10.1894 8.243ZM10.1894 8.318C10.2764 8.318 10.3374 8.412 10.3374 8.558C10.3374 8.705 10.2764 8.801 10.1894 8.801C10.1014 8.801 10.0414 8.705 10.0414 8.558C10.0414 8.412 10.1014 8.318 10.1894 8.318ZM10.5604 8.174V9.078H10.6444V8.174H10.5604ZM10.6244 8.535V8.605H10.7924V8.535H10.6244ZM11.7696 8.174V8.711H11.8526V8.174H11.7696ZM11.8286 8.409V8.478H11.9856V8.409H11.8286ZM11.5636 8.73C11.3806 8.73 11.2666 8.795 11.2666 8.904C11.2666 9.013 11.3806 9.077 11.5636 9.077C11.7466 9.077 11.8606 9.013 11.8606 8.904C11.8606 8.795 11.7466 8.73 11.5636 8.73ZM11.5636 8.798C11.6976 8.798 11.7796 8.836 11.7796 8.904C11.7796 8.97 11.6976 9.009 11.5636 9.009C11.4296 9.009 11.3476 8.97 11.3476 8.904C11.3476 8.836 11.4296 8.798 11.5636 8.798ZM11.1906 8.572V8.64H11.2606C11.4516 8.64 11.5586 8.634 11.6836 8.609L11.6736 8.541C11.5526 8.566 11.4476 8.572 11.2606 8.572H11.1906ZM11.1906 8.243V8.616H11.2726V8.311H11.5896V8.243H11.1906ZM12.3085 8.252V8.414C12.3085 8.585 12.1995 8.758 12.0655 8.822L12.1165 8.89C12.2645 8.815 12.3765 8.622 12.3765 8.414V8.252H12.3085ZM12.3225 8.252V8.414C12.3225 8.615 12.4355 8.801 12.5825 8.873L12.6325 8.807C12.4985 8.745 12.3905 8.579 12.3905 8.414V8.252H12.3225ZM12.7265 8.173V9.079H12.8095V8.173H12.7265ZM13.5117 8.243C13.3787 8.243 13.2847 8.366 13.2847 8.558C13.2847 8.751 13.3787 8.874 13.5117 8.874C13.6447 8.874 13.7387 8.751 13.7387 8.558C13.7387 8.366 13.6447 8.243 13.5117 8.243ZM13.5117 8.318C13.5987 8.318 13.6597 8.412 13.6597 8.558C13.6597 8.705 13.5987 8.801 13.5117 8.801C13.4237 8.801 13.3637 8.705 13.3637 8.558C13.3637 8.412 13.4237 8.318 13.5117 8.318ZM13.8827 8.174V9.078H13.9667V8.174H13.8827ZM13.9467 8.535V8.605H14.1147V8.535H13.9467ZM14.1906 8.699V8.767H15.0106V8.699H14.1906ZM14.5566 8.74V9.078H14.6386V8.74H14.5566ZM14.2946 8.224V8.577H14.9046V8.224H14.2946ZM14.8236 8.291V8.51H14.3766V8.291H14.8236ZM15.7715 8.174V8.786H15.8545V8.174H15.7715ZM15.5775 8.429V8.497H15.7885V8.429H15.5775ZM15.4875 8.245V8.278C15.4875 8.455 15.3555 8.591 15.1265 8.663L15.1615 8.729C15.4205 8.645 15.5745 8.479 15.5745 8.245H15.4875ZM15.1695 8.245V8.313H15.5465V8.245H15.1695ZM15.5215 8.708V8.749C15.5215 8.881 15.3805 8.981 15.2205 9.01L15.2535 9.076C15.4345 9.039 15.5925 8.922 15.5925 8.749V8.708H15.5215ZM15.5335 8.708V8.749C15.5335 8.921 15.6895 9.038 15.8695 9.074L15.9045 9.008C15.7435 8.979 15.6045 8.879 15.6045 8.749V8.708H15.5335ZM16.1344 8.596V8.664H16.7554V8.596H16.1344ZM16.0314 8.895V8.965H16.8504V8.895H16.0314ZM16.3974 8.625V8.923H16.4804V8.625H16.3974ZM16.1344 8.246V8.626H16.2174V8.314H16.7464V8.246H16.1344ZM17.2326 8.894V8.963H18.0516V8.894H17.2326ZM17.5986 8.66V8.913H17.6816V8.66H17.5986ZM17.3276 8.249V8.675H17.9516V8.249H17.3276ZM17.8716 8.316V8.608H17.4086V8.316H17.8716ZM18.1525 8.895V8.965H18.9715V8.895H18.1525ZM18.2515 8.243V8.311H18.7885V8.451H18.2545V8.698H18.3365V8.517H18.8705V8.243H18.2515ZM18.2545 8.663V8.731H18.8915V8.663H18.2545ZM19.1825 8.445V8.513H19.7965V8.445H19.1825ZM19.0715 8.634V8.702H19.8915V8.634H19.0715ZM19.1825 8.207V8.479H19.2645V8.207H19.1825ZM19.1765 8.988V9.056H19.8015V8.988H19.1765ZM19.1765 8.792V9.006H19.2585V8.792H19.1765ZM20.2726 8.651V8.719H21.0916V8.651H20.2726ZM20.6466 8.685V8.893H20.7296V8.685H20.6466ZM20.3766 8.99V9.058H21.0006V8.99H20.3766ZM20.3766 8.813V9.016H20.4586V8.813H20.3766ZM20.3816 8.202V8.564H20.9836V8.202H20.9006V8.317H20.4636V8.202H20.3816ZM20.4636 8.382H20.9006V8.497H20.4636V8.382ZM21.4336 8.243C21.3006 8.243 21.2066 8.366 21.2066 8.558C21.2066 8.751 21.3006 8.874 21.4336 8.874C21.5666 8.874 21.6606 8.751 21.6606 8.558C21.6606 8.366 21.5666 8.243 21.4336 8.243ZM21.4336 8.318C21.5206 8.318 21.5816 8.412 21.5816 8.558C21.5816 8.705 21.5206 8.801 21.4336 8.801C21.3456 8.801 21.2856 8.705 21.2856 8.558C21.2856 8.412 21.3456 8.318 21.4336 8.318ZM21.8656 8.401V8.471H22.0316V8.401H21.8656ZM21.8656 8.67V8.74H22.0316V8.67H21.8656ZM21.8046 8.174V9.078H21.8886V8.174H21.8046ZM22.5255 8.3V8.367H22.8075V8.3H22.5255ZM22.5255 8.502V8.571H22.8075V8.502H22.5255ZM22.3435 8.718V8.778C22.3435 8.866 22.2765 8.964 22.1625 9.006L22.2045 9.068C22.3345 9.018 22.4085 8.898 22.4085 8.778V8.718H22.3435ZM22.3625 8.718V8.778C22.3625 8.899 22.4205 9.025 22.5515 9.076L22.5865 9.013C22.4775 8.969 22.4245 8.87 22.4245 8.778V8.718H22.3625ZM22.6785 8.718V8.778C22.6785 8.857 22.6235 8.963 22.5155 9.013L22.5515 9.076C22.6805 9.021 22.7395 8.885 22.7395 8.778V8.718H22.6785ZM22.6945 8.718V8.778C22.6945 8.904 22.7675 9.02 22.8985 9.068L22.9415 9.006C22.8255 8.967 22.7595 8.873 22.7595 8.778V8.718H22.6945ZM22.3595 8.223C22.2265 8.223 22.1285 8.311 22.1285 8.436C22.1285 8.562 22.2265 8.65 22.3595 8.65C22.4925 8.65 22.5915 8.562 22.5915 8.436C22.5915 8.311 22.4925 8.223 22.3595 8.223ZM22.3595 8.293C22.4475 8.293 22.5115 8.352 22.5115 8.436C22.5115 8.52 22.4475 8.58 22.3595 8.58C22.2715 8.58 22.2065 8.52 22.2065 8.436C22.2065 8.352 22.2715 8.293 22.3595 8.293ZM22.7735 8.174V8.689H22.8565V8.174H22.7735ZM23.0844 8.634V8.702H23.1524C23.3224 8.702 23.4304 8.696 23.5564 8.672L23.5484 8.604C23.4254 8.628 23.3194 8.634 23.1524 8.634H23.0844ZM23.0844 8.248V8.655H23.1664V8.316H23.4984V8.248H23.0844ZM23.6934 8.174V8.834H23.7764V8.174H23.6934ZM23.4404 8.424V8.491H23.7124V8.424H23.4404ZM23.1984 8.996V9.064H23.8004V8.996H23.1984ZM23.1984 8.785V9.035H23.2814V8.785H23.1984ZM24.9156 8.174V8.734H24.9956V8.174H24.9156ZM24.7526 8.19V8.731H24.8316V8.19H24.7526ZM24.5946 8.622V8.681H24.7916V8.622H24.5946ZM24.4346 8.557V8.731H24.5136V8.557H24.4346ZM24.2376 8.59C24.3626 8.59 24.5556 8.588 24.7106 8.556L24.7046 8.499C24.5546 8.523 24.3526 8.525 24.2286 8.525L24.2376 8.59ZM24.3876 8.767V9.066H24.9956V8.767H24.9136V8.851H24.4696V8.767H24.3876ZM24.4696 8.915H24.9136V9H24.4696V8.915ZM24.4726 8.205C24.3546 8.205 24.2756 8.257 24.2756 8.339C24.2756 8.422 24.3546 8.474 24.4726 8.474C24.5896 8.474 24.6686 8.422 24.6686 8.339C24.6686 8.257 24.5896 8.205 24.4726 8.205ZM24.4726 8.264C24.5456 8.264 24.5936 8.293 24.5936 8.339C24.5936 8.386 24.5456 8.414 24.4726 8.414C24.3986 8.414 24.3506 8.386 24.3506 8.339C24.3506 8.293 24.3986 8.264 24.4726 8.264ZM26.0917 8.174V9.08H26.1747V8.174H26.0917ZM25.4937 8.785V8.855H25.5667C25.7487 8.855 25.8667 8.85 26.0047 8.824L25.9957 8.754C25.8617 8.779 25.7457 8.785 25.5667 8.785H25.4937ZM25.4937 8.26V8.811H25.5757V8.329H25.9207V8.26H25.4937ZM26.5787 8.303V8.45C26.5787 8.603 26.4697 8.775 26.3407 8.838L26.3887 8.904C26.5297 8.832 26.6447 8.638 26.6447 8.45V8.303H26.5787ZM26.5937 8.303V8.45C26.5937 8.629 26.7027 8.811 26.8457 8.882L26.8927 8.816C26.7617 8.754 26.6597 8.593 26.6597 8.45V8.303H26.5937ZM26.3727 8.266V8.336H26.8597V8.266H26.3727ZM26.9667 8.174V9.078H27.0507V8.174H26.9667ZM27.0307 8.539V8.609H27.1987V8.539H27.0307ZM27.9326 8.175V8.835H28.0166V8.175H27.9326ZM27.4356 8.99V9.058H28.0436V8.99H27.4356ZM27.4356 8.767V9.013H27.5176V8.767H27.4356ZM27.5316 8.237C27.3966 8.237 27.2956 8.329 27.2956 8.46C27.2956 8.59 27.3966 8.683 27.5316 8.683C27.6666 8.683 27.7666 8.59 27.7666 8.46C27.7666 8.329 27.6666 8.237 27.5316 8.237ZM27.5316 8.309C27.6196 8.309 27.6866 8.371 27.6866 8.46C27.6866 8.548 27.6196 8.61 27.5316 8.61C27.4436 8.61 27.3766 8.548 27.3766 8.46C27.3766 8.371 27.4436 8.309 27.5316 8.309ZM28.2355 8.273V8.34H28.6445V8.273H28.2355ZM28.3765 8.531V8.837H28.4585V8.531H28.3765ZM28.6105 8.273V8.321C28.6105 8.394 28.6105 8.51 28.5835 8.673L28.6655 8.681C28.6915 8.513 28.6915 8.395 28.6915 8.321V8.273H28.6105ZM28.8055 8.174V9.078H28.8875V8.174H28.8055ZM28.8655 8.552V8.622H29.0325V8.552H28.8655ZM28.1955 8.881C28.3555 8.88 28.5675 8.876 28.7545 8.846L28.7505 8.785C28.5675 8.808 28.3495 8.811 28.1855 8.811L28.1955 8.881ZM29.4937 8.262V8.33H30.0677V8.262H29.4937ZM29.3957 8.887V8.955H30.2127V8.887H29.3957ZM30.0337 8.262V8.348C30.0337 8.455 30.0337 8.582 29.9947 8.757L30.0777 8.767C30.1147 8.582 30.1147 8.458 30.1147 8.348V8.262H30.0337ZM30.0517 8.479L29.4687 8.502L29.4817 8.574L30.0517 8.542V8.479ZM29.7137 8.653V8.912H29.7967V8.653H29.7137ZM30.9736 8.174V8.729H31.0576V8.174H30.9736ZM30.3706 8.574V8.642H30.4456C30.6446 8.642 30.7596 8.636 30.8936 8.611L30.8836 8.542C30.7536 8.569 30.6406 8.574 30.4456 8.574H30.3706ZM30.3706 8.245V8.611H30.4536V8.313H30.7956V8.245H30.3706ZM30.7566 8.731C30.5696 8.731 30.4536 8.795 30.4536 8.904C30.4536 9.014 30.5696 9.077 30.7566 9.077C30.9446 9.077 31.0606 9.014 31.0606 8.904C31.0606 8.795 30.9446 8.731 30.7566 8.731ZM30.7566 8.797C30.8946 8.797 30.9776 8.837 30.9776 8.904C30.9776 8.971 30.8946 9.012 30.7566 9.012C30.6196 9.012 30.5366 8.971 30.5366 8.904C30.5366 8.837 30.6196 8.797 30.7566 8.797ZM31.6445 8.189C31.4445 8.189 31.3265 8.245 31.3265 8.346C31.3265 8.447 31.4445 8.503 31.6445 8.503C31.8435 8.503 31.9625 8.447 31.9625 8.346C31.9625 8.245 31.8435 8.189 31.6445 8.189ZM31.6445 8.252C31.7915 8.252 31.8765 8.286 31.8765 8.346C31.8765 8.406 31.7915 8.44 31.6445 8.44C31.4965 8.44 31.4115 8.406 31.4115 8.346C31.4115 8.286 31.4965 8.252 31.6445 8.252ZM31.2355 8.563V8.63H32.0525V8.563H31.2355ZM31.3345 8.707V8.771H31.8665V8.851H31.3365V9.021H31.4185V8.911H31.9485V8.707H31.3345ZM31.3365 9.003V9.068H31.9755V9.003H31.3365ZM32.4697 8.259V8.852H32.8147V8.259H32.7377V8.48H32.5487V8.259H32.4697ZM32.5487 8.547H32.7377V8.784H32.5487V8.547ZM33.1257 8.174V9.078H33.2057V8.174H33.1257ZM32.9807 8.532V8.6H33.1547V8.532H32.9807ZM32.9257 8.193V9.033H33.0047V8.193H32.9257ZM33.3566 8.692V8.76H34.1766V8.692H33.3566ZM33.7226 8.734V9.078H33.8046V8.734H33.7226ZM33.7646 8.21C33.5766 8.21 33.4486 8.287 33.4486 8.408C33.4486 8.529 33.5766 8.606 33.7646 8.606C33.9536 8.606 34.0806 8.529 34.0806 8.408C34.0806 8.287 33.9536 8.21 33.7646 8.21ZM33.7646 8.277C33.9026 8.277 33.9956 8.328 33.9956 8.408C33.9956 8.488 33.9026 8.539 33.7646 8.539C33.6266 8.539 33.5326 8.488 33.5326 8.408C33.5326 8.328 33.6266 8.277 33.7646 8.277ZM34.9355 8.174V9.078H35.0185V8.174H34.9355ZM34.6705 8.271V8.285C34.6705 8.525 34.5495 8.717 34.2885 8.843L34.3325 8.91C34.6345 8.762 34.7525 8.533 34.7525 8.271H34.6705ZM34.3295 8.271V8.339H34.7065V8.271H34.3295ZM35.7167 8.252V8.414C35.7167 8.585 35.6077 8.758 35.4737 8.822L35.5247 8.89C35.6727 8.815 35.7847 8.622 35.7847 8.414V8.252H35.7167ZM35.7307 8.252V8.414C35.7307 8.615 35.8437 8.801 35.9907 8.873L36.0407 8.807C35.9067 8.745 35.7987 8.579 35.7987 8.414V8.252H35.7307ZM36.1347 8.173V9.079H36.2177V8.173H36.1347ZM36.6206 8.267V8.34C36.6206 8.469 36.5306 8.585 36.3936 8.633L36.4376 8.698C36.5886 8.644 36.6886 8.506 36.6886 8.34V8.267H36.6206ZM36.6356 8.267V8.339C36.6356 8.495 36.7316 8.628 36.8806 8.68L36.9236 8.615C36.7906 8.57 36.7036 8.459 36.7036 8.339V8.267H36.6356ZM36.4196 8.237V8.305H36.9026V8.237H36.4196ZM37.0166 8.174V8.718H37.0996V8.174H37.0166ZM37.0766 8.412V8.481H37.2336V8.412H37.0766ZM36.5126 8.766V8.835H37.0166V9.078H37.0996V8.766H36.5126ZM38.0006 8.175V8.734H38.0796V8.175H38.0006ZM37.8536 8.422V8.49H38.0246V8.422H37.8536ZM37.8086 8.188V8.721H37.8876V8.188H37.8086ZM37.3136 8.277V8.343H37.7716V8.277H37.3136ZM37.5436 8.388C37.4296 8.388 37.3506 8.449 37.3506 8.543C37.3506 8.637 37.4296 8.698 37.5436 8.698C37.6566 8.698 37.7356 8.637 37.7356 8.543C37.7356 8.449 37.6566 8.388 37.5436 8.388ZM37.5436 8.451C37.6136 8.451 37.6616 8.487 37.6616 8.543C37.6616 8.599 37.6136 8.636 37.5436 8.636C37.4726 8.636 37.4246 8.599 37.4246 8.543C37.4246 8.487 37.4726 8.451 37.5436 8.451ZM37.5026 8.178V8.316H37.5836V8.178H37.5026ZM37.5566 8.761V8.792C37.5566 8.874 37.4886 8.967 37.3756 9.005L37.4146 9.067C37.5456 9.02 37.6206 8.906 37.6206 8.792V8.761H37.5566ZM37.5756 8.761V8.792C37.5756 8.907 37.6336 9.027 37.7626 9.075L37.7976 9.012C37.6896 8.971 37.6366 8.879 37.6366 8.792V8.761H37.5756ZM37.8886 8.761V8.792C37.8886 8.867 37.8336 8.966 37.7286 9.012L37.7626 9.075C37.8906 9.023 37.9496 8.894 37.9496 8.792V8.761H37.8886ZM37.9056 8.761V8.792C37.9056 8.912 37.9796 9.022 38.1116 9.067L38.1516 9.005C38.0376 8.969 37.9696 8.88 37.9696 8.792V8.761H37.9056ZM38.3415 8.716V9.066H38.9485V8.716H38.8655V8.821H38.4235V8.716H38.3415ZM38.4235 8.885H38.8655V8.999H38.4235V8.885ZM38.2375 8.586V8.653H39.0545V8.586H38.2375ZM38.6045 8.184V8.224C38.6045 8.338 38.4475 8.435 38.2845 8.457L38.3145 8.522C38.5005 8.494 38.6755 8.381 38.6755 8.224V8.184H38.6045ZM38.6175 8.184V8.224C38.6175 8.379 38.7935 8.494 38.9775 8.522L39.0085 8.457C38.8475 8.435 38.6885 8.336 38.6885 8.224V8.184H38.6175ZM39.8154 8.174V9.078H39.8984V8.174H39.8154ZM39.2154 8.262V8.822H39.2974V8.262H39.2154ZM39.2154 8.773V8.845H39.2894C39.4324 8.845 39.5754 8.834 39.7324 8.802L39.7224 8.731C39.5694 8.763 39.4264 8.773 39.2894 8.773H39.2154ZM40.6893 8.173V9.079H40.7733V8.173H40.6893ZM40.7533 8.53V8.6H40.9213V8.53H40.7533ZM40.1163 8.784V8.854H40.1873C40.3573 8.854 40.4763 8.849 40.6153 8.823L40.6063 8.753C40.4713 8.778 40.3543 8.784 40.1873 8.784H40.1163ZM40.1163 8.261V8.815H40.1983V8.329H40.5363V8.261H40.1163ZM41.086 9.00568C41.0685 9.00568 41.0535 8.99941 41.0409 8.98686C41.0284 8.97431 41.0221 8.95928 41.0221 8.94176C41.0221 8.92424 41.0284 8.90921 41.0409 8.89666C41.0535 8.88411 41.0685 8.87784 41.086 8.87784C41.1035 8.87784 41.1186 8.88411 41.1311 8.89666C41.1437 8.90921 41.1499 8.92424 41.1499 8.94176C41.1499 8.95336 41.147 8.96402 41.1411 8.97372C41.1354 8.98343 41.1277 8.99124 41.118 8.99716C41.1085 9.00284 41.0979 9.00568 41.086 9.00568ZM1.2337 10.27V10.337H1.8157V10.27H1.2337ZM1.1457 10.877V10.946H1.9627V10.877H1.1457ZM1.7717 10.27V10.36C1.7717 10.472 1.7717 10.607 1.7357 10.792L1.8187 10.8C1.8527 10.605 1.8527 10.476 1.8527 10.36V10.27H1.7717ZM2.72363 10.173V11.079H2.80663V10.173H2.72363ZM2.11763 10.792V10.861H2.19263C2.34763 10.861 2.48363 10.855 2.64763 10.828L2.63863 10.76C2.47863 10.786 2.34363 10.792 2.19263 10.792H2.11763ZM2.11563 10.258V10.326H2.44963V10.513H2.11763V10.818H2.20063V10.581H2.53363V10.258H2.11563ZM3.07155 10.264V10.333H3.65355V10.264H3.07155ZM2.98555 10.883V10.952H3.80255V10.883H2.98555ZM3.30255 10.56V10.917H3.38555V10.56H3.30255ZM3.62255 10.264V10.354C3.62255 10.462 3.62255 10.589 3.58855 10.762L3.67155 10.773C3.70455 10.59 3.70455 10.466 3.70455 10.354V10.264H3.62255ZM4.84272 10.173V11.079H4.92572V10.173H4.84272ZM4.44872 10.243C4.31572 10.243 4.21972 10.366 4.21972 10.558C4.21972 10.751 4.31572 10.874 4.44872 10.874C4.58272 10.874 4.67872 10.751 4.67872 10.558C4.67872 10.366 4.58272 10.243 4.44872 10.243ZM4.44872 10.318C4.53772 10.318 4.59872 10.412 4.59872 10.558C4.59872 10.705 4.53772 10.801 4.44872 10.801C4.36072 10.801 4.29872 10.705 4.29872 10.558C4.29872 10.412 4.36072 10.318 4.44872 10.318ZM5.53264 10.429V10.497H5.79264V10.429H5.53264ZM5.76664 10.175V10.844H5.84964V10.175H5.76664ZM5.26864 10.99V11.058H5.87164V10.99H5.26864ZM5.26864 10.779V11.025H5.35164V10.779H5.26864ZM5.15064 10.234V10.69H5.55864V10.234H5.47764V10.394H5.23264V10.234H5.15064ZM5.23264 10.459H5.47764V10.622H5.23264V10.459ZM6.54581 10.252V10.414C6.54581 10.585 6.43681 10.758 6.30281 10.822L6.35381 10.89C6.50181 10.815 6.61381 10.622 6.61381 10.414V10.252H6.54581ZM6.55981 10.252V10.414C6.55981 10.615 6.67281 10.801 6.81981 10.873L6.86981 10.807C6.73581 10.745 6.62781 10.579 6.62781 10.414V10.252H6.55981ZM6.96381 10.173V11.079H7.04681V10.173H6.96381ZM7.33073 10.596V10.664H7.95173V10.596H7.33073ZM7.22773 10.895V10.965H8.04673V10.895H7.22773ZM7.59373 10.625V10.923H7.67673V10.625H7.59373ZM7.33073 10.246V10.626H7.41373V10.314H7.94273V10.246H7.33073ZM8.14766 10.898V10.967H8.96666V10.898H8.14766ZM8.51366 10.704V10.927H8.59666V10.704H8.51366ZM8.24666 10.241V10.308H8.78366V10.448H8.24966V10.696H8.33166V10.515H8.86566V10.241H8.24666ZM8.24966 10.661V10.729H8.88666V10.661H8.24966ZM10.0358 10.174V11.078H10.1158V10.174H10.0358ZM9.70683 10.498V10.567H9.87983V10.498H9.70683ZM9.85483 10.195V11.032H9.93283V10.195H9.85483ZM9.53283 10.314V10.429C9.53283 10.595 9.46283 10.76 9.33683 10.836L9.38783 10.898C9.52083 10.814 9.59683 10.627 9.59683 10.429V10.314H9.53283ZM9.54983 10.314V10.429C9.54983 10.618 9.62283 10.796 9.75483 10.876L9.80583 10.815C9.68183 10.743 9.61383 10.586 9.61383 10.429V10.314H9.54983ZM9.36183 10.279V10.348H9.77483V10.279H9.36183ZM10.8798 10.173V11.078H10.9638V10.173H10.8798ZM10.9408 10.54V10.609H11.1078V10.54H10.9408ZM10.6488 10.271V10.284C10.6488 10.523 10.5238 10.716 10.2738 10.843L10.3198 10.907C10.6118 10.76 10.7298 10.528 10.7298 10.271H10.6488ZM10.3158 10.271V10.339H10.6918V10.271H10.3158ZM12.1309 10.173V11.079H12.2129V10.173H12.1309ZM11.9359 10.503V10.571H12.1549V10.503H11.9359ZM11.6989 10.303V10.438C11.6989 10.599 11.5919 10.77 11.4619 10.834L11.5109 10.9C11.6539 10.826 11.7659 10.633 11.7659 10.438V10.303H11.6989ZM11.7159 10.303V10.438C11.7159 10.624 11.8259 10.81 11.9689 10.881L12.0179 10.816C11.8869 10.754 11.7819 10.589 11.7819 10.438V10.303H11.7159ZM11.4949 10.266V10.335H11.9869V10.266H11.4949ZM12.6828 10.239C12.5418 10.239 12.4398 10.326 12.4398 10.452C12.4398 10.579 12.5418 10.666 12.6828 10.666C12.8238 10.666 12.9248 10.579 12.9248 10.452C12.9248 10.326 12.8238 10.239 12.6828 10.239ZM12.6828 10.311C12.7758 10.311 12.8438 10.368 12.8438 10.452C12.8438 10.536 12.7758 10.594 12.6828 10.594C12.5888 10.594 12.5208 10.536 12.5208 10.452C12.5208 10.368 12.5888 10.311 12.6828 10.311ZM13.0428 10.173V11.079H13.1258V10.173H13.0428ZM12.4058 10.881C12.5668 10.881 12.7878 10.88 12.9908 10.841L12.9838 10.78C12.7868 10.811 12.5588 10.812 12.3938 10.812L12.4058 10.881ZM13.831 10.243C13.698 10.243 13.604 10.366 13.604 10.558C13.604 10.751 13.698 10.874 13.831 10.874C13.964 10.874 14.058 10.751 14.058 10.558C14.058 10.366 13.964 10.243 13.831 10.243ZM13.831 10.318C13.918 10.318 13.979 10.412 13.979 10.558C13.979 10.705 13.918 10.801 13.831 10.801C13.743 10.801 13.683 10.705 13.683 10.558C13.683 10.412 13.743 10.318 13.831 10.318ZM14.202 10.174V11.078H14.286V10.174H14.202ZM14.266 10.535V10.605H14.434V10.535H14.266ZM15.1669 10.173V11.079H15.2499V10.173H15.1669ZM14.7729 10.243C14.6399 10.243 14.5439 10.366 14.5439 10.558C14.5439 10.751 14.6399 10.874 14.7729 10.874C14.9069 10.874 15.0029 10.751 15.0029 10.558C15.0029 10.366 14.9069 10.243 14.7729 10.243ZM14.7729 10.318C14.8619 10.318 14.9229 10.412 14.9229 10.558C14.9229 10.705 14.8619 10.801 14.7729 10.801C14.6849 10.801 14.6229 10.705 14.6229 10.558C14.6229 10.412 14.6849 10.318 14.7729 10.318ZM16.0869 10.174V11.08H16.1699V10.174H16.0869ZM15.4889 10.785V10.855H15.5619C15.7439 10.855 15.8619 10.85 15.9999 10.824L15.9909 10.754C15.8569 10.779 15.7409 10.785 15.5619 10.785H15.4889ZM15.4889 10.26V10.811H15.5709V10.329H15.9159V10.26H15.4889ZM16.5918 10.243C16.4598 10.243 16.3668 10.366 16.3668 10.558C16.3668 10.751 16.4598 10.874 16.5918 10.874C16.7228 10.874 16.8168 10.751 16.8168 10.558C16.8168 10.366 16.7228 10.243 16.5918 10.243ZM16.5918 10.318C16.6788 10.318 16.7378 10.412 16.7378 10.558C16.7378 10.705 16.6788 10.801 16.5918 10.801C16.5048 10.801 16.4458 10.705 16.4458 10.558C16.4458 10.412 16.5048 10.318 16.5918 10.318ZM17.0128 10.173V11.079H17.0948V10.173H17.0128ZM16.7898 10.518V10.586H17.0488V10.518H16.7898ZM17.2697 10.594V10.657H18.0897V10.594H17.2697ZM17.3667 10.73V10.789H17.9057V10.866H17.3697V11.029H17.4517V10.923H17.9867V10.73H17.3667ZM17.3697 11.007V11.067H18.0157V11.007H17.3697ZM17.3737 10.2V10.259H17.9027V10.332H17.3757V10.486H17.4577V10.388H17.9837V10.2H17.3737ZM17.3757 10.466V10.526H18.0007V10.466H17.3757ZM19.1589 10.174V11.078H19.2389V10.174H19.1589ZM18.8299 10.498V10.567H19.0029V10.498H18.8299ZM18.9779 10.195V11.032H19.0559V10.195H18.9779ZM18.6559 10.314V10.429C18.6559 10.595 18.5859 10.76 18.4599 10.836L18.5109 10.898C18.6439 10.814 18.7199 10.627 18.7199 10.429V10.314H18.6559ZM18.6729 10.314V10.429C18.6729 10.618 18.7459 10.796 18.8779 10.876L18.9289 10.815C18.8049 10.743 18.7369 10.586 18.7369 10.429V10.314H18.6729ZM18.4849 10.279V10.348H18.8979V10.279H18.4849ZM19.778 10.99V11.058H20.399V10.99H19.778ZM19.778 10.799V11.014H19.861V10.799H19.778ZM19.672 10.659V10.727H20.492V10.659H19.672ZM20.039 10.507V10.684H20.121V10.507H20.039ZM20.038 10.197V10.238C20.038 10.364 19.886 10.473 19.725 10.499L19.758 10.565C19.94 10.53 20.11 10.406 20.11 10.238V10.197H20.038ZM20.051 10.197V10.238C20.051 10.406 20.222 10.529 20.402 10.565L20.435 10.499C20.276 10.473 20.122 10.364 20.122 10.238V10.197H20.051ZM21.001 10.231C20.813 10.231 20.672 10.331 20.672 10.481C20.672 10.632 20.813 10.731 21.001 10.731C21.189 10.731 21.329 10.632 21.329 10.481C21.329 10.331 21.189 10.231 21.001 10.231ZM21.001 10.299C21.144 10.299 21.25 10.372 21.25 10.481C21.25 10.589 21.144 10.663 21.001 10.663C20.858 10.663 20.752 10.589 20.752 10.481C20.752 10.372 20.858 10.299 21.001 10.299ZM20.593 10.889V10.959H21.412V10.889H20.593ZM21.5129 10.898V10.967H22.3319V10.898H21.5129ZM21.8789 10.704V10.927H21.9619V10.704H21.8789ZM21.6119 10.241V10.308H22.1489V10.448H21.6149V10.696H21.6969V10.515H22.2309V10.241H21.6119ZM21.6149 10.661V10.729H22.2519V10.661H21.6149ZM22.8161 10.233V10.3H23.3811V10.233H22.8161ZM22.7141 10.621V10.689H23.5311V10.621H22.7141ZM23.0791 10.666V11.079H23.1621V10.666H23.0791ZM23.3421 10.233V10.311C23.3421 10.402 23.3421 10.507 23.3071 10.653L23.3891 10.664C23.4231 10.511 23.4231 10.405 23.4231 10.311V10.233H23.3421ZM24.294 10.175V10.864H24.377V10.175H24.294ZM24.141 10.414V10.482H24.329V10.414H24.141ZM24.141 10.605V10.672H24.329V10.605H24.141ZM23.635 10.284V10.351H24.141V10.284H23.635ZM23.891 10.401C23.77 10.401 23.686 10.47 23.686 10.574C23.686 10.677 23.77 10.747 23.891 10.747C24.011 10.747 24.095 10.677 24.095 10.574C24.095 10.47 24.011 10.401 23.891 10.401ZM23.891 10.466C23.966 10.466 24.017 10.51 24.017 10.574C24.017 10.638 23.966 10.681 23.891 10.681C23.816 10.681 23.765 10.638 23.765 10.574C23.765 10.51 23.816 10.466 23.891 10.466ZM23.85 10.173V10.327H23.933V10.173H23.85ZM23.796 10.99V11.058H24.399V10.99H23.796ZM23.796 10.805V11.023H23.879V10.805H23.796ZM25.1659 10.174V11.078H25.2489V10.174H25.1659ZM25.2289 10.545V10.615H25.3969V10.545H25.2289ZM24.5489 10.318V10.386H25.0819V10.318H24.5489ZM24.8189 10.461C24.6919 10.461 24.5989 10.547 24.5989 10.669C24.5989 10.791 24.6919 10.877 24.8189 10.877C24.9469 10.877 25.0389 10.791 25.0389 10.669C25.0389 10.547 24.9469 10.461 24.8189 10.461ZM24.8189 10.53C24.9009 10.53 24.9599 10.587 24.9599 10.669C24.9599 10.75 24.9009 10.808 24.8189 10.808C24.7369 10.808 24.6779 10.75 24.6779 10.669C24.6779 10.587 24.7369 10.53 24.8189 10.53ZM24.7759 10.185V10.349H24.8589V10.185H24.7759ZM25.5838 10.445V10.513H26.1978V10.445H25.5838ZM25.4728 10.634V10.702H26.2928V10.634H25.4728ZM25.5838 10.207V10.479H25.6658V10.207H25.5838ZM25.5778 10.988V11.056H26.2028V10.988H25.5778ZM25.5778 10.792V11.006H25.6598V10.792H25.5778ZM27.335 10.174V10.786H27.418V10.174H27.335ZM27.141 10.429V10.497H27.352V10.429H27.141ZM27.051 10.245V10.278C27.051 10.455 26.919 10.591 26.69 10.663L26.725 10.729C26.984 10.645 27.138 10.479 27.138 10.245H27.051ZM26.733 10.245V10.313H27.11V10.245H26.733ZM27.085 10.708V10.749C27.085 10.881 26.944 10.981 26.784 11.01L26.817 11.076C26.998 11.039 27.156 10.922 27.156 10.749V10.708H27.085ZM27.097 10.708V10.749C27.097 10.921 27.253 11.038 27.433 11.074L27.468 11.008C27.307 10.979 27.168 10.879 27.168 10.749V10.708H27.097ZM28.0029 10.189C27.8029 10.189 27.6849 10.245 27.6849 10.346C27.6849 10.447 27.8029 10.503 28.0029 10.503C28.2019 10.503 28.3209 10.447 28.3209 10.346C28.3209 10.245 28.2019 10.189 28.0029 10.189ZM28.0029 10.252C28.1499 10.252 28.2349 10.286 28.2349 10.346C28.2349 10.406 28.1499 10.44 28.0029 10.44C27.8549 10.44 27.7699 10.406 27.7699 10.346C27.7699 10.286 27.8549 10.252 28.0029 10.252ZM27.5939 10.563V10.63H28.4109V10.563H27.5939ZM27.6929 10.707V10.771H28.2249V10.851H27.6949V11.021H27.7769V10.911H28.3069V10.707H27.6929ZM27.6949 11.003V11.068H28.3339V11.003H27.6949ZM29.1621 10.442V10.58H29.2441V10.442H29.1621ZM29.1501 10.229V10.257C29.1501 10.352 29.0011 10.422 28.8381 10.435L28.8651 10.498C29.0551 10.48 29.2231 10.393 29.2231 10.257V10.229H29.1501ZM29.1861 10.229V10.257C29.1861 10.393 29.3541 10.48 29.5431 10.498L29.5701 10.435C29.4071 10.422 29.2581 10.351 29.2581 10.257V10.229H29.1861ZM28.8701 10.202V10.267H29.5391V10.202H28.8701ZM28.8711 10.735V10.801H29.5371V10.735H28.8711ZM28.7951 10.549V10.616H29.6151V10.549H28.7951ZM29.2041 10.845C29.0301 10.845 28.9321 10.886 28.9321 10.964C28.9321 11.043 29.0301 11.083 29.2041 11.083C29.3781 11.083 29.4751 11.043 29.4751 10.964C29.4751 10.886 29.3781 10.845 29.2041 10.845ZM29.2041 10.902C29.3231 10.902 29.3911 10.923 29.3911 10.964C29.3911 11.005 29.3231 11.026 29.2041 11.026C29.0841 11.026 29.0171 11.005 29.0171 10.964C29.0171 10.923 29.0841 10.902 29.2041 10.902ZM29.1631 10.652V10.777H29.2451V10.652H29.1631ZM29.956 10.243C29.823 10.243 29.729 10.366 29.729 10.558C29.729 10.751 29.823 10.874 29.956 10.874C30.089 10.874 30.183 10.751 30.183 10.558C30.183 10.366 30.089 10.243 29.956 10.243ZM29.956 10.318C30.043 10.318 30.104 10.412 30.104 10.558C30.104 10.705 30.043 10.801 29.956 10.801C29.868 10.801 29.808 10.705 29.808 10.558C29.808 10.412 29.868 10.318 29.956 10.318ZM30.327 10.174V11.078H30.411V10.174H30.327ZM30.391 10.535V10.605H30.559V10.535H30.391ZM31.2539 10.175V10.853H31.3369V10.175H31.2539ZM31.3109 10.471V10.541H31.4709V10.471H31.3109ZM30.6379 10.284V10.351H31.1719V10.284H30.6379ZM30.9049 10.401C30.7759 10.401 30.6879 10.468 30.6879 10.57C30.6879 10.671 30.7759 10.738 30.9049 10.738C31.0329 10.738 31.1209 10.671 31.1209 10.57C31.1209 10.468 31.0329 10.401 30.9049 10.401ZM30.9049 10.466C30.9859 10.466 31.0419 10.507 31.0419 10.57C31.0419 10.632 30.9859 10.673 30.9049 10.673C30.8229 10.673 30.7669 10.632 30.7669 10.57C30.7669 10.507 30.8229 10.466 30.9049 10.466ZM30.8629 10.174V10.319H30.9459V10.174H30.8629ZM30.7739 10.99V11.058H31.3779V10.99H30.7739ZM30.7739 10.799V11.019H30.8569V10.799H30.7739ZM32.1669 10.173V11.079H32.2509V10.173H32.1669ZM32.2309 10.53V10.6H32.3989V10.53H32.2309ZM31.5939 10.784V10.854H31.6649C31.8349 10.854 31.9539 10.849 32.0929 10.823L32.0839 10.753C31.9489 10.778 31.8319 10.784 31.6649 10.784H31.5939ZM31.5939 10.261V10.815H31.6759V10.329H32.0139V10.261H31.5939ZM32.5858 10.445V10.513H33.1998V10.445H32.5858ZM32.4748 10.634V10.702H33.2948V10.634H32.4748ZM32.5858 10.207V10.479H32.6678V10.207H32.5858ZM32.5798 10.988V11.056H33.2048V10.988H32.5798ZM32.5798 10.792V11.006H32.6618V10.792H32.5798ZM34.337 10.174V10.786H34.42V10.174H34.337ZM34.143 10.429V10.497H34.354V10.429H34.143ZM34.053 10.245V10.278C34.053 10.455 33.921 10.591 33.692 10.663L33.727 10.729C33.986 10.645 34.14 10.479 34.14 10.245H34.053ZM33.735 10.245V10.313H34.112V10.245H33.735ZM34.087 10.708V10.749C34.087 10.881 33.946 10.981 33.786 11.01L33.819 11.076C34 11.039 34.158 10.922 34.158 10.749V10.708H34.087ZM34.099 10.708V10.749C34.099 10.921 34.255 11.038 34.435 11.074L34.47 11.008C34.309 10.979 34.17 10.879 34.17 10.749V10.708H34.099ZM35.0049 10.189C34.8049 10.189 34.6869 10.245 34.6869 10.346C34.6869 10.447 34.8049 10.503 35.0049 10.503C35.2039 10.503 35.3229 10.447 35.3229 10.346C35.3229 10.245 35.2039 10.189 35.0049 10.189ZM35.0049 10.252C35.1519 10.252 35.2369 10.286 35.2369 10.346C35.2369 10.406 35.1519 10.44 35.0049 10.44C34.8569 10.44 34.7719 10.406 34.7719 10.346C34.7719 10.286 34.8569 10.252 35.0049 10.252ZM34.5959 10.563V10.63H35.4129V10.563H34.5959ZM34.6949 10.707V10.771H35.2269V10.851H34.6969V11.021H34.7789V10.911H35.3089V10.707H34.6949ZM34.6969 11.003V11.068H35.3359V11.003H34.6969ZM36.416 10.174V10.634H36.499V10.174H36.416ZM36.463 10.368V10.437H36.632V10.368H36.463ZM35.925 10.677V10.743H36.418V10.836H35.927V11.034H36.009V10.899H36.499V10.677H35.925ZM35.927 10.999V11.066H36.532V10.999H35.927ZM36.047 10.206C35.913 10.206 35.814 10.289 35.814 10.407C35.814 10.526 35.913 10.609 36.047 10.609C36.183 10.609 36.281 10.526 36.281 10.407C36.281 10.289 36.183 10.206 36.047 10.206ZM36.047 10.274C36.136 10.274 36.201 10.329 36.201 10.407C36.201 10.486 36.136 10.541 36.047 10.541C35.96 10.541 35.895 10.486 35.895 10.407C35.895 10.329 35.96 10.274 36.047 10.274ZM37.406 10.174V11.078H37.486V10.174H37.406ZM37.014 10.543V10.61H37.242V10.543H37.014ZM37.218 10.197V11.032H37.296V10.197H37.218ZM37.025 10.288V10.303C37.025 10.516 36.93 10.696 36.717 10.824L36.766 10.883C37.01 10.738 37.105 10.525 37.105 10.288H37.025ZM36.757 10.288V10.356H37.056V10.288H36.757ZM37.9901 10.563V10.631H38.4531V10.563H37.9901ZM38.1751 10.617V10.825H38.2591V10.617H38.1751ZM37.9901 10.259V10.587H38.0731V10.327H38.4481V10.259H37.9901ZM38.5721 10.173V11.079H38.6551V10.173H38.5721ZM37.9351 10.883C38.1061 10.884 38.3221 10.88 38.5201 10.85L38.5131 10.788C38.3221 10.811 38.1001 10.813 37.9231 10.814L37.9351 10.883ZM39.4961 10.174V11.078H39.5791V10.174H39.4961ZM38.8961 10.262V10.822H38.9781V10.262H38.8961ZM38.8961 10.773V10.845H38.9701C39.1131 10.845 39.2561 10.834 39.4131 10.802L39.4031 10.731C39.2501 10.763 39.1071 10.773 38.9701 10.773H38.8961ZM40.37 10.173V11.079H40.454V10.173H40.37ZM40.434 10.53V10.6H40.602V10.53H40.434ZM39.797 10.784V10.854H39.868C40.038 10.854 40.157 10.849 40.296 10.823L40.287 10.753C40.152 10.778 40.035 10.784 39.868 10.784H39.797ZM39.797 10.261V10.815H39.879V10.329H40.217V10.261H39.797ZM40.7667 11.0057C40.7492 11.0057 40.7341 10.9994 40.7216 10.9869C40.709 10.9743 40.7028 10.9593 40.7028 10.9418C40.7028 10.9242 40.709 10.9092 40.7216 10.8967C40.7341 10.8841 40.7492 10.8778 40.7667 10.8778C40.7842 10.8778 40.7992 10.8841 40.8118 10.8967C40.8243 10.9092 40.8306 10.9242 40.8306 10.9418C40.8306 10.9534 40.8277 10.964 40.8217 10.9737C40.8161 10.9834 40.8084 10.9912 40.7987 10.9972C40.7892 11.0028 40.7785 11.0057 40.7667 11.0057ZM9.68756 12.173V13.079H9.76956V12.173H9.68756ZM9.49256 12.503V12.571H9.71156V12.503H9.49256ZM9.25556 12.303V12.438C9.25556 12.599 9.14856 12.77 9.01856 12.834L9.06756 12.9C9.21056 12.826 9.32256 12.633 9.32256 12.438V12.303H9.25556ZM9.27256 12.303V12.438C9.27256 12.624 9.38256 12.81 9.52556 12.881L9.57456 12.816C9.44356 12.754 9.33856 12.589 9.33856 12.438V12.303H9.27256ZM9.05156 12.266V12.335H9.54356V12.266H9.05156ZM10.0565 12.445V12.513H10.6705V12.445H10.0565ZM9.94548 12.634V12.702H10.7655V12.634H9.94548ZM10.0565 12.207V12.479H10.1385V12.207H10.0565ZM10.0505 12.988V13.056H10.6755V12.988H10.0505ZM10.0505 12.792V13.006H10.1325V12.792H10.0505ZM11.7587 12.173V13.079H11.8427V12.173H11.7587ZM11.8227 12.53V12.6H11.9907V12.53H11.8227ZM11.1857 12.784V12.854H11.2567C11.4267 12.854 11.5457 12.849 11.6847 12.823L11.6757 12.753C11.5407 12.778 11.4237 12.784 11.2567 12.784H11.1857ZM11.1857 12.261V12.815H11.2677V12.329H11.6057V12.261H11.1857ZM12.4756 12.194C12.2796 12.194 12.1576 12.258 12.1576 12.365C12.1576 12.472 12.2796 12.535 12.4756 12.535C12.6706 12.535 12.7936 12.472 12.7936 12.365C12.7936 12.258 12.6706 12.194 12.4756 12.194ZM12.4756 12.26C12.6186 12.26 12.7086 12.298 12.7086 12.365C12.7086 12.431 12.6186 12.47 12.4756 12.47C12.3316 12.47 12.2426 12.431 12.2426 12.365C12.2426 12.298 12.3316 12.26 12.4756 12.26ZM12.1666 12.768V13.066H12.7836V12.768H12.1666ZM12.7026 12.835V12.999H12.2486V12.835H12.7026ZM12.0666 12.613V12.68H12.8836V12.613H12.0666ZM13.5068 12.252V12.414C13.5068 12.585 13.3978 12.758 13.2638 12.822L13.3148 12.89C13.4628 12.815 13.5748 12.622 13.5748 12.414V12.252H13.5068ZM13.5208 12.252V12.414C13.5208 12.615 13.6338 12.801 13.7808 12.873L13.8308 12.807C13.6968 12.745 13.5888 12.579 13.5888 12.414V12.252H13.5208ZM13.9248 12.173V13.079H14.0078V12.173H13.9248ZM14.2917 12.596V12.664H14.9127V12.596H14.2917ZM14.1887 12.895V12.965H15.0077V12.895H14.1887ZM14.5547 12.625V12.923H14.6377V12.625H14.5547ZM14.2917 12.246V12.626H14.3747V12.314H14.9037V12.246H14.2917ZM15.4746 12.525V12.594H15.6456V12.525H15.4746ZM15.7966 12.174V13.078H15.8766V12.174H15.7966ZM15.6176 12.193V13.033H15.6966V12.193H15.6176ZM15.3116 12.249C15.1946 12.249 15.1196 12.37 15.1196 12.564C15.1196 12.758 15.1946 12.879 15.3116 12.879C15.4286 12.879 15.5046 12.758 15.5046 12.564C15.5046 12.37 15.4286 12.249 15.3116 12.249ZM15.3116 12.326C15.3836 12.326 15.4286 12.418 15.4286 12.564C15.4286 12.71 15.3836 12.802 15.3116 12.802C15.2406 12.802 15.1956 12.71 15.1956 12.564C15.1956 12.418 15.2406 12.326 15.3116 12.326ZM16.1385 12.445V12.513H16.7525V12.445H16.1385ZM16.0275 12.634V12.702H16.8475V12.634H16.0275ZM16.1385 12.207V12.479H16.2205V12.207H16.1385ZM16.1325 12.988V13.056H16.7575V12.988H16.1325ZM16.1325 12.792V13.006H16.2145V12.792H16.1325ZM17.2287 12.699V12.767H18.0487V12.699H17.2287ZM17.5947 12.74V13.078H17.6767V12.74H17.5947ZM17.3327 12.224V12.577H17.9427V12.224H17.3327ZM17.8617 12.291V12.51H17.4147V12.291H17.8617ZM18.8096 12.174V12.794H18.8926V12.174H18.8096ZM18.5936 12.421V12.489H18.8326V12.421H18.5936ZM18.3956 12.235C18.2616 12.235 18.1626 12.325 18.1626 12.454C18.1626 12.582 18.2616 12.673 18.3956 12.673C18.5286 12.673 18.6286 12.582 18.6286 12.454C18.6286 12.325 18.5286 12.235 18.3956 12.235ZM18.3956 12.306C18.4836 12.306 18.5486 12.367 18.5486 12.454C18.5486 12.54 18.4836 12.602 18.3956 12.602C18.3076 12.602 18.2426 12.54 18.2426 12.454C18.2426 12.367 18.3076 12.306 18.3956 12.306ZM18.5596 12.723V12.758C18.5596 12.881 18.4166 12.981 18.2566 13.008L18.2886 13.074C18.4726 13.041 18.6306 12.921 18.6306 12.758V12.723H18.5596ZM18.5736 12.723V12.758C18.5736 12.925 18.7326 13.04 18.9156 13.074L18.9486 13.008C18.7866 12.981 18.6446 12.884 18.6446 12.758V12.723H18.5736ZM19.4775 12.189C19.2775 12.189 19.1595 12.245 19.1595 12.346C19.1595 12.447 19.2775 12.503 19.4775 12.503C19.6765 12.503 19.7955 12.447 19.7955 12.346C19.7955 12.245 19.6765 12.189 19.4775 12.189ZM19.4775 12.252C19.6245 12.252 19.7095 12.286 19.7095 12.346C19.7095 12.406 19.6245 12.44 19.4775 12.44C19.3295 12.44 19.2445 12.406 19.2445 12.346C19.2445 12.286 19.3295 12.252 19.4775 12.252ZM19.0685 12.563V12.63H19.8855V12.563H19.0685ZM19.1675 12.707V12.771H19.6995V12.851H19.1695V13.021H19.2515V12.911H19.7815V12.707H19.1675ZM19.1695 13.003V13.068H19.8085V13.003H19.1695ZM20.8887 12.174V12.634H20.9717V12.174H20.8887ZM20.9357 12.368V12.437H21.1047V12.368H20.9357ZM20.3977 12.677V12.743H20.8907V12.836H20.3997V13.034H20.4817V12.899H20.9717V12.677H20.3977ZM20.3997 12.999V13.066H21.0047V12.999H20.3997ZM20.5197 12.206C20.3857 12.206 20.2867 12.289 20.2867 12.407C20.2867 12.526 20.3857 12.609 20.5197 12.609C20.6557 12.609 20.7537 12.526 20.7537 12.407C20.7537 12.289 20.6557 12.206 20.5197 12.206ZM20.5197 12.274C20.6087 12.274 20.6737 12.329 20.6737 12.407C20.6737 12.486 20.6087 12.541 20.5197 12.541C20.4327 12.541 20.3677 12.486 20.3677 12.407C20.3677 12.329 20.4327 12.274 20.5197 12.274ZM21.8786 12.174V13.078H21.9586V12.174H21.8786ZM21.4866 12.543V12.61H21.7146V12.543H21.4866ZM21.6906 12.197V13.032H21.7686V12.197H21.6906ZM21.4976 12.288V12.303C21.4976 12.516 21.4026 12.696 21.1896 12.824L21.2386 12.883C21.4826 12.738 21.5776 12.525 21.5776 12.288H21.4976ZM21.2296 12.288V12.356H21.5286V12.288H21.2296ZM22.4778 12.411V12.475H22.9118V12.411H22.4778ZM22.4778 12.212V12.44H22.5628V12.277H22.9018V12.212H22.4778ZM22.6508 12.447V12.598H22.7338V12.447H22.6508ZM23.0498 12.174V12.66H23.1328V12.174H23.0498ZM22.4078 12.639C22.5778 12.639 22.7928 12.633 22.9848 12.605L22.9798 12.547C22.7928 12.568 22.5718 12.572 22.3968 12.573L22.4078 12.639ZM22.5368 12.701V12.767H23.0518V12.849H22.5378V13.028H22.6198V12.912H23.1328V12.701H22.5368ZM22.5378 13.002V13.068H23.1638V13.002H22.5378ZM23.5507 12.303V12.45C23.5507 12.606 23.4417 12.776 23.3107 12.838L23.3587 12.904C23.5027 12.833 23.6177 12.641 23.6177 12.45V12.303H23.5507ZM23.5667 12.303V12.45C23.5667 12.638 23.6827 12.814 23.8287 12.882L23.8757 12.816C23.7427 12.759 23.6337 12.603 23.6337 12.45V12.303H23.5667ZM23.3407 12.266V12.336H23.8457V12.266H23.3407ZM23.9677 12.174V13.078H24.0507V12.174H23.9677ZM25.1709 12.174V13.078H25.2539V12.174H25.1709ZM24.9059 12.271V12.285C24.9059 12.525 24.7849 12.717 24.5239 12.843L24.5679 12.91C24.8699 12.762 24.9879 12.533 24.9879 12.271H24.9059ZM24.5649 12.271V12.339H24.9419V12.271H24.5649ZM26.1198 12.174V13.078H26.1998V12.174H26.1198ZM25.9668 12.536V12.605H26.1408V12.536H25.9668ZM25.9148 12.194V13.032H25.9928V12.194H25.9148ZM25.4648 12.786V12.855H25.5238C25.6598 12.855 25.7508 12.851 25.8588 12.828L25.8508 12.759C25.7458 12.781 25.6558 12.786 25.5238 12.786H25.4648ZM25.4648 12.284V12.817H25.5468V12.352H25.8008V12.284H25.4648ZM26.4237 12.563V12.631H26.8867V12.563H26.4237ZM26.6087 12.617V12.825H26.6927V12.617H26.6087ZM26.4237 12.259V12.587H26.5067V12.327H26.8817V12.259H26.4237ZM27.0057 12.173V13.079H27.0887V12.173H27.0057ZM26.3687 12.883C26.5397 12.884 26.7557 12.88 26.9537 12.85L26.9467 12.788C26.7557 12.811 26.5337 12.813 26.3567 12.814L26.3687 12.883ZM27.3827 12.445V12.513H27.9967V12.445H27.3827ZM27.2717 12.634V12.702H28.0917V12.634H27.2717ZM27.3827 12.207V12.479H27.4647V12.207H27.3827ZM27.3767 12.988V13.056H28.0017V12.988H27.3767ZM27.3767 12.792V13.006H27.4587V12.792H27.3767ZM28.6948 12.252V12.414C28.6948 12.579 28.5918 12.753 28.4608 12.819L28.5118 12.885C28.6548 12.809 28.7628 12.614 28.7628 12.414V12.252H28.6948ZM28.7098 12.252V12.414C28.7098 12.608 28.8148 12.793 28.9548 12.868L29.0058 12.802C28.8778 12.738 28.7768 12.573 28.7768 12.414V12.252H28.7098ZM29.0848 12.174V13.078H29.1688V12.174H29.0848ZM29.1488 12.54V12.61H29.3168V12.54H29.1488ZM30.0118 12.175V12.713H30.0948V12.175H30.0118ZM30.0698 12.405V12.475H30.2288V12.405H30.0698ZM29.5248 12.758V13.066H30.0948V12.758H29.5248ZM30.0138 12.824V12.999H29.6068V12.824H30.0138ZM29.4328 12.598V12.667H29.5038C29.6708 12.667 29.7898 12.661 29.9328 12.637L29.9258 12.569C29.7848 12.594 29.6678 12.598 29.5038 12.598H29.4328ZM29.4308 12.223V12.291H29.7558V12.407H29.4328V12.637H29.5138V12.471H29.8378V12.223H29.4308ZM30.9707 12.174V12.659H31.0547V12.174H30.9707ZM30.4717 12.704V13.066H31.0547V12.704H30.9727V12.814H30.5537V12.704H30.4717ZM30.5537 12.88H30.9727V12.999H30.5537V12.88ZM30.5697 12.217C30.4327 12.217 30.3337 12.302 30.3337 12.425C30.3337 12.549 30.4327 12.634 30.5697 12.634C30.7067 12.634 30.8047 12.549 30.8047 12.425C30.8047 12.302 30.7067 12.217 30.5697 12.217ZM30.5697 12.286C30.6597 12.286 30.7247 12.343 30.7247 12.425C30.7247 12.507 30.6597 12.564 30.5697 12.564C30.4797 12.564 30.4147 12.507 30.4147 12.425C30.4147 12.343 30.4797 12.286 30.5697 12.286ZM31.8906 12.174V13.078H31.9736V12.174H31.8906ZM31.2906 12.262V12.822H31.3726V12.262H31.2906ZM31.2906 12.773V12.845H31.3646C31.5076 12.845 31.6506 12.834 31.8076 12.802L31.7976 12.731C31.6446 12.763 31.5016 12.773 31.3646 12.773H31.2906ZM32.7645 12.173V13.079H32.8485V12.173H32.7645ZM32.8285 12.53V12.6H32.9965V12.53H32.8285ZM32.1915 12.784V12.854H32.2625C32.4325 12.854 32.5515 12.849 32.6905 12.823L32.6815 12.753C32.5465 12.778 32.4295 12.784 32.2625 12.784H32.1915ZM32.1915 12.261V12.815H32.2735V12.329H32.6115V12.261H32.1915Z" fill="black"/>
</svg>
