<svg width="171" height="136" viewBox="0 0 171 136" fill="none" xmlns="http://www.w3.org/2000/svg">
<path d="M30.0558 1.888C27.9278 1.888 26.4238 3.856 26.4238 6.928C26.4238 10.016 27.9278 11.984 30.0558 11.984C32.1838 11.984 33.6878 10.016 33.6878 6.928C33.6878 3.856 32.1838 1.888 30.0558 1.888ZM30.0558 3.088C31.4478 3.088 32.4238 4.592 32.4238 6.928C32.4238 9.28 31.4478 10.816 30.0558 10.816C28.6478 10.816 27.6878 9.28 27.6878 6.928C27.6878 4.592 28.6478 3.088 30.0558 3.088ZM35.9918 0.783999V15.248H37.3358V0.783999H35.9918ZM37.0158 6.56V7.68H39.7038V6.56H37.0158ZM51.0786 0.768V15.264H52.4066V0.768H51.0786ZM44.7746 1.888C42.6466 1.888 41.1106 3.856 41.1106 6.928C41.1106 10.016 42.6466 11.984 44.7746 11.984C46.9186 11.984 48.4546 10.016 48.4546 6.928C48.4546 3.856 46.9186 1.888 44.7746 1.888ZM44.7746 3.088C46.1986 3.088 47.1746 4.592 47.1746 6.928C47.1746 9.28 46.1986 10.816 44.7746 10.816C43.3666 10.816 42.3746 9.28 42.3746 6.928C42.3746 4.592 43.3666 3.088 44.7746 3.088ZM65.4453 0.783999V15.28H66.7733V0.783999H65.4453ZM55.8773 10.56V11.68H57.0453C59.9573 11.68 61.8453 11.6 64.0533 11.184L63.9093 10.064C61.7653 10.464 59.9093 10.56 57.0453 10.56H55.8773ZM55.8773 2.16V10.976H57.1893V3.264H62.7093V2.16H55.8773ZM73.1721 1.888C71.0601 1.888 69.5721 3.856 69.5721 6.928C69.5721 10.016 71.0601 11.984 73.1721 11.984C75.2681 11.984 76.7721 10.016 76.7721 6.928C76.7721 3.856 75.2681 1.888 73.1721 1.888ZM73.1721 3.088C74.5641 3.088 75.5081 4.592 75.5081 6.928C75.5081 9.28 74.5641 10.816 73.1721 10.816C71.7801 10.816 70.8361 9.28 70.8361 6.928C70.8361 4.592 71.7801 3.088 73.1721 3.088ZM79.9081 0.768V15.264H81.2201V0.768H79.9081ZM76.3401 6.288V7.376H80.4841V6.288H76.3401ZM93.4588 0.768V15.248H94.8028V0.768H93.4588ZM94.4348 6.64V7.744H97.1068V6.64H94.4348ZM89.7628 2.336V2.544C89.7628 6.368 87.7628 9.456 83.7628 11.488L84.4988 12.512C89.1708 10.16 91.0588 6.448 91.0588 2.336H89.7628ZM84.4348 2.336V3.424H90.4508V2.336H84.4348ZM112.844 0.799999V9.248H114.108V0.799999H112.844ZM110.62 4.4V5.488H113.34V4.4H110.62ZM109.74 1.04V9.056H111.004V1.04H109.74ZM104.62 10V15.056H114.108V10H104.62ZM112.828 11.056V13.984H105.916V11.056H112.828ZM104.956 1.6V3.52C104.956 5.152 103.82 7.008 101.916 7.856L102.636 8.88C104.764 7.936 106.012 5.664 106.012 3.52V1.6H104.956ZM105.164 1.6V3.52C105.164 5.632 106.364 7.648 108.444 8.48L109.164 7.488C107.308 6.752 106.22 5.12 106.22 3.52V1.6H105.164ZM116.283 7.952V9.024H129.355V7.952H116.283ZM122.139 9.984V10.448C122.139 12.352 119.915 13.776 117.291 14.144L117.787 15.184C120.731 14.688 123.275 13.024 123.275 10.448V9.984H122.139ZM122.363 9.984V10.448C122.363 13.024 124.891 14.688 127.835 15.184L128.347 14.144C125.707 13.776 123.483 12.352 123.483 10.448V9.984H122.363ZM122.155 5.76V8.464H123.467V5.76H122.155ZM122.139 0.927999V1.568C122.139 3.504 119.659 5.104 117.067 5.456L117.579 6.512C120.523 6.032 123.291 4.176 123.291 1.568V0.927999H122.139ZM122.347 0.927999V1.568C122.347 4.192 125.131 6.016 128.059 6.512L128.555 5.456C125.979 5.104 123.483 3.504 123.483 1.568V0.927999H122.347ZM132.041 2.224V3.328H141.353V2.224H132.041ZM130.665 12.128V13.232H143.737V12.128H130.665ZM135.737 6.96V12.672H137.065V6.96H135.737ZM140.857 2.224V3.664C140.857 5.392 140.857 7.424 140.313 10.192L141.641 10.368C142.169 7.44 142.169 5.456 142.169 3.664V2.224H140.857ZM20.1153 32.144V34.896C20.1153 37.376 18.9153 39.968 16.9153 41.136L17.7633 42.128C19.8753 40.848 21.1553 37.92 21.1553 34.896V32.144H20.1153ZM20.3553 32.144V34.816C20.3553 37.728 21.5233 40.544 23.6353 41.76L24.4353 40.72C22.5153 39.648 21.3953 37.2 21.3953 34.816V32.144H20.3553ZM28.0993 30.784V45.248H29.3793V30.784H28.0993ZM25.8113 36.592V37.696H28.5793V36.592H25.8113ZM24.9153 31.088V44.528H26.1793V31.088H24.9153ZM31.458 42.368V43.472H44.562V42.368H31.458ZM37.314 39.264V42.832H38.642V39.264H37.314ZM33.042 31.856V32.928H41.634V35.168H33.09V39.136H34.402V36.24H42.946V31.856H33.042ZM33.09 38.576V39.664H43.282V38.576H33.09ZM51.6968 38.16V40.672H53.0087V38.16H51.6968ZM52.3528 31.056C49.2168 31.056 47.2647 32.064 47.2647 33.776C47.2647 35.488 49.2168 36.48 52.3528 36.48C55.4728 36.48 57.4408 35.488 57.4408 33.776C57.4408 32.064 55.4728 31.056 52.3528 31.056ZM52.3528 32.096C54.6407 32.096 56.0808 32.72 56.0808 33.776C56.0808 34.832 54.6407 35.44 52.3528 35.44C50.0487 35.44 48.6247 34.832 48.6247 33.776C48.6247 32.72 50.0487 32.096 52.3528 32.096ZM47.4087 40.288V45.056H57.2808V40.288H47.4087ZM55.9848 41.36V43.984H48.7207V41.36H55.9848ZM45.8087 37.584V38.672H58.8808V37.584H45.8087ZM66.0475 36.4V37.504H68.7835V36.4H66.0475ZM71.1995 30.784V45.248H72.4795V30.784H71.1995ZM68.3355 31.088V44.528H69.5995V31.088H68.3355ZM63.4395 31.984C61.5675 31.984 60.3675 33.92 60.3675 37.024C60.3675 40.128 61.5675 42.064 63.4395 42.064C65.3115 42.064 66.5275 40.128 66.5275 37.024C66.5275 33.92 65.3115 31.984 63.4395 31.984ZM63.4395 33.216C64.5915 33.216 65.3115 34.688 65.3115 37.024C65.3115 39.36 64.5915 40.832 63.4395 40.832C62.3035 40.832 61.5835 39.36 61.5835 37.024C61.5835 34.688 62.3035 33.216 63.4395 33.216ZM80.1046 31.376V36.304H89.8326V31.376H80.1046ZM88.5206 32.448V35.232H81.4006V32.448H88.5206ZM78.4246 38.112V39.184H91.4966V38.112H78.4246ZM84.3126 36.016V38.512H85.6246V36.016H84.3126ZM79.8806 40.672V41.76H88.5526V45.248H89.8806V40.672H79.8806ZM102.695 30.784V38.144H104.023V30.784H102.695ZM103.447 33.888V34.992H106.151V33.888H103.447ZM93.3994 31.6V37.392H100.039V31.6H93.3994ZM98.7434 32.656V36.336H94.6954V32.656H98.7434ZM94.8394 38.832V39.888H102.727V41.376H94.8714V44.544H96.1834V42.384H104.023V38.832H94.8394ZM94.8714 43.984V45.056H104.551V43.984H94.8714ZM116.966 30.768V45.264H118.294V30.768H116.966ZM117.974 36.528V37.648H120.662V36.528H117.974ZM107.75 40.672V41.776H108.902C111.67 41.776 113.59 41.664 115.846 41.264L115.702 40.16C113.51 40.576 111.622 40.672 108.902 40.672H107.75ZM107.718 32.128V33.216H112.95V36.224H107.75V41.12H109.062V37.312H114.262V32.128H107.718ZM135.215 30.784V45.248H136.543V30.784H135.215ZM136.223 36.72V37.84H138.911V36.72H136.223ZM125.343 33.088V34.176H133.871V33.088H125.343ZM129.663 35.376C127.631 35.376 126.143 36.752 126.143 38.704C126.143 40.656 127.631 42.032 129.663 42.032C131.711 42.032 133.183 40.656 133.183 38.704C133.183 36.752 131.711 35.376 129.663 35.376ZM129.663 36.48C130.975 36.48 131.919 37.392 131.919 38.704C131.919 40 130.975 40.928 129.663 40.928C128.351 40.928 127.407 40 127.407 38.704C127.407 37.392 128.351 36.48 129.663 36.48ZM128.975 30.96V33.584H130.303V30.96H128.975ZM141.166 32.224V33.328H150.478V32.224H141.166ZM139.79 42.128V43.232H152.862V42.128H139.79ZM144.862 36.96V42.672H146.19V36.96H144.862ZM149.982 32.224V33.664C149.982 35.392 149.982 37.424 149.438 40.192L150.766 40.368C151.294 37.44 151.294 35.456 151.294 33.664V32.224H149.982ZM26.1261 60.784V75.248H27.4061V60.784H26.1261ZM23.6941 66.672V67.76H26.4781V66.672H23.6941ZM22.8461 61.104V74.512H24.0941V61.104H22.8461ZM15.8381 62.528V70.88H17.1661V62.528H15.8381ZM15.8381 70.352V71.504H16.7661C18.3181 71.504 19.9821 71.424 21.9501 71.04L21.8061 69.888C19.9181 70.256 18.2541 70.352 16.7661 70.352H15.8381ZM39.2928 60.768V75.248H40.6368V60.768H39.2928ZM40.2688 66.64V67.744H42.9408V66.64H40.2688ZM35.5968 62.336V62.544C35.5968 66.368 33.5968 69.456 29.5968 71.488L30.3328 72.512C35.0048 70.16 36.8928 66.448 36.8928 62.336H35.5968ZM30.2688 62.336V63.424H36.2848V62.336H30.2688ZM57.5579 60.784V75.248H58.8859V60.784H57.5579ZM58.5659 66.72V67.84H61.2539V66.72H58.5659ZM47.6859 63.088V64.176H56.2139V63.088H47.6859ZM52.0059 65.376C49.9739 65.376 48.4859 66.752 48.4859 68.704C48.4859 70.656 49.9739 72.032 52.0059 72.032C54.0539 72.032 55.5259 70.656 55.5259 68.704C55.5259 66.752 54.0539 65.376 52.0059 65.376ZM52.0059 66.48C53.3179 66.48 54.2619 67.392 54.2619 68.704C54.2619 70 53.3179 70.928 52.0059 70.928C50.6939 70.928 49.7499 70 49.7499 68.704C49.7499 67.392 50.6939 66.48 52.0059 66.48ZM51.3179 60.96V63.584H52.6459V60.96H51.3179ZM63.8927 65.12V66.208H73.7167V65.12H63.8927ZM62.1167 68.144V69.232H75.2367V68.144H62.1167ZM63.8927 61.312V65.664H65.2047V61.312H63.8927ZM63.7967 73.808V74.896H73.7967V73.808H63.7967ZM63.7967 70.672V74.096H65.1087V70.672H63.7967ZM80.5474 61.312C78.4034 61.312 76.8194 62.624 76.8194 64.528C76.8194 66.416 78.4034 67.728 80.5474 67.728C82.7074 67.728 84.2914 66.416 84.2914 64.528C84.2914 62.624 82.7074 61.312 80.5474 61.312ZM80.5474 62.4C81.9554 62.4 82.9954 63.28 82.9954 64.528C82.9954 65.776 81.9554 66.64 80.5474 66.64C79.1554 66.64 78.0994 65.776 78.0994 64.528C78.0994 63.28 79.1554 62.4 80.5474 62.4ZM87.0114 60.784V68.192H88.3554V60.784H87.0114ZM78.9954 68.896V69.968H87.0434V71.424H79.0274V74.592H80.3234V72.416H88.3554V68.896H78.9954ZM79.0274 74V75.056H88.8354V74H79.0274ZM96.7222 66.4V67.504H99.4582V66.4H96.7222ZM101.874 60.784V75.248H103.154V60.784H101.874ZM99.0102 61.088V74.528H100.274V61.088H99.0102ZM94.1142 61.984C92.2422 61.984 91.0422 63.92 91.0422 67.024C91.0422 70.128 92.2422 72.064 94.1142 72.064C95.9862 72.064 97.2022 70.128 97.2022 67.024C97.2022 63.92 95.9862 61.984 94.1142 61.984ZM94.1142 63.216C95.2662 63.216 95.9862 64.688 95.9862 67.024C95.9862 69.36 95.2662 70.832 94.1142 70.832C92.9782 70.832 92.2582 69.36 92.2582 67.024C92.2582 64.688 92.9782 63.216 94.1142 63.216ZM114.987 68.608V71.104H116.283V68.608H114.987ZM110.315 61.312V62.4H120.939V61.312H110.315ZM110.379 65.52V66.592H120.875V65.52H110.379ZM112.507 61.808V66.128H113.835V61.808H112.507ZM117.435 61.808V66.128H118.747V61.808H117.435ZM109.099 68.032V69.104H122.171V68.032H109.099ZM110.555 70.848V71.92H119.227V75.248H120.555V70.848H110.555ZM137.556 60.784V75.248H138.868V60.784H137.556ZM138.116 66.432V67.536H140.788V66.432H138.116ZM127.62 62.128V71.744H131.62V62.128H130.516V65.84H128.756V62.128H127.62ZM128.756 66.896H130.516V70.656H128.756V66.896ZM132.388 62.128V71.744H136.34V62.128H135.22V65.84H133.508V62.128H132.388ZM133.508 66.896H135.22V70.656H133.508V66.896ZM145.571 62.368V63.84C145.571 65.904 144.099 67.776 141.923 68.544L142.611 69.6C145.043 68.72 146.675 66.496 146.675 63.84V62.368H145.571ZM145.827 62.368V63.84C145.827 66.384 147.491 68.496 149.891 69.312L150.579 68.272C148.435 67.552 146.931 65.792 146.931 63.84V62.368H145.827ZM142.275 61.984V63.056H150.195V61.984H142.275ZM152.243 60.8V71.376H153.587V60.8H152.243ZM144.291 73.84V74.928H154.019V73.84H144.291ZM144.291 70.384V74.32H145.603V70.384H144.291ZM10.459 120.784V135.28H11.787V120.784H10.459ZM0.891002 130.56V131.68H2.059C4.971 131.68 6.859 131.6 9.067 131.184L8.923 130.064C6.779 130.464 4.923 130.56 2.059 130.56H0.891002ZM0.891002 122.16V130.976H2.203V123.264H7.723V122.16H0.891002ZM17.8978 122.848V125.2C17.8978 127.648 16.1538 130.4 14.0898 131.408L14.8578 132.464C17.1138 131.312 18.9538 128.208 18.9538 125.2V122.848H17.8978ZM18.1378 122.848V125.2C18.1378 128.064 19.8818 130.976 22.1698 132.112L22.9218 131.056C20.8258 130.064 19.1938 127.488 19.1938 125.2V122.848H18.1378ZM14.6018 122.256V123.376H22.3938V122.256H14.6018ZM24.1058 120.784V135.248H25.4498V120.784H24.1058ZM25.1298 126.624V127.744H27.8178V126.624H25.1298ZM39.1925 120.768V135.264H40.5205V120.768H39.1925ZM32.8885 121.888C30.7605 121.888 29.2245 123.856 29.2245 126.928C29.2245 130.016 30.7605 131.984 32.8885 131.984C35.0325 131.984 36.5685 130.016 36.5685 126.928C36.5685 123.856 35.0325 121.888 32.8885 121.888ZM32.8885 123.088C34.3125 123.088 35.2885 124.592 35.2885 126.928C35.2885 129.28 34.3125 130.816 32.8885 130.816C31.4805 130.816 30.4885 129.28 30.4885 126.928C30.4885 124.592 31.4805 123.088 32.8885 123.088ZM53.6553 120.784V135.28H54.9833V120.784H53.6553ZM49.2073 125.552V126.64H54.0873V125.552H49.2073ZM43.8473 122.4V131.36H45.1593V122.4H43.8473ZM43.8473 130.656V131.776H44.9673C47.2553 131.776 49.2873 131.632 51.5913 131.184L51.4313 130.064C49.2073 130.528 47.2073 130.656 44.9673 130.656H43.8473ZM62.2039 121.818L58.4539 135.75H56.9368L60.6868 121.818H62.2039ZM67.1554 122.304V123.392H75.1394V122.304H67.1554ZM66.8674 131.696C69.3794 131.696 72.7554 131.616 75.6834 131.168L75.5874 130.176C72.7234 130.512 69.2674 130.56 66.7074 130.56L66.8674 131.696ZM68.6114 123.152V130.848H69.9074V123.152H68.6114ZM72.2274 123.152V130.848H73.5234V123.152H72.2274ZM77.4274 120.784V135.248H78.7394V120.784H77.4274ZM74.6594 126.224V127.328H78.3234V126.224H74.6594ZM82.9301 121.04V125.808H92.5621V121.04H91.2341V122.384H84.2421V121.04H82.9301ZM84.2421 123.408H91.2341V124.784H84.2421V123.408ZM81.1861 127.024V128.096H94.2581V127.024H81.1861ZM82.7701 129.408V130.416H91.2821V131.68H82.8021V134.416H84.1141V132.64H92.5941V129.408H82.7701ZM82.8021 134.064V135.088H93.0261V134.064H82.8021ZM106.097 120.768V135.264H107.425V120.768H106.097ZM96.4009 130.672V131.776H97.6009C100.081 131.776 102.257 131.68 104.881 131.248L104.737 130.16C102.177 130.576 100.017 130.672 97.6009 130.672H96.4009ZM96.3689 122.128V123.216H101.713V126.208H96.4009V131.088H97.7289V127.296H103.057V122.128H96.3689ZM120.496 120.768V135.264H121.84V120.768H120.496ZM117.376 123.92V125.024H121.216V123.92H117.376ZM117.376 127.52V128.64H121.216V127.52H117.376ZM113.664 122.032V124.608C113.664 127.296 112.032 130.08 109.904 131.136L110.752 132.192C113.04 130.96 114.736 127.856 114.736 124.608V122.032H113.664ZM113.92 122.032V124.608C113.92 127.792 115.6 130.784 117.92 131.984L118.72 130.912C116.624 129.92 114.992 127.264 114.992 124.608V122.032H113.92ZM138.697 120.784V128.544H140.041V120.784H138.697ZM130.713 129.264V135.056H140.041V129.264H138.729V131.024H132.025V129.264H130.713ZM132.025 132.08H138.729V133.984H132.025V132.08ZM132.281 121.472C130.089 121.472 128.505 122.832 128.505 124.8C128.505 126.784 130.089 128.144 132.281 128.144C134.473 128.144 136.041 126.784 136.041 124.8C136.041 122.832 134.473 121.472 132.281 121.472ZM132.281 122.576C133.721 122.576 134.761 123.488 134.761 124.8C134.761 126.112 133.721 127.024 132.281 127.024C130.841 127.024 129.801 126.112 129.801 124.8C129.801 123.488 130.841 122.576 132.281 122.576ZM153.063 120.784V135.248H154.391V120.784H153.063ZM143.463 122.192V131.152H144.775V122.192H143.463ZM143.463 130.368V131.52H144.647C146.935 131.52 149.223 131.344 151.735 130.832L151.575 129.696C149.127 130.208 146.839 130.368 144.647 130.368H143.463ZM166.694 120.768V135.264H168.038V120.768H166.694ZM167.718 126.48V127.6H170.406V126.48H167.718ZM157.526 130.544V131.664H158.662C161.382 131.664 163.286 131.584 165.51 131.168L165.366 130.048C163.206 130.448 161.334 130.544 158.662 130.544H157.526ZM157.526 122.176V131.04H158.838V123.264H164.246V122.176H157.526Z" fill="black"/>
</svg>
