<svg width="83" height="34" viewBox="0 0 83 34" fill="none" xmlns="http://www.w3.org/2000/svg">
<path d="M34.3709 0.522V2.238H34.6079V0.522H34.3709ZM33.9299 1.257V1.464H34.4429V1.257H33.9299ZM33.7919 0.576V2.142H34.0259V0.576H33.7919ZM32.3099 0.846V1.044H33.6839V0.846H32.3099ZM32.9999 1.182C32.6579 1.182 32.4209 1.368 32.4209 1.647C32.4209 1.929 32.6579 2.112 32.9999 2.112C33.3389 2.112 33.5759 1.929 33.5759 1.647C33.5759 1.368 33.3389 1.182 32.9999 1.182ZM32.9999 1.368C33.2099 1.368 33.3539 1.479 33.3539 1.647C33.3539 1.818 33.2099 1.926 32.9999 1.926C32.7869 1.926 32.6429 1.818 32.6429 1.647C32.6429 1.479 32.7869 1.368 32.9999 1.368ZM32.8769 0.543V0.957H33.1199V0.543H32.8769ZM33.7199 2.286C33.1499 2.286 32.8139 2.454 32.8139 2.757C32.8139 3.057 33.1499 3.228 33.7199 3.228C34.2839 3.228 34.6229 3.057 34.6229 2.757C34.6229 2.454 34.2839 2.286 33.7199 2.286ZM33.7199 2.478C34.1309 2.478 34.3769 2.577 34.3769 2.757C34.3769 2.937 34.1309 3.039 33.7199 3.039C33.3029 3.039 33.0599 2.937 33.0599 2.757C33.0599 2.577 33.3029 2.478 33.7199 2.478ZM35.0156 1.92V2.124H37.4666V1.92H35.0156ZM36.1196 1.515V1.983H36.3656V1.515H36.1196ZM35.2886 2.388V2.592H36.9146V3.234H37.1636V2.388H35.2886ZM35.3426 0.585V1.599H37.1486V0.585H36.8996V0.891H35.5886V0.585H35.3426ZM35.5886 1.086H36.8996V1.401H35.5886V1.086ZM39.5484 0.522V3.234H39.7974V0.522H39.5484ZM39.7374 1.635V1.845H40.2414V1.635H39.7374ZM37.6974 0.954V1.158H39.2964V0.954H37.6974ZM38.5074 1.383C38.1264 1.383 37.8474 1.641 37.8474 2.007C37.8474 2.373 38.1264 2.631 38.5074 2.631C38.8914 2.631 39.1674 2.373 39.1674 2.007C39.1674 1.641 38.8914 1.383 38.5074 1.383ZM38.5074 1.59C38.7534 1.59 38.9304 1.761 38.9304 2.007C38.9304 2.25 38.7534 2.424 38.5074 2.424C38.2614 2.424 38.0844 2.25 38.0844 2.007C38.0844 1.761 38.2614 1.59 38.5074 1.59ZM38.3784 0.555V1.047H38.6274V0.555H38.3784ZM42.4701 0.522V3.234H42.7101V0.522H42.4701ZM41.2941 1.629V1.83H41.9781V1.629H41.2941ZM41.9061 0.591V3.096H42.1401V0.591H41.9061ZM41.3271 0.864V0.909C41.3271 1.548 41.0421 2.088 40.4031 2.472L40.5501 2.649C41.2821 2.214 41.5671 1.575 41.5671 0.864H41.3271ZM40.5231 0.864V1.068H41.4201V0.864H40.5231ZM45.6639 0.522V3.234H45.9129V0.522H45.6639ZM45.8529 1.635V1.845H46.3569V1.635H45.8529ZM43.8129 0.954V1.158H45.4119V0.954H43.8129ZM44.6229 1.383C44.2419 1.383 43.9629 1.641 43.9629 2.007C43.9629 2.373 44.2419 2.631 44.6229 2.631C45.0069 2.631 45.2829 2.373 45.2829 2.007C45.2829 1.641 45.0069 1.383 44.6229 1.383ZM44.6229 1.59C44.8689 1.59 45.0459 1.761 45.0459 2.007C45.0459 2.25 44.8689 2.424 44.6229 2.424C44.3769 2.424 44.1999 2.25 44.1999 2.007C44.1999 1.761 44.3769 1.59 44.6229 1.59ZM44.4939 0.555V1.047H44.7429V0.555H44.4939ZM46.8516 1.335V1.539H48.6936V1.335H46.8516ZM46.5186 1.902V2.106H48.9786V1.902H46.5186ZM46.8516 0.621V1.437H47.0976V0.621H46.8516ZM46.8336 2.964V3.168H48.7086V2.964H46.8336ZM46.8336 2.376V3.018H47.0796V2.376H46.8336ZM51.9233 0.522V2.358H52.1723V0.522H51.9233ZM51.3413 1.287V1.491H51.9743V1.287H51.3413ZM51.0713 0.735V0.834C51.0713 1.365 50.6753 1.773 49.9883 1.989L50.0933 2.187C50.8703 1.935 51.3323 1.437 51.3323 0.735H51.0713ZM50.1173 0.735V0.939H51.2483V0.735H50.1173ZM51.1733 2.124V2.247C51.1733 2.643 50.7503 2.943 50.2703 3.03L50.3693 3.228C50.9123 3.117 51.3863 2.766 51.3863 2.247V2.124H51.1733ZM51.2093 2.124V2.247C51.2093 2.763 51.6773 3.114 52.2173 3.222L52.3223 3.024C51.8393 2.937 51.4223 2.637 51.4223 2.247V2.124H51.2093ZM19.3831 6.519V9.237H19.6291V6.519H19.3831ZM18.7981 7.509V7.713H19.4551V7.509H18.7981ZM18.0871 6.909V7.314C18.0871 7.797 17.7661 8.31 17.3761 8.502L17.5231 8.7C17.9521 8.478 18.2881 7.899 18.2881 7.314V6.909H18.0871ZM18.1381 6.909V7.314C18.1381 7.872 18.4681 8.43 18.8971 8.643L19.0441 8.448C18.6511 8.262 18.3361 7.767 18.3361 7.314V6.909H18.1381ZM17.4751 6.798V7.005H18.9511V6.798H17.4751ZM20.4239 7.335V7.539H22.2659V7.335H20.4239ZM20.0909 7.902V8.106H22.5509V7.902H20.0909ZM20.4239 6.621V7.437H20.6699V6.621H20.4239ZM20.4059 8.964V9.168H22.2809V8.964H20.4059ZM20.4059 8.376V9.018H20.6519V8.376H20.4059ZM25.5616 6.522V8.238H25.7986V6.522H25.5616ZM25.1206 7.257V7.464H25.6336V7.257H25.1206ZM24.9826 6.576V8.142H25.2166V6.576H24.9826ZM23.5006 6.846V7.044H24.8746V6.846H23.5006ZM24.1906 7.182C23.8486 7.182 23.6116 7.368 23.6116 7.647C23.6116 7.929 23.8486 8.112 24.1906 8.112C24.5296 8.112 24.7666 7.929 24.7666 7.647C24.7666 7.368 24.5296 7.182 24.1906 7.182ZM24.1906 7.368C24.4006 7.368 24.5446 7.479 24.5446 7.647C24.5446 7.818 24.4006 7.926 24.1906 7.926C23.9776 7.926 23.8336 7.818 23.8336 7.647C23.8336 7.479 23.9776 7.368 24.1906 7.368ZM24.0676 6.543V6.957H24.3106V6.543H24.0676ZM24.9106 8.286C24.3406 8.286 24.0046 8.454 24.0046 8.757C24.0046 9.057 24.3406 9.228 24.9106 9.228C25.4746 9.228 25.8136 9.057 25.8136 8.757C25.8136 8.454 25.4746 8.286 24.9106 8.286ZM24.9106 8.478C25.3216 8.478 25.5676 8.577 25.5676 8.757C25.5676 8.937 25.3216 9.039 24.9106 9.039C24.4936 9.039 24.2506 8.937 24.2506 8.757C24.2506 8.577 24.4936 8.478 24.9106 8.478ZM26.2064 7.92V8.124H28.6574V7.92H26.2064ZM27.3104 7.515V7.983H27.5564V7.515H27.3104ZM26.4794 8.388V8.592H28.1054V9.234H28.3544V8.388H26.4794ZM26.5334 6.585V7.599H28.3394V6.585H28.0904V6.891H26.7794V6.585H26.5334ZM26.7794 7.086H28.0904V7.401H26.7794V7.086ZM30.1271 6.567C29.5271 6.567 29.1731 6.735 29.1731 7.038C29.1731 7.341 29.5271 7.509 30.1271 7.509C30.7241 7.509 31.0811 7.341 31.0811 7.038C31.0811 6.735 30.7241 6.567 30.1271 6.567ZM30.1271 6.756C30.5681 6.756 30.8231 6.858 30.8231 7.038C30.8231 7.218 30.5681 7.32 30.1271 7.32C29.6831 7.32 29.4281 7.218 29.4281 7.038C29.4281 6.858 29.6831 6.756 30.1271 6.756ZM28.9001 7.689V7.89H31.3511V7.689H28.9001ZM29.1971 8.121V8.313H30.7931V8.553H29.2031V9.063H29.4491V8.733H31.0391V8.121H29.1971ZM29.2031 9.009V9.204H31.1201V9.009H29.2031ZM32.9938 6.909V7.35C32.9938 7.809 32.6668 8.325 32.2798 8.514L32.4238 8.712C32.8468 8.496 33.1918 7.914 33.1918 7.35V6.909H32.9938ZM33.0388 6.909V7.35C33.0388 7.887 33.3658 8.433 33.7948 8.646L33.9358 8.448C33.5428 8.262 33.2368 7.779 33.2368 7.35V6.909H33.0388ZM32.3758 6.798V7.008H33.8368V6.798H32.3758ZM34.1578 6.522V9.234H34.4098V6.522H34.1578ZM34.3498 7.617V7.827H34.8538V7.617H34.3498ZM35.7386 6.729C35.3396 6.729 35.0576 7.098 35.0576 7.674C35.0576 8.253 35.3396 8.622 35.7386 8.622C36.1376 8.622 36.4196 8.253 36.4196 7.674C36.4196 7.098 36.1376 6.729 35.7386 6.729ZM35.7386 6.954C35.9996 6.954 36.1826 7.236 36.1826 7.674C36.1826 8.115 35.9996 8.403 35.7386 8.403C35.4746 8.403 35.2946 8.115 35.2946 7.674C35.2946 7.236 35.4746 6.954 35.7386 6.954ZM36.8516 6.522V9.234H37.1036V6.522H36.8516ZM37.0436 7.605V7.815H37.5476V7.605H37.0436ZM40.4113 6.522V7.926H40.6603V6.522H40.4113ZM38.9083 8.064V8.259H40.4173V8.529H38.9143V9.087H39.1573V8.715H40.6633V8.064H38.9083ZM38.9143 9.006V9.204H40.7533V9.006H38.9143ZM39.1453 6.6V6.807C39.1453 7.2 38.8663 7.56 38.4583 7.704L38.5813 7.902C39.0403 7.734 39.3523 7.308 39.3523 6.807V6.6H39.1453ZM39.1903 6.6V6.807C39.1903 7.293 39.5023 7.692 39.9583 7.848L40.0813 7.653C39.6793 7.521 39.3943 7.182 39.3943 6.807V6.6H39.1903ZM43.1141 6.525V8.592H43.3631V6.525H43.1141ZM42.6551 7.242V7.446H43.2191V7.242H42.6551ZM42.6551 7.815V8.016H43.2191V7.815H42.6551ZM41.1371 6.852V7.053H42.6551V6.852H41.1371ZM41.9051 7.203C41.5421 7.203 41.2901 7.41 41.2901 7.722C41.2901 8.031 41.5421 8.241 41.9051 8.241C42.2651 8.241 42.5171 8.031 42.5171 7.722C42.5171 7.41 42.2651 7.203 41.9051 7.203ZM41.9051 7.398C42.1301 7.398 42.2831 7.53 42.2831 7.722C42.2831 7.914 42.1301 8.043 41.9051 8.043C41.6801 8.043 41.5271 7.914 41.5271 7.722C41.5271 7.53 41.6801 7.398 41.9051 7.398ZM41.7821 6.519V6.981H42.0311V6.519H41.7821ZM41.6201 8.97V9.174H43.4291V8.97H41.6201ZM41.6201 8.415V9.069H41.8691V8.415H41.6201ZM45.7959 6.519V9.237H46.0449V6.519H45.7959ZM44.6139 6.729C44.2149 6.729 43.9269 7.098 43.9269 7.674C43.9269 8.253 44.2149 8.622 44.6139 8.622C45.0159 8.622 45.3039 8.253 45.3039 7.674C45.3039 7.098 45.0159 6.729 44.6139 6.729ZM44.6139 6.954C44.8809 6.954 45.0639 7.236 45.0639 7.674C45.0639 8.115 44.8809 8.403 44.6139 8.403C44.3499 8.403 44.1639 8.115 44.1639 7.674C44.1639 7.236 44.3499 6.954 44.6139 6.954ZM48.3576 6.519V9.237H48.6066V6.519H48.3576ZM48.5466 7.599V7.809H49.0506V7.599H48.5466ZM46.6296 8.376V8.583H46.8456C47.3646 8.583 47.7246 8.562 48.1476 8.487L48.1206 8.28C47.7096 8.358 47.3556 8.376 46.8456 8.376H46.6296ZM46.6236 6.774V6.978H47.6046V7.542H46.6296V8.46H46.8756V7.746H47.8506V6.774H46.6236ZM49.4734 6.792V6.999H51.2194V6.792H49.4734ZM49.2154 8.649V8.856H51.6664V8.649H49.2154ZM50.1664 7.68V8.751H50.4154V7.68H50.1664ZM51.1264 6.792V7.062C51.1264 7.386 51.1264 7.767 51.0244 8.286L51.2734 8.319C51.3724 7.77 51.3724 7.398 51.3724 7.062V6.792H51.1264ZM53.2041 6.69V7.053C53.2041 7.359 52.9911 7.71 52.6341 7.866L52.7691 8.061C53.1681 7.884 53.4021 7.458 53.4021 7.053V6.69H53.2041ZM53.2431 6.69V7.053C53.2431 7.452 53.4681 7.827 53.8581 7.983L53.9931 7.794C53.6451 7.659 53.4411 7.353 53.4411 7.053V6.69H53.2431ZM54.6831 6.525V8.196H54.9201V6.525H54.6831ZM54.2511 7.248V7.452H54.7641V7.248H54.2511ZM54.1011 6.576V8.109H54.3381V6.576H54.1011ZM54.0291 8.256C53.4681 8.256 53.1261 8.436 53.1261 8.745C53.1261 9.051 53.4681 9.228 54.0291 9.228C54.5871 9.228 54.9351 9.051 54.9351 8.745C54.9351 8.436 54.5871 8.256 54.0291 8.256ZM54.0291 8.451C54.4371 8.451 54.6861 8.559 54.6861 8.745C54.6861 8.928 54.4371 9.036 54.0291 9.036C53.6211 9.036 53.3691 8.928 53.3691 8.745C53.3691 8.559 53.6211 8.451 54.0291 8.451ZM57.1848 6.522V8.112H57.4338V6.522H57.1848ZM57.3648 7.206V7.416H57.8358V7.206H57.3648ZM56.4348 6.696V6.804C56.4348 7.305 56.0268 7.698 55.3248 7.89L55.4268 8.085C56.2188 7.869 56.6958 7.38 56.6958 6.696H56.4348ZM55.4448 6.696V6.897H56.5728V6.696H55.4448ZM55.6728 8.238V8.439H57.1848V9.234H57.4338V8.238H55.6728ZM59.8786 6.522V8.097H60.1276V6.522H59.8786ZM60.0196 7.212V7.422H60.5296V7.212H60.0196ZM58.4236 8.217V9.198H60.1276V8.217H59.8816V8.505H58.6666V8.217H58.4236ZM58.6666 8.697H59.8816V8.997H58.6666V8.697ZM58.0306 6.798V7.002H59.6326V6.798H58.0306ZM58.8316 7.125C58.4416 7.125 58.1806 7.314 58.1806 7.602C58.1806 7.89 58.4416 8.079 58.8316 8.079C59.2186 8.079 59.4796 7.89 59.4796 7.602C59.4796 7.314 59.2186 7.125 58.8316 7.125ZM58.8316 7.314C59.0746 7.314 59.2426 7.428 59.2426 7.602C59.2426 7.776 59.0746 7.89 58.8316 7.89C58.5826 7.89 58.4176 7.776 58.4176 7.602C58.4176 7.428 58.5826 7.314 58.8316 7.314ZM58.7056 6.495V6.909H58.9546V6.495H58.7056ZM62.6894 6.522V9.234H62.9384V6.522H62.6894ZM60.8894 6.786V8.466H61.1354V6.786H60.8894ZM60.8894 8.319V8.535H61.1114C61.5404 8.535 61.9694 8.502 62.4404 8.406L62.4104 8.193C61.9514 8.289 61.5224 8.319 61.1114 8.319H60.8894ZM65.2451 6.519V9.237H65.4971V6.519H65.2451ZM65.4371 7.59V7.8H65.9411V7.59H65.4371ZM63.5261 8.352V8.562H63.7391C64.2491 8.562 64.6061 8.547 65.0231 8.469L64.9961 8.259C64.5911 8.334 64.2401 8.352 63.7391 8.352H63.5261ZM63.5261 6.783V8.445H63.7721V6.987H64.7861V6.783H63.5261ZM19.7441 12.522V15.234H19.9931V12.522H19.7441ZM19.1111 13.608V13.815H19.8551V13.608H19.1111ZM18.8741 12.813V12.855C18.8741 13.563 18.5501 14.139 17.7611 14.526L17.8991 14.721C18.7991 14.271 19.1201 13.587 19.1201 12.813H18.8741ZM17.8781 12.813V13.017H19.0061V12.813H17.8781ZM21.1329 12.99V13.107C21.1329 13.47 20.8629 13.794 20.4609 13.92L20.5809 14.115C21.0339 13.965 21.3369 13.578 21.3369 13.107V12.99H21.1329ZM21.1779 12.99V13.107C21.1779 13.542 21.4749 13.908 21.9279 14.046L22.0449 13.851C21.6459 13.734 21.3819 13.434 21.3819 13.107V12.99H21.1779ZM20.5329 12.849V13.05H21.9789V12.849H20.5329ZM21.1329 12.51V12.921H21.3819V12.51H21.1329ZM22.3119 12.522V14.184H22.5609V12.522H22.3119ZM22.4919 13.221V13.431H22.9629V13.221H22.4919ZM21.6969 14.25C21.1419 14.25 20.8059 14.43 20.8059 14.739C20.8059 15.051 21.1419 15.228 21.6969 15.228C22.2519 15.228 22.5879 15.051 22.5879 14.739C22.5879 14.43 22.2519 14.25 21.6969 14.25ZM21.6969 14.445C22.0989 14.445 22.3449 14.553 22.3449 14.739C22.3449 14.925 22.0989 15.033 21.6969 15.033C21.2949 15.033 21.0489 14.925 21.0489 14.739C21.0489 14.553 21.2949 14.445 21.6969 14.445ZM24.9876 12.522V15.234H25.2366V12.522H24.9876ZM25.1766 13.635V13.845H25.6806V13.635H25.1766ZM23.1366 12.954V13.158H24.7356V12.954H23.1366ZM23.9466 13.383C23.5656 13.383 23.2866 13.641 23.2866 14.007C23.2866 14.373 23.5656 14.631 23.9466 14.631C24.3306 14.631 24.6066 14.373 24.6066 14.007C24.6066 13.641 24.3306 13.383 23.9466 13.383ZM23.9466 13.59C24.1926 13.59 24.3696 13.761 24.3696 14.007C24.3696 14.25 24.1926 14.424 23.9466 14.424C23.7006 14.424 23.5236 14.25 23.5236 14.007C23.5236 13.761 23.7006 13.59 23.9466 13.59ZM23.8176 12.555V13.047H24.0666V12.555H23.8176ZM27.9094 12.522V15.234H28.1494V12.522H27.9094ZM26.7334 13.629V13.83H27.4174V13.629H26.7334ZM27.3454 12.591V15.096H27.5794V12.591H27.3454ZM26.7664 12.864V12.909C26.7664 13.548 26.4814 14.088 25.8424 14.472L25.9894 14.649C26.7214 14.214 27.0064 13.575 27.0064 12.864H26.7664ZM25.9624 12.864V13.068H26.8594V12.864H25.9624ZM29.2671 13.653V13.857H31.7181V13.653H29.2671ZM29.5911 13.233V13.434H31.4271V13.233H29.5911ZM29.5911 12.609V13.395H29.8371V12.813H31.3971V12.609H29.5911ZM29.5611 14.091V14.286H31.1571V14.544H29.5671V15.072H29.8131V14.73H31.4031V14.091H29.5611ZM29.5671 15.006V15.204H31.4841V15.006H29.5671ZM33.9349 12.519V15.237H34.1839V12.519H33.9349ZM32.1169 14.376V14.583H32.3419C32.8069 14.583 33.2149 14.565 33.7069 14.484L33.6799 14.28C33.1999 14.358 32.7949 14.376 32.3419 14.376H32.1169ZM32.1109 12.774V12.978H33.1129V13.539H32.1169V14.454H32.3659V13.743H33.3649V12.774H32.1109ZM35.3716 12.909V13.35C35.3716 13.818 35.0446 14.328 34.6516 14.514L34.7956 14.712C35.2276 14.499 35.5726 13.923 35.5726 13.35V12.909H35.3716ZM35.4196 12.909V13.35C35.4196 13.914 35.7676 14.442 36.2056 14.646L36.3466 14.448C35.9476 14.277 35.6206 13.809 35.6206 13.35V12.909H35.4196ZM34.7416 12.798V13.008H36.2566V12.798H34.7416ZM36.6226 12.522V15.234H36.8716V12.522H36.6226ZM37.4594 12.765V14.022H38.7044V12.765H37.4594ZM38.4614 12.966V13.821H37.7024V12.966H38.4614ZM39.2024 12.519V14.508H39.4514V12.519H39.2024ZM39.3734 13.347V13.554H39.8534V13.347H39.3734ZM37.7624 14.97V15.174H39.5744V14.97H37.7624ZM37.7624 14.319V15.057H38.0114V14.319H37.7624ZM41.0341 12.81V13.011H42.7801V12.81H41.0341ZM40.7701 14.631V14.838H43.2211V14.631H40.7701ZM42.6481 12.81V13.08C42.6481 13.416 42.6481 13.821 42.5401 14.376L42.7891 14.4C42.8911 13.815 42.8911 13.428 42.8911 13.08V12.81H42.6481ZM45.4308 14.223C44.8788 14.223 44.5398 14.409 44.5398 14.727C44.5398 15.045 44.8788 15.231 45.4308 15.231C45.9828 15.231 46.3218 15.045 46.3218 14.727C46.3218 14.409 45.9828 14.223 45.4308 14.223ZM45.4308 14.424C45.8328 14.424 46.0788 14.535 46.0788 14.727C46.0788 14.922 45.8328 15.033 45.4308 15.033C45.0288 15.033 44.7828 14.922 44.7828 14.727C44.7828 14.535 45.0288 14.424 45.4308 14.424ZM46.0458 12.522V14.151H46.2948V12.522H46.0458ZM46.2258 13.203V13.413H46.6968V13.203H46.2258ZM44.3028 12.693V13.944H45.5568V12.693H45.3138V13.098H44.5488V12.693H44.3028ZM44.5488 13.296H45.3138V13.743H44.5488V13.296ZM47.0176 12.66V13.902H48.2416V12.66H47.9986V13.077H47.2636V12.66H47.0176ZM47.2636 13.272H47.9986V13.698H47.2636V13.272ZM48.1726 13.188V13.392H48.9406V13.188H48.1726ZM48.8656 12.522V14.004H49.1146V12.522H48.8656ZM47.3776 14.136V15.198H49.1146V14.136H48.8686V14.463H47.6236V14.136H47.3776ZM47.6236 14.661H48.8686V14.994H47.6236V14.661ZM49.5764 13.947V14.151H52.0274V13.947H49.5764ZM49.8944 14.97V15.174H51.7574V14.97H49.8944ZM49.8944 14.388V15.033H50.1434V14.388H49.8944ZM50.8034 12.612C50.2214 12.612 49.8494 12.816 49.8494 13.155C49.8494 13.491 50.2214 13.695 50.8034 13.695C51.3824 13.695 51.7574 13.491 51.7574 13.155C51.7574 12.816 51.3824 12.612 50.8034 12.612ZM50.8034 12.816C51.2294 12.816 51.5024 12.942 51.5024 13.155C51.5024 13.368 51.2294 13.494 50.8034 13.494C50.3774 13.494 50.1044 13.368 50.1044 13.155C50.1044 12.942 50.3774 12.816 50.8034 12.816ZM54.8551 12.522V14.505H55.1041V12.522H54.8551ZM55.0261 13.344V13.551H55.5061V13.344H55.0261ZM54.1141 12.732V12.84C54.1141 13.362 53.6851 13.782 53.0011 13.992L53.1091 14.196C53.8861 13.947 54.3781 13.434 54.3781 12.732H54.1141ZM53.1121 12.732V12.936H54.2401V12.732H53.1121ZM53.4121 14.97V15.174H55.2241V14.97H53.4121ZM53.4121 14.304V15.051H53.6611V14.304H53.4121ZM57.5488 12.519V14.484H57.7978V12.519H57.5488ZM57.7228 13.326V13.533H58.1998V13.326H57.7228ZM55.8178 13.8V14.007H56.0278C56.5978 14.007 56.9188 13.989 57.2908 13.911L57.2638 13.71C56.9008 13.785 56.5858 13.8 56.0278 13.8H55.8178ZM55.8178 12.753V13.911H56.0638V12.96H57.0148V12.753H55.8178ZM56.1088 14.97V15.174H57.9208V14.97H56.1088ZM56.1088 14.289V15.063H56.3578V14.289H56.1088ZM60.2426 12.522V14.097H60.4916V12.522H60.2426ZM60.3836 13.212V13.422H60.8936V13.212H60.3836ZM58.7876 14.217V15.198H60.4916V14.217H60.2456V14.505H59.0306V14.217H58.7876ZM59.0306 14.697H60.2456V14.997H59.0306V14.697ZM58.3946 12.798V13.002H59.9966V12.798H58.3946ZM59.1956 13.125C58.8056 13.125 58.5446 13.314 58.5446 13.602C58.5446 13.89 58.8056 14.079 59.1956 14.079C59.5826 14.079 59.8436 13.89 59.8436 13.602C59.8436 13.314 59.5826 13.125 59.1956 13.125ZM59.1956 13.314C59.4386 13.314 59.6066 13.428 59.6066 13.602C59.6066 13.776 59.4386 13.89 59.1956 13.89C58.9466 13.89 58.7816 13.776 58.7816 13.602C58.7816 13.428 58.9466 13.314 59.1956 13.314ZM59.0696 12.495V12.909H59.3186V12.495H59.0696ZM63.0534 12.522V15.234H63.3024V12.522H63.0534ZM61.2534 12.786V14.466H61.4994V12.786H61.2534ZM61.2534 14.319V14.535H61.4754C61.9044 14.535 62.3334 14.502 62.8044 14.406L62.7744 14.193C62.3154 14.289 61.8864 14.319 61.4754 14.319H61.2534ZM65.6091 12.519V15.237H65.8611V12.519H65.6091ZM65.8011 13.59V13.8H66.3051V13.59H65.8011ZM63.8901 14.352V14.562H64.1031C64.6131 14.562 64.9701 14.547 65.3871 14.469L65.3601 14.259C64.9551 14.334 64.6041 14.352 64.1031 14.352H63.8901ZM63.8901 12.783V14.445H64.1361V12.987H65.1501V12.783H63.8901ZM2.441 18.522V21.234H2.681V18.522H2.441ZM1.985 19.626V19.83H2.507V19.626H1.985ZM1.826 18.582V21.096H2.06V18.582H1.826ZM0.512002 18.849V20.415H0.761002V18.849H0.512002ZM0.512002 20.316V20.532H0.686002C0.977002 20.532 1.289 20.517 1.658 20.445L1.631 20.229C1.277 20.298 0.965002 20.316 0.686002 20.316H0.512002ZM4.90977 18.519V21.234H5.16177V18.519H4.90977ZM5.09277 19.62V19.827H5.59377V19.62H5.09277ZM4.21677 18.813V18.852C4.21677 19.569 3.84177 20.148 3.09177 20.529L3.22977 20.721C4.10577 20.28 4.45977 19.584 4.45977 18.813H4.21677ZM3.21777 18.813V19.017H4.34577V18.813H3.21777ZM7.59648 19.326V19.74H7.84248V19.326H7.59648ZM7.56048 18.687V18.771C7.56048 19.056 7.11348 19.266 6.62448 19.305L6.70548 19.494C7.27548 19.44 7.77948 19.179 7.77948 18.771V18.687H7.56048ZM7.66848 18.687V18.771C7.66848 19.179 8.17248 19.44 8.73948 19.494L8.82048 19.305C8.33148 19.266 7.88448 19.053 7.88448 18.771V18.687H7.66848ZM6.72048 18.606V18.801H8.72748V18.606H6.72048ZM6.72348 20.205V20.403H8.72148V20.205H6.72348ZM6.49548 19.647V19.848H8.95548V19.647H6.49548ZM7.72248 20.535C7.20048 20.535 6.90648 20.658 6.90648 20.892C6.90648 21.129 7.20048 21.249 7.72248 21.249C8.24448 21.249 8.53548 21.129 8.53548 20.892C8.53548 20.658 8.24448 20.535 7.72248 20.535ZM7.72248 20.706C8.07948 20.706 8.28348 20.769 8.28348 20.892C8.28348 21.015 8.07948 21.078 7.72248 21.078C7.36248 21.078 7.16148 21.015 7.16148 20.892C7.16148 20.769 7.36248 20.706 7.72248 20.706ZM7.59948 19.956V20.331H7.84548V19.956H7.59948ZM9.91224 18.729C9.51324 18.729 9.23124 19.098 9.23124 19.674C9.23124 20.253 9.51324 20.622 9.91224 20.622C10.3112 20.622 10.5932 20.253 10.5932 19.674C10.5932 19.098 10.3112 18.729 9.91224 18.729ZM9.91224 18.954C10.1732 18.954 10.3562 19.236 10.3562 19.674C10.3562 20.115 10.1732 20.403 9.91224 20.403C9.64824 20.403 9.46824 20.115 9.46824 19.674C9.46824 19.236 9.64824 18.954 9.91224 18.954ZM11.0252 18.522V21.234H11.2772V18.522H11.0252ZM11.2172 19.605V19.815H11.7212V19.605H11.2172ZM13.722 18.522V21.234H13.971V18.522H13.722ZM13.911 19.635V19.845H14.415V19.635H13.911ZM11.871 18.954V19.158H13.47V18.954H11.871ZM12.681 19.383C12.3 19.383 12.021 19.641 12.021 20.007C12.021 20.373 12.3 20.631 12.681 20.631C13.065 20.631 13.341 20.373 13.341 20.007C13.341 19.641 13.065 19.383 12.681 19.383ZM12.681 19.59C12.927 19.59 13.104 19.761 13.104 20.007C13.104 20.25 12.927 20.424 12.681 20.424C12.435 20.424 12.258 20.25 12.258 20.007C12.258 19.761 12.435 19.59 12.681 19.59ZM12.552 18.555V19.047H12.801V18.555H12.552ZM14.9098 19.335V19.539H16.7518V19.335H14.9098ZM14.5768 19.902V20.106H17.0368V19.902H14.5768ZM14.9098 18.621V19.437H15.1558V18.621H14.9098ZM14.8918 20.964V21.168H16.7668V20.964H14.8918ZM14.8918 20.376V21.018H15.1378V20.376H14.8918ZM19.9815 18.522V20.358H20.2305V18.522H19.9815ZM19.3995 19.287V19.491H20.0325V19.287H19.3995ZM19.1295 18.735V18.834C19.1295 19.365 18.7335 19.773 18.0465 19.989L18.1515 20.187C18.9285 19.935 19.3905 19.437 19.3905 18.735H19.1295ZM18.1755 18.735V18.939H19.3065V18.735H18.1755ZM19.2315 20.124V20.247C19.2315 20.643 18.8085 20.943 18.3285 21.03L18.4275 21.228C18.9705 21.117 19.4445 20.766 19.4445 20.247V20.124H19.2315ZM19.2675 20.124V20.247C19.2675 20.763 19.7355 21.114 20.2755 21.222L20.3805 21.024C19.8975 20.937 19.4805 20.637 19.4805 20.247V20.124H19.2675ZM21.1738 20.7017L21.1578 20.8178C21.1472 20.9031 21.1291 20.9918 21.1035 21.0842C21.0786 21.1772 21.0527 21.2635 21.0257 21.343C20.9994 21.4226 20.9778 21.4858 20.9607 21.5327H20.7349C20.7441 21.4886 20.7569 21.429 20.7732 21.3537C20.7896 21.2791 20.8056 21.1957 20.8212 21.1033C20.8368 21.011 20.8485 20.9169 20.8563 20.821L20.867 20.7017H21.1738ZM22.5253 20.082V20.268H23.1343V20.532H22.5313V21.072H22.7683V20.709H23.3713V20.082H22.5253ZM22.5313 21.006V21.198H22.6753C23.0383 21.198 23.2363 21.195 23.4823 21.144L23.4613 20.955C23.2213 21.003 23.0323 21.006 22.6753 21.006H22.5313ZM23.4613 20.19V20.379H24.5983V20.19H23.4613ZM24.0193 20.49C23.7523 20.49 23.5543 20.634 23.5543 20.859C23.5543 21.087 23.7523 21.228 24.0193 21.228C24.2863 21.228 24.4813 21.087 24.4813 20.859C24.4813 20.634 24.2863 20.49 24.0193 20.49ZM24.0193 20.664C24.1693 20.664 24.2683 20.739 24.2683 20.859C24.2683 20.982 24.1693 21.057 24.0193 21.057C23.8693 21.057 23.7673 20.982 23.7673 20.859C23.7673 20.739 23.8693 20.664 24.0193 20.664ZM23.9023 19.947V20.31H24.1423V19.947H23.9023ZM24.1573 18.522V19.884H24.4063V18.522H24.1573ZM22.8913 18.603V18.81C22.8913 19.194 22.6093 19.545 22.1983 19.686L22.3213 19.884C22.7833 19.722 23.0953 19.305 23.0953 18.81V18.603H22.8913ZM22.9363 18.603V18.81C22.9363 19.284 23.2543 19.671 23.7073 19.821L23.8303 19.623C23.4283 19.5 23.1403 19.179 23.1403 18.81V18.603H22.9363ZM25.6031 18.729C25.2071 18.729 24.9281 19.098 24.9281 19.674C24.9281 20.253 25.2071 20.622 25.6031 20.622C25.9961 20.622 26.2781 20.253 26.2781 19.674C26.2781 19.098 25.9961 18.729 25.6031 18.729ZM25.6031 18.954C25.8641 18.954 26.0411 19.236 26.0411 19.674C26.0411 20.115 25.8641 20.403 25.6031 20.403C25.3421 20.403 25.1651 20.115 25.1651 19.674C25.1651 19.236 25.3421 18.954 25.6031 18.954ZM26.8661 18.519V21.237H27.1121V18.519H26.8661ZM26.1971 19.554V19.758H26.9741V19.554H26.1971ZM29.4098 18.522V21.234H29.6588V18.522H29.4098ZM29.5988 19.635V19.845H30.1028V19.635H29.5988ZM27.5588 18.954V19.158H29.1578V18.954H27.5588ZM28.3688 19.383C27.9878 19.383 27.7088 19.641 27.7088 20.007C27.7088 20.373 27.9878 20.631 28.3688 20.631C28.7528 20.631 29.0288 20.373 29.0288 20.007C29.0288 19.641 28.7528 19.383 28.3688 19.383ZM28.3688 19.59C28.6148 19.59 28.7918 19.761 28.7918 20.007C28.7918 20.25 28.6148 20.424 28.3688 20.424C28.1228 20.424 27.9458 20.25 27.9458 20.007C27.9458 19.761 28.1228 19.59 28.3688 19.59ZM28.2398 18.555V19.047H28.4888V18.555H28.2398ZM30.5976 19.335V19.539H32.4396V19.335H30.5976ZM30.2646 19.902V20.106H32.7246V19.902H30.2646ZM30.5976 18.621V19.437H30.8436V18.621H30.5976ZM30.5796 20.964V21.168H32.4546V20.964H30.5796ZM30.5796 20.376V21.018H30.8256V20.376H30.5796ZM35.6693 18.522V20.358H35.9183V18.522H35.6693ZM35.0873 19.287V19.491H35.7203V19.287H35.0873ZM34.8173 18.735V18.834C34.8173 19.365 34.4213 19.773 33.7343 19.989L33.8393 20.187C34.6163 19.935 35.0783 19.437 35.0783 18.735H34.8173ZM33.8633 18.735V18.939H34.9943V18.735H33.8633ZM34.9193 20.124V20.247C34.9193 20.643 34.4963 20.943 34.0163 21.03L34.1153 21.228C34.6583 21.117 35.1323 20.766 35.1323 20.247V20.124H34.9193ZM34.9553 20.124V20.247C34.9553 20.763 35.4233 21.114 35.9633 21.222L36.0683 21.024C35.5853 20.937 35.1683 20.637 35.1683 20.247V20.124H34.9553ZM36.3831 19.812V20.019H38.8341V19.812H36.3831ZM36.6921 19.353V19.554H38.5491V19.353H36.6921ZM36.6921 18.63V19.449H36.9381V18.834H38.5281V18.63H36.6921ZM37.6041 20.253C37.0251 20.253 36.6741 20.43 36.6741 20.742C36.6741 21.054 37.0251 21.228 37.6041 21.228C38.1831 21.228 38.5341 21.054 38.5341 20.742C38.5341 20.43 38.1831 20.253 37.6041 20.253ZM37.6041 20.445C38.0301 20.445 38.2821 20.553 38.2821 20.742C38.2821 20.928 38.0301 21.033 37.6041 21.033C37.1811 21.033 36.9261 20.928 36.9261 20.742C36.9261 20.553 37.1811 20.445 37.6041 20.445ZM39.0768 19.812V20.019H41.5278V19.812H39.0768ZM39.3858 19.353V19.554H41.2428V19.353H39.3858ZM39.3858 18.63V19.449H39.6318V18.834H41.2218V18.63H39.3858ZM40.2978 20.253C39.7188 20.253 39.3678 20.43 39.3678 20.742C39.3678 21.054 39.7188 21.228 40.2978 21.228C40.8768 21.228 41.2278 21.054 41.2278 20.742C41.2278 20.43 40.8768 20.253 40.2978 20.253ZM40.2978 20.445C40.7238 20.445 40.9758 20.553 40.9758 20.742C40.9758 20.928 40.7238 21.033 40.2978 21.033C39.8748 21.033 39.6198 20.928 39.6198 20.742C39.6198 20.553 39.8748 20.445 40.2978 20.445ZM44.5145 19.602V19.812H45.0155V19.602H44.5145ZM44.3315 18.519V21.234H44.5835V18.519H44.3315ZM42.6035 18.786V20.466H42.8525V18.786H42.6035ZM42.6035 20.337V20.547H42.8195C43.2305 20.547 43.6475 20.52 44.1095 20.424L44.0795 20.217C43.6325 20.31 43.2215 20.337 42.8195 20.337H42.6035ZM46.2903 19.575V19.782H46.8033V19.575H46.2903ZM47.2563 18.522V21.234H47.4963V18.522H47.2563ZM46.7193 18.579V21.099H46.9563V18.579H46.7193ZM45.8013 18.747C45.4503 18.747 45.2253 19.11 45.2253 19.692C45.2253 20.274 45.4503 20.637 45.8013 20.637C46.1523 20.637 46.3803 20.274 46.3803 19.692C46.3803 19.11 46.1523 18.747 45.8013 18.747ZM45.8013 18.978C46.0173 18.978 46.1523 19.254 46.1523 19.692C46.1523 20.13 46.0173 20.406 45.8013 20.406C45.5883 20.406 45.4533 20.13 45.4533 19.692C45.4533 19.254 45.5883 18.978 45.8013 18.978ZM50.675 18.522V21.234H50.915V18.522H50.675ZM50.216 19.608V19.815H50.738V19.608H50.216ZM50.06 18.582V21.096H50.294V18.582H50.06ZM48.71 20.358V20.565H48.887C49.295 20.565 49.568 20.553 49.892 20.484L49.868 20.277C49.553 20.343 49.283 20.358 48.887 20.358H48.71ZM48.71 18.852V20.451H48.956V19.056H49.718V18.852H48.71ZM53.1618 18.525V20.559H53.4108V18.525H53.1618ZM53.3328 19.413V19.623H53.8128V19.413H53.3328ZM51.3138 18.852V19.053H52.9158V18.852H51.3138ZM52.1148 19.203C51.7278 19.203 51.4638 19.404 51.4638 19.71C51.4638 20.013 51.7278 20.214 52.1148 20.214C52.4988 20.214 52.7628 20.013 52.7628 19.71C52.7628 19.404 52.4988 19.203 52.1148 19.203ZM52.1148 19.398C52.3578 19.398 52.5258 19.521 52.5258 19.71C52.5258 19.896 52.3578 20.019 52.1148 20.019C51.8688 20.019 51.7008 19.896 51.7008 19.71C51.7008 19.521 51.8688 19.398 52.1148 19.398ZM51.9888 18.522V18.957H52.2378V18.522H51.9888ZM51.7218 20.97V21.174H53.5338V20.97H51.7218ZM51.7218 20.397V21.057H51.9708V20.397H51.7218ZM56.7095 18.522V20.358H56.9585V18.522H56.7095ZM56.1275 19.287V19.491H56.7605V19.287H56.1275ZM55.8575 18.735V18.834C55.8575 19.365 55.4615 19.773 54.7745 19.989L54.8795 20.187C55.6565 19.935 56.1185 19.437 56.1185 18.735H55.8575ZM54.9035 18.735V18.939H56.0345V18.735H54.9035ZM55.9595 20.124V20.247C55.9595 20.643 55.5365 20.943 55.0565 21.03L55.1555 21.228C55.6985 21.117 56.1725 20.766 56.1725 20.247V20.124H55.9595ZM55.9955 20.124V20.247C55.9955 20.763 56.4635 21.114 57.0035 21.222L57.1085 21.024C56.6255 20.937 56.2085 20.637 56.2085 20.247V20.124H55.9955ZM57.4233 19.653V19.857H59.8743V19.653H57.4233ZM57.7473 19.233V19.434H59.5833V19.233H57.7473ZM57.7473 18.609V19.395H57.9933V18.813H59.5533V18.609H57.7473ZM57.7173 20.091V20.286H59.3133V20.544H57.7233V21.072H57.9693V20.73H59.5593V20.091H57.7173ZM57.7233 21.006V21.204H59.6403V21.006H57.7233ZM61.341 18.567C60.741 18.567 60.387 18.735 60.387 19.038C60.387 19.341 60.741 19.509 61.341 19.509C61.938 19.509 62.295 19.341 62.295 19.038C62.295 18.735 61.938 18.567 61.341 18.567ZM61.341 18.756C61.782 18.756 62.037 18.858 62.037 19.038C62.037 19.218 61.782 19.32 61.341 19.32C60.897 19.32 60.642 19.218 60.642 19.038C60.642 18.858 60.897 18.756 61.341 18.756ZM60.114 19.689V19.89H62.565V19.689H60.114ZM60.411 20.121V20.313H62.007V20.553H60.417V21.063H60.663V20.733H62.253V20.121H60.411ZM60.417 21.009V21.204H62.334V21.009H60.417ZM65.3747 18.522V21.234H65.6237V18.522H65.3747ZM65.5637 19.635V19.845H66.0677V19.635H65.5637ZM63.5237 18.954V19.158H65.1227V18.954H63.5237ZM64.3337 19.383C63.9527 19.383 63.6737 19.641 63.6737 20.007C63.6737 20.373 63.9527 20.631 64.3337 20.631C64.7177 20.631 64.9937 20.373 64.9937 20.007C64.9937 19.641 64.7177 19.383 64.3337 19.383ZM64.3337 19.59C64.5797 19.59 64.7567 19.761 64.7567 20.007C64.7567 20.25 64.5797 20.424 64.3337 20.424C64.0877 20.424 63.9107 20.25 63.9107 20.007C63.9107 19.761 64.0877 19.59 64.3337 19.59ZM64.2047 18.555V19.047H64.4537V18.555H64.2047ZM68.2485 19.602V19.812H68.7495V19.602H68.2485ZM68.0655 18.519V21.234H68.3175V18.519H68.0655ZM66.3375 18.786V20.466H66.5865V18.786H66.3375ZM66.3375 20.337V20.547H66.5535C66.9645 20.547 67.3815 20.52 67.8435 20.424L67.8135 20.217C67.3665 20.31 66.9555 20.337 66.5535 20.337H66.3375ZM69.3253 20.256V20.457H70.9273V21.234H71.1793V20.256H69.3253ZM70.9273 18.522V20.112H71.1793V18.522H70.9273ZM69.3253 18.681V18.96C69.3253 19.233 69.2143 19.611 68.9023 19.8L69.0433 19.977C69.3883 19.77 69.5113 19.314 69.5113 18.96V18.681H69.3253ZM69.3853 18.681V18.96C69.3853 19.287 69.4693 19.782 69.8203 20.007L69.9463 19.818C69.6403 19.611 69.5653 19.212 69.5653 18.96V18.681H69.3853ZM70.0783 18.681V18.96C70.0783 19.227 70.0033 19.617 69.7003 19.818L69.8203 20.007C70.1773 19.785 70.2613 19.305 70.2613 18.96V18.681H70.0783ZM70.1323 18.681V18.96C70.1323 19.347 70.2553 19.779 70.6003 19.977L70.7383 19.8C70.4263 19.623 70.3153 19.263 70.3153 18.96V18.681H70.1323ZM74.202 18.522V19.902H74.451V18.522H74.202ZM74.343 19.104V19.311H74.85V19.104H74.343ZM72.729 20.031V20.229H74.208V20.508H72.735V21.102H72.981V20.697H74.451V20.031H72.729ZM72.735 20.997V21.198H74.55V20.997H72.735ZM73.095 18.618C72.693 18.618 72.396 18.867 72.396 19.221C72.396 19.578 72.693 19.827 73.095 19.827C73.503 19.827 73.797 19.578 73.797 19.221C73.797 18.867 73.503 18.618 73.095 18.618ZM73.095 18.822C73.362 18.822 73.557 18.987 73.557 19.221C73.557 19.458 73.362 19.623 73.095 19.623C72.834 19.623 72.639 19.458 72.639 19.221C72.639 18.987 72.834 18.822 73.095 18.822ZM75.7618 18.729C75.3628 18.729 75.0808 19.098 75.0808 19.674C75.0808 20.253 75.3628 20.622 75.7618 20.622C76.1608 20.622 76.4428 20.253 76.4428 19.674C76.4428 19.098 76.1608 18.729 75.7618 18.729ZM75.7618 18.954C76.0228 18.954 76.2058 19.236 76.2058 19.674C76.2058 20.115 76.0228 20.403 75.7618 20.403C75.4978 20.403 75.3178 20.115 75.3178 19.674C75.3178 19.236 75.4978 18.954 75.7618 18.954ZM76.8748 18.522V21.234H77.1268V18.522H76.8748ZM77.0668 19.605V19.815H77.5708V19.605H77.0668ZM79.5685 18.519V21.234H79.8205V18.519H79.5685ZM79.7515 19.62V19.827H80.2525V19.62H79.7515ZM78.8755 18.813V18.852C78.8755 19.569 78.5005 20.148 77.7505 20.529L77.8885 20.721C78.7645 20.28 79.1185 19.584 79.1185 18.813H78.8755ZM77.8765 18.813V19.017H79.0045V18.813H77.8765ZM81.7283 18.999V19.203H82.4873V18.999H81.7283ZM81.7283 19.578V19.785H82.4933V19.578H81.7283ZM80.5523 18.756V20.028H81.7913V18.756H80.5523ZM81.5453 18.957V19.827H80.7953V18.957H81.5453ZM82.4093 18.525V20.505H82.6583V18.525H82.4093ZM80.9153 20.97V21.174H82.7243V20.97H80.9153ZM80.9153 20.325V21.063H81.1643V20.325H80.9153ZM15.0654 24.729C14.6694 24.729 14.3904 25.098 14.3904 25.674C14.3904 26.253 14.6694 26.622 15.0654 26.622C15.4584 26.622 15.7404 26.253 15.7404 25.674C15.7404 25.098 15.4584 24.729 15.0654 24.729ZM15.0654 24.954C15.3264 24.954 15.5034 25.236 15.5034 25.674C15.5034 26.115 15.3264 26.403 15.0654 26.403C14.8044 26.403 14.6274 26.115 14.6274 25.674C14.6274 25.236 14.8044 24.954 15.0654 24.954ZM16.3284 24.519V27.237H16.5744V24.519H16.3284ZM15.6594 25.554V25.758H16.4364V25.554H15.6594ZM17.3362 25.746V25.953H19.2142V25.746H17.3362ZM17.0362 26.655V26.862H19.4932V26.655H17.0362ZM17.3362 24.759V25.839H17.5852V24.759H17.3362ZM21.5559 24.591V24.723C21.5559 25.086 21.0819 25.404 20.6019 25.476L20.7009 25.674C21.2499 25.578 21.7689 25.215 21.7689 24.723V24.591H21.5559ZM21.5949 24.591V24.723C21.5949 25.203 22.1169 25.575 22.6659 25.668L22.7589 25.473C22.2879 25.401 21.8079 25.077 21.8079 24.723V24.591H21.5949ZM20.4549 25.902V26.106H22.9119V25.902H20.4549ZM21.5769 26.028V26.652H21.8259V26.028H21.5769ZM20.7669 26.97V27.174H22.6389V26.97H20.7669ZM20.7669 26.391V27.036H21.0129V26.391H20.7669ZM25.0056 24.522V26.505H25.2546V24.522H25.0056ZM25.1766 25.344V25.551H25.6566V25.344H25.1766ZM24.2646 24.732V24.84C24.2646 25.362 23.8356 25.782 23.1516 25.992L23.2596 26.196C24.0366 25.947 24.5286 25.434 24.5286 24.732H24.2646ZM23.2626 24.732V24.936H24.3906V24.732H23.2626ZM23.5626 26.97V27.174H25.3746V26.97H23.5626ZM23.5626 26.304V27.051H23.8116V26.304H23.5626ZM28.6313 24.522V27.234H28.8713V24.522H28.6313ZM28.1753 25.626V25.83H28.6973V25.626H28.1753ZM28.0163 24.582V27.096H28.2503V24.582H28.0163ZM26.7023 24.849V26.415H26.9513V24.849H26.7023ZM26.7023 26.316V26.532H26.8763C27.1673 26.532 27.4793 26.517 27.8483 26.445L27.8213 26.229C27.4673 26.298 27.1553 26.316 26.8763 26.316H26.7023ZM31.1001 24.519V27.234H31.3521V24.519H31.1001ZM31.2831 25.62V25.827H31.7841V25.62H31.2831ZM30.4071 24.813V24.852C30.4071 25.569 30.0321 26.148 29.2821 26.529L29.4201 26.721C30.2961 26.28 30.6501 25.584 30.6501 24.813H30.4071ZM29.4081 24.813V25.017H30.5361V24.813H29.4081ZM34.7348 24.522V26.238H34.9718V24.522H34.7348ZM34.2938 25.257V25.464H34.8068V25.257H34.2938ZM34.1558 24.576V26.142H34.3898V24.576H34.1558ZM32.6738 24.846V25.044H34.0478V24.846H32.6738ZM33.3638 25.182C33.0218 25.182 32.7848 25.368 32.7848 25.647C32.7848 25.929 33.0218 26.112 33.3638 26.112C33.7028 26.112 33.9398 25.929 33.9398 25.647C33.9398 25.368 33.7028 25.182 33.3638 25.182ZM33.3638 25.368C33.5738 25.368 33.7178 25.479 33.7178 25.647C33.7178 25.818 33.5738 25.926 33.3638 25.926C33.1508 25.926 33.0068 25.818 33.0068 25.647C33.0068 25.479 33.1508 25.368 33.3638 25.368ZM33.2408 24.543V24.957H33.4838V24.543H33.2408ZM34.0838 26.286C33.5138 26.286 33.1778 26.454 33.1778 26.757C33.1778 27.057 33.5138 27.228 34.0838 27.228C34.6478 27.228 34.9868 27.057 34.9868 26.757C34.9868 26.454 34.6478 26.286 34.0838 26.286ZM34.0838 26.478C34.4948 26.478 34.7408 26.577 34.7408 26.757C34.7408 26.937 34.4948 27.039 34.0838 27.039C33.6668 27.039 33.4238 26.937 33.4238 26.757C33.4238 26.577 33.6668 26.478 34.0838 26.478ZM35.3796 25.92V26.124H37.8306V25.92H35.3796ZM36.4836 25.515V25.983H36.7296V25.515H36.4836ZM35.6526 26.388V26.592H37.2786V27.234H37.5276V26.388H35.6526ZM35.7066 24.585V25.599H37.5126V24.585H37.2636V24.891H35.9526V24.585H35.7066ZM35.9526 25.086H37.2636V25.401H35.9526V25.086ZM38.0703 24.984V25.188H39.4143V24.984H38.0703ZM38.7423 25.368C38.4063 25.368 38.1603 25.623 38.1603 25.989C38.1603 26.352 38.4063 26.607 38.7423 26.607C39.0813 26.607 39.3273 26.352 39.3273 25.989C39.3273 25.623 39.0813 25.368 38.7423 25.368ZM38.7423 25.581C38.9523 25.581 39.1053 25.749 39.1053 25.989C39.1053 26.229 38.9523 26.397 38.7423 26.397C38.5353 26.397 38.3853 26.229 38.3853 25.989C38.3853 25.749 38.5353 25.581 38.7423 25.581ZM40.1313 24.522V27.234H40.3713V24.522H40.1313ZM39.6993 25.662V25.869H40.2123V25.662H39.6993ZM39.5523 24.582V27.102H39.7863V24.582H39.5523ZM38.6223 24.6V25.11H38.8683V24.6H38.6223ZM41.4871 24.909V25.35C41.4871 25.818 41.1601 26.328 40.7671 26.514L40.9111 26.712C41.3431 26.499 41.6881 25.923 41.6881 25.35V24.909H41.4871ZM41.5351 24.909V25.35C41.5351 25.914 41.8831 26.442 42.3211 26.646L42.4621 26.448C42.0631 26.277 41.7361 25.809 41.7361 25.35V24.909H41.5351ZM40.8571 24.798V25.008H42.3721V24.798H40.8571ZM42.7381 24.522V27.234H42.9871V24.522H42.7381ZM45.4439 24.519V27.237H45.6929V24.519H45.4439ZM44.9099 25.14V25.344H45.5099V25.14H44.9099ZM43.5629 26.397V26.607H43.7639C44.1929 26.607 44.5409 26.592 44.9669 26.526L44.9429 26.319C44.5289 26.385 44.1839 26.397 43.7639 26.397H43.5629ZM43.5569 24.765V24.972H44.4959V25.533H43.5629V26.445H43.8089V25.737H44.7419V24.765H43.5569ZM44.8919 25.881V26.085H45.4919V25.881H44.8919ZM47.4566 24.999V25.203H48.2156V24.999H47.4566ZM47.4566 25.578V25.785H48.2216V25.578H47.4566ZM46.2806 24.756V26.028H47.5196V24.756H46.2806ZM47.2736 24.957V25.827H46.5236V24.957H47.2736ZM48.1376 24.525V26.505H48.3866V24.525H48.1376ZM46.6436 26.97V27.174H48.4526V26.97H46.6436ZM46.6436 26.325V27.063H46.8926V26.325H46.6436ZM49.5764 26.097V26.301H52.0364V26.097H49.5764ZM50.6744 26.22V27.234H50.9204V26.22H50.6744ZM49.8884 24.672V25.731H51.7184V24.672H49.8884ZM51.4754 24.873V25.53H50.1344V24.873H51.4754ZM54.2531 24.522V26.382H54.5021V24.522H54.2531ZM53.6051 25.263V25.467H54.3221V25.263H53.6051ZM53.0111 24.705C52.6091 24.705 52.3121 24.975 52.3121 25.362C52.3121 25.746 52.6091 26.019 53.0111 26.019C53.4101 26.019 53.7101 25.746 53.7101 25.362C53.7101 24.975 53.4101 24.705 53.0111 24.705ZM53.0111 24.918C53.2751 24.918 53.4701 25.101 53.4701 25.362C53.4701 25.62 53.2751 25.806 53.0111 25.806C52.7471 25.806 52.5521 25.62 52.5521 25.362C52.5521 25.101 52.7471 24.918 53.0111 24.918ZM53.5031 26.169V26.274C53.5031 26.643 53.0741 26.943 52.5941 27.024L52.6901 27.222C53.2421 27.123 53.7161 26.763 53.7161 26.274V26.169H53.5031ZM53.5451 26.169V26.274C53.5451 26.775 54.0221 27.12 54.5711 27.222L54.6701 27.024C54.1841 26.943 53.7581 26.652 53.7581 26.274V26.169H53.5451ZM56.9349 24.519V27.237H57.1839V24.519H56.9349ZM55.7529 24.729C55.3539 24.729 55.0659 25.098 55.0659 25.674C55.0659 26.253 55.3539 26.622 55.7529 26.622C56.1549 26.622 56.4429 26.253 56.4429 25.674C56.4429 25.098 56.1549 24.729 55.7529 24.729ZM55.7529 24.954C56.0199 24.954 56.2029 25.236 56.2029 25.674C56.2029 26.115 56.0199 26.403 55.7529 26.403C55.4889 26.403 55.3029 26.115 55.3029 25.674C55.3029 25.236 55.4889 24.954 55.7529 24.954ZM60.3626 24.522V25.926H60.6146V24.522H60.3626ZM58.8446 26.058V26.256H60.3656V26.526H58.8536V27.12H59.0966V26.712H60.6146V26.058H58.8446ZM58.8536 27.006V27.204H60.7136V27.006H58.8536ZM58.5086 24.705V24.903H59.9636V24.705H58.5086ZM58.4606 25.836C58.9376 25.833 59.5676 25.815 60.1076 25.734L60.0926 25.551C59.5646 25.617 58.9166 25.629 58.4336 25.629L58.4606 25.836ZM58.7756 24.795V25.719H59.0156V24.795H58.7756ZM59.4536 24.795V25.719H59.6966V24.795H59.4536ZM61.6824 25.917V26.73H61.9284V25.917H61.6824ZM62.6844 25.917V26.73H62.9334V25.917H62.6844ZM61.0824 26.682V26.889H63.5394V26.682H61.0824ZM62.3064 24.693C61.7304 24.693 61.3194 24.966 61.3194 25.392C61.3194 25.815 61.7304 26.088 62.3064 26.088C62.8794 26.088 63.2904 25.815 63.2904 25.392C63.2904 24.966 62.8794 24.693 62.3064 24.693ZM62.3064 24.891C62.7414 24.891 63.0504 25.089 63.0504 25.392C63.0504 25.692 62.7414 25.89 62.3064 25.89C61.8714 25.89 61.5594 25.692 61.5594 25.392C61.5594 25.089 61.8714 24.891 62.3064 24.891ZM65.6301 24.525V26.559H65.8791V24.525H65.6301ZM65.8011 25.413V25.623H66.2811V25.413H65.8011ZM63.7821 24.852V25.053H65.3841V24.852H63.7821ZM64.5831 25.203C64.1961 25.203 63.9321 25.404 63.9321 25.71C63.9321 26.013 64.1961 26.214 64.5831 26.214C64.9671 26.214 65.2311 26.013 65.2311 25.71C65.2311 25.404 64.9671 25.203 64.5831 25.203ZM64.5831 25.398C64.8261 25.398 64.9941 25.521 64.9941 25.71C64.9941 25.896 64.8261 26.019 64.5831 26.019C64.3371 26.019 64.1691 25.896 64.1691 25.71C64.1691 25.521 64.3371 25.398 64.5831 25.398ZM64.4571 24.522V24.957H64.7061V24.522H64.4571ZM64.1901 26.97V27.174H66.0021V26.97H64.1901ZM64.1901 26.397V27.057H64.4391V26.397H64.1901ZM67.1869 24.909V25.35C67.1869 25.818 66.8599 26.328 66.4669 26.514L66.6109 26.712C67.0429 26.499 67.3879 25.923 67.3879 25.35V24.909H67.1869ZM67.2349 24.909V25.35C67.2349 25.914 67.5829 26.442 68.0209 26.646L68.1619 26.448C67.7629 26.277 67.4359 25.809 67.4359 25.35V24.909H67.2349ZM66.5569 24.798V25.008H68.0719V24.798H66.5569ZM68.4379 24.522V27.234H68.6869V24.522H68.4379ZM22.9536 30.522V31.902H23.2026V30.522H22.9536ZM23.0946 31.104V31.311H23.6016V31.104H23.0946ZM21.4806 32.031V32.229H22.9596V32.508H21.4866V33.102H21.7326V32.697H23.2026V32.031H21.4806ZM21.4866 32.997V33.198H23.3016V32.997H21.4866ZM21.8466 30.618C21.4446 30.618 21.1476 30.867 21.1476 31.221C21.1476 31.578 21.4446 31.827 21.8466 31.827C22.2546 31.827 22.5486 31.578 22.5486 31.221C22.5486 30.867 22.2546 30.618 21.8466 30.618ZM21.8466 30.822C22.1136 30.822 22.3086 30.987 22.3086 31.221C22.3086 31.458 22.1136 31.623 21.8466 31.623C21.5856 31.623 21.3906 31.458 21.3906 31.221C21.3906 30.987 21.5856 30.822 21.8466 30.822ZM25.6163 30.618V30.768C25.6163 31.155 25.1393 31.479 24.6443 31.554L24.7433 31.755C25.3073 31.659 25.8353 31.287 25.8353 30.768V30.618H25.6163ZM25.6613 30.618V30.768C25.6613 31.281 26.1923 31.659 26.7503 31.755L26.8493 31.554C26.3603 31.479 25.8773 31.146 25.8773 30.768V30.618H25.6613ZM25.6163 32.202V33.234H25.8623V32.202H25.6163ZM24.5213 32.049V32.256H26.9723V32.049H24.5213ZM28.618 32.19V32.337C28.618 32.598 28.414 32.889 28.072 33.012L28.198 33.198C28.588 33.048 28.81 32.691 28.81 32.337V32.19H28.618ZM28.672 32.19V32.337C28.672 32.697 28.849 33.069 29.239 33.222L29.344 33.033C29.02 32.901 28.858 32.61 28.858 32.337V32.19H28.672ZM29.62 32.19V32.337C29.62 32.571 29.455 32.886 29.134 33.033L29.239 33.222C29.626 33.057 29.806 32.655 29.806 32.337V32.19H29.62ZM29.671 32.19V32.337C29.671 32.712 29.887 33.054 30.283 33.198L30.409 33.012C30.064 32.895 29.863 32.616 29.863 32.337V32.19H29.671ZM29.914 30.525V32.073H30.166V30.525H29.914ZM28.711 30.681C28.3 30.681 28.003 30.939 28.003 31.314C28.003 31.689 28.3 31.944 28.711 31.944C29.122 31.944 29.416 31.689 29.416 31.314C29.416 30.939 29.122 30.681 28.711 30.681ZM28.711 30.888C28.981 30.888 29.176 31.062 29.176 31.314C29.176 31.566 28.981 31.737 28.711 31.737C28.441 31.737 28.246 31.566 28.246 31.314C28.246 31.062 28.441 30.888 28.711 30.888ZM31.8607 30.567C31.2607 30.567 30.9067 30.735 30.9067 31.038C30.9067 31.341 31.2607 31.509 31.8607 31.509C32.4577 31.509 32.8147 31.341 32.8147 31.038C32.8147 30.735 32.4577 30.567 31.8607 30.567ZM31.8607 30.756C32.3017 30.756 32.5567 30.858 32.5567 31.038C32.5567 31.218 32.3017 31.32 31.8607 31.32C31.4167 31.32 31.1617 31.218 31.1617 31.038C31.1617 30.858 31.4167 30.756 31.8607 30.756ZM30.6337 31.689V31.89H33.0847V31.689H30.6337ZM30.9307 32.121V32.313H32.5267V32.553H30.9367V33.063H31.1827V32.733H32.7727V32.121H30.9307ZM30.9367 33.009V33.204H32.8537V33.009H30.9367ZM36.0384 30.522V33.234H36.2874V30.522H36.0384ZM35.4054 31.608V31.815H36.1494V31.608H35.4054ZM35.1684 30.813V30.855C35.1684 31.563 34.8444 32.139 34.0554 32.526L34.1934 32.721C35.0934 32.271 35.4144 31.587 35.4144 30.813H35.1684ZM34.1724 30.813V31.017H35.3004V30.813H34.1724ZM38.5882 30.519V33.237H38.8372V30.519H38.5882ZM38.7772 31.599V31.809H39.2812V31.599H38.7772ZM36.8602 32.376V32.583H37.0762C37.5952 32.583 37.9552 32.562 38.3782 32.487L38.3512 32.28C37.9402 32.358 37.5862 32.376 37.0762 32.376H36.8602ZM36.8542 30.774V30.978H37.8352V31.542H36.8602V32.46H37.1062V31.746H38.0812V30.774H36.8542ZM39.776 31.335V31.539H41.618V31.335H39.776ZM39.443 31.902V32.106H41.903V31.902H39.443ZM39.776 30.621V31.437H40.022V30.621H39.776ZM39.758 32.964V33.168H41.633V32.964H39.758ZM39.758 32.376V33.018H40.004V32.376H39.758ZM44.2037 30.522V33.234H44.4437V30.522H44.2037ZM43.0277 31.629V31.83H43.7117V31.629H43.0277ZM43.6397 30.591V33.096H43.8737V30.591H43.6397ZM43.0607 30.864V30.909C43.0607 31.548 42.7757 32.088 42.1367 32.472L42.2837 32.649C43.0157 32.214 43.3007 31.575 43.3007 30.864H43.0607ZM42.2567 30.864V31.068H43.1537V30.864H42.2567ZM47.6225 30.522V33.234H47.8625V30.522H47.6225ZM46.6355 31.494V31.701H47.1545V31.494H46.6355ZM47.0795 30.585V33.096H47.3135V30.585H47.0795ZM46.1135 30.942V31.287C46.1135 31.785 45.9035 32.28 45.5255 32.508L45.6785 32.694C46.0775 32.442 46.3055 31.881 46.3055 31.287V30.942H46.1135ZM46.1645 30.942V31.287C46.1645 31.854 46.3835 32.388 46.7795 32.628L46.9325 32.445C46.5605 32.229 46.3565 31.758 46.3565 31.287V30.942H46.1645ZM45.6005 30.837V31.044H46.8395V30.837H45.6005ZM50.9632 30.522V31.905H51.2122V30.522H50.9632ZM50.1052 30.654V30.777C50.1052 31.245 49.7272 31.602 49.0252 31.764L49.1122 31.968C49.9042 31.776 50.3752 31.338 50.3752 30.654H50.1052ZM49.1662 30.654V30.858H50.2192V30.654H49.1662ZM50.2792 30.912V31.11H51.0052V30.912H50.2792ZM50.2552 31.431V31.626H50.9902V31.431H50.2552ZM49.4662 32.031V32.232H50.9662V32.505H49.4752V33.129H49.7212V32.697H51.2122V32.031H49.4662ZM49.4752 33.009V33.207H51.3022V33.009H49.4752ZM51.6739 32.07V32.274H54.1339V32.07H51.6739ZM51.9979 33.003V33.207H53.8759V33.003H51.9979ZM51.9979 32.454V33.063H52.2469V32.454H51.9979ZM52.7779 31.68V32.157H53.0269V31.68H52.7779ZM51.9859 30.609V30.804H53.5729V31.098H51.9919V31.647H52.2379V31.281H53.8159V30.609H51.9859ZM51.9919 31.581V31.776H53.8759V31.581H51.9919ZM56.3417 30.522V31.977H56.5937V30.522H56.3417ZM54.8447 32.112V33.198H56.5937V32.112H56.3477V32.442H55.0907V32.112H54.8447ZM55.0907 32.64H56.3477V32.997H55.0907V32.64ZM55.1387 30.651C54.7277 30.651 54.4307 30.906 54.4307 31.275C54.4307 31.647 54.7277 31.902 55.1387 31.902C55.5497 31.902 55.8437 31.647 55.8437 31.275C55.8437 30.906 55.5497 30.651 55.1387 30.651ZM55.1387 30.858C55.4087 30.858 55.6037 31.029 55.6037 31.275C55.6037 31.521 55.4087 31.692 55.1387 31.692C54.8687 31.692 54.6737 31.521 54.6737 31.275C54.6737 31.029 54.8687 30.858 55.1387 30.858ZM59.0355 30.522V33.234H59.2845V30.522H59.0355ZM57.2355 30.786V32.466H57.4815V30.786H57.2355ZM57.2355 32.319V32.535H57.4575C57.8865 32.535 58.3155 32.502 58.7865 32.406L58.7565 32.193C58.2975 32.289 57.8685 32.319 57.4575 32.319H57.2355ZM61.5912 30.519V33.237H61.8432V30.519H61.5912ZM61.7832 31.59V31.8H62.2872V31.59H61.7832ZM59.8722 32.352V32.562H60.0852C60.5952 32.562 60.9522 32.547 61.3692 32.469L61.3422 32.259C60.9372 32.334 60.5862 32.352 60.0852 32.352H59.8722ZM59.8722 30.783V32.445H60.1182V30.987H61.1322V30.783H59.8722ZM62.726 33.0202C62.6678 33.0202 62.6177 32.9996 62.5758 32.9585C62.5339 32.9165 62.5129 32.8661 62.5129 32.8072C62.5129 32.7489 62.5339 32.6992 62.5758 32.658C62.6177 32.6161 62.6678 32.5952 62.726 32.5952C62.7842 32.5952 62.8343 32.6161 62.8762 32.658C62.9181 32.6992 62.9391 32.7489 62.9391 32.8072C62.9391 32.8462 62.9291 32.8821 62.9092 32.9148C62.8901 32.9467 62.8645 32.9723 62.8325 32.9915C62.8006 33.0107 62.7651 33.0202 62.726 33.0202Z" fill="black"/>
</svg>
